<svg width="50" height="50" viewBox="0 0 50 50" fill="none" xmlns="http://www.w3.org/2000/svg">
<path d="M24.9763 2.00001C22.0106 2.00465 19.1129 2.88157 16.6492 4.51995C14.1856 6.15832 12.2667 8.48462 11.135 11.2049C10.0033 13.9251 9.70967 16.9172 10.2911 19.803C10.8726 22.6888 12.303 25.3388 14.4018 27.4181C16.5005 29.4975 19.1733 30.9128 22.0823 31.4852C24.9914 32.0576 28.0062 31.7615 30.7457 30.6342C33.4852 29.5069 35.8265 27.5991 37.4737 25.1518C39.1209 22.7046 40 19.8277 40 16.8848C39.9986 14.9285 39.609 12.9916 38.8532 11.1848C38.0974 9.37794 36.9903 7.73655 35.5952 6.35433C34.2001 4.97212 32.5443 3.87615 30.7223 3.12903C28.9002 2.38191 26.9478 1.99826 24.9763 2.00001ZM24.9763 7.76214C26.0289 7.76355 27.0574 8.07458 27.9318 8.6559C28.8063 9.23722 29.4874 10.0627 29.8892 11.0281C30.291 11.9935 30.3953 13.0554 30.189 14.0796C29.9827 15.1038 29.4751 16.0443 28.7302 16.7823C27.9854 17.5203 27.0368 18.0226 26.0043 18.2257C24.9719 18.4288 23.9019 18.3237 22.9297 17.9235C21.9575 17.5233 21.1266 16.8461 20.5421 15.9775C19.9577 15.1089 19.6458 14.0878 19.646 13.0433C19.6471 11.6415 20.2093 10.2975 21.2089 9.30691C22.2085 8.31634 23.5636 7.76133 24.9763 7.76214ZM24.9763 28.409C23.2858 28.4087 21.6156 28.0422 20.0825 27.3351C18.5494 26.6281 17.1903 25.5975 16.1 24.3154C16.6715 23.2348 17.5293 22.3294 18.581 21.6969C19.6328 21.0644 20.8385 20.7288 22.0683 20.7262C22.2142 20.7272 22.3591 20.7496 22.4985 20.7925C23.2974 21.0589 24.1336 21.1988 24.9763 21.2071C25.8191 21.1993 26.6554 21.0593 27.4542 20.7925C27.5935 20.7496 27.7385 20.7272 27.8843 20.7262C29.1141 20.7288 30.3199 21.0644 31.3716 21.6969C32.4234 22.3294 33.2812 23.2348 33.8526 24.3154C32.7623 25.5973 31.4031 26.6277 29.87 27.3345C28.3369 28.0414 26.6668 28.4078 24.9763 28.408V28.409Z" fill="#A1A1A1"/>
<path d="M2.9011 45.959H1.79315L4.99769 37.2317H6.0886L9.29315 45.959H8.18519L5.57724 38.6124H5.50906L2.9011 45.959ZM3.31019 42.5499H7.7761V43.4874H3.31019V42.5499ZM13.1752 46.0953C12.5616 46.0953 12.0332 45.9505 11.59 45.6607C11.1468 45.3709 10.8059 44.9718 10.5673 44.4632C10.3287 43.9547 10.2093 43.3738 10.2093 42.7203C10.2093 42.0556 10.3315 41.4689 10.5758 40.9604C10.823 40.449 11.1667 40.0499 11.6071 39.763C12.0502 39.4732 12.5673 39.3283 13.1582 39.3283C13.6184 39.3283 14.0332 39.4135 14.4025 39.584C14.7718 39.7544 15.0744 39.9931 15.3102 40.2999C15.546 40.6067 15.6923 40.9647 15.7491 41.3738H14.7434C14.6667 41.0755 14.4963 40.8113 14.2321 40.5811C13.9707 40.3482 13.6184 40.2317 13.1752 40.2317C12.7832 40.2317 12.4395 40.334 12.144 40.5385C11.8514 40.7402 11.6227 41.0257 11.4579 41.3951C11.296 41.7615 11.215 42.1919 11.215 42.6863C11.215 43.1919 11.2946 43.6323 11.4537 44.0073C11.6156 44.3823 11.8429 44.6735 12.1355 44.8809C12.4309 45.0882 12.7775 45.1919 13.1752 45.1919C13.4366 45.1919 13.6738 45.1465 13.8869 45.0556C14.1 44.9647 14.2804 44.834 14.4281 44.6635C14.5758 44.4931 14.6809 44.2885 14.7434 44.0499H15.7491C15.6923 44.4363 15.5517 44.7843 15.3272 45.0939C15.1056 45.4007 14.8116 45.6451 14.4451 45.8269C14.0815 46.0059 13.6582 46.0953 13.1752 46.0953ZM19.8784 46.0953C19.2647 46.0953 18.7363 45.9505 18.2931 45.6607C17.85 45.3709 17.5091 44.9718 17.2704 44.4632C17.0318 43.9547 16.9125 43.3738 16.9125 42.7203C16.9125 42.0556 17.0346 41.4689 17.2789 40.9604C17.5261 40.449 17.8699 40.0499 18.3102 39.763C18.7534 39.4732 19.2704 39.3283 19.8613 39.3283C20.3216 39.3283 20.7363 39.4135 21.1056 39.584C21.475 39.7544 21.7775 39.9931 22.0133 40.2999C22.2491 40.6067 22.3954 40.9647 22.4522 41.3738H21.4466C21.3699 41.0755 21.1994 40.8113 20.9352 40.5811C20.6738 40.3482 20.3216 40.2317 19.8784 40.2317C19.4863 40.2317 19.1426 40.334 18.8471 40.5385C18.5545 40.7402 18.3258 41.0257 18.161 41.3951C17.9991 41.7615 17.9181 42.1919 17.9181 42.6863C17.9181 43.1919 17.9977 43.6323 18.1568 44.0073C18.3187 44.3823 18.546 44.6735 18.8386 44.8809C19.1341 45.0882 19.4806 45.1919 19.8784 45.1919C20.1397 45.1919 20.377 45.1465 20.59 45.0556C20.8031 44.9647 20.9835 44.834 21.1312 44.6635C21.2789 44.4931 21.3841 44.2885 21.4466 44.0499H22.4522C22.3954 44.4363 22.2548 44.7843 22.0304 45.0939C21.8088 45.4007 21.5147 45.6451 21.1483 45.8269C20.7846 46.0059 20.3613 46.0953 19.8784 46.0953ZM26.5815 46.0953C25.9906 46.0953 25.4721 45.9547 25.0261 45.6735C24.5829 45.3922 24.2363 44.9988 23.9863 44.4931C23.7392 43.9874 23.6156 43.3965 23.6156 42.7203C23.6156 42.0385 23.7392 41.4434 23.9863 40.9348C24.2363 40.4263 24.5829 40.0314 25.0261 39.7502C25.4721 39.4689 25.9906 39.3283 26.5815 39.3283C27.1724 39.3283 27.6895 39.4689 28.1326 39.7502C28.5787 40.0314 28.9252 40.4263 29.1724 40.9348C29.4224 41.4434 29.5474 42.0385 29.5474 42.7203C29.5474 43.3965 29.4224 43.9874 29.1724 44.4931C28.9252 44.9988 28.5787 45.3922 28.1326 45.6735C27.6895 45.9547 27.1724 46.0953 26.5815 46.0953ZM26.5815 45.1919C27.0304 45.1919 27.3997 45.0769 27.6895 44.8468C27.9792 44.6167 28.1937 44.3141 28.3329 43.9391C28.4721 43.5641 28.5417 43.1578 28.5417 42.7203C28.5417 42.2828 28.4721 41.8752 28.3329 41.4973C28.1937 41.1195 27.9792 40.8141 27.6895 40.5811C27.3997 40.3482 27.0304 40.2317 26.5815 40.2317C26.1326 40.2317 25.7633 40.3482 25.4735 40.5811C25.1838 40.8141 24.9693 41.1195 24.8301 41.4973C24.6909 41.8752 24.6213 42.2828 24.6213 42.7203C24.6213 43.1578 24.6909 43.5641 24.8301 43.9391C24.9693 44.3141 25.1838 44.6167 25.4735 44.8468C25.7633 45.0769 26.1326 45.1919 26.5815 45.1919ZM35.2076 43.2828V39.4135H36.2132V45.959H35.2076V44.851H35.1394C34.986 45.1834 34.7473 45.4661 34.4235 45.699C34.0996 45.9292 33.6905 46.0442 33.1962 46.0442C32.7871 46.0442 32.4235 45.9547 32.1053 45.7757C31.7871 45.5939 31.5371 45.3212 31.3553 44.9576C31.1735 44.5911 31.0826 44.1294 31.0826 43.5726V39.4135H32.0882V43.5044C32.0882 43.9817 32.2218 44.3624 32.4888 44.6465C32.7587 44.9306 33.1025 45.0726 33.5201 45.0726C33.7701 45.0726 34.0243 45.0087 34.2828 44.8809C34.5442 44.753 34.763 44.557 34.9391 44.2928C35.1181 44.0286 35.2076 43.6919 35.2076 43.2828ZM39.0609 42.0215V45.959H38.0552V39.4135H39.0268V40.4363H39.112C39.2654 40.1039 39.4984 39.8368 39.8109 39.6351C40.1234 39.4306 40.5268 39.3283 41.0211 39.3283C41.4643 39.3283 41.8521 39.4192 42.1845 39.601C42.5169 39.78 42.7754 40.0527 42.96 40.4192C43.1447 40.7828 43.237 41.2431 43.237 41.7999V45.959H42.2314V41.8681C42.2314 41.3539 42.0978 40.9533 41.8308 40.6664C41.5637 40.3766 41.1973 40.2317 40.7314 40.2317C40.4103 40.2317 40.1234 40.3013 39.8706 40.4405C39.6206 40.5797 39.4231 40.7828 39.2782 41.0499C39.1333 41.3169 39.0609 41.6408 39.0609 42.0215ZM47.9213 39.4135V40.2658H44.5293V39.4135H47.9213ZM45.5179 37.8453H46.5236V44.084C46.5236 44.3681 46.5648 44.5811 46.6472 44.7232C46.7324 44.8624 46.8404 44.9561 46.9711 45.0044C47.1046 45.0499 47.2452 45.0726 47.3929 45.0726C47.5037 45.0726 47.5946 45.0669 47.6657 45.0556C47.7367 45.0414 47.7935 45.03 47.8361 45.0215L48.0407 45.9249C47.9725 45.9505 47.8773 45.976 47.7551 46.0016C47.633 46.03 47.4782 46.0442 47.2907 46.0442C47.0066 46.0442 46.7282 45.9831 46.4554 45.861C46.1855 45.7388 45.9611 45.5527 45.7821 45.3027C45.606 45.0527 45.5179 44.7374 45.5179 44.3567V37.8453Z" fill="#A1A1A1"/>
</svg>
