<svg width="27" height="26" viewBox="0 0 27 26" fill="none" xmlns="http://www.w3.org/2000/svg">
<rect width="26.0264" height="26" rx="3" fill="#AD172A"/>
<path d="M11.6746 20.9971C10.0907 20.9971 8.50672 20.9927 6.92278 21.0002C6.5639 21.0021 6.24198 20.905 5.94824 20.7146C5.39458 20.3551 5.07516 19.8459 5.01378 19.1839C5.00438 19.0799 5 18.976 5 18.8714C5 15.8081 5 12.7442 5 9.68087C5 8.71635 5.70523 7.87208 6.65722 7.70361C6.80002 7.67855 6.9472 7.66415 7.09251 7.66352C8.82238 7.66039 10.5523 7.66102 12.2821 7.66164C12.6504 7.66164 12.8965 7.83826 12.9861 8.16269C13.0894 8.53535 12.842 8.92491 12.46 8.98817C12.3936 8.99882 12.3253 9.00258 12.2577 9.00258C10.5328 9.00258 8.80797 9.00258 7.08311 9.00258C6.9353 9.00258 6.79062 9.0126 6.66035 9.09214C6.43613 9.2293 6.33091 9.43348 6.33091 9.6934C6.33154 10.2834 6.3353 10.8727 6.3353 11.4627C6.3353 13.9623 6.3353 16.4626 6.33404 18.9622C6.33404 19.1977 6.40419 19.3968 6.59146 19.5478C6.68979 19.6267 6.80127 19.6762 6.92716 19.6818C7.0756 19.6887 7.22466 19.6875 7.37309 19.6875C10.3424 19.6881 13.3118 19.6881 16.2811 19.69C16.4628 19.69 16.635 19.6724 16.7803 19.5484C16.9406 19.4119 17.0246 19.2415 17.0246 19.0292C17.0246 17.2599 17.0246 15.4912 17.0246 13.7218C17.0246 13.3692 17.2344 13.0936 17.5507 13.0273C17.9565 12.9421 18.326 13.2283 18.353 13.6511C18.3598 13.76 18.3605 13.8703 18.3605 13.9799C18.3605 15.6239 18.3605 17.268 18.3617 18.9115C18.3617 19.3442 18.2678 19.7495 18.031 20.1152C17.711 20.6106 17.25 20.8906 16.6757 20.9939C16.64 21.0002 16.603 20.9971 16.5661 20.9971C14.9352 20.9971 13.3043 20.9971 11.6733 20.9971H11.6746Z" fill="white"/>
<path d="M16.5384 7.12598C17.3276 7.91638 18.1105 8.6999 18.8996 9.48968C18.8746 9.51661 18.842 9.55293 18.8076 9.58675C17.1435 11.2509 15.4781 12.9131 13.8177 14.581C13.6405 14.7588 13.447 14.8628 13.1989 14.9079C12.525 15.0294 11.8549 15.1728 11.1828 15.3056C11.1196 15.3181 11.0526 15.3294 10.9893 15.3225C10.797 15.3006 10.6718 15.1265 10.71 14.9342C10.854 14.2008 11.0062 13.4686 11.1434 12.734C11.1797 12.5386 11.268 12.392 11.4071 12.2542C13.0724 10.5951 14.734 8.93226 16.3963 7.27065C16.4439 7.22305 16.4908 7.1742 16.5391 7.12598H16.5384Z" fill="white"/>
<path d="M17.25 6.38695C17.312 6.33497 17.3715 6.29238 17.4235 6.24102C17.6703 5.99739 17.9126 5.74874 18.1613 5.50699C18.5032 5.17442 18.9129 4.99153 19.3926 5.0003C20.3609 5.01846 20.954 5.7738 21.0198 6.51598C21.0686 7.06337 20.8669 7.51619 20.4918 7.8995C20.22 8.17695 19.94 8.44627 19.6663 8.72184C19.6225 8.76569 19.6031 8.74251 19.573 8.71245C19.1602 8.29908 18.7475 7.88572 18.3341 7.47298C17.9966 7.1354 17.6584 6.79907 17.3208 6.46149C17.3045 6.4452 17.2888 6.42767 17.25 6.3857V6.38695Z" fill="white"/>
</svg>
