<svg width="26" height="14" viewBox="0 0 26 14" fill="none" xmlns="http://www.w3.org/2000/svg">
<path d="M23.4 0.131836H2.59997C2.08806 0.133418 1.59756 0.337476 1.23559 0.699454C0.873609 1.06143 0.669551 1.55192 0.667969 2.06384V11.8528C0.669551 12.3647 0.873609 12.8552 1.23559 13.2172C1.59756 13.5792 2.08806 13.7833 2.59997 13.7848H23.4C23.9119 13.7833 24.4024 13.5792 24.7644 13.2172C25.1263 12.8552 25.3304 12.3647 25.332 11.8528V2.06384C25.3304 1.55192 25.1263 1.06143 24.7644 0.699454C24.4024 0.337476 23.9119 0.133418 23.4 0.131836ZM5.18197 12.0238H3.19997C2.99549 12.0238 2.79938 11.9426 2.65479 11.798C2.5102 11.6534 2.42897 11.4573 2.42897 11.2528C2.42897 11.0484 2.5102 10.8522 2.65479 10.7077C2.79938 10.5631 2.99549 10.4818 3.19997 10.4818H5.18197C5.38645 10.4818 5.58256 10.5631 5.72715 10.7077C5.87174 10.8522 5.95297 11.0484 5.95297 11.2528C5.95297 11.4573 5.87174 11.6534 5.72715 11.798C5.58256 11.9426 5.38645 12.0238 5.18197 12.0238ZM5.18197 3.43584H3.19997C2.99549 3.43584 2.79938 3.35461 2.65479 3.21002C2.5102 3.06542 2.42897 2.86932 2.42897 2.66484C2.42897 2.46035 2.5102 2.26425 2.65479 2.11966C2.79938 1.97507 2.99549 1.89384 3.19997 1.89384H5.18197C5.38645 1.89384 5.58256 1.97507 5.72715 2.11966C5.87174 2.26425 5.95297 2.46035 5.95297 2.66484C5.95297 2.86932 5.87174 3.06542 5.72715 3.21002C5.58256 3.35461 5.38645 3.43584 5.18197 3.43584ZM13 11.3638C12.1297 11.3638 11.279 11.1058 10.5555 10.6223C9.83188 10.1388 9.26792 9.45164 8.9349 8.64764C8.60187 7.84365 8.51474 6.95895 8.68451 6.10544C8.85429 5.25192 9.27335 4.46792 9.8887 3.85257C10.504 3.23721 11.2881 2.81816 12.1416 2.64838C12.9951 2.47861 13.8798 2.56574 14.6838 2.89877C15.4878 3.23179 16.175 3.79575 16.6584 4.51933C17.1419 5.2429 17.4 6.0936 17.4 6.96384C17.3971 8.1298 16.9325 9.24717 16.108 10.0715C15.2834 10.8959 14.1659 11.3612 13 11.3638ZM22.8 12.0248H20.818C20.6135 12.0248 20.4174 11.9436 20.2728 11.799C20.1282 11.6544 20.047 11.4583 20.047 11.2538C20.047 11.0494 20.1282 10.8532 20.2728 10.7087C20.4174 10.5641 20.6135 10.4828 20.818 10.4828H22.8C23.0044 10.4828 23.2006 10.5641 23.3451 10.7087C23.4897 10.8532 23.571 11.0494 23.571 11.2538C23.571 11.4583 23.4897 11.6544 23.3451 11.799C23.2006 11.9436 23.0044 12.0248 22.8 12.0248ZM22.8 3.43684H20.818C20.6135 3.43684 20.4174 3.35561 20.2728 3.21102C20.1282 3.06643 20.047 2.87032 20.047 2.66584C20.047 2.46135 20.1282 2.26525 20.2728 2.12066C20.4174 1.97607 20.6135 1.89484 20.818 1.89484H22.8C23.0044 1.89484 23.2006 1.97607 23.3451 2.12066C23.4897 2.26525 23.571 2.46135 23.571 2.66584C23.571 2.87032 23.4897 3.06643 23.3451 3.21102C23.2006 3.35561 23.0044 3.43684 22.8 3.43684Z" fill="white"/>
<path d="M15.918 7.06351C15.918 7.64063 15.7469 8.2048 15.4263 8.68466C15.1056 9.16452 14.6499 9.53853 14.1167 9.75939C13.5835 9.98024 12.9968 10.038 12.4308 9.92544C11.8647 9.81285 11.3448 9.53493 10.9367 9.12685C10.5286 8.71876 10.2507 8.19882 10.1381 7.63278C10.0255 7.06674 10.0833 6.48003 10.3042 5.94684C10.525 5.41364 10.899 4.95791 11.3789 4.63728C11.8587 4.31665 12.4229 4.14551 13 4.14551C13.7739 4.14551 14.5161 4.45294 15.0634 5.00017C15.6106 5.5474 15.918 6.28961 15.918 7.06351Z" fill="white"/>
</svg>
