<svg width="29" height="27" viewBox="0 0 29 27" fill="none" xmlns="http://www.w3.org/2000/svg">
<path d="M22.5824 8.28788L17.0334 16.7739C17.4794 17.3168 17.7224 17.9982 17.7204 18.7009C17.7204 19.5107 17.3987 20.2874 16.826 20.86C16.2534 21.4327 15.4767 21.7544 14.6669 21.7544C13.857 21.7544 13.0804 21.4327 12.5077 20.86C11.9351 20.2874 11.6134 19.5107 11.6134 18.7009C11.6143 18.5111 11.6314 18.3218 11.6644 18.1349L8.00238 16.0079C7.43416 16.5567 6.67435 16.8624 5.88438 16.8599C5.3589 16.8591 4.84242 16.7234 4.38438 16.4659L0.484375 20.1169V23.7559C0.486223 24.4756 0.772965 25.1654 1.28191 25.6743C1.79086 26.1833 2.48062 26.47 3.20038 26.4719H26.2714C26.9911 26.47 27.6809 26.1833 28.1898 25.6743C28.6988 25.1654 28.9855 24.4756 28.9874 23.7559V10.2289L25.2594 7.75488C24.8852 8.0458 24.4483 8.24552 23.9835 8.33821C23.5186 8.43091 23.0386 8.41402 22.5814 8.28888L22.5824 8.28788Z" fill="white"/>
<path d="M5.8904 10.7501C6.70002 10.7504 7.47641 11.0721 8.0489 11.6446C8.62139 12.2171 8.94313 12.9935 8.9434 13.8031C8.9434 13.9371 8.9304 14.0701 8.9184 14.1971L12.7414 16.3341C13.2863 15.8868 13.9704 15.6438 14.6754 15.6471C14.8979 15.6473 15.1198 15.6708 15.3374 15.7171L20.8974 7.10409C20.5288 6.58881 20.3315 5.97066 20.3334 5.33709C20.3334 4.9361 20.4124 4.53904 20.5658 4.16857C20.7193 3.7981 20.9442 3.46149 21.2277 3.17794C21.5113 2.8944 21.8479 2.66948 22.2184 2.51603C22.5888 2.36258 22.9859 2.28359 23.3869 2.28359C23.7879 2.28359 24.185 2.36258 24.5554 2.51603C24.9259 2.66948 25.2625 2.8944 25.546 3.17794C25.8296 3.46149 26.0545 3.7981 26.208 4.16857C26.3614 4.53904 26.4404 4.9361 26.4404 5.33709C26.439 5.57907 26.4112 5.82017 26.3574 6.05609L28.9844 7.81209V2.71209C28.9825 1.99233 28.6958 1.30258 28.1869 0.793633C27.6779 0.284684 26.9882 -0.00205833 26.2684 -0.00390625H3.1994C2.47895 -0.00205462 1.78859 0.285238 1.27953 0.79505C0.770466 1.30486 0.48419 1.99564 0.483398 2.71609V17.3021L3.0274 14.8661C2.85589 14.4043 2.79866 13.9079 2.86059 13.4192C2.92252 12.9306 3.10177 12.4641 3.38305 12.0598C3.66433 11.6554 4.03928 11.3251 4.47589 11.097C4.9125 10.869 5.39781 10.7499 5.8904 10.7501Z" fill="white"/>
</svg>
