<svg width="29" height="27" viewBox="0 0 29 27" fill="none" xmlns="http://www.w3.org/2000/svg">
<path d="M22.5824 8.46634L17.0334 17.1154C17.4794 17.6688 17.7224 18.3633 17.7204 19.0794C17.7204 19.9048 17.3987 20.6964 16.826 21.2801C16.2534 21.8637 15.4767 22.1916 14.6669 22.1916C13.857 22.1916 13.0804 21.8637 12.5077 21.2801C11.9351 20.6964 11.6134 19.9048 11.6134 19.0794C11.6143 18.886 11.6314 18.693 11.6644 18.5026L8.00238 16.3347C7.43416 16.8941 6.67435 17.2056 5.88438 17.2031C5.3589 17.2022 4.84242 17.064 4.38438 16.8015L0.484375 20.5226V24.2316C0.486223 24.9652 0.772965 25.6682 1.28191 26.1869C1.79086 26.7056 2.48062 26.9979 3.20038 26.9998H26.2714C26.9911 26.9979 27.6809 26.7056 28.1898 26.1869C28.6988 25.6682 28.9855 24.9652 28.9874 24.2316V10.4446L25.2594 7.9231C24.8852 8.2196 24.4483 8.42316 23.9835 8.51764C23.5186 8.61211 23.0386 8.59489 22.5814 8.46736L22.5824 8.46634Z" fill="#AD172A"/>
<path d="M5.8904 10.9758C6.70002 10.9761 7.47641 11.304 8.0489 11.8875C8.62139 12.471 8.94313 13.2623 8.9434 14.0875C8.9434 14.224 8.9304 14.3596 8.9184 14.489L12.7414 16.6671C13.2863 16.2112 13.9704 15.9635 14.6754 15.9669C14.8979 15.9671 15.1198 15.9911 15.3374 16.0382L20.8974 7.25973C20.5288 6.73454 20.3315 6.10451 20.3334 5.45877C20.3334 5.05007 20.4124 4.64538 20.5658 4.26779C20.7193 3.8902 20.9442 3.54712 21.2277 3.25813C21.5113 2.96914 21.8479 2.7399 22.2184 2.58349C22.5888 2.42709 22.9859 2.34659 23.3869 2.34659C23.7879 2.34659 24.185 2.42709 24.5554 2.58349C24.9259 2.7399 25.2625 2.96914 25.546 3.25813C25.8296 3.54712 26.0545 3.8902 26.208 4.26779C26.3614 4.64538 26.4404 5.05007 26.4404 5.45877C26.439 5.7054 26.4112 5.95113 26.3574 6.19159L28.9844 7.98133V2.78333C28.9825 2.04974 28.6958 1.34673 28.1869 0.828001C27.6779 0.309272 26.9882 0.0170201 26.2684 0.0151367H3.1994C2.47895 0.0170239 1.78859 0.309837 1.27953 0.829446C0.770466 1.34906 0.48419 2.05311 0.483398 2.7874V17.6537L3.0274 15.1709C2.85589 14.7002 2.79866 14.1943 2.86059 13.6962C2.92252 13.1982 3.10177 12.7228 3.38305 12.3106C3.66433 11.8985 4.03928 11.5618 4.47589 11.3294C4.9125 11.0969 5.39781 10.9756 5.8904 10.9758Z" fill="#1568A8"/>
</svg>
