<svg width="8" height="15" viewBox="0 0 8 15" fill="none" xmlns="http://www.w3.org/2000/svg">
<path d="M5.28553 10.3898V0.689781C5.28633 0.587578 5.24657 0.48923 5.17496 0.416307C5.10334 0.343383 5.00573 0.301837 4.90353 0.300781H3.10353C3.05284 0.300781 3.00265 0.310765 2.95582 0.330164C2.90899 0.349562 2.86643 0.377995 2.83059 0.413838C2.79475 0.449682 2.76631 0.492234 2.74692 0.539065C2.72752 0.585897 2.71753 0.636091 2.71753 0.686781V10.3868H1.23453C1.08189 10.3867 0.932645 10.4318 0.805706 10.5166C0.678766 10.6014 0.579847 10.7219 0.521481 10.863C0.463114 11.004 0.447927 11.1592 0.477844 11.3089C0.507762 11.4586 0.581436 11.596 0.689534 11.7038L3.45553 14.4698C3.52714 14.5415 3.61217 14.5983 3.70578 14.6371C3.79938 14.676 3.89971 14.6959 4.00103 14.6959C4.10236 14.6959 4.20269 14.676 4.29629 14.6371C4.38989 14.5983 4.47493 14.5415 4.54653 14.4698L7.31253 11.7038C7.42063 11.596 7.49431 11.4586 7.52422 11.3089C7.55414 11.1592 7.53895 11.004 7.48059 10.863C7.42222 10.7219 7.3233 10.6014 7.19636 10.5166C7.06942 10.4318 6.92018 10.3867 6.76753 10.3868L5.28553 10.3898Z" fill="#A1A1A1"/>
</svg>
