<svg width="23" height="20" viewBox="0 0 23 20" fill="none" xmlns="http://www.w3.org/2000/svg">
<path d="M4.33661 3.48704C4.40673 3.49237 4.46011 3.49982 4.51349 3.49982C7.57582 3.49875 10.6371 3.49982 13.6994 3.49449C14.8402 3.49237 15.9527 3.65626 17.0035 4.11389C19.6545 5.26753 21.2914 7.2864 21.9099 10.1503C22.0795 10.9336 22.1266 11.7275 22.0429 12.531C21.6766 16.0537 19.215 18.9335 15.8429 19.7604C15.2159 19.9137 14.5775 19.9882 13.9339 19.9935C13.0526 20.001 12.1704 19.9882 11.2891 19.9999C10.6497 20.0084 10.1442 19.5263 10.028 18.9963C9.86995 18.2779 10.366 17.5606 11.0882 17.4649C11.1866 17.4521 11.287 17.4457 11.3865 17.4446C12.2593 17.4425 13.1322 17.4382 14.005 17.4446C15.3018 17.4531 16.452 17.0306 17.4609 16.2165C18.6278 15.2746 19.3437 14.0454 19.5248 12.5427C19.7791 10.4227 19.1051 8.65183 17.463 7.28747C16.4373 6.43501 15.2557 6.04017 13.936 6.04017C10.8171 6.0423 7.69932 6.04017 4.58047 6.04017C4.50407 6.04017 4.42767 6.04017 4.32405 6.04017C4.36487 6.10935 4.39104 6.1583 4.42034 6.203C4.71653 6.65424 5.02422 7.09803 5.3089 7.55672C5.65113 8.108 5.55903 8.76358 5.10063 9.1946C4.57942 9.68309 3.77878 9.67031 3.2963 9.13926C2.96976 8.7806 2.67881 8.3879 2.37635 8.0069C1.65629 7.10016 0.942514 6.18917 0.219319 5.28456C-0.0559353 4.9408 -0.0800069 4.65665 0.192107 4.30758C1.15288 3.07731 2.11784 1.84917 3.08175 0.621029C3.39363 0.224065 3.78715 -0.0132617 4.30208 0.000573508C5.16237 0.0250512 5.76626 0.967973 5.4146 1.76509C5.28587 2.0567 5.09958 2.32169 4.92794 2.59201C4.7563 2.86233 4.57105 3.12414 4.39208 3.38913C4.37534 3.41361 4.36278 3.44022 4.33766 3.48598L4.33661 3.48704Z" fill="white"/>
</svg>
