<svg width="17" height="19" viewBox="0 0 17 19" fill="none" xmlns="http://www.w3.org/2000/svg">
<path d="M12.7002 6.125V5C12.7002 3.80653 12.2261 2.66193 11.3822 1.81802C10.5383 0.974106 9.39367 0.5 8.2002 0.5C7.00672 0.5 5.86213 0.974106 5.01821 1.81802C4.1743 2.66193 3.7002 3.80653 3.7002 5V6.125H0.325195V15.688C0.325195 16.0574 0.397963 16.4231 0.539342 16.7643C0.68072 17.1056 0.88794 17.4156 1.14916 17.6767C1.41039 17.9379 1.7205 18.145 2.06178 18.2862C2.40307 18.4275 2.76883 18.5001 3.1382 18.5H13.2632C13.6326 18.5001 13.9983 18.4275 14.3396 18.2862C14.6809 18.145 14.991 17.9379 15.2522 17.6767C15.5135 17.4156 15.7207 17.1056 15.862 16.7643C16.0034 16.4231 16.0762 16.0574 16.0762 15.688V6.125H12.7002ZM5.9502 5C5.9502 4.40326 6.18725 3.83097 6.60921 3.40901C7.03116 2.98705 7.60346 2.75 8.2002 2.75C8.79693 2.75 9.36923 2.98705 9.79119 3.40901C10.2131 3.83097 10.4502 4.40326 10.4502 5V6.125H5.9502V5ZM11.5752 9.219C11.4083 9.219 11.2451 9.1695 11.1063 9.07676C10.9675 8.98402 10.8593 8.85221 10.7954 8.69798C10.7316 8.54376 10.7148 8.37406 10.7474 8.21034C10.78 8.04662 10.8604 7.89624 10.9784 7.7782C11.0964 7.66017 11.2468 7.57978 11.4105 7.54722C11.5743 7.51465 11.744 7.53137 11.8982 7.59525C12.0524 7.65913 12.1842 7.7673 12.277 7.9061C12.3697 8.04489 12.4192 8.20807 12.4192 8.375C12.4192 8.59884 12.3303 8.81352 12.172 8.9718C12.0137 9.13008 11.799 9.219 11.5752 9.219ZM4.8252 9.219C4.65827 9.219 4.49509 9.1695 4.35629 9.07676C4.2175 8.98402 4.10932 8.85221 4.04544 8.69798C3.98156 8.54376 3.96485 8.37406 3.99741 8.21034C4.02998 8.04662 4.11036 7.89624 4.2284 7.7782C4.34643 7.66017 4.49682 7.57978 4.66054 7.54722C4.82426 7.51465 4.99396 7.53137 5.14818 7.59525C5.3024 7.65913 5.43422 7.7673 5.52696 7.9061C5.6197 8.04489 5.6692 8.20807 5.6692 8.375C5.6692 8.59884 5.58027 8.81352 5.42199 8.9718C5.26371 9.13008 5.04904 9.219 4.8252 9.219Z" fill="white"/>
</svg>
