<svg width="26" height="24" viewBox="0 0 26 24" fill="none" xmlns="http://www.w3.org/2000/svg">
<path d="M4.84943 14.2732C4.50931 13.5299 4.24692 12.7534 4.06643 11.9562C3.87768 11.1742 3.75194 10.3783 3.69043 9.57619C3.66469 9.47396 3.65424 9.36848 3.65943 9.26318V8.9502L3.56543 8.98119C3.10018 9.0867 2.64833 9.24436 2.21843 9.45119C1.78307 9.62849 1.39659 9.90764 1.09143 10.2652C0.744208 10.6925 0.536519 11.2161 0.496428 11.7652C0.444425 12.5277 0.642425 13.2864 1.06042 13.9262C1.32104 14.4389 1.73773 14.8556 2.25043 15.1162C2.66159 15.263 3.10267 15.306 3.53443 15.2412C3.83443 15.2221 4.12995 15.1587 4.41143 15.0532C4.65548 14.9731 4.9077 14.9204 5.16343 14.8962C5.09254 14.7909 5.03949 14.6747 5.00643 14.5522C4.94211 14.4654 4.88933 14.3706 4.84943 14.2702V14.2732Z" fill="white"/>
<path d="M15.5899 1.18317L15.3399 1.43317C15.2332 1.55551 15.1182 1.67044 14.9959 1.77718C14.3699 2.37218 13.7429 2.96717 13.0859 3.53117C12.2911 4.25991 11.4431 4.92842 10.5489 5.53117C9.8909 5.96917 9.29591 6.28318 8.10591 6.94018C7.25991 7.37818 6.7279 7.69218 5.9449 8.04018L5.6629 8.16518C5.25557 8.35318 4.91091 8.50984 4.62891 8.63518V9.32417C4.69062 10.1365 4.81636 10.9427 5.00491 11.7352C5.19463 12.6026 5.48912 13.4438 5.88191 14.2402C5.94491 14.3342 6.0069 14.4592 6.0699 14.5532C6.13223 14.6646 6.20561 14.7694 6.28891 14.8662C7.08421 14.8815 7.8796 14.8398 8.66891 14.7412C9.69831 14.625 10.733 14.5622 11.7689 14.5532C14.0239 14.5532 17.9379 15.6802 19.1279 15.8682C19.1858 13.0683 18.8492 10.2742 18.1279 7.56818C17.5641 5.33743 16.7112 3.18991 15.5909 1.18018L15.5899 1.18317Z" fill="white"/>
<path d="M21.4473 1.49611C21.3351 1.44214 21.2061 1.43495 21.0886 1.47611C20.9711 1.51728 20.8748 1.60343 20.8208 1.71561C20.7668 1.8278 20.7597 1.95683 20.8008 2.07433C20.842 2.19182 20.9281 2.28814 21.0403 2.34211C22.147 2.90187 23.0724 3.76364 23.7095 4.82762C24.3467 5.89161 24.6694 7.1143 24.6403 8.35411C24.6554 9.63507 24.3088 10.8943 23.6403 11.9871C23.5792 12.0964 23.5613 12.2246 23.5902 12.3465C23.6191 12.4683 23.6926 12.5749 23.7963 12.6451C23.874 12.6843 23.9594 12.7058 24.0463 12.7081C24.1262 12.7043 24.2042 12.6826 24.2746 12.6447C24.3451 12.6068 24.4061 12.5537 24.4533 12.4891C25.2075 11.2433 25.598 9.8113 25.5803 8.35511C25.6047 6.93914 25.2299 5.54492 24.4988 4.33206C23.7677 3.1192 22.7098 2.13673 21.4463 1.49712L21.4473 1.49611Z" fill="white"/>
<path d="M20.5694 3.68801C20.4572 3.63404 20.3282 3.62684 20.2107 3.668C20.0932 3.70917 19.9969 3.79532 19.9429 3.90751C19.8889 4.01969 19.8817 4.14873 19.9229 4.26622C19.964 4.38371 20.0502 4.48004 20.1624 4.53401C20.8651 4.89029 21.4527 5.43817 21.8573 6.11432C22.2618 6.79048 22.4667 7.5673 22.4484 8.35501C22.4515 9.29937 22.1553 10.2204 21.6024 10.986C21.5638 11.0348 21.5355 11.0909 21.5193 11.1509C21.503 11.2109 21.4992 11.2736 21.508 11.3352C21.5168 11.3968 21.538 11.4559 21.5704 11.509C21.6028 11.5621 21.6457 11.608 21.6964 11.644C21.7787 11.7032 21.877 11.736 21.9784 11.738C22.0517 11.74 22.1244 11.7239 22.1899 11.6911C22.2555 11.6583 22.312 11.6098 22.3544 11.55C23.0337 10.6243 23.3964 9.50419 23.3884 8.35601C23.4216 7.38879 23.173 6.43276 22.6726 5.60433C22.1723 4.7759 21.4419 4.1108 20.5704 3.69001L20.5694 3.68801Z" fill="white"/>
<path d="M13.7105 21.0061C13.6795 20.9121 13.6165 20.7871 13.5535 20.5991C13.5225 20.5051 13.4595 20.3801 13.4285 20.2551C13.2172 19.7922 13.1003 19.2918 13.0845 18.7831C13.1088 18.4939 13.172 18.2093 13.2725 17.9371C13.3355 17.7181 13.3665 17.5611 13.4285 17.4051C13.5304 17.1531 13.6038 16.8904 13.6475 16.6221V16.2781C13.6363 16.0439 13.5943 15.8123 13.5225 15.5891C13.0448 15.5296 12.564 15.4982 12.0825 15.4951C11.0466 15.5042 10.0119 15.5669 8.98253 15.6831C8.19321 15.7817 7.39784 15.8234 6.60254 15.8081L6.85254 16.2151C6.88354 16.2781 7.00853 16.5591 7.19653 16.9671C7.88553 18.5011 9.35754 21.8211 9.73354 22.3531C9.99013 22.7761 10.3757 23.1056 10.8335 23.2931C11.0519 23.3826 11.2867 23.4252 11.5225 23.4181C11.8243 23.4128 12.1221 23.349 12.3995 23.2301C12.7169 23.137 13.0072 22.9693 13.2463 22.7408C13.4854 22.5124 13.6662 22.2299 13.7735 21.9171C13.7994 21.7935 13.8098 21.6672 13.8045 21.5411C13.7833 21.3618 13.752 21.1839 13.7105 21.0081V21.0061Z" fill="white"/>
<path d="M16.9375 0.243179C16.9088 0.189731 16.8698 0.142469 16.8228 0.104095C16.7757 0.0657211 16.7216 0.036988 16.6635 0.0195306C16.6053 0.0020732 16.5443 -0.0037636 16.484 0.00235304C16.4236 0.00846968 16.365 0.0264195 16.3115 0.055179C16.2581 0.0839385 16.2108 0.122943 16.1725 0.169967C16.1341 0.216991 16.1054 0.271113 16.0879 0.329242C16.0704 0.387372 16.0646 0.448369 16.0707 0.508754C16.0768 0.569139 16.0948 0.62773 16.1235 0.681178C17.2772 2.75605 18.1713 4.96498 18.7855 7.25818C19.5609 10.1024 19.8885 13.0501 19.7565 15.9952C19.7571 16.1173 19.8017 16.2351 19.8822 16.327C19.9626 16.4188 20.0735 16.4786 20.1945 16.4952H20.2255C20.3459 16.4992 20.4629 16.4554 20.551 16.3733C20.6391 16.2912 20.6911 16.1775 20.6955 16.0572C20.816 13.0279 20.4789 9.99786 19.6955 7.06918C19.0748 4.68428 18.1485 2.38961 16.9395 0.242179L16.9375 0.243179Z" fill="white"/>
</svg>
