<svg width="50" height="50" viewBox="0 0 50 50" fill="none" xmlns="http://www.w3.org/2000/svg">
<g clip-path="url(#clip0_462_15621)">
<path d="M14.4127 39.3571C13.5604 39.3088 12.8748 39.611 12.3171 40.2033C11.8125 40.74 11.5204 41.3637 11.5228 42.1229C11.5325 45.4229 11.5228 48.7253 11.5301 52.0254C11.5301 52.2841 11.5735 52.5403 11.6001 52.8425H11.2814C9.12789 52.8425 6.97198 52.8425 4.81848 52.8425C4.04109 52.8425 3.68861 52.5258 3.5848 51.7498C3.16955 48.6407 2.7543 45.5317 2.33905 42.4226C1.85621 38.8083 1.37577 35.1916 0.89534 31.5773C0.615288 29.4812 0.342479 27.3851 0.0551849 25.2915C-0.125883 23.9715 0.146926 22.7071 0.588731 21.4886C2.02762 17.5237 4.88366 15.1714 9.00476 14.4751C11.081 14.1246 13.2128 14.1221 15.2649 14.7193C19.5284 15.9619 22.0006 18.8679 22.8963 23.1785C23.1063 24.1866 23.0194 25.1899 22.8746 26.1981C22.6187 27.9726 22.3965 29.7544 22.1696 31.5337C22.1358 31.79 22.0392 31.9737 21.834 32.1357C21.1194 32.7014 20.4217 33.2889 19.7143 33.8667C18.4299 34.916 16.9717 35.4938 15.3011 35.5083C14.7796 35.5131 14.4151 35.9144 14.4127 36.4487C14.4078 37.4013 14.4127 38.3538 14.4127 39.3571ZM11.5276 28.768V28.7632C13.4107 28.7632 15.2939 28.7632 17.177 28.7632C17.8843 28.7632 18.2537 28.4005 18.2585 27.6946C18.2634 27.0225 18.2585 26.3504 18.2585 25.6783C18.2585 24.5251 18.2585 23.3719 18.2585 22.2187C18.2585 21.5055 17.9012 21.0437 17.1069 21.0486C13.36 21.0703 9.61315 21.0583 5.86867 21.0583C5.13233 21.0583 4.79192 21.404 4.79192 22.1486C4.79192 23.9836 4.79192 25.8185 4.79192 27.6559C4.79192 28.4344 5.12991 28.7728 5.9073 28.7728C7.78075 28.7728 9.65419 28.7728 11.5276 28.7728V28.768Z" fill="#1568A8"/>
<path d="M40.385 47.0331C40.385 45.3867 40.385 43.7621 40.385 42.1374C40.385 40.5853 39.2238 39.3959 37.6738 39.3548C37.6256 39.3548 37.5773 39.3475 37.5 39.3427C37.5 38.4602 37.5338 37.5875 37.4879 36.722C37.459 36.1901 37.3721 35.6437 37.2007 35.1409C36.7926 33.9417 35.9839 33.1173 34.7478 32.7354C34.6416 32.7015 34.5136 32.542 34.4991 32.4283C34.166 30.0059 33.8497 27.5834 33.5262 25.1586C33.3186 23.5992 33.1061 22.0399 32.8961 20.4829C32.8816 20.3669 32.8768 20.2484 32.8647 20.113H49.8392C49.7861 20.5361 49.7402 20.9399 49.6871 21.3436C49.3298 24.0247 48.9749 26.7083 48.6152 29.3894C48.3037 31.7127 47.9875 34.036 47.6784 36.3618C47.3067 39.1541 46.9421 41.944 46.5727 44.7364C46.481 45.4326 46.3796 46.1265 46.2903 46.8228C46.2685 46.992 46.2106 47.0693 46.0295 47.0669C44.185 47.0621 42.343 47.0645 40.4985 47.0621C40.4695 47.0621 40.443 47.05 40.385 47.0355V47.0331ZM41.527 29.723C41.7563 29.7085 42.0967 29.6988 42.4347 29.6626C43.4559 29.5514 44.412 29.2588 45.2304 28.6109C46.2854 27.7744 46.4255 26.4689 45.5781 25.4294C45.0711 24.8056 44.3854 24.4575 43.6322 24.252C42.1667 23.8507 40.6868 23.841 39.2141 24.2109C38.4078 24.414 37.6763 24.7766 37.1065 25.4124C36.3629 26.2417 36.3291 27.3779 37.0848 28.1903C37.4059 28.5336 37.8042 28.8309 38.217 29.0582C39.2069 29.607 40.3126 29.6795 41.527 29.723Z" fill="#1568A8"/>
<path d="M25.9551 52.8425C22.1889 52.8425 18.4203 52.8425 14.6541 52.8425C13.7511 52.8425 13.4518 52.5403 13.4518 51.6289C13.4518 48.5585 13.4518 45.4882 13.4518 42.4202C13.4518 41.6224 13.7849 41.2864 14.5841 41.2864C22.1672 41.2864 29.7527 41.2864 37.3358 41.2864C38.1301 41.2864 38.4609 41.6224 38.4609 42.4275C38.4609 45.5365 38.4609 48.648 38.4609 51.757C38.4609 52.492 38.1108 52.845 37.3769 52.845C33.5696 52.845 29.7624 52.845 25.9551 52.845V52.8425ZM22.1092 47.0886C22.1092 49.2379 23.8064 50.923 25.9768 50.923C28.1255 50.923 29.8058 49.2282 29.8107 47.0548C29.8131 44.9297 28.1183 43.2084 26.0179 43.206C23.7823 43.206 22.1117 44.8669 22.1117 47.0886H22.1092Z" fill="#1568A8"/>
<path d="M35.5614 37.452V39.3402H16.3513V37.452H35.5614Z" fill="#1568A8"/>
<path d="M49.9985 16.2593V18.1402H32.715V16.2593H49.9985Z" fill="#1568A8"/>
<path d="M16.1147 12.3717H6.92853C7.00578 11.8761 7.07821 11.395 7.15788 10.9187C7.27135 10.2273 7.39689 9.53829 7.49829 8.84444C7.53209 8.61477 7.60934 8.53015 7.8556 8.53015C10.2988 8.53982 12.742 8.5374 15.1828 8.53499C15.3639 8.53499 15.5087 8.53499 15.5474 8.77433C15.7236 9.89126 15.9143 11.0058 16.0978 12.1227C16.1099 12.2001 16.1075 12.2774 16.1147 12.3741V12.3717Z" fill="#1568A8"/>
<path d="M35.2065 35.4914H20.8659C21.1556 35.2472 21.3898 35.0393 21.636 34.8459C22.4207 34.227 23.1884 33.5791 24.0068 33.0037C25.0763 32.2518 26.3028 31.8916 27.592 31.7417C27.6644 31.7345 27.7972 31.7925 27.8141 31.8481C28.2535 33.2769 29.3495 33.9466 30.6943 34.2246C31.6382 34.4204 32.616 34.4591 33.5817 34.534C34.2263 34.5848 34.7719 34.7806 35.1413 35.3415C35.163 35.373 35.1727 35.4116 35.2065 35.4866V35.4914Z" fill="#1568A8"/>
<path d="M40.356 49.001H46.1575C46.1575 49.2621 46.1575 49.5183 46.1575 49.7746C46.1575 50.4274 46.1623 51.0777 46.1575 51.7305C46.1502 52.4074 45.7495 52.8305 45.0759 52.8377C43.5453 52.8498 42.0122 52.8426 40.4816 52.8401C40.4333 52.8401 40.385 52.828 40.3585 52.8232V49.001H40.356Z" fill="#1568A8"/>
<path d="M21.1363 -0.978242V0.805952H8.09457C8.19597 0.501333 8.27081 0.20155 8.39635 -0.0692216C8.43257 -0.146585 8.61846 -0.182849 8.73676 -0.192519C9.6759 -0.257795 10.615 -0.308565 11.5542 -0.371422C13.4204 -0.499555 15.2866 -0.634941 17.1552 -0.760657C18.4444 -0.847691 19.7312 -0.922637 21.0204 -1C21.0494 -1 21.0783 -0.99033 21.1363 -0.978242Z" fill="#1568A8"/>
<path d="M9.61798 6.58879V2.7738H13.4276V6.58879H9.61798Z" fill="#AD172A"/>
<path d="M6.73297 26.8146V22.9972H16.3127V26.8146H6.73297Z" fill="#AD172A"/>
<path d="M41.5415 25.833C42.0702 25.9394 42.7727 26.0724 43.4728 26.2271C43.6249 26.2609 43.7698 26.348 43.9026 26.4326C44.3227 26.7058 44.3396 27.0297 43.8857 27.2425C43.4221 27.4576 42.9127 27.6051 42.4106 27.697C41.3725 27.888 40.3367 27.8106 39.3276 27.4915C39.12 27.4262 38.9196 27.3223 38.7385 27.2014C38.4078 26.979 38.386 26.6792 38.7313 26.4906C39.12 26.2803 39.5497 26.1231 39.9819 26.0216C40.4261 25.9176 40.892 25.908 41.5415 25.833Z" fill="#AD172A"/>
<path d="M25.9503 45.1448C26.9884 45.1424 27.8769 46.0248 27.8744 47.0571C27.8744 48.0822 26.9715 48.9888 25.9599 48.9839C24.9242 48.9791 24.0334 48.0894 24.0358 47.0668C24.0406 46.0224 24.9098 45.1472 25.9503 45.1448Z" fill="#AD172A"/>
</g>
<defs>
<clipPath id="clip0_462_15621">
<rect width="50" height="50" fill="white"/>
</clipPath>
</defs>
</svg>
