<svg width="50" height="48" viewBox="0 0 50 48" fill="none" xmlns="http://www.w3.org/2000/svg">
<path d="M3.86365 36.5542C3.74722 35.5999 3.63495 34.6789 3.52268 33.7579C3.34181 32.261 3.16093 30.7641 2.97798 29.2672C2.7971 27.7703 2.61415 26.2734 2.43119 24.7765C2.24824 23.2796 2.0632 21.7827 1.88233 20.2858C1.68274 18.6517 1.48731 17.0175 1.28773 15.3834C1.07359 13.6204 0.857366 11.8595 0.641147 10.0964C0.431165 8.36045 0.206629 6.62446 0.0112004 4.88639C-0.0948302 3.9342 0.562144 3.18574 1.54968 3.06516C4.22748 2.74083 6.90527 2.41442 9.58514 2.08802C12.4251 1.7429 15.2671 1.39778 18.1071 1.05474C20.1695 0.805254 22.2319 0.559928 24.2943 0.310444C25.0822 0.214809 25.8681 0.117094 26.654 0.00690559C26.8577 -0.0222008 26.9263 0.0380911 26.9492 0.237678C27.1072 1.59113 27.2735 2.9425 27.4378 4.29387C27.6394 5.95293 27.8432 7.612 28.0449 9.27315C28.2756 11.1817 28.5043 13.0902 28.7393 14.9967C28.9846 16.9905 29.2382 18.9822 29.4815 20.976C29.6686 22.5166 29.8432 24.0571 30.0303 25.5977C30.1883 26.9075 30.3609 28.2152 30.521 29.5229C30.6478 30.5583 30.7642 31.5936 30.8952 32.629C30.9202 32.8223 30.8432 32.866 30.6748 32.8847C29.5438 33.0157 28.4149 33.1529 27.286 33.2922C25.207 33.5458 23.1279 33.8036 21.0489 34.0552C18.9782 34.3068 16.9075 34.55 14.8347 34.8016C13.0634 35.0157 11.2941 35.2402 9.52277 35.4565C8.18803 35.6186 6.85329 35.7787 5.51647 35.9305C5.00087 35.9887 4.52893 36.155 4.09026 36.4295C4.02165 36.4731 3.94889 36.5085 3.86365 36.5563V36.5542ZM8.60176 7.18788C8.70779 8.06315 8.80758 8.88437 8.90737 9.70351C9.09865 11.269 9.28992 12.8345 9.47911 14.4C9.49782 14.5476 9.55603 14.6038 9.7182 14.583C10.5727 14.477 11.4313 14.3876 12.2858 14.2836C14.5519 14.0092 16.8202 13.7327 19.0863 13.4562C19.4585 13.4104 19.8306 13.3584 20.2298 13.3065C19.9262 10.8179 19.6289 8.36669 19.3254 5.88433C15.7474 6.31884 12.1839 6.75336 8.60176 7.18788ZM8.35851 27.2464C8.41049 27.7121 8.47493 28.1611 8.5082 28.6123C8.52691 28.8639 8.62255 28.9283 8.86579 28.895C9.68493 28.7828 10.5082 28.6871 11.3294 28.5873C13.2546 28.3545 15.1819 28.1279 17.1071 27.893C19.0323 27.658 20.9574 27.4189 22.8826 27.1819C23.4356 27.1133 23.9887 27.0447 24.5729 26.9719C24.496 26.4002 24.4253 25.8659 24.3504 25.3004C19.0135 25.9491 13.712 26.5936 8.36059 27.2422L8.35851 27.2464ZM22.6955 28.8535C22.6248 28.8493 22.5895 28.8431 22.5583 28.8472C21.2402 29.0094 19.9242 29.1716 18.6061 29.3337C16.8264 29.552 15.0468 29.7662 13.2671 29.9824C12.5228 30.0718 11.7785 30.1633 11.0342 30.2506C10.8637 30.2714 10.7972 30.34 10.8263 30.5229C10.8887 30.9221 10.9324 31.3254 10.9802 31.7267C10.9968 31.866 11.028 31.9387 11.2047 31.918C12.5145 31.762 13.8243 31.6227 15.1341 31.4668C16.6227 31.2901 18.1112 31.1009 19.5998 30.9179C20.6269 30.7932 21.6539 30.6705 22.681 30.55C22.8327 30.5312 22.918 30.4834 22.8909 30.3067C22.8223 29.8306 22.762 29.3524 22.6976 28.8555L22.6955 28.8535Z" fill="#AD172A"/>
<path d="M33.3984 39.2445C33.2861 38.3629 33.178 37.523 33.0657 36.6457C34.045 36.7351 35.0013 36.8203 35.9992 36.9097C36.0575 36.3608 36.1136 35.8265 36.1739 35.259C35.6001 35.2091 35.0616 35.1654 34.5231 35.1113C34.0346 35.0635 33.546 35.0032 33.0574 34.9533C32.914 34.9388 32.8433 34.8806 32.8287 34.7309C32.7809 34.261 32.7206 33.7912 32.6582 33.2589C34.5709 33.446 36.4816 33.6332 38.4068 33.8223C38.4504 33.2631 38.492 32.7329 38.5377 32.1737C37.9764 32.1175 37.4317 32.0614 36.887 32.0053C35.4878 31.8639 34.0907 31.7204 32.6915 31.5874C32.5023 31.5687 32.442 31.4751 32.4233 31.3088C32.3381 30.5645 32.2487 29.8202 32.1593 29.0759C31.9618 27.4418 31.7622 25.8077 31.5647 24.1736C31.3817 22.6683 31.2008 21.161 31.0179 19.6558C30.9971 19.4937 30.9846 19.3273 30.9451 19.1693C30.8973 18.9739 30.9784 18.9469 31.1468 18.9656C31.8765 19.0425 32.6042 19.1132 33.3339 19.1839C34.5086 19.2982 35.6853 19.4063 36.86 19.5248C37.0554 19.5456 37.1094 19.4791 37.1282 19.2941C37.3277 17.1485 37.5356 15.003 37.7394 12.8574C37.7623 12.6121 37.7789 12.3647 37.8018 12.1006C37.3215 12.0549 36.8683 12.0112 36.415 11.9676C34.862 11.8179 33.309 11.6682 31.7559 11.5185C31.2757 11.4728 30.7954 11.4249 30.3131 11.3854C30.1093 11.3688 29.9929 11.3148 29.9659 11.0715C29.81 9.67648 29.6353 8.28145 29.4669 6.88642C29.4461 6.7097 29.4233 6.53298 29.3962 6.30637C35.1073 6.86355 40.781 7.41657 46.4963 7.97583C46.4776 8.22115 46.463 8.49143 46.4381 8.7617C46.1886 11.3189 45.9349 13.8761 45.6875 16.4333C45.4879 18.4936 45.2967 20.554 45.0992 22.6143C44.8829 24.8534 44.6605 27.0946 44.4443 29.3337C44.2634 31.2215 44.0867 33.1113 43.91 34.9991C43.7353 36.8619 43.5607 38.7247 43.3902 40.5875C43.3694 40.8224 43.3029 40.9347 43.0284 40.9056C41.3299 40.7268 39.6313 40.5626 37.9327 40.3983C36.6105 40.2694 35.2882 40.1468 33.966 40.0241C32.7726 39.9139 31.5792 39.8079 30.3859 39.6998C30.363 39.6977 30.3401 39.6852 30.3131 39.6228C31.336 39.496 32.3589 39.3692 33.4005 39.2403L33.3984 39.2445Z" fill="#1568A8"/>
<path d="M12.606 40.0698C12.739 41.1738 12.8679 42.2445 13.001 43.3505C12.3482 43.178 11.739 43.0283 11.1382 42.8516C10.9344 42.7913 10.7764 42.8245 10.6018 42.9243C10.0633 43.2279 9.51862 43.5189 8.93025 43.8412C8.88659 43.4981 8.84709 43.1946 8.80967 42.8931C8.72443 42.2091 8.62879 41.5251 8.56434 40.8391C8.54147 40.5896 8.43752 40.5709 8.2317 40.5979C7.51443 40.6935 6.79509 40.7892 6.07574 40.8578C5.07989 40.9513 4.3148 40.3318 4.21501 39.3796C4.12145 38.4918 4.78051 37.7184 5.74725 37.5999C8.07369 37.3151 10.4043 37.0427 12.7307 36.76C14.6393 36.5292 16.5457 36.286 18.4543 36.0552C20.3878 35.8203 22.3234 35.5937 24.2569 35.3608C25.866 35.1654 27.4731 34.9658 29.0823 34.7683C29.6894 34.6934 30.2985 34.6207 30.9056 34.5437C31.074 34.523 31.1551 34.5625 31.1738 34.7516C31.2653 35.6165 31.3692 36.4814 31.469 37.3463C31.4773 37.4149 31.4732 37.4856 31.4877 37.5521C31.5252 37.733 31.4503 37.7912 31.2736 37.812C30.126 37.943 28.9783 38.0823 27.8328 38.2216C26.5396 38.3796 25.2486 38.5396 23.9575 38.6976C22.3067 38.8993 20.6539 39.101 19.0032 39.3026C17.0613 39.5397 15.1174 39.7767 13.1756 40.0137C13.0052 40.0345 12.8347 40.0511 12.6101 40.074L12.606 40.0698Z" fill="#1568A8"/>
<path d="M22.523 40.6125C23.3504 40.6915 24.2756 40.783 25.2029 40.8703C26.4399 40.9867 27.6769 41.0927 28.9118 41.2133C30.4233 41.3589 31.9327 41.5169 33.4421 41.6624C34.756 41.7913 36.0699 41.9119 37.3818 42.0366C38.7976 42.1697 40.2155 42.3048 41.6314 42.4379C42.0596 42.4795 42.4879 42.5314 42.9183 42.5605C43.1345 42.5751 43.1927 42.6583 43.1678 42.8703C43.0617 43.8121 42.9661 44.756 42.8767 45.6999C42.8621 45.8558 42.7935 45.8828 42.6605 45.8683C41.0056 45.6999 39.3486 45.5315 37.6937 45.3693C36.3631 45.2404 35.0325 45.1219 33.6999 44.9951C31.5377 44.7893 29.3734 44.5772 27.2112 44.3714C25.1862 44.178 23.1592 43.9951 21.1321 43.7996C19.8202 43.6728 18.5063 43.5502 17.1986 43.3859C16.3607 43.282 15.7557 42.4836 15.816 41.6853C15.8347 41.4358 15.9387 41.3485 16.1736 41.3256C16.9117 41.2487 17.6477 41.1572 18.3836 41.0678C19.5229 40.9306 20.6602 40.7892 21.7995 40.6541C22.0053 40.6291 22.2132 40.6291 22.523 40.6125Z" fill="#1568A8"/>
<path d="M47.8913 32.2901C47.8705 32.5146 47.8539 32.7329 47.831 32.9491C47.6459 34.7392 47.4588 36.5313 47.2738 38.3213C47.1491 39.5313 47.0306 40.7434 46.9058 41.9534C46.7707 43.2736 46.6335 44.5938 46.49 45.9119C46.4152 46.6 45.9162 47.2612 44.9889 47.257C42.043 47.2466 39.097 47.2445 36.151 47.257C35.2404 47.2612 34.7144 46.5959 34.6416 45.8994C34.5106 44.6354 34.3817 43.3692 34.2508 42.1052C34.1156 40.7995 33.9784 39.496 33.8433 38.1904C33.7081 36.8764 33.5771 35.5604 33.442 34.2464C33.3817 33.6518 33.3193 33.0552 33.257 32.4606C33.2507 32.4065 33.2507 32.3524 33.2466 32.288H47.8892L47.8913 32.2901Z" fill="#AD172A"/>
<path d="M40.5606 27.4439C43.2924 27.4439 46.0243 27.4439 48.7561 27.4439C49.0804 27.4439 49.3757 27.5042 49.6293 27.7266C49.8517 27.9221 49.9827 28.1674 49.989 28.4564C50.0014 29.1591 50.0056 29.8639 49.989 30.5666C49.9765 31.1071 49.5233 31.552 48.9827 31.5936C48.8684 31.6019 48.754 31.6061 48.6397 31.6061C43.23 31.6061 37.8204 31.6061 32.4128 31.6082C32.0199 31.6082 31.6727 31.5188 31.4045 31.2152C31.259 31.051 31.1509 30.8576 31.1488 30.6393C31.1384 29.9054 31.1238 29.1716 31.1488 28.4397C31.1675 27.9075 31.6394 27.4792 32.1717 27.4501C32.2964 27.4439 32.4211 27.446 32.5459 27.446C35.2174 27.446 37.8911 27.446 40.5626 27.446L40.5606 27.4439Z" fill="#AD172A"/>
<path d="M39.3818 16.583C39.7415 16.583 40.0887 16.583 40.438 16.583C41.3299 16.583 42.2239 16.5851 43.1158 16.5789C43.253 16.5789 43.3008 16.6163 43.2925 16.7535C43.2821 16.9281 43.2883 17.1028 43.2925 17.2774C43.2946 17.3814 43.2572 17.4125 43.1511 17.4105C42.7229 17.4042 42.2946 17.4063 41.8642 17.4063C41.8351 17.4063 41.806 17.4125 41.7707 17.4167V18.082C41.8808 18.082 41.9869 18.082 42.095 18.082C42.4443 18.082 42.7935 18.0841 43.1428 18.082C43.2509 18.082 43.2987 18.1132 43.2904 18.2275C43.2821 18.346 43.2863 18.4666 43.2904 18.5872C43.2946 18.687 43.2551 18.7161 43.1574 18.714C42.964 18.7078 42.7686 18.7161 42.5732 18.7078C42.4651 18.7036 42.4339 18.7473 42.438 18.8471C42.4443 18.9864 42.4443 19.1277 42.438 19.267C42.4339 19.3648 42.4671 19.4001 42.5669 19.398C42.7665 19.3939 42.9661 19.398 43.1657 19.3959C43.253 19.3959 43.2946 19.423 43.2904 19.5165C43.2863 19.6413 43.2863 19.766 43.2925 19.8908C43.2987 19.9968 43.2592 20.028 43.1553 20.028C42.727 20.0217 42.2987 20.0259 41.8684 20.0259C41.8393 20.0259 41.8102 20.028 41.7707 20.0321V20.7037H43.2904C43.2904 20.8991 43.2967 21.0779 43.2863 21.2546C43.2863 21.2837 43.2156 21.3336 43.1782 21.3357C42.9744 21.344 42.7686 21.3419 42.5648 21.3357C42.4754 21.3357 42.4401 21.3627 42.4422 21.4563C42.4484 21.5956 42.4484 21.7369 42.4422 21.8762C42.4359 21.9802 42.4734 22.0197 42.5794 22.0155C42.7727 22.0093 42.9682 22.0155 43.1636 22.0114C43.2551 22.0114 43.3008 22.0384 43.2946 22.1403C43.2863 22.2588 43.2883 22.3794 43.2946 22.4999C43.3008 22.6101 43.2655 22.6475 43.1511 22.6455C42.6979 22.6392 42.2447 22.6434 41.7769 22.6434V23.3295C42.0388 23.3295 42.3029 23.3295 42.5648 23.3295C42.7644 23.3295 42.964 23.3295 43.1636 23.3253C43.2551 23.3232 43.3029 23.3461 43.2946 23.4501C43.2863 23.5686 43.2863 23.6891 43.2946 23.8097C43.3029 23.9199 43.2655 23.9615 43.1511 23.9573C42.9578 23.949 42.7624 23.9573 42.5669 23.9532C42.4692 23.9511 42.4339 23.9823 42.4401 24.0821C42.4484 24.2172 42.4505 24.3524 42.4401 24.4854C42.4339 24.5956 42.4713 24.6351 42.5836 24.633C42.8123 24.6268 43.0389 24.633 43.2883 24.633C43.2883 24.8285 43.2946 25.0114 43.2821 25.1923C43.2821 25.2214 43.1989 25.265 43.1532 25.265C42.7436 25.2713 42.3362 25.2692 41.9266 25.2692C41.8767 25.2692 41.8289 25.2692 41.7686 25.2692V25.9303C42.0181 25.9303 42.2655 25.9303 42.5129 25.9303C42.7332 25.9303 42.9515 25.9262 43.1698 25.9366C43.2093 25.9366 43.28 25.9948 43.2821 26.0281C43.2925 26.2671 43.2863 26.5062 43.2863 26.7578H39.3756V16.5872L39.3818 16.583Z" fill="#AD172A"/>
<path d="M44.1074 26.7661C44.7478 24.3732 45.3798 22.0051 46.0097 19.6517C46.2031 19.7203 46.384 19.8055 46.5752 19.8492C46.8497 19.9116 47.122 19.8637 47.3736 19.739C47.4796 19.6849 47.5295 19.7036 47.6002 19.8014C47.8954 20.2109 48.2884 20.4251 48.8268 20.3585C48.8185 20.4126 48.8164 20.4563 48.806 20.4958C48.2613 22.5353 47.7145 24.5748 47.1719 26.6143C47.1407 26.7308 47.0908 26.7703 46.9682 26.7682C46.0721 26.762 45.174 26.764 44.2779 26.764C44.2301 26.764 44.1823 26.764 44.1095 26.764L44.1074 26.7661Z" fill="#AD172A"/>
<path d="M38.2154 26.7599H35.2092C34.7871 25.1839 34.3671 23.6122 33.9451 22.0405C33.8931 21.8429 33.8411 21.6454 33.785 21.45C33.7559 21.3502 33.7725 21.2982 33.8869 21.2691C34.7289 21.0488 35.5709 20.8263 36.4108 20.5955C36.5356 20.5602 36.5813 20.5851 36.6146 20.712C37.1364 22.6808 37.6645 24.6476 38.1905 26.6143C38.2009 26.6559 38.2071 26.6996 38.2175 26.7599H38.2154Z" fill="#AD172A"/>
<path d="M32.0636 20.9864C32.1114 20.4438 32.3463 20.0529 32.8224 19.8263C32.9617 19.7598 33.1114 19.7223 33.2528 19.66C33.2985 19.6392 33.3464 19.5893 33.3609 19.5435C33.415 19.371 33.5044 19.2234 33.6582 19.1257C33.758 19.0612 33.7746 18.9884 33.7435 18.8762C33.625 18.4604 33.5085 18.0425 33.4108 17.6204C33.3006 17.1547 33.5459 16.7535 33.9971 16.6246C34.4108 16.5061 34.8578 16.7369 34.995 17.1672C35.126 17.5789 35.2279 18.0009 35.336 18.4209C35.3651 18.5331 35.3942 18.5976 35.5335 18.608C35.8765 18.6371 36.1011 18.8304 36.1946 19.1652C36.2445 19.3419 36.2799 19.5248 36.3422 19.6974C36.3963 19.8492 36.3422 19.8991 36.205 19.9323C35.8246 20.028 35.4441 20.1319 35.0657 20.2338C34.6229 20.3523 34.1821 20.4687 33.7393 20.5893C33.6478 20.6142 33.5688 20.6309 33.5127 20.5186C33.4981 20.4895 33.417 20.4687 33.3796 20.4833C32.9805 20.6205 32.8287 20.791 32.9493 21.2338C33.1925 22.1278 33.4295 23.0238 33.6686 23.9178C33.7975 24.4043 33.9306 24.8887 34.0532 25.3773C34.1218 25.6476 34.0179 25.8347 33.7788 25.9012C33.5543 25.9657 33.3422 25.8492 33.2674 25.5873C33.1052 25.0218 32.9597 24.4542 32.8079 23.8866C32.5792 23.0301 32.3484 22.1735 32.1218 21.317C32.0906 21.2026 32.0802 21.082 32.0657 20.9864H32.0636Z" fill="#AD172A"/>
<path d="M47.7936 18.6475C47.6273 18.7681 47.4838 18.8866 47.3279 18.9801C47.2011 19.0571 47.0639 19.1236 46.9225 19.1631C46.6709 19.2296 46.3903 19.0799 46.2988 18.8408C46.2821 18.7993 46.3175 18.7182 46.3549 18.6787C46.9391 18.0695 47.5275 17.4666 48.1138 16.8595C48.1782 16.793 48.2385 16.7223 48.3238 16.6288C48.4152 16.9863 48.4984 17.3003 48.5795 17.6163C48.7292 18.2005 48.8747 18.7847 49.0265 19.3689C49.0577 19.4916 49.0306 19.5623 48.908 19.6122C48.619 19.7307 48.3965 19.6953 48.2073 19.4354C48.068 19.2442 47.9766 19.0196 47.8643 18.8097C47.8393 18.7618 47.8206 18.7099 47.7936 18.6496V18.6475Z" fill="#AD172A"/>
</svg>
