<svg width="27" height="27" viewBox="0 0 27 27" fill="none" xmlns="http://www.w3.org/2000/svg">
<path d="M13.5046 8.31509C17.9486 8.31509 22.3925 8.31509 26.8365 8.31509C26.9228 8.31509 27.0013 8.30164 27.0001 8.43613C26.9912 9.50537 26.9833 10.5757 26.9833 11.645C26.9822 15.6171 26.9788 19.5903 26.9878 23.5624C26.9901 24.5263 26.526 25.2021 25.7572 25.7076C25.2192 26.0607 24.6218 26.2299 23.9773 26.2288C16.774 26.2288 9.57063 26.2288 2.36726 26.2288C1.14784 26.2288 0.245595 25.4599 0.0595425 24.2539C0.0281602 24.0477 0.00910668 23.8381 0.00910668 23.6297C0.00686509 18.6376 0.00798589 13.6467 0.00910668 8.65469C0.00910668 8.42754 0.124175 8.31396 0.354312 8.31396C4.73775 8.31396 9.12119 8.31396 13.5046 8.31396V8.31509ZM19.8999 22.4338C20.0725 22.4338 20.244 22.4338 20.4166 22.4338C20.5937 22.4338 20.7696 22.4338 20.9467 22.4349C21.3569 22.4371 21.6046 22.2074 21.6091 21.7938C21.617 21.0922 21.617 20.3894 21.6091 19.6878C21.6046 19.2933 21.3558 19.0265 20.9669 18.9985C20.6755 18.9783 20.3818 18.9795 20.0893 18.9806C19.6567 18.9817 19.2241 18.9828 18.7925 19.0019C18.5146 19.0142 18.3028 19.1588 18.2165 19.4312C18.1727 19.5701 18.1593 19.7237 18.1582 19.8705C18.1537 20.4051 18.1582 20.9397 18.1615 21.4744C18.1615 21.6089 18.1593 21.7445 18.1772 21.8778C18.2176 22.1906 18.4978 22.4315 18.8116 22.4326C19.1747 22.4326 19.5368 22.4326 19.8999 22.4326V22.4338ZM13.1706 22.4338C13.1706 22.4338 13.1706 22.436 13.1706 22.4371C13.5382 22.4371 13.9059 22.4394 14.2724 22.4371C14.6243 22.4338 14.8574 22.2287 14.8832 21.8812C14.9023 21.6223 14.8944 21.3612 14.8933 21.1011C14.8933 20.6136 14.9023 20.1249 14.8843 19.6374C14.8709 19.2821 14.6165 19.0109 14.2634 19.003C13.5069 18.9862 12.7481 18.9896 11.9915 19.0075C11.6766 19.0153 11.4468 19.3023 11.4468 19.6239C11.4468 20.3446 11.4468 21.0653 11.4468 21.7859C11.4468 22.1681 11.7113 22.4326 12.0947 22.4349C12.4522 22.436 12.8108 22.4349 13.1684 22.4349L13.1706 22.4338ZM19.8887 14.8729C19.8887 14.8729 19.8887 14.8695 19.8887 14.8673C20.2518 14.8673 20.6138 14.8729 20.977 14.8661C21.3737 14.8583 21.6057 14.6341 21.6102 14.2407C21.6181 13.5346 21.617 12.8274 21.6102 12.1213C21.6069 11.7649 21.4186 11.5127 21.1193 11.4455C21.0162 11.4219 20.9075 11.4197 20.801 11.4197C20.1599 11.4208 19.5177 11.4253 18.8766 11.4309C18.4227 11.4354 18.1649 11.6786 18.1593 12.137C18.1492 12.8252 18.1503 13.5133 18.1593 14.2004C18.1649 14.6039 18.4406 14.8661 18.8441 14.8717C19.1927 14.8774 19.5412 14.8717 19.8898 14.8717L19.8887 14.8729ZM6.50861 22.4326V22.4371C6.83924 22.4371 7.16876 22.4405 7.49939 22.4349C7.60027 22.4326 7.70674 22.4248 7.79865 22.3878C8.13152 22.2533 8.25033 21.9754 8.25145 21.6402C8.25369 20.9711 8.24921 20.302 8.24136 19.6318C8.23688 19.2821 8.00039 19.0064 7.64958 18.9963C6.91994 18.975 6.18918 18.9671 5.46066 18.9862C5.03028 18.9974 4.79827 19.2563 4.79267 19.6889C4.78482 20.3861 4.78931 21.0832 4.80388 21.7803C4.81284 22.1805 5.08968 22.4304 5.4898 22.4315C5.8294 22.4326 6.16901 22.4315 6.50861 22.4315V22.4326ZM13.1774 14.8706C13.5405 14.8706 13.9036 14.874 14.2656 14.8706C14.6333 14.8661 14.8608 14.6554 14.8843 14.2901C14.8989 14.0637 14.8944 13.835 14.8933 13.6075C14.8933 13.0818 14.8933 12.5562 14.8832 12.0316C14.8787 11.8075 14.7722 11.6192 14.5694 11.5239C14.436 11.4612 14.2769 11.4264 14.1278 11.4253C13.4576 11.4197 12.7884 11.4253 12.1182 11.4354C11.6923 11.4421 11.448 11.6999 11.4468 12.1236C11.4468 12.8072 11.4468 13.4909 11.4468 14.1746C11.4468 14.5927 11.7001 14.8617 12.116 14.8695C12.469 14.8774 12.8232 14.8706 13.1762 14.8717L13.1774 14.8706ZM6.54447 11.432C6.54447 11.432 6.54447 11.432 6.54447 11.4309C6.36739 11.4309 6.19142 11.4309 6.01434 11.4309C5.83277 11.4309 5.6512 11.4287 5.46963 11.4331C5.05942 11.4432 4.81508 11.6831 4.79491 12.0944C4.78818 12.2379 4.79379 12.3825 4.79379 12.527C4.79379 13.0852 4.78818 13.6434 4.79603 14.2015C4.80163 14.605 5.05157 14.8661 5.44609 14.8717C6.1578 14.8796 6.8695 14.8774 7.58121 14.8695C7.83787 14.8661 8.04746 14.7429 8.14497 14.5041C8.20998 14.3461 8.23688 14.1656 8.24921 13.993C8.26378 13.7801 8.24248 13.566 8.24136 13.3519C8.24136 12.9193 8.25257 12.4867 8.24248 12.0552C8.23351 11.692 7.97013 11.441 7.60475 11.4354C7.2517 11.4298 6.89752 11.4343 6.54447 11.4343V11.432Z" fill="black"/>
<path d="M6.42331 1.00065H19.8314C19.8348 1.04212 19.8404 1.08247 19.8392 1.12282C19.837 1.89505 19.8359 2.66728 19.8325 3.43951C19.8314 3.7679 19.939 4.04025 20.2226 4.22631C20.6888 4.53116 21.5081 4.31037 21.5294 3.57512C21.5496 2.86902 21.535 2.1618 21.535 1.45458C21.535 1.30663 21.535 1.15981 21.535 0.995049C21.6034 0.995049 21.6527 0.995049 21.702 0.995049C22.4742 0.995049 23.2476 0.96927 24.0187 1.00177C25.0431 1.04436 25.8983 1.44785 26.5024 2.30638C26.7725 2.68969 26.9059 3.11896 26.9081 3.58857C26.9104 4.52332 26.9092 5.45806 26.9148 6.39393C26.9148 6.51273 26.8823 6.55196 26.7568 6.55196C17.8924 6.5486 9.02916 6.54972 0.164775 6.55196C0.0515742 6.55196 -0.00110329 6.53963 1.75049e-05 6.40514C0.00786308 5.47039 0.00562149 4.53565 0.00898388 3.6009C0.0112255 3.04723 0.11658 2.51821 0.413592 2.04299C0.83389 1.36603 1.45033 1.0141 2.24273 0.999532C3.01496 0.984962 3.78719 0.999532 4.55942 0.993928C4.68271 0.993928 4.71969 1.02979 4.71857 1.15084C4.71297 1.84798 4.71297 2.54623 4.71185 3.24449C4.71185 3.35657 4.71185 3.46753 4.71633 3.57961C4.73987 4.01448 5.07611 4.34287 5.52218 4.37089C5.94136 4.39779 6.3314 4.08845 6.3908 3.66591C6.41546 3.49218 6.4121 3.31398 6.4121 3.13689C6.41434 2.46217 6.4121 1.78857 6.41322 1.11385C6.41322 1.08135 6.4177 1.04997 6.42218 1.00289L6.42331 1.00065Z" fill="black"/>
</svg>
