<svg width="16" height="16" viewBox="0 0 16 16" fill="none" xmlns="http://www.w3.org/2000/svg">
<path d="M8 3.06815e-06C6.41775 3.06815e-06 4.87103 0.469195 3.55544 1.34825C2.23985 2.2273 1.21447 3.47673 0.608967 4.93854C0.00346625 6.40034 -0.15496 8.00888 0.153721 9.56073C0.462403 11.1126 1.22433 12.538 2.34315 13.6569C3.46197 14.7757 4.88743 15.5376 6.43928 15.8463C7.99113 16.155 9.59966 15.9965 11.0615 15.391C12.5233 14.7855 13.7727 13.7602 14.6518 12.4446C15.5308 11.129 16 9.58225 16 8C16.0009 6.94917 15.7946 5.90847 15.3929 4.93745C14.9912 3.96643 14.402 3.08415 13.6589 2.3411C12.9159 1.59804 12.0336 1.0088 11.0626 0.607092C10.0915 0.20538 9.05084 -0.00091762 8 3.06815e-06ZM12 10.872L10.872 12L8 9.128L5.128 12L4 10.872L6.872 8L4 5.128L5.128 4L8 6.872L10.872 4L12 5.128L9.128 8L12 10.872Z" fill="white"/>
</svg>
