<svg width="50" height="50" viewBox="0 0 50 50" fill="none" xmlns="http://www.w3.org/2000/svg">
<path d="M47.2591 17.911C44.6796 20.5132 42.112 23.1033 39.5064 25.7319C38.9962 25.1894 38.4195 24.6348 37.9117 24.0179C37.5605 23.5906 37.6412 23.1057 38.0588 22.6064C38.3579 22.2511 38.5524 21.8694 38.5263 21.3893C38.5002 20.902 38.3341 20.4771 37.9948 20.1291C36.9744 19.0776 35.9516 18.0286 34.9264 16.9796C34.6369 16.6819 34.3522 16.3771 34.0484 16.0938C33.3033 15.3977 32.4086 15.3785 31.6279 16.029C30.9967 16.5547 30.4699 16.5403 29.8766 15.9714C29.3972 15.5129 28.925 15.0472 28.3934 14.5311C28.8491 14.0894 29.2667 13.7005 29.6678 13.2972C31.7869 11.1608 33.9037 9.0219 36.0133 6.87344C36.2055 6.6766 36.2909 6.79662 36.412 6.91905C38.6735 9.20914 40.935 11.4968 43.1965 13.7869C44.504 15.112 45.814 16.4347 47.1239 17.7574C47.1784 17.8126 47.2283 17.8726 47.2591 17.9086V17.911Z" fill="#1568A8"/>
<path d="M13.7969 6.75818C16.3716 9.34593 18.9369 11.9265 21.5425 14.5454C20.9445 15.1192 20.3939 15.7025 19.7864 16.2162C19.3759 16.5619 18.8704 16.4803 18.3911 16.0554C17.8975 15.6161 17.3375 15.472 16.7205 15.6353C16.4571 15.7049 16.1818 15.8537 15.9872 16.0434C14.6156 17.4021 13.2511 18.7679 11.9103 20.1578C11.2506 20.8396 11.2482 21.7686 11.8415 22.5127C12.4395 23.2641 12.4229 23.7274 11.7608 24.4139C11.3218 24.8676 10.8709 25.3093 10.4319 25.7534C7.84528 23.1249 5.28477 20.5275 2.73375 17.9374C6.40722 14.2286 10.102 10.4934 13.7992 6.76058L13.7969 6.75818Z" fill="#1568A8"/>
<path d="M13.187 34.7721C13.7779 34.7721 14.3688 34.7625 14.9597 34.7793C15.102 34.7841 15.2777 34.8441 15.3773 34.9425C16.7394 36.294 18.0945 37.6575 19.4423 39.0234C19.5088 39.0906 19.5491 39.2154 19.5491 39.3139C19.561 40.5477 19.5705 41.7816 19.5539 43.0155C19.5539 43.1883 19.44 43.3947 19.3142 43.522C18.0826 44.7822 16.832 46.0233 15.6028 47.286C15.3346 47.5596 15.0617 47.6917 14.6725 47.6821C13.6189 47.6604 12.5653 47.6725 11.5116 47.6869C11.2435 47.6893 11.0513 47.6028 10.8638 47.4108C9.58947 46.1097 8.30091 44.823 7.03133 43.5148C6.89607 43.3755 6.79877 43.1355 6.79403 42.941C6.77267 41.7768 6.77504 40.6125 6.79403 39.4483C6.7964 39.2803 6.88183 39.0738 7.00048 38.9562C8.31277 37.6095 9.6393 36.2748 10.9706 34.9449C11.0702 34.8465 11.2435 34.7817 11.3859 34.7769C11.9862 34.7577 12.5866 34.7697 13.187 34.7697V34.7721ZM9.83864 41.2127C9.8505 43.0995 11.3526 44.6238 13.1965 44.6142C14.9953 44.6046 16.5496 43.0275 16.5282 41.2295C16.5069 39.3307 14.9668 37.8111 13.0612 37.8159C11.2957 37.8183 9.82677 39.3667 9.83864 41.2127Z" fill="#AD172A"/>
<path d="M36.7964 34.7722C37.3778 34.7722 37.9592 34.7554 38.5406 34.7818C38.7162 34.789 38.9321 34.8706 39.0555 34.993C40.3607 36.2941 41.6493 37.612 42.9497 38.9155C43.1158 39.0835 43.1918 39.2516 43.1894 39.4916C43.1799 40.6463 43.1941 41.8033 43.1751 42.9579C43.1728 43.1452 43.0826 43.3756 42.9545 43.5077C41.711 44.7847 40.4438 46.0402 39.1979 47.3149C38.9535 47.5645 38.7043 47.687 38.346 47.6822C37.2734 47.6629 36.1984 47.6726 35.1258 47.6822C34.8695 47.6822 34.682 47.6005 34.5017 47.4157C33.2321 46.1218 31.9578 44.8327 30.6787 43.5485C30.5055 43.3756 30.4248 43.1884 30.4248 42.9411C30.4319 41.7865 30.4295 40.6294 30.4248 39.4748C30.4248 39.2372 30.5055 39.0643 30.6716 38.8987C31.9649 37.6024 33.2487 36.2917 34.5491 35.0002C34.6725 34.8754 34.8837 34.789 35.0593 34.7794C35.6384 34.753 36.2221 34.7698 36.8035 34.7698L36.7964 34.7722ZM40.1258 41.2392C40.159 39.0307 38.3674 37.8353 36.673 37.8208C35.1163 37.8088 33.3935 39.1003 33.4291 41.34C33.4575 43.0828 35.0095 44.6095 36.8035 44.6095C38.5975 44.6095 40.1329 43.0588 40.1258 41.2368V41.2392Z" fill="#AD172A"/>
<path d="M19.2311 36.6661C18.728 36.1548 18.1965 35.6147 17.6768 35.0866C23.1704 29.5318 28.6687 23.9722 34.1528 18.427C34.6535 18.9431 35.1875 19.4952 35.7 20.0257C30.2492 25.5325 24.7461 31.0969 19.2311 36.6685V36.6661Z" fill="#1568A8"/>
<path d="M50 15.2823C49.4542 15.7864 48.8894 16.3074 48.3413 16.8139C44.6986 13.1291 40.9991 9.38907 37.2971 5.64428C37.8144 5.13537 38.3674 4.59045 38.8989 4.06714C42.5582 7.76393 46.2577 11.5015 50 15.2823Z" fill="#AD172A"/>
<path d="M1.62553 16.8691C1.07262 16.3146 0.536308 15.7745 0 15.2392C3.6972 11.4968 7.39677 7.7568 11.1106 4C11.616 4.49931 12.1357 4.99861 12.6364 5.51712C12.6744 5.55793 12.6364 5.73797 12.5771 5.80038C12.0598 6.3477 11.533 6.88542 11.0038 7.42073C8.02326 10.4334 5.04271 13.446 2.0598 16.4563C1.91505 16.6027 1.7608 16.7395 1.62316 16.8691H1.62553Z" fill="#AD172A"/>
<path d="M14.1671 20.0498C14.739 19.4617 15.2681 18.9191 15.7855 18.3862C18.4812 21.1084 21.1746 23.8282 23.8965 26.5768C23.4053 27.0713 22.8951 27.5922 22.373 28.0987C22.3374 28.1347 22.1737 28.0915 22.1144 28.0363C21.8605 27.801 21.6208 27.549 21.3764 27.3041C19.0223 24.9228 16.6706 22.5439 14.3166 20.165C14.2762 20.1242 14.2216 20.093 14.1671 20.0546V20.0498Z" fill="#1568A8"/>
<path d="M26.0963 31.9539C26.5615 31.4858 27.0527 30.9865 27.5558 30.4968C27.6056 30.4488 27.7741 30.4392 27.8192 30.4824C29.3166 31.99 30.8068 33.5071 32.2995 35.0242C32.3066 35.0314 32.3066 35.041 32.2995 35.029C31.7584 35.5835 31.2245 36.1308 30.7072 36.6589C29.1813 35.1034 27.6436 33.5335 26.094 31.9539H26.0963Z" fill="#1568A8"/>
</svg>
