<svg width="23" height="21" viewBox="0 0 23 21" fill="none" xmlns="http://www.w3.org/2000/svg">
<path d="M16.1459 17.5617H11.9021C12.484 18.7165 11.8434 20.0237 11.0991 20.5055C10.2682 21.0441 9.19464 21.0558 8.37818 20.4694C7.92078 20.1401 7.62938 19.6908 7.48413 19.1486C7.33888 18.6082 7.40023 18.0823 7.6384 17.5527C7.57705 17.5527 7.53375 17.5536 7.49135 17.5527C7.10612 17.5428 6.71728 17.5644 6.33747 17.5157C5.41184 17.3975 4.69552 16.6487 4.5629 15.7032C4.4393 14.8254 4.94632 13.9242 5.77722 13.5452C6.02442 13.4325 6.28515 13.372 6.56843 13.3567C6.56121 13.3098 6.5576 13.2701 6.54768 13.2313C6.30409 12.3255 6.0605 11.4206 5.81511 10.5149C5.7691 10.3434 5.7655 10.3434 5.93691 10.3434C6.89952 10.3425 7.86214 10.338 8.82475 10.3434C9.14863 10.3452 9.08097 10.2974 9.12157 10.615C9.22893 11.4531 9.33719 12.2921 9.44455 13.1302C9.5077 13.6201 9.56905 14.11 9.634 14.599C9.64663 14.6919 9.61415 14.7127 9.52484 14.7117C8.58478 14.7018 7.64472 14.6955 6.70465 14.6901C6.29236 14.6874 6.01179 14.8922 5.91796 15.2576C5.79797 15.7267 6.09298 16.1525 6.57564 16.1958C6.72811 16.2094 6.88238 16.2066 7.03575 16.2066C11.3698 16.2066 15.7038 16.2075 20.0378 16.2066C20.3283 16.2066 20.5809 16.2698 20.7478 16.5287C20.9599 16.858 20.8516 17.2676 20.4934 17.4697C20.4113 17.5157 20.4032 17.5464 20.442 17.6303C20.8886 18.5875 20.5755 19.7792 19.7103 20.4369C18.3156 21.497 16.2875 20.7049 15.9699 18.9817C15.8824 18.5063 15.9546 18.0606 16.135 17.6222C16.1405 17.6086 16.1459 17.5951 16.1504 17.5807C16.1504 17.5779 16.1486 17.5743 16.1459 17.5635V17.5617Z" fill="#1568A8"/>
<path d="M4.21289 4.58481C4.36806 4.58481 4.50519 4.58481 4.64323 4.58481C5.84853 4.58481 7.05473 4.58662 8.26003 4.58301C8.35656 4.58301 8.36287 4.63714 8.37099 4.70029C8.40437 4.96733 8.43324 5.23528 8.46662 5.50232C8.54421 6.1176 8.6236 6.73378 8.70299 7.34906C8.76975 7.86781 8.83832 8.38656 8.90779 8.90531C8.91591 8.96846 8.90057 8.99643 8.83381 8.99552C8.68405 8.99462 8.53429 8.99823 8.38453 8.99823C7.44447 8.99823 6.50531 8.99372 5.56524 8.99823C5.44074 8.99823 5.39203 8.95944 5.35955 8.83945C5.01312 7.53671 4.66037 6.23578 4.30942 4.93395C4.28055 4.82659 4.24988 4.71924 4.21289 4.58571V4.58481Z" fill="#1568A8"/>
<path d="M9.72119 4.60082C9.77081 4.59721 9.81412 4.59 9.85742 4.5909C10.9806 4.59541 12.1047 4.60263 13.2279 4.60443C13.3263 4.60443 13.347 4.63961 13.347 4.72803C13.347 6.10925 13.347 7.49047 13.3515 8.8717C13.3515 8.97274 13.3254 9.00161 13.218 9.00161C12.3005 8.9962 11.383 8.9998 10.4655 8.9989C10.2805 8.9989 10.286 8.9962 10.2634 8.81486C10.1948 8.25822 10.1218 7.70248 10.0505 7.14584C9.97199 6.53417 9.89441 5.9216 9.81502 5.30993C9.78885 5.10965 9.75818 4.91027 9.73021 4.71089C9.7257 4.67841 9.7248 4.64593 9.72119 4.60172V4.60082Z" fill="#1568A8"/>
<path d="M14.6979 6.80536C14.6979 6.117 14.7007 5.42864 14.6952 4.74029C14.6952 4.63293 14.7295 4.60947 14.8306 4.61038C15.9538 4.6194 17.077 4.62481 18.1993 4.62662C18.2985 4.62662 18.3175 4.65548 18.3048 4.75111C18.2137 5.41421 18.1271 6.0773 18.0432 6.7413C17.9521 7.45672 17.8637 8.17214 17.778 8.88847C17.7671 8.97688 17.7292 9.00034 17.648 8.99944C16.7008 8.99853 15.7535 8.99853 14.8062 9.00124C14.7142 9.00124 14.6943 8.96515 14.6943 8.88125C14.697 8.18929 14.6961 7.49732 14.6961 6.80445H14.697L14.6979 6.80536Z" fill="#1568A8"/>
<path d="M20.733 9.00167C20.2386 9.00167 19.7442 8.99896 19.2498 9.00348C19.147 9.00438 19.1253 8.97731 19.1389 8.87537C19.2616 7.95245 19.3807 7.02953 19.4979 6.10661C19.5557 5.65011 19.6098 5.19361 19.6621 4.73711C19.6712 4.65772 19.7036 4.62705 19.783 4.62795C20.4308 4.63607 21.0785 4.62795 21.7263 4.65141C22.5906 4.68388 23.1517 5.58064 22.9632 6.33756C22.7521 7.1856 22.5653 8.03996 22.3732 8.89161C22.3506 8.99085 22.2884 8.99085 22.2162 8.99085C21.7218 8.99085 21.2274 8.99085 20.7339 8.99085C20.7339 8.99445 20.7339 8.99716 20.7339 9.00077L20.733 9.00167Z" fill="#1568A8"/>
<path d="M18.4082 14.6992C18.4235 14.5656 18.4371 14.4303 18.4542 14.2959C18.5724 13.3685 18.6906 12.4419 18.8088 11.5145C18.8548 11.1509 18.8963 10.7873 18.945 10.4238C18.9495 10.3931 18.9946 10.3444 19.0208 10.3444C20.0096 10.3435 20.9974 10.3471 21.9862 10.3507C21.9961 10.3507 22.007 10.3579 22.0277 10.366C21.9655 10.6313 21.9032 10.8956 21.8428 11.1608C21.6723 11.8997 21.5117 12.6404 21.3285 13.3766C21.1346 14.1542 20.5662 14.6387 19.766 14.6946C19.323 14.7253 18.8764 14.7001 18.41 14.7001L18.4082 14.6992Z" fill="#1568A8"/>
<path d="M14.6972 12.5321C14.6972 11.8437 14.699 11.1553 14.6954 10.467C14.6954 10.3723 14.717 10.338 14.8208 10.3389C15.704 10.3452 16.5881 10.3461 17.4713 10.3434C17.5733 10.3434 17.5859 10.3759 17.5742 10.4688C17.4226 11.6254 17.2738 12.782 17.1258 13.9385C17.0978 14.1533 17.0726 14.3689 17.0491 14.5845C17.0401 14.672 17.0094 14.7135 16.9093 14.7126C16.2056 14.7081 15.5019 14.709 14.7982 14.7126C14.7071 14.7126 14.6945 14.6747 14.6954 14.598C14.6972 13.9097 14.6963 13.2213 14.6963 12.533L14.6972 12.5321Z" fill="#1568A8"/>
<path d="M13.3502 12.5317C13.3502 13.2165 13.3493 13.9012 13.3511 14.586C13.3511 14.6672 13.3357 14.7105 13.241 14.7105C12.5409 14.7078 11.8408 14.7078 11.1408 14.7105C11.046 14.7105 11.0145 14.6816 11.0027 14.586C10.89 13.6739 10.7709 12.7618 10.6536 11.8506C10.5931 11.3796 10.5318 10.9096 10.4705 10.4387C10.4623 10.3782 10.4686 10.3394 10.5471 10.3403C11.434 10.3431 12.3217 10.3449 13.2085 10.3412C13.3249 10.3412 13.352 10.38 13.3511 10.4901C13.3466 11.1712 13.3493 11.8515 13.3493 12.5326L13.3502 12.5317Z" fill="#1568A8"/>
<path d="M5.21878 3.20895C4.7704 3.20895 4.33646 3.21076 3.90251 3.20444C3.87364 3.20444 3.82944 3.14941 3.81951 3.11242C3.72479 2.77772 3.63727 2.44211 3.54616 2.1065C3.53443 2.0632 3.52089 2.0208 3.50646 1.97839C3.44511 1.80067 3.38196 1.75646 3.1916 1.75736C2.37875 1.76007 1.56589 1.76097 0.753035 1.76368C0.492308 1.76458 0.278494 1.67707 0.124223 1.45965C-0.18432 1.02209 0.125125 0.492519 0.578917 0.423052C0.641166 0.41403 0.70522 0.407715 0.769275 0.407715C1.55597 0.407715 2.34176 0.407715 3.12845 0.409519C3.38106 0.409519 3.62645 0.449215 3.86282 0.544845C4.33736 0.737909 4.63147 1.09697 4.77672 1.57422C4.93369 2.09207 5.06631 2.61803 5.20886 3.14039C5.21337 3.15753 5.21427 3.17648 5.21878 3.20895Z" fill="#1568A8"/>
</svg>
