<svg width="22" height="23" viewBox="0 0 22 23" fill="none" xmlns="http://www.w3.org/2000/svg">
<path d="M7.626 16.1995C7.626 16.3056 7.58386 16.4073 7.50884 16.4824C7.43383 16.5574 7.33208 16.5995 7.226 16.5995C7.11991 16.5995 7.01817 16.5574 6.94315 16.4824C6.86814 16.4073 6.826 16.3056 6.826 16.1995V14.2265C5.70194 14.2391 4.58741 14.4343 3.526 14.8045L4 11.4775C2.88079 11.6714 1.8659 12.254 1.13416 13.1227C0.402411 13.9915 0.000768428 15.0907 0 16.2265V20.2405C2.24566 21.3817 4.72903 21.9765 7.248 21.9765C8.04944 21.9733 8.84957 21.9114 9.642 21.7915V14.4265C8.9779 14.3124 8.30655 14.2456 7.633 14.2265L7.626 16.1995Z" fill="white"/>
<path d="M4.41171 11.4062L4.01172 14.2182C4.68954 14.0226 5.3873 13.9042 6.09172 13.8652C5.82222 13.6812 5.60168 13.4341 5.4492 13.1456C5.29673 12.857 5.21693 12.5356 5.21672 12.2093V11.4092L4.41171 11.4062Z" fill="white"/>
<path d="M10.0354 11.4072H9.23538V12.2072C9.2355 12.5336 9.15575 12.8551 9.00305 13.1436C8.85036 13.4321 8.62935 13.6788 8.35938 13.8622C8.78763 13.8908 9.21397 13.9432 9.63638 14.0192V12.6093C9.63613 12.4308 9.67567 12.2545 9.75214 12.0933C9.8286 11.9321 9.94007 11.79 10.0784 11.6772L10.0354 11.4072Z" fill="white"/>
<path d="M11.2401 4.6V3.22C11.2409 2.79743 11.1583 2.37885 10.9972 1.98821C10.836 1.59758 10.5994 1.24256 10.3008 0.943478C10.0023 0.644394 9.64775 0.407118 9.25742 0.245224C8.86708 0.0833303 8.44865 -7.36344e-07 8.02608 0H6.41908C5.56668 0 4.74918 0.338619 4.14644 0.94136C3.5437 1.5441 3.20508 2.36159 3.20508 3.214V4.6C5.786 3.57842 8.65916 3.57842 11.2401 4.6Z" fill="white"/>
<path d="M5.39645 6.93985C5.96852 6.67286 6.59215 6.5345 7.22345 6.5345C7.85475 6.5345 8.47838 6.67286 9.05045 6.93985C9.2193 7.01958 9.41053 7.03844 9.59171 6.99324C9.77288 6.94804 9.93284 6.84155 10.0444 6.69185L11.2565 5.03384C9.97769 4.5041 8.60709 4.23145 7.22295 4.23145C5.8388 4.23145 4.46822 4.5041 3.18945 5.03384L4.40445 6.69086C4.51601 6.84033 4.6758 6.94664 4.85675 6.99184C5.0377 7.03703 5.22871 7.01831 5.39745 6.93884L5.39645 6.93985Z" fill="white"/>
<path d="M20.483 11.8076H10.841C10.7359 11.8076 10.6319 11.8283 10.5349 11.8685C10.4378 11.9087 10.3496 11.9676 10.2753 12.0419C10.201 12.1162 10.1421 12.2044 10.1019 12.3015C10.0617 12.3985 10.041 12.5025 10.041 12.6076V21.8486C10.041 22.0608 10.1253 22.2643 10.2753 22.4143C10.4254 22.5643 10.6288 22.6486 10.841 22.6486H20.483C20.6952 22.6486 20.8987 22.5643 21.0487 22.4143C21.1987 22.2643 21.283 22.0608 21.283 21.8486V12.6076C21.283 12.3954 21.1987 12.192 21.0487 12.0419C20.8987 11.8919 20.6952 11.8076 20.483 11.8076ZM13.653 15.3956V12.5836H17.671V15.3956C17.671 15.5017 17.6289 15.6035 17.5539 15.6785C17.4788 15.7535 17.3771 15.7956 17.271 15.7956H14.057C13.9509 15.7956 13.8492 15.7535 13.7742 15.6785C13.6992 15.6035 13.657 15.5017 13.657 15.3956H13.653ZM16.265 21.8516H15.465C15.3589 21.8516 15.2572 21.8095 15.1822 21.7345C15.1071 21.6595 15.065 21.5577 15.065 21.4516C15.065 21.3455 15.1071 21.2438 15.1822 21.1688C15.2572 21.0937 15.3589 21.0516 15.465 21.0516H16.265C16.3711 21.0516 16.4728 21.0937 16.5479 21.1688C16.6229 21.2438 16.665 21.3455 16.665 21.4516C16.665 21.5577 16.6229 21.6595 16.5479 21.7345C16.4728 21.8095 16.3711 21.8516 16.265 21.8516ZM20.283 21.8516H17.872C17.7659 21.8516 17.6642 21.8095 17.5892 21.7345C17.5142 21.6595 17.472 21.5577 17.472 21.4516C17.472 21.3455 17.5142 21.2438 17.5892 21.1688C17.6642 21.0937 17.7659 21.0516 17.872 21.0516H20.283C20.3891 21.0516 20.4908 21.0937 20.5659 21.1688C20.6409 21.2438 20.683 21.3455 20.683 21.4516C20.683 21.5577 20.6409 21.6595 20.5659 21.7345C20.4908 21.8095 20.3891 21.8516 20.283 21.8516ZM20.683 20.0436C20.683 20.1497 20.6409 20.2514 20.5659 20.3264C20.4908 20.4015 20.3891 20.4436 20.283 20.4436H15.457C15.3509 20.4436 15.2492 20.4015 15.1742 20.3264C15.0991 20.2514 15.057 20.1497 15.057 20.0436V18.8386C15.057 18.7325 15.0991 18.6308 15.1742 18.5558C15.2492 18.4807 15.3509 18.4386 15.457 18.4386H20.278C20.3841 18.4386 20.4858 18.4807 20.5609 18.5558C20.6359 18.6308 20.678 18.7325 20.678 18.8386L20.683 20.0436Z" fill="white"/>
<path d="M11.4568 5.44238L11.2428 5.73538L11.0278 6.03038L10.3708 6.93037C10.3568 6.94937 10.3398 6.96538 10.3248 6.98338V7.73637C10.3282 8.10605 10.2588 8.47278 10.1205 8.81563C9.98219 9.15847 9.77771 9.47071 9.51872 9.73453C9.25974 9.99834 8.95132 10.2086 8.61108 10.3532C8.27085 10.4978 7.90546 10.574 7.53578 10.5774H6.91579C6.16928 10.5702 5.45616 10.267 4.93317 9.73424C4.41018 9.2015 4.12012 8.48289 4.12679 7.73637V6.98238C4.11179 6.96438 4.0948 6.94838 4.0808 6.92938L3.2878 5.84538L3.20779 5.73637L2.99379 5.44337C2.83425 5.58708 2.7146 5.7696 2.64644 5.97321C2.57828 6.17681 2.56392 6.39459 2.60478 6.60538C2.60478 6.87059 2.71015 7.12495 2.89769 7.31248C3.08523 7.50002 3.33957 7.60538 3.60478 7.60538C3.5837 8.29989 3.76164 8.98594 4.11758 9.58267C4.47353 10.1794 4.99266 10.6619 5.61379 10.9734V12.2064C5.61379 12.6326 5.7831 13.0413 6.08447 13.3427C6.38584 13.6441 6.79459 13.8134 7.2208 13.8134C7.647 13.8134 8.05575 13.6441 8.35712 13.3427C8.65849 13.0413 8.82779 12.6326 8.82779 12.2064V10.9734C9.44891 10.6619 9.96806 10.1794 10.324 9.58267C10.68 8.98594 10.8579 8.29989 10.8368 7.60538C11.102 7.60538 11.3564 7.50002 11.5439 7.31248C11.7314 7.12495 11.8368 6.87059 11.8368 6.60538C11.8777 6.39467 11.8634 6.17699 11.7955 5.9734C11.7275 5.76982 11.6081 5.58724 11.4488 5.44337L11.4568 5.44238Z" fill="white"/>
</svg>
