<svg width="29" height="30" viewBox="0 0 29 30" fill="none" xmlns="http://www.w3.org/2000/svg">
<path d="M6.64168 25.281C6.77244 25.8702 7.10027 26.3971 7.57098 26.7748C8.0417 27.1525 8.62717 27.3584 9.23068 27.3584C9.8342 27.3584 10.4197 27.1525 10.8904 26.7748C11.3611 26.3971 11.6889 25.8702 11.8197 25.281L12.0327 24.313L9.48468 25.772C9.40719 25.8153 9.31993 25.838 9.23119 25.838C9.14244 25.838 9.05516 25.8153 8.97768 25.772L6.42969 24.313L6.64168 25.281Z" fill="white"/>
<path d="M14.5398 23.0912C14.4006 21.5919 13.9482 20.1386 13.2118 18.8252C12.6949 19.4848 12.0235 20.0068 11.2568 20.3452V21.5312L12.9568 22.8082C13.4948 22.8253 14.0275 22.921 14.5378 23.0922L14.5398 23.0912Z" fill="white"/>
<path d="M5.50095 22.8082L7.20094 21.5312V20.3452C6.4343 20.0068 5.76283 19.4848 5.24594 18.8252C4.50996 20.1387 4.05789 21.592 3.91895 23.0912C4.42963 22.9201 4.96262 22.8248 5.50095 22.8082Z" fill="white"/>
<path d="M14.6409 28.2339C14.5479 28.3219 14.4248 28.371 14.2969 28.3709C14.2022 28.3708 14.1095 28.3445 14.0289 28.2949C13.9338 28.2351 13.8613 28.1453 13.8227 28.0398C13.7842 27.9343 13.7818 27.819 13.8159 27.7119C13.8819 27.4989 13.9529 27.2909 14.0239 27.0739C14.3672 26.1982 14.5658 25.2724 14.6119 24.3329C14.6119 24.2869 14.6119 24.2469 14.6119 24.2059C14.1603 24.0014 13.6769 23.8762 13.1829 23.8359L12.8129 25.5029C12.6318 26.3165 12.1788 27.044 11.5286 27.5654C10.8784 28.0868 10.0698 28.371 9.23636 28.371C8.4029 28.371 7.59435 28.0868 6.94414 27.5654C6.29393 27.044 5.84092 26.3165 5.65986 25.5029L5.28986 23.8359C4.7958 23.8762 4.31238 24.0014 3.86086 24.2059C3.86086 24.2459 3.85586 24.2869 3.85586 24.3329C3.90196 25.2724 4.10055 26.1982 4.44386 27.0739C4.51486 27.2919 4.58586 27.4999 4.65186 27.7119C4.68388 27.818 4.68023 27.9318 4.64149 28.0356C4.60274 28.1395 4.53103 28.2278 4.43732 28.287C4.34362 28.3462 4.23309 28.3731 4.12265 28.3635C4.01222 28.3539 3.90797 28.3084 3.82586 28.2339C3.08067 27.5401 2.41917 26.7615 1.85486 25.9139C1.38192 26.6461 1.13051 27.4993 1.13086 28.3709V29.3839H17.3428V28.3709C17.3433 27.4993 17.0918 26.6461 16.6189 25.9139C16.0545 26.7615 15.3931 27.5401 14.6479 28.2339H14.6409Z" fill="white"/>
<path d="M9.22739 6.08008C4.48539 6.08008 0.483398 11.5521 0.483398 18.0261C0.488019 20.8173 1.37068 23.5363 3.00639 25.7981C2.89352 25.3182 2.83581 24.827 2.8344 24.3341C2.80988 22.0513 3.44122 19.8095 4.6534 17.8751C4.33231 17.1973 4.16466 16.4571 4.16239 15.7071V11.6541C4.16228 11.5636 4.18639 11.4747 4.23222 11.3967C4.27804 11.3187 4.3439 11.2543 4.42298 11.2104C4.50206 11.1664 4.59147 11.1444 4.68192 11.1466C4.77238 11.1488 4.86058 11.1752 4.93739 11.2231C6.03687 11.8721 7.25152 12.3024 8.5144 12.4901C8.31518 12.0367 8.15103 11.5686 8.02339 11.0901C7.96933 10.8689 7.89812 10.6522 7.81039 10.4421C7.73523 10.345 7.69837 10.2238 7.70686 10.1013C7.71534 9.97886 7.76856 9.86381 7.85639 9.77808C7.94442 9.69025 8.06152 9.63761 8.18564 9.63006C8.30976 9.62251 8.43237 9.66056 8.5304 9.73708C10.1338 10.8867 11.9459 11.7127 13.8654 12.1691C13.9848 12.188 14.0936 12.2486 14.1725 12.3401C14.2514 12.4317 14.2953 12.5482 14.2964 12.6691V15.7091C14.2941 16.4591 14.1265 17.1993 13.8054 17.8771C15.0176 19.8115 15.6489 22.0533 15.6244 24.3361C15.623 24.829 15.5653 25.3202 15.4524 25.8001C17.0881 23.5383 17.9708 20.8193 17.9754 18.0281C17.9754 11.5541 13.9754 6.08208 9.23139 6.08208L9.22739 6.08008Z" fill="white"/>
<path d="M9.66978 13.6742L9.52278 13.6542C8.01973 13.5229 6.54986 13.1374 5.17578 12.5142V15.7062C5.17578 16.7812 5.6028 17.8121 6.36288 18.5721C7.12297 19.3322 8.15387 19.7592 9.22879 19.7592C10.3037 19.7592 11.3346 19.3322 12.0947 18.5721C12.8548 17.8121 13.2818 16.7812 13.2818 15.7062V13.0872C11.8284 12.7136 10.4386 12.1262 9.15779 11.3442C9.26815 11.8807 9.55337 12.3653 9.96878 12.7222C10.0738 12.7774 10.1561 12.8677 10.2014 12.9773C10.2467 13.087 10.2522 13.209 10.2168 13.3222C10.1822 13.4361 10.1081 13.534 10.0078 13.5981C9.90757 13.6623 9.7877 13.6886 9.66978 13.6722V13.6742ZM7.20279 14.1862H8.21579V15.1992H7.20279V14.1862ZM10.2428 14.1862H11.2558V15.1992H10.2428V14.1862ZM10.8508 16.9222L11.6618 17.5302C11.3786 17.9078 11.0114 18.2142 10.5893 18.4253C10.1672 18.6364 9.70173 18.7462 9.22978 18.7462C8.75784 18.7462 8.29238 18.6364 7.87025 18.4253C7.44813 18.2142 7.08096 17.9078 6.79779 17.5302L7.60878 16.9222C7.79761 17.1738 8.04239 17.3779 8.32373 17.5185C8.60507 17.659 8.91527 17.7322 9.22978 17.7322C9.54429 17.7322 9.85451 17.659 10.1358 17.5185C10.4172 17.3779 10.662 17.1738 10.8508 16.9222Z" fill="white"/>
<path d="M9.22647 20.7709C8.88634 20.771 8.54702 20.7375 8.21347 20.6709V21.7859C8.21317 21.8642 8.195 21.9413 8.16034 22.0115C8.12568 22.0817 8.07545 22.1431 8.01347 22.1909L6.60547 23.2499L9.22946 24.7499L11.8535 23.2499L10.4455 22.1909C10.3835 22.1431 10.3333 22.0817 10.2986 22.0115C10.2639 21.9413 10.2458 21.8642 10.2455 21.7859V20.6709C9.90995 20.7379 9.56861 20.7714 9.22647 20.7709Z" fill="white"/>
<path d="M27.9748 6.07892H26.9618V5.06592H22.9088V6.07892H21.8958V5.06592H20.8818V14.1849H28.9878V5.06592H27.9748V6.07892ZM25.2388 12.0569C25.1511 12.1226 25.0445 12.1582 24.9348 12.1582C24.8252 12.1582 24.7186 12.1226 24.6308 12.0569L22.6048 10.5369L23.2128 9.72592L24.4288 10.6379V7.09192H25.4418V10.6379L26.6578 9.72592L27.2658 10.5369L25.2388 12.0569Z" fill="white"/>
<path d="M27.9745 4.053H26.9615V3.04C26.9675 2.77009 26.9196 2.5017 26.8204 2.25059C26.7213 1.99947 26.5729 1.77069 26.3842 1.57768C26.1954 1.38467 25.97 1.23131 25.7211 1.12661C25.4723 1.02191 25.205 0.967981 24.935 0.967981C24.665 0.967981 24.3978 1.02191 24.149 1.12661C23.9001 1.23131 23.6747 1.38467 23.4859 1.57768C23.2971 1.77069 23.1488 1.99947 23.0497 2.25059C22.9505 2.5017 22.9025 2.77009 22.9085 3.04V4.053H21.8945V3.04C21.8945 2.23374 22.2148 1.46051 22.7849 0.890396C23.355 0.320285 24.1283 0 24.9345 0C25.7408 0 26.514 0.320285 27.0841 0.890396C27.6542 1.46051 27.9745 2.23374 27.9745 3.04V4.053Z" fill="white"/>
<path d="M24.4277 16.2119H25.4407V17.2249H24.4277V16.2119Z" fill="white"/>
<path d="M24.9343 29.3838H19.3613V28.3708H24.4273V18.2378H25.4403V28.8768C25.4403 29.0113 25.3869 29.1402 25.2918 29.2353C25.1968 29.3304 25.0678 29.3838 24.9333 29.3838H24.9343Z" fill="white"/>
</svg>
