<svg width="50" height="50" viewBox="0 0 50 50" fill="none" xmlns="http://www.w3.org/2000/svg">
<path d="M20.4576 3.34937C23.8611 3.34937 27.2646 3.34937 30.6697 3.34937C31.4285 3.34937 31.8476 3.73487 31.9074 4.49533C31.9179 4.62031 31.9164 4.7453 31.9164 4.87029C31.9164 8.93461 31.9164 13.0004 31.9164 17.0648C31.9164 17.3012 31.9164 17.5421 31.8805 17.774C31.8027 18.2695 31.3866 18.6444 30.8867 18.6956C30.7939 18.7046 30.7011 18.7046 30.6068 18.7046C23.8491 18.7046 17.09 18.7046 10.3323 18.7046C9.9671 18.7046 9.63483 18.6354 9.35345 18.3764C9.11098 18.1535 9.00771 17.8809 9.00621 17.5617C9.00322 16.738 9.00621 15.9128 9.00621 15.0891C9.00621 11.5925 9.00621 8.09585 9.00621 4.59923C9.00472 3.78456 9.43577 3.34937 10.2455 3.34937C13.649 3.34937 17.054 3.34937 20.4576 3.34937Z" fill="#A1A1A1"/>
<path d="M17.7433 20.8882C17.854 20.8882 17.9648 20.8882 18.0741 20.8882C22.3292 20.8897 26.5844 20.8957 30.8395 20.8912C32.6326 20.8882 34.062 19.5028 34.0889 17.6957C34.1218 15.4671 34.0994 13.2384 34.1009 11.0082C34.1009 10.2974 34.1009 9.58667 34.1009 8.86386C34.1473 8.85482 34.1937 8.83525 34.2416 8.83675C35.0363 8.83976 35.8311 8.83374 36.6258 8.85633C37.2141 8.87289 37.7619 9.07468 38.2662 9.36079C39.8333 10.2493 41.1669 11.4133 42.2325 12.874C42.5753 13.3438 42.8791 13.8362 42.9749 14.428C42.9914 14.5259 42.9959 14.6268 42.9959 14.7262C42.9959 17.8478 42.9929 20.9695 43.0004 24.0926C43.0004 24.6739 42.5439 25.3124 41.8314 25.2793C41.4662 25.2627 41.098 25.2717 40.7328 25.2763C40.6146 25.2763 40.5607 25.2416 40.5308 25.1166C40.0009 22.8217 38.133 21.1186 35.7922 20.8716C32.6611 20.5403 30.3696 22.6922 29.8412 25.1091C29.8143 25.2326 29.7589 25.2748 29.6407 25.2732C29.1991 25.2732 28.7591 25.2793 28.3176 25.2793C26.3359 25.2793 24.3543 25.2763 22.3726 25.2732C22.0404 25.2732 22.0434 25.2702 21.958 24.9555C21.5629 23.4858 20.7023 22.373 19.4002 21.6004C18.9107 21.3098 18.3869 21.1035 17.8361 20.965C17.8032 20.9559 17.7702 20.9439 17.7373 20.9333L17.7433 20.8912V20.8882ZM35.8715 14.3C35.8715 14.3 35.8745 14.3 35.876 14.3C35.876 15.1614 35.879 16.0227 35.873 16.8841C35.873 17.0256 35.9119 17.0603 36.0526 17.0603C37.7035 17.0527 39.3559 17.0497 41.0067 17.0588C41.2088 17.0588 41.2432 16.994 41.2372 16.8163C41.2133 16.0559 41.0905 15.3165 40.8331 14.6012C40.4485 13.532 39.8064 12.6707 38.8081 12.1075C37.934 11.6136 36.9761 11.5232 35.9987 11.5247C35.8655 11.5247 35.8715 11.6106 35.8715 11.7009C35.8715 12.5683 35.8715 13.4357 35.8715 14.303V14.3Z" fill="#A1A1A1"/>
<path d="M16.6397 23.0476C18.7979 23.0732 19.9235 24.8215 19.9175 26.359C19.91 28.1766 18.4447 29.6538 16.6501 29.6508C14.878 29.6493 13.3065 28.1148 13.3424 26.353C13.3813 24.5384 14.6835 23.0883 16.6397 23.0476Z" fill="#A1A1A1"/>
<path d="M38.469 26.3997C38.472 28.154 36.9439 29.6704 35.1478 29.6463C33.2784 29.6192 31.9149 28.1661 31.9015 26.3214C31.888 24.5098 33.3742 23.0356 35.2002 23.0507C37.1534 23.0672 38.4451 24.6288 38.4705 26.4012L38.469 26.3997Z" fill="#A1A1A1"/>
<path d="M15.6656 20.8671C14.9816 21.0673 14.314 21.2812 13.7243 21.6772C12.4955 22.5039 11.6469 23.6092 11.3086 25.0775C11.2772 25.2145 11.2263 25.2792 11.0751 25.2732C10.6905 25.2567 10.3028 25.2823 9.92267 25.2356C9.41528 25.1738 9.02015 24.7447 9.01117 24.2251C8.99021 23.0581 9.00518 21.891 9.00518 20.7014C9.74456 21.0011 10.5079 20.8806 11.2592 20.8896C12.5823 20.9047 13.9054 20.8942 15.2285 20.8912C15.3737 20.8912 15.5204 20.8776 15.6656 20.8686V20.8671Z" fill="#A1A1A1"/>
<path d="M5.75 46.959H3.05682V38.2317H5.86932C6.71591 38.2317 7.44034 38.4064 8.04261 38.7559C8.64489 39.1024 9.10653 39.601 9.42756 40.2516C9.74858 40.8993 9.90909 41.6749 9.90909 42.5783C9.90909 43.4874 9.74716 44.2701 9.4233 44.9263C9.09943 45.5797 8.62784 46.0826 8.00852 46.4348C7.3892 46.7843 6.63636 46.959 5.75 46.959ZM4.11364 46.0215H5.68182C6.40341 46.0215 7.00142 45.8823 7.47585 45.6039C7.95028 45.3255 8.30398 44.9292 8.53693 44.415C8.76989 43.9007 8.88636 43.2885 8.88636 42.5783C8.88636 41.8738 8.77131 41.2672 8.54119 40.7587C8.31108 40.2473 7.96733 39.8553 7.50994 39.5826C7.05256 39.307 6.48295 39.1692 5.80114 39.1692H4.11364V46.0215ZM14.2898 47.0953C13.6591 47.0953 13.1151 46.9561 12.6577 46.6777C12.2031 46.3965 11.8523 46.0044 11.6051 45.5016C11.3608 44.9959 11.2386 44.4078 11.2386 43.7374C11.2386 43.0669 11.3608 42.476 11.6051 41.9647C11.8523 41.4505 12.196 41.0499 12.6364 40.763C13.0795 40.4732 13.5966 40.3283 14.1875 40.3283C14.5284 40.3283 14.8651 40.3851 15.1974 40.4988C15.5298 40.6124 15.8324 40.7971 16.1051 41.0527C16.3778 41.3056 16.5952 41.6408 16.7571 42.0584C16.919 42.476 17 42.9902 17 43.601V44.0272H11.9545V43.1578H15.9773C15.9773 42.7885 15.9034 42.459 15.7557 42.1692C15.6108 41.8794 15.4034 41.6507 15.1335 41.4831C14.8665 41.3155 14.5511 41.2317 14.1875 41.2317C13.7869 41.2317 13.4403 41.3311 13.1477 41.53C12.858 41.726 12.6349 41.9817 12.4787 42.2971C12.3224 42.6124 12.2443 42.9505 12.2443 43.3113V43.8908C12.2443 44.3851 12.3295 44.8042 12.5 45.1479C12.6733 45.4888 12.9134 45.7488 13.2202 45.9277C13.527 46.1039 13.8835 46.1919 14.2898 46.1919C14.554 46.1919 14.7926 46.155 15.0057 46.0811C15.2216 46.0044 15.4077 45.8908 15.5639 45.7402C15.7202 45.5868 15.8409 45.3965 15.9261 45.1692L16.8977 45.4419C16.7955 45.7715 16.6236 46.0613 16.3821 46.3113C16.1406 46.5584 15.8423 46.7516 15.4872 46.8908C15.1321 47.0272 14.733 47.0953 14.2898 47.0953ZM19.5355 38.2317V46.959H18.5298V38.2317H19.5355ZM21.3775 46.959V40.4135H22.3832V46.959H21.3775ZM21.8888 39.3226C21.6928 39.3226 21.5238 39.2559 21.3817 39.1223C21.2425 38.9888 21.1729 38.8283 21.1729 38.6408C21.1729 38.4533 21.2425 38.2928 21.3817 38.1593C21.5238 38.0257 21.6928 37.959 21.8888 37.959C22.0849 37.959 22.2525 38.0257 22.3917 38.1593C22.5337 38.2928 22.6048 38.4533 22.6048 38.6408C22.6048 38.8283 22.5337 38.9888 22.3917 39.1223C22.2525 39.2559 22.0849 39.3226 21.8888 39.3226ZM29.5774 40.4135L27.157 46.959H26.1342L23.7138 40.4135H24.8047L26.6115 45.6294H26.6797L28.4865 40.4135H29.5774ZM33.4148 47.0953C32.7841 47.0953 32.2401 46.9561 31.7827 46.6777C31.3281 46.3965 30.9773 46.0044 30.7301 45.5016C30.4858 44.9959 30.3636 44.4078 30.3636 43.7374C30.3636 43.0669 30.4858 42.476 30.7301 41.9647C30.9773 41.4505 31.321 41.0499 31.7614 40.763C32.2045 40.4732 32.7216 40.3283 33.3125 40.3283C33.6534 40.3283 33.9901 40.3851 34.3224 40.4988C34.6548 40.6124 34.9574 40.7971 35.2301 41.0527C35.5028 41.3056 35.7202 41.6408 35.8821 42.0584C36.044 42.476 36.125 42.9902 36.125 43.601V44.0272H31.0795V43.1578H35.1023C35.1023 42.7885 35.0284 42.459 34.8807 42.1692C34.7358 41.8794 34.5284 41.6507 34.2585 41.4831C33.9915 41.3155 33.6761 41.2317 33.3125 41.2317C32.9119 41.2317 32.5653 41.3311 32.2727 41.53C31.983 41.726 31.7599 41.9817 31.6037 42.2971C31.4474 42.6124 31.3693 42.9505 31.3693 43.3113V43.8908C31.3693 44.3851 31.4545 44.8042 31.625 45.1479C31.7983 45.4888 32.0384 45.7488 32.3452 45.9277C32.652 46.1039 33.0085 46.1919 33.4148 46.1919C33.679 46.1919 33.9176 46.155 34.1307 46.0811C34.3466 46.0044 34.5327 45.8908 34.6889 45.7402C34.8452 45.5868 34.9659 45.3965 35.0511 45.1692L36.0227 45.4419C35.9205 45.7715 35.7486 46.0613 35.5071 46.3113C35.2656 46.5584 34.9673 46.7516 34.6122 46.8908C34.2571 47.0272 33.858 47.0953 33.4148 47.0953ZM37.6548 46.959V40.4135H38.6264V41.4022H38.6946C38.8139 41.0783 39.0298 40.8155 39.3423 40.6138C39.6548 40.4121 40.0071 40.3113 40.3991 40.3113C40.473 40.3113 40.5653 40.3127 40.6761 40.3155C40.7869 40.3184 40.8707 40.3226 40.9276 40.3283V41.351C40.8935 41.3425 40.8153 41.3297 40.6932 41.3127C40.5739 41.2928 40.4474 41.2828 40.3139 41.2828C39.9957 41.2828 39.7116 41.3496 39.4616 41.4831C39.2145 41.6138 39.0185 41.7956 38.8736 42.0286C38.7315 42.2587 38.6605 42.5215 38.6605 42.8169V46.959H37.6548ZM42.9666 49.4135C42.7962 49.4135 42.6442 49.3993 42.5107 49.3709C42.3771 49.3453 42.2848 49.3198 42.2337 49.2942L42.4893 48.4078C42.7337 48.4703 42.9496 48.4931 43.1371 48.476C43.3246 48.459 43.4908 48.3752 43.6357 48.2246C43.7834 48.0769 43.9183 47.8368 44.0405 47.5044L44.228 46.9931L41.8075 40.4135H42.8984L44.7053 45.6294H44.7734L46.5803 40.4135H47.6712L44.8928 47.9135C44.7678 48.2516 44.6129 48.5314 44.4283 48.753C44.2436 48.9775 44.0291 49.1436 43.7848 49.2516C43.5433 49.3596 43.2706 49.4135 42.9666 49.4135Z" fill="#A1A1A1"/>
</svg>
