<svg width="28" height="28" viewBox="0 0 28 28" fill="none" xmlns="http://www.w3.org/2000/svg">
<path d="M21.1737 19.0765C21.2568 19.1828 21.3065 19.3114 21.3165 19.4459C21.3266 19.5804 21.2965 19.7149 21.2301 19.8324C21.1637 19.9498 21.0639 20.0449 20.9435 20.1057C20.823 20.1664 20.6872 20.1901 20.5533 20.1737C20.4194 20.1573 20.2934 20.1016 20.1911 20.0135C20.0889 19.9255 20.0151 19.8091 19.979 19.6791C19.9429 19.5491 19.9462 19.4113 19.9884 19.2832C20.0306 19.1551 20.1099 19.0423 20.2162 18.9592C20.2859 18.902 20.3665 18.8594 20.4531 18.8343C20.5397 18.8091 20.6305 18.8017 20.7201 18.8127C20.8096 18.8237 20.896 18.8527 20.9739 18.8981C21.0519 18.9434 21.1199 19.0041 21.1737 19.0765ZM15.6332 18.9528C15.7394 18.8698 15.8186 18.7572 15.8608 18.6292C15.9031 18.5012 15.9065 18.3636 15.8706 18.2337C15.8346 18.1038 15.761 17.9874 15.6591 17.8993C15.5571 17.8112 15.4313 17.7552 15.2975 17.7385C15.1638 17.7219 15.0281 17.7452 14.9076 17.8055C14.787 17.8659 14.6871 17.9606 14.6204 18.0777C14.5537 18.1948 14.5231 18.3291 14.5326 18.4635C14.5422 18.598 14.5913 18.7266 14.6738 18.8332C14.7275 18.906 14.7954 18.9672 14.8734 19.0129C14.9515 19.0587 15.038 19.088 15.1278 19.0992C15.2176 19.1104 15.3087 19.1032 15.3956 19.0781C15.4825 19.0529 15.5633 19.0103 15.6332 18.9528ZM13.5739 0.649895L26.6331 17.3555C26.8082 17.5767 26.9376 17.8304 27.0139 18.102C27.0902 18.3736 27.1118 18.6576 27.0775 18.9376C27.0432 19.2176 26.9537 19.488 26.8141 19.7332C26.6745 19.9783 26.4876 20.1933 26.2643 20.3657L17.2795 27.3893C17.0577 27.5647 16.8032 27.6943 16.5308 27.7705C16.2584 27.8466 15.9736 27.8678 15.693 27.8328C15.4123 27.7978 15.1414 27.7074 14.8961 27.5667C14.6507 27.426 14.4358 27.238 14.2638 27.0134L1.21014 10.3149C1.05049 10.119 0.94403 9.88531 0.901024 9.63629C0.858019 9.38727 0.879922 9.13136 0.964622 8.89327L3.24561 1.60416C3.32799 1.29872 3.50727 1.02827 3.75651 0.833437C4.00574 0.638603 4.31147 0.529912 4.62776 0.523695L12.2519 0.0696911C12.504 0.0387637 12.7598 0.0763897 12.9923 0.178606C13.2248 0.280824 13.4262 0.443232 13.5739 0.649895ZM5.30842 5.74517C5.52772 6.02571 5.82528 6.23491 6.16348 6.34633C6.50168 6.45775 6.86532 6.46638 7.20842 6.37112C7.55152 6.27587 7.85867 6.08102 8.09103 5.8112C8.32339 5.54139 8.47052 5.20873 8.51382 4.85529C8.55712 4.50186 8.49464 4.14352 8.33428 3.8256C8.17393 3.50767 7.9229 3.24444 7.61293 3.06918C7.30297 2.89392 6.948 2.81452 6.59291 2.841C6.23782 2.86749 5.89855 2.99867 5.61802 3.21797C5.24184 3.51205 4.99788 3.94351 4.93982 4.41745C4.88176 4.8914 5.01435 5.36899 5.30842 5.74517ZM13.9441 19.4036C14.139 19.6554 14.4042 19.8438 14.7063 19.9447C15.0083 20.0457 15.3334 20.0547 15.6406 19.9707C15.9477 19.8866 16.223 19.7133 16.4316 19.4727C16.6401 19.232 16.7725 18.9349 16.812 18.6189C16.8516 18.303 16.7964 17.9824 16.6535 17.6978C16.5106 17.4132 16.2865 17.1774 16.0095 17.0203C15.7325 16.8633 15.4151 16.792 15.0975 16.8154C14.78 16.8389 14.4765 16.9561 14.2256 17.1523C13.8938 17.4163 13.6785 17.7997 13.6259 18.2205C13.5733 18.6413 13.6875 19.066 13.9441 19.4036ZM21.9001 18.5036C21.704 18.2533 21.438 18.0667 21.1358 17.9676C20.8337 17.8684 20.5089 17.861 20.2026 17.9464C19.8962 18.0317 19.6221 18.206 19.4147 18.4471C19.2074 18.6882 19.0762 18.9854 19.0377 19.3011C18.9993 19.6168 19.0552 19.9368 19.1986 20.2206C19.3419 20.5045 19.5662 20.7395 19.8431 20.896C20.12 21.0524 20.437 21.1232 20.7541 21.0995C21.0713 21.0758 21.3742 20.9586 21.6248 20.7628C21.9574 20.4981 22.1729 20.1134 22.2249 19.6915C22.2768 19.2696 22.1611 18.8442 21.9026 18.5067L21.9001 18.5036ZM18.4833 14.3698C18.4242 14.3577 18.3632 14.3585 18.3045 14.3723C18.2458 14.386 18.1907 14.4124 18.1432 14.4496C18.0957 14.4867 18.0568 14.5338 18.0293 14.5874C18.0017 14.6411 17.9862 14.7001 17.9837 14.7604L16.9689 23.044C16.9569 23.103 16.9578 23.1638 16.9716 23.2224C16.9854 23.281 17.0117 23.3359 17.0488 23.3833C17.0859 23.4308 17.1328 23.4696 17.1863 23.4971C17.2399 23.5246 17.2987 23.5402 17.3588 23.5428C17.422 23.5521 17.4863 23.5484 17.5479 23.5321C17.6096 23.5158 17.6673 23.4871 17.7176 23.4478C17.7678 23.4086 17.8096 23.3595 17.8403 23.3036C17.871 23.2477 17.89 23.1861 17.8963 23.1227L18.9111 14.8391C18.9142 14.7215 18.8716 14.6073 18.7923 14.5204C18.713 14.4335 18.6032 14.3806 18.4858 14.373L18.4833 14.3698Z" fill="white"/>
</svg>
