<svg width="13" height="12" viewBox="0 0 13 12" fill="none" xmlns="http://www.w3.org/2000/svg">
<path d="M0.398926 6C0.398926 7.18669 0.75082 8.34673 1.41011 9.33342C2.0694 10.3201 3.00647 11.0892 4.10283 11.5433C5.19918 11.9974 6.40558 12.1162 7.56947 11.8847C8.73335 11.6532 9.80245 11.0818 10.6416 10.2426C11.4807 9.40353 12.0521 8.33443 12.2836 7.17054C12.5151 6.00666 12.3963 4.80026 11.9422 3.7039C11.4881 2.60754 10.719 1.67047 9.73235 1.01118C8.74565 0.351894 7.58561 0 6.39893 0C4.80763 0 3.2815 0.632141 2.15629 1.75736C1.03107 2.88258 0.398926 4.4087 0.398926 6ZM7.45193 6L5.08893 3.661C4.9918 3.55521 4.93929 3.416 4.94235 3.27242C4.94542 3.12884 5.00382 2.99199 5.10537 2.89044C5.20692 2.78889 5.34376 2.73049 5.48734 2.72743C5.63092 2.72436 5.77014 2.77688 5.87593 2.874L8.62393 5.634C8.72474 5.73519 8.78274 5.8713 8.78591 6.0141C8.78907 6.1569 8.73716 6.29544 8.64093 6.401L5.93493 9.125C5.88338 9.17674 5.82215 9.21782 5.75473 9.2459C5.68731 9.27398 5.61502 9.2885 5.54199 9.28864C5.39449 9.28892 5.25292 9.2306 5.14843 9.1265C5.04393 9.0224 4.98507 8.88106 4.98479 8.73356C4.98451 8.58606 5.04283 8.4445 5.14693 8.34L7.45193 6Z" fill="white"/>
</svg>
