<svg width="63" height="80" viewBox="0 0 63 80" fill="none" xmlns="http://www.w3.org/2000/svg">
<path d="M31.1893 80.0004C28.1861 80.0004 25.183 80.0004 22.1798 80.0004C20.675 80.0004 20.0549 79.4137 20.036 77.9076C20.014 76.1223 20.0234 74.3401 20.0266 72.5548C20.0297 70.7068 20.0643 68.8556 20.0423 67.0075C20.0391 66.6373 19.9069 66.2294 19.7212 65.9062C18.569 63.895 17.3822 61.9057 16.2112 59.9039C13.6141 55.4673 11.0485 51.0119 8.41048 46.5972C6.47447 43.3561 8.58992 39.2991 12.4619 39.1579C14.1493 39.0952 15.5029 39.8608 16.4441 41.2476C17.1304 42.2579 17.7128 43.3372 18.3329 44.3946C20.3414 47.8209 22.3435 51.2503 24.3519 54.6735C24.9122 55.6273 25.4505 55.8721 26.5429 55.6148C28.1735 55.232 29.8137 54.9496 31.4978 54.9872C32.9018 55.0155 34.2744 55.2351 35.6343 55.5677C36.9596 55.8909 37.4507 55.6869 38.1306 54.526C39.5063 52.1791 40.8757 49.829 42.2514 47.4789C43.3941 45.5242 44.5399 43.5694 45.689 41.6147C46.5074 40.2247 47.7194 39.3964 49.3249 39.1924C51.6481 38.8975 53.7446 40.253 54.475 42.4901C54.9503 43.9459 54.73 45.3077 53.9682 46.6129C52.7814 48.6461 51.604 50.6887 50.4172 52.725C49.1706 54.8617 47.924 56.9953 46.668 59.1289C45.3553 61.3598 44.0363 63.5906 42.711 65.8152C42.4339 66.2796 42.3206 66.7628 42.3238 67.2993C42.3458 70.6471 42.3521 73.995 42.3615 77.3428C42.3615 77.6409 42.3552 77.9421 42.3426 78.2402C42.286 79.3572 41.606 79.9973 40.4727 79.9973C37.3783 79.9973 34.2838 79.9973 31.1862 79.9973L31.1893 80.0004Z" fill="#0DBC5E"/>
<path d="M42.5313 11.3049C42.4809 17.6429 37.5008 22.616 31.1576 22.6066C24.4838 22.5972 19.8091 17.1314 19.8657 11.2264C19.9224 5.36221 24.4083 -0.00940052 31.2205 1.23525e-05C38.2752 0.00942523 42.5281 5.67911 42.5313 11.3049ZM30.3013 12.5819C29.3066 11.5873 28.3811 10.6523 27.4429 9.72979C27.1376 9.42858 26.8322 9.11168 26.4765 8.87949C25.6832 8.36492 24.6098 8.92028 24.5153 9.86157C24.465 10.3605 24.6853 10.7432 25.0221 11.079C26.4073 12.4595 27.7861 13.8464 29.1838 15.2144C29.955 15.9674 30.6224 15.9517 31.3905 15.1893C33.3643 13.2345 35.3287 11.2704 37.2962 9.30935C37.4158 9.19012 37.5322 9.06461 37.6298 8.92656C38.1587 8.20177 37.8345 7.21028 36.9939 6.91534C36.3171 6.68002 35.8386 7.00319 35.3948 7.44874C34.1041 8.74144 32.8103 10.0279 31.5227 11.3237C31.1198 11.7285 30.7263 12.1458 30.3045 12.5819H30.3013Z" fill="url(#paint0_linear_322_11478)"/>
<path d="M23.2872 42.8694C23.2683 38.6493 26.8287 35.0379 30.9809 34.9688C35.5234 34.8967 39.0775 38.5206 39.109 42.8223C39.1405 47.2558 35.5738 50.8389 31.0438 50.7542C26.1865 50.6632 23.3029 46.7318 23.2872 42.8694Z" fill="#5A5A5A"/>
<path d="M48.7764 19.2714C49.4564 19.2714 50.1332 19.2777 50.8132 19.2714C51.4868 19.262 51.66 19.1553 51.8772 18.5184C52.2864 17.3135 52.6673 16.0961 53.064 14.885C53.1175 14.725 53.1679 14.5618 53.2308 14.4081C53.3788 14.0535 53.6306 13.8151 54.0304 13.8276C54.4208 13.8402 54.682 14.0567 54.8048 14.4332C55.1857 15.5941 55.5918 16.7456 55.9507 17.9128C56.3631 19.2557 56.4229 19.3059 57.83 19.2777C58.9916 19.2526 60.1532 19.2494 61.3148 19.2589C61.5509 19.2589 61.8248 19.3059 62.02 19.4283C62.5331 19.7546 62.5205 20.4041 61.9885 20.7994C61.0063 21.5336 60.0084 22.2427 59.0137 22.9612C58.8437 23.0836 58.6737 23.2028 58.5068 23.3284C58.0095 23.708 57.9213 23.9465 58.1133 24.5426C58.4754 25.6816 58.8531 26.8174 59.2246 27.9532C59.2875 28.1509 59.3537 28.3486 59.4166 28.5462C59.5677 29.0482 59.4985 29.3651 59.1837 29.6067C58.8248 29.8829 58.4943 29.8829 58.0346 29.5503C57.2414 28.9761 56.4669 28.3831 55.6799 27.7995C55.3148 27.5265 54.9465 27.2567 54.5687 26.9994C54.1972 26.7484 53.8195 26.7358 53.4449 27.0088C52.2738 27.8591 51.1059 28.7125 49.9254 29.5503C49.3368 29.9676 48.6631 29.7417 48.5561 29.0922C48.5214 28.8882 48.5875 28.6529 48.6505 28.449C49.0597 27.1594 49.491 25.8792 49.894 24.5897C50.108 23.9057 50.0293 23.7206 49.4532 23.3001C48.4207 22.5471 47.3882 21.7972 46.3556 21.0442C46.2297 20.9532 46.1038 20.8559 45.9873 20.7555C45.7071 20.5139 45.5749 20.219 45.704 19.8519C45.8299 19.4942 46.1006 19.3091 46.4689 19.2777C46.7554 19.2526 47.0419 19.2557 47.3283 19.2526C47.81 19.2494 48.2948 19.2526 48.7764 19.2526V19.2714Z" fill="#1568A8"/>
<path d="M3.08643 19.2843C3.79158 19.2843 4.49673 19.2937 5.20188 19.2843C5.84092 19.2718 6.06443 19.1118 6.2659 18.5062C6.70347 17.1852 7.11586 15.858 7.55658 14.5402C7.7549 13.9472 8.15155 13.7244 8.65208 13.8782C9.02669 13.9943 9.14631 14.3175 9.25334 14.6406C9.61851 15.7639 9.98053 16.8935 10.3457 18.0167C10.7518 19.2655 10.7959 19.2906 12.1117 19.2749C13.2355 19.2624 14.3562 19.2592 15.4801 19.2592C15.6878 19.2592 15.9019 19.2624 16.1002 19.3126C16.755 19.4789 16.9565 20.2036 16.4874 20.6868C16.3426 20.8343 16.1695 20.9567 15.9995 21.079C14.9858 21.8164 13.969 22.5412 12.9617 23.2848C12.3289 23.7492 12.2786 23.9217 12.521 24.681C12.927 25.9424 13.3457 27.2006 13.7518 28.465C13.8148 28.6595 13.8777 28.876 13.8588 29.0706C13.7959 29.673 13.1096 29.9742 12.5776 29.6165C11.8536 29.1271 11.1579 28.5968 10.4527 28.0854C9.98682 27.7496 9.52722 27.4076 9.05502 27.0813C8.50412 26.7048 8.25543 26.7017 7.70768 27.0939C6.65625 27.8438 5.62056 28.6093 4.57543 29.3686C4.47155 29.444 4.36137 29.5161 4.25119 29.5883C3.93009 29.8079 3.59011 29.8613 3.26902 29.6259C2.94163 29.3875 2.83145 29.0549 2.96051 28.6595C3.32568 27.5488 3.69085 26.4381 4.05287 25.3243C4.14416 25.0387 4.22601 24.7532 4.3173 24.4677C4.45896 24.0284 4.34563 23.677 3.97102 23.4072C3.30365 22.9302 2.63627 22.4533 1.9689 21.9733C1.48411 21.6219 0.986727 21.2799 0.523973 20.9002C0.322501 20.7339 0.124178 20.5049 0.0391826 20.2633C-0.127661 19.7895 0.287874 19.2906 0.854511 19.2718C1.59744 19.2467 2.34351 19.2655 3.08643 19.2655C3.08643 19.2749 3.08643 19.2812 3.08643 19.2906V19.2843Z" fill="#AD172A"/>
<defs>
<linearGradient id="paint0_linear_322_11478" x1="23.5" y1="2.5" x2="40.5" y2="18.5" gradientUnits="userSpaceOnUse">
<stop stop-color="#AD172A"/>
<stop offset="1" stop-color="#1568A8"/>
</linearGradient>
</defs>
</svg>
