<svg width="22" height="22" viewBox="0 0 22 22" fill="none" xmlns="http://www.w3.org/2000/svg">
<path d="M17.1764 1H4.82348C2.87424 1 1.29407 2.44849 1.29407 4.23529V17.1765C1.29407 18.9633 2.87424 20.4118 4.82348 20.4118H17.1764C19.1257 20.4118 20.7058 18.9633 20.7058 17.1765V4.23529C20.7058 2.44849 19.1257 1 17.1764 1Z" fill="white"/>
<path d="M17.7941 1H4.20583C2.59771 1 1.29407 2.18513 1.29407 3.64706V17.7647C1.29407 19.2266 2.59771 20.4118 4.20583 20.4118H17.7941C19.4022 20.4118 20.7058 19.2266 20.7058 17.7647V3.64706C20.7058 2.18513 19.4022 1 17.7941 1Z" stroke="#707070" stroke-width="1.29412"/>
</svg>
