<svg width="26" height="26" viewBox="0 0 26 26" fill="none" xmlns="http://www.w3.org/2000/svg">
<rect width="26" height="26" rx="3" fill="#AD172A"/>
<path d="M12.8334 18.3191C11.5118 18.2946 10.2467 18.0205 9.03285 17.522C8.29474 17.2192 7.60569 16.8321 6.94266 16.3976C6.48181 16.0955 6.05292 15.756 5.64113 15.3949C5.04351 14.8704 4.49197 14.305 3.98875 13.695C3.89063 13.5763 3.79623 13.454 3.70183 13.3332C3.46249 13.0267 3.44167 12.7246 3.68548 12.421C4.01031 12.016 4.35 11.6211 4.70233 11.2384C5.24271 10.6507 5.84108 10.1212 6.49296 9.64931C7.07943 9.22561 7.69266 8.84219 8.34603 8.52064C9.33389 8.03507 10.3708 7.69409 11.4687 7.5308C12.1815 7.42505 12.8973 7.37685 13.6183 7.42721C14.4925 7.48835 15.3473 7.64733 16.1783 7.91853C17.1661 8.24152 18.0826 8.69832 18.9456 9.26302C20.1134 10.027 21.1176 10.9586 21.9991 12.0182C22.1017 12.1412 22.1991 12.2678 22.2979 12.3944C22.5447 12.7116 22.5492 13.008 22.3061 13.331C21.8237 13.972 21.2737 14.5554 20.6872 15.1078C19.932 15.82 19.0913 16.4221 18.1808 16.935C17.4263 17.3594 16.631 17.6932 15.7925 17.9299C15.1964 18.0982 14.5898 18.2191 13.9707 18.2694C13.5931 18.2996 13.214 18.3176 12.8349 18.3406C12.8349 18.3334 12.8349 18.3263 12.8349 18.3191H12.8334ZM16.9989 12.9692C17.039 10.8391 15.3369 9.04577 13.0437 9.00764C10.9008 8.9724 9.03731 10.6384 9.00683 12.8152C8.97784 14.8784 10.6421 16.6926 12.9761 16.7235C15.1116 16.7516 16.9246 15.0978 16.9989 12.9699V12.9692Z" fill="white"/>
<path d="M15.1475 12.8569C15.1297 13.9727 14.2429 14.9122 13.0372 14.9337C11.8561 14.9546 10.8616 14.0849 10.8608 12.8591C10.8608 11.7017 11.8257 10.8132 12.9912 10.7953C14.1686 10.7766 15.1371 11.7146 15.1468 12.8569H15.1475Z" fill="white"/>
</svg>
