<svg width="29" height="29" viewBox="0 0 29 29" fill="none" xmlns="http://www.w3.org/2000/svg">
<path d="M10.6708 6.23608C13.3047 6.23608 15.9398 6.23608 18.5737 6.23608C19.2369 6.23608 19.8499 6.40701 20.3691 6.83599C21.0435 7.39457 21.3717 8.12631 21.3728 8.99322C21.3784 13.3903 21.3773 17.7886 21.3728 22.1857C21.3717 23.5073 20.5098 24.5931 19.2559 24.8646C19.0359 24.9126 18.8059 24.9361 18.5804 24.9361C14.907 24.9406 11.2347 24.9383 7.56124 24.9428C7.4775 24.9428 7.37924 24.9785 7.31337 25.0311C5.99362 26.0823 4.67722 27.1391 3.3597 28.1937C3.30499 28.2373 3.24805 28.2764 3.1911 28.3166C2.89075 28.5255 2.57589 28.5613 2.24874 28.387C1.92271 28.2149 1.78761 27.9245 1.78538 27.5726C1.77868 26.6911 1.78203 25.8097 1.78538 24.9283C1.78538 24.8255 1.76417 24.7708 1.65809 24.7238C0.55607 24.2312 0.0111984 23.3509 0.00784881 22.1656C-0.00554967 17.7584 0.00226611 13.3523 0.00226611 8.94518C0.00226611 7.55097 1.0641 6.38578 2.4486 6.26066C2.61497 6.24614 2.78133 6.2372 2.94881 6.2372C5.52244 6.23608 8.09718 6.2372 10.6708 6.2372V6.23608ZM14.0763 13.2797C14.0684 13.1311 14.0662 13.0284 14.0573 12.9267C13.9825 12.0643 13.6419 11.3202 13.0077 10.7349C12.2328 10.0188 11.315 9.70708 10.251 9.81767C8.86648 9.96179 7.7611 10.9292 7.34128 12.2117C7.1939 12.6642 7.43842 13.1468 7.87722 13.311C8.33277 13.4819 8.8274 13.2741 9.02391 12.8284C9.06857 12.7267 9.10653 12.6217 9.15566 12.5223C9.49285 11.8274 10.2599 11.4711 10.9957 11.6208C11.7505 11.7749 12.3054 12.548 12.2775 13.2607C12.2541 13.8629 11.9772 14.3131 11.4792 14.646C11.219 14.8203 10.9555 15.0035 10.7367 15.2247C10.0478 15.9229 9.68378 16.7619 9.73738 17.7573C9.76417 18.2555 10.2108 18.6287 10.7065 18.575C11.2012 18.5214 11.5104 18.1807 11.5261 17.6701C11.5451 17.0423 11.7851 16.5396 12.3501 16.2223C12.4148 16.1866 12.4762 16.1441 12.5365 16.1017C13.537 15.4068 14.0428 14.446 14.0774 13.2786L14.0763 13.2797ZM10.692 21.3824C11.171 21.3869 11.5629 21.0004 11.573 20.5133C11.583 20.0262 11.1799 19.5983 10.7054 19.5928C10.1918 19.5861 9.7999 19.9748 9.79879 20.4921C9.79767 20.9791 10.1985 21.378 10.692 21.3813V21.3824Z" fill="#1568A8"/>
<path d="M7.1123 4.45414C7.12682 3.72017 7.08327 2.99961 7.16925 2.29468C7.28537 1.34622 7.8481 0.673694 8.70449 0.25141C9.07965 0.06708 9.48272 0.00340229 9.89249 0.00340229C15.1793 5.08356e-05 20.4672 -0.00218347 25.7541 0.00340229C27.1531 0.00451945 28.2261 0.928405 28.4583 2.30474C28.4851 2.46449 28.4963 2.62759 28.4963 2.78958C28.4985 7.16882 28.5041 11.5481 28.494 15.9273C28.4907 17.1439 27.9157 18.0175 26.7936 18.5113C26.7098 18.5481 26.7176 18.6018 26.7176 18.6654C26.7176 19.5469 26.7187 20.4283 26.7176 21.3097C26.7176 21.8225 26.4508 22.1487 25.9494 22.2515C25.7072 22.3018 25.4883 22.218 25.2963 22.0795C25.0596 21.9085 24.834 21.7231 24.6063 21.5399C24.1686 21.188 23.7365 20.8305 23.2954 20.4842C23.1882 20.3993 23.1536 20.3076 23.1536 20.1769C23.157 17.9739 23.1559 15.7698 23.1559 13.5668C23.1559 12.0083 23.1603 10.4488 23.1547 8.89035C23.1492 7.46486 22.573 6.30749 21.4699 5.41265C20.7776 4.85073 19.9849 4.53457 19.0917 4.4776C18.9164 4.46643 18.74 4.45637 18.5647 4.45637C14.8175 4.45526 11.0693 4.45637 7.32221 4.45637H7.11342L7.1123 4.45414Z" fill="#AD172A"/>
</svg>
