<svg width="42" height="50" viewBox="0 0 42 50" fill="none" xmlns="http://www.w3.org/2000/svg">
<path d="M22.2948 13.6392C22.906 13.5667 23.5016 13.4707 24.0991 13.4276C26.6303 13.2435 28.9969 13.8234 31.242 14.9812C31.8532 15.2966 32.4938 15.565 33.1423 15.7962C34.5842 16.3095 35.7322 15.136 35.5814 13.9194C35.3992 12.4422 35.2581 10.9611 35.0975 9.48201C34.9466 8.09889 34.7938 6.71773 34.641 5.33657C34.6018 4.9761 34.5626 4.61367 34.5195 4.21205C34.9408 4.27866 35.3287 4.31392 35.7028 4.40012C36.8861 4.67832 38.0753 4.94475 39.2449 5.2778C39.768 5.42669 40.2519 5.71664 40.7495 5.95564C40.9826 6.06731 41.0649 6.2691 41.0649 6.53554C41.059 17.1813 41.059 27.827 41.057 38.4727C41.057 38.7744 41.0649 39.0761 41.0472 39.3758C40.9924 40.3103 40.2303 41.0469 39.2919 41.0665C38.5925 41.0802 37.8931 41.0724 37.1937 41.0724C32.2979 41.0724 27.4022 41.0724 22.5064 41.0783C22.3457 41.0783 22.285 41.0293 22.2968 40.8687C22.3066 40.7315 22.2968 40.5924 22.2968 40.4533C22.2968 31.6237 22.2968 22.7921 22.2968 13.9625V13.6392H22.2948ZM26.7792 22.318C28.2661 22.3239 29.4768 21.1347 29.4788 19.6556C29.4827 18.1412 28.2387 16.9246 26.7674 16.9599C25.2726 16.9951 24.103 18.1295 24.0854 19.638C24.0678 21.1582 25.4744 22.3964 26.7772 22.316L26.7792 22.318ZM26.8007 24.9902C25.2903 25 24.0893 26.1813 24.0972 27.6467C24.105 29.1611 25.3255 30.3699 26.836 30.362C28.2877 30.3542 29.4925 29.1219 29.4827 27.6585C29.471 26.1911 28.2563 24.9804 26.8027 24.9902H26.8007ZM26.7674 38.4002C28.2406 38.4315 29.4435 37.2541 29.4768 35.7495C29.5101 34.2685 28.2916 33.0421 26.7576 33.0146C25.3823 32.9911 24.1324 34.196 24.1011 35.5771C24.0658 37.1464 25.2178 38.3669 26.7674 38.3982V38.4002Z" fill="#1568A8"/>
<path d="M15.4791 4.23947C15.4341 4.65872 15.3929 5.06817 15.3479 5.47762C15.1402 7.35247 14.9325 9.22928 14.7249 11.1041C14.623 12.0249 14.5211 12.9476 14.4173 13.8684C14.2645 15.2261 15.4693 16.2624 16.7604 15.8138C17.6929 15.4905 18.5804 15.038 19.4874 14.6442C19.8205 14.4992 20.1535 14.3562 20.5218 14.1956C20.5277 14.3131 20.5356 14.3915 20.5356 14.4679C20.5356 23.2348 20.5356 32.0018 20.5414 40.7687C20.5414 40.9901 20.4866 41.0626 20.2593 41.0626C17.1522 41.0587 14.0451 41.0685 10.938 41.0626C9.93294 41.0626 9.22179 40.5611 9.00237 39.7108C8.93968 39.4699 8.92988 39.2113 8.92988 38.9605C8.92596 31.6433 8.92596 24.3241 8.92792 17.0069C8.92792 13.5236 8.93576 10.0384 8.93184 6.55512C8.93184 6.26322 9.0631 6.08494 9.29035 5.93996C9.9349 5.53051 10.648 5.28367 11.3729 5.06817C12.66 4.68419 13.9745 4.4295 15.3009 4.23555C15.3459 4.22968 15.3949 4.23555 15.4752 4.23555L15.4791 4.23947Z" fill="#1568A8"/>
<path d="M2.66074 13.8704C2.67249 14.0565 2.68033 14.1427 2.68033 14.2289C2.68033 24.0107 2.6862 33.7944 2.68033 43.5761C2.68033 45.3452 3.78526 46.8556 5.42306 47.2298C5.80508 47.318 6.21257 47.3239 6.60831 47.3239C15.0089 47.3278 23.4095 47.3239 31.8101 47.3239C32.1451 47.3239 32.149 47.3239 32.1412 47.6589C32.1373 47.8783 32.1333 48.0977 32.1118 48.3171C32.0217 49.2928 31.2713 49.9843 30.2918 50C30.2683 50 30.2428 50 30.2193 50C20.7941 50 11.3689 50 1.94371 50C0.979833 50 0.256927 49.4475 0.0668953 48.5483C0.0120407 48.2897 0.0159589 48.0154 0.0159589 47.747C0.0120407 38.5354 0.0120407 29.3237 0.0120407 20.1121C0.0120407 18.6153 0.0257544 17.1166 0.000286131 15.6199C-0.00755025 15.2045 0.145259 14.9518 0.497896 14.797C1.19337 14.4914 1.89473 14.1976 2.65878 13.8684L2.66074 13.8704Z" fill="#1568A8"/>
<path d="M7.12744 9.46243C7.13723 9.57802 7.14899 9.65638 7.14899 9.73671C7.14899 19.4225 7.1529 29.1063 7.14507 38.792C7.14507 39.609 7.18033 40.4102 7.64268 41.1155C8.30681 42.1284 9.21387 42.767 10.4579 42.8395C10.7263 42.8552 10.9947 42.8591 11.2631 42.8591C19.5167 42.8591 27.7724 42.8591 36.026 42.8591C36.6 42.8591 36.5961 42.8591 36.5942 43.4331C36.5922 43.8171 36.5805 44.2011 36.3904 44.5498C36.0809 45.1199 35.6029 45.4588 34.9564 45.5098C34.5117 45.545 34.063 45.5352 33.6163 45.5352C24.8083 45.5352 16.0021 45.5352 7.19404 45.5333C6.90214 45.5333 6.60828 45.5392 6.31637 45.5294C5.21536 45.4921 4.50813 44.7927 4.49245 43.6898C4.47286 42.3635 4.47874 41.0372 4.47874 39.7108C4.47678 30.3836 4.47482 21.0564 4.47482 11.7291C4.47482 11.5097 4.49441 11.2883 4.47678 11.0708C4.45327 10.7829 4.5669 10.5752 4.81179 10.4479C5.2134 10.2363 5.61697 10.0247 6.0323 9.84642C6.37318 9.69948 6.73562 9.60153 7.12939 9.46635L7.12744 9.46243Z" fill="#AD172A"/>
<path d="M17.8986 0.00195909H32.1059C32.055 0.36831 32.0099 0.720947 31.957 1.06967C31.6612 2.97782 31.2126 4.8468 30.4916 6.64329C30.041 7.76585 29.5042 8.83943 28.6971 9.75433C27.6176 10.9788 26.2952 11.6978 24.6241 11.5645C23.3605 11.4646 22.3163 10.8808 21.4876 9.92477C20.4434 8.72189 19.7558 7.31722 19.2229 5.83026C18.5725 4.01027 18.1728 2.12758 17.9084 0.2155C17.8986 0.15085 17.9005 0.0862001 17.8966 0L17.8986 0.00195909Z" fill="#1568A8"/>
<path d="M28.8734 12.0759C30.9285 10.3303 31.9982 8.02447 32.8308 5.54621C33.1482 8.38494 33.4655 11.2237 33.7927 14.1329C33.2912 13.9233 32.8132 13.7646 32.3743 13.5315C31.2811 12.9477 30.1449 12.4775 28.9616 12.117C28.9381 12.1092 28.9165 12.0974 28.8734 12.0778V12.0759Z" fill="#AD172A"/>
<path d="M17.1541 5.59908C17.5969 6.8 18.0494 7.99505 18.6783 9.11565C19.313 10.2441 20.0888 11.255 21.1624 12.1052C19.3914 12.5147 17.9025 13.4805 16.2137 14.0996C16.5311 11.2256 16.8426 8.41233 17.1541 5.59908Z" fill="#AD172A"/>
<path d="M25.9132 19.6106C25.9328 19.1462 26.3638 18.7348 26.8065 18.7564C27.2826 18.7799 27.6783 19.207 27.6607 19.6772C27.6431 20.1513 27.2297 20.5431 26.7693 20.5235C26.2893 20.5019 25.8916 20.0788 25.9112 19.6106H25.9132Z" fill="#AD172A"/>
<path d="M26.8105 26.8004C27.2748 26.8043 27.6705 27.2177 27.6627 27.6898C27.6549 28.1678 27.2336 28.5695 26.7556 28.5557C26.3109 28.542 25.9113 28.1208 25.9132 27.6702C25.9171 27.1883 26.3207 26.7965 26.8124 26.8004H26.8105Z" fill="#AD172A"/>
<path d="M27.6725 35.7065C27.6764 36.2119 27.2846 36.6096 26.7831 36.6096C26.3051 36.6096 25.9074 36.2021 25.9113 35.7143C25.9132 35.2422 26.309 34.8445 26.7811 34.8405C27.2846 34.8366 27.6686 35.2089 27.6725 35.7065Z" fill="#AD172A"/>
</svg>
