<svg width="24" height="24" viewBox="0 0 24 24" fill="none" xmlns="http://www.w3.org/2000/svg">
<path d="M15.314 23.5193C15.314 23.4195 15.314 23.3338 15.314 23.2491C15.314 20.4235 15.314 17.5979 15.3112 14.7732C15.3112 14.6772 15.3441 14.6537 15.4335 14.6546C16.2194 14.6584 17.0044 14.6584 17.7903 14.6593C17.8251 14.6593 17.86 14.6593 17.9146 14.6593C18.0444 13.6559 18.1734 12.6563 18.3052 11.6379C18.0341 11.6379 17.7894 11.637 17.5456 11.6379C16.8463 11.6426 16.147 11.6454 15.4477 11.6548C15.3394 11.6558 15.3112 11.6266 15.3121 11.5174C15.3178 10.9395 15.3102 10.3606 15.3168 9.78271C15.3187 9.59634 15.3356 9.40715 15.3724 9.22455C15.4797 8.68239 15.7884 8.39626 16.339 8.32472C16.5555 8.29648 16.7748 8.28425 16.9931 8.28048C17.4505 8.27389 17.907 8.2786 18.3729 8.2786V5.59228C18.2703 5.58287 18.1706 5.56781 18.0699 5.56405C17.3319 5.53581 16.595 5.49251 15.8571 5.4878C15.1587 5.48404 14.4904 5.64688 13.8947 6.02432C12.9798 6.60318 12.4518 7.44654 12.2899 8.51109C12.2315 8.89135 12.2146 9.28103 12.2071 9.66694C12.1958 10.2797 12.2071 10.8934 12.2155 11.5071C12.2174 11.6276 12.1826 11.6586 12.065 11.6586C11.3073 11.6539 10.5487 11.6567 9.79006 11.6567C9.63664 11.6567 9.63476 11.6567 9.63476 11.8045C9.63476 12.7194 9.6357 13.6333 9.63193 14.5473C9.63193 14.6508 9.67805 14.6593 9.75994 14.6593C10.5374 14.6574 11.3158 14.6593 12.0932 14.6565C12.1788 14.6565 12.2165 14.6706 12.2165 14.7704C12.2099 17.6421 12.2071 20.5148 12.2033 23.3865C12.2033 23.5889 12.2033 23.7913 12.2033 23.9927C7.25538 24.1819 1.3879 20.6899 0.193507 14.0955C-1.00936 7.4663 3.53009 1.23055 10.0734 0.159412C16.8322 -0.946552 23.1044 3.82933 23.9091 10.5395C24.712 17.2374 20.0605 22.2862 15.3149 23.5183L15.314 23.5193Z" fill="black"/>
</svg>
