<svg width="27" height="27" viewBox="0 0 27 27" fill="none" xmlns="http://www.w3.org/2000/svg">
<path d="M0.00297518 13.5297C0.00297518 10.2587 -0.00549711 6.9867 0.00615229 3.71574C0.0125065 1.95373 1.11496 0.630096 2.59126 0.171591C2.97251 0.0540523 3.36436 0.0032249 3.75938 0.0032249C10.2449 4.8185e-05 16.7305 -0.00206962 23.2149 0.0032249C24.489 0.0032249 25.5417 0.489262 26.3052 1.52699C26.7119 2.07974 26.9332 2.71084 26.9745 3.39807C26.9947 3.72633 26.9989 4.05671 26.9989 4.38497C26.9999 10.6103 27.0021 16.8366 26.9946 23.0619C26.9946 23.459 26.9576 23.8635 26.8718 24.25C26.7235 24.9161 26.3561 25.4699 25.8933 25.9697C25.4569 26.4398 24.8999 26.6897 24.3058 26.8613C24.0145 26.946 23.7021 26.9905 23.3992 26.9915C21.5131 27.0032 19.6269 26.9958 17.7408 27C17.6148 27 17.5851 26.9598 17.5862 26.8433C17.5936 24.0382 17.5978 21.2332 17.6031 18.4282C17.6031 18.1423 17.5999 17.8574 17.5999 17.5715C17.5999 17.3597 17.5999 17.3597 17.817 17.3597C18.8146 17.3597 19.8133 17.3618 20.8109 17.3523C20.9539 17.3513 21.1085 17.3121 21.2367 17.2485C21.4538 17.1405 21.5226 16.9192 21.5501 16.6979C21.6465 15.9323 21.7334 15.1657 21.8202 14.399C21.8467 14.164 21.8647 13.9278 21.8816 13.6917C21.9049 13.3825 21.6571 13.0923 21.3468 13.069C21.1456 13.0542 20.9433 13.0489 20.741 13.0489C19.7826 13.0489 18.8242 13.05 17.8658 13.051C17.5713 13.051 17.5735 13.051 17.5756 12.7546C17.584 11.9456 17.584 11.1365 17.601 10.3275C17.6063 10.0967 17.637 9.86269 17.6889 9.63714C17.8297 9.03251 18.2343 8.68518 18.8316 8.57824C19.1493 8.52105 19.4755 8.50623 19.7996 8.49246C20.2253 8.47446 20.6521 8.47764 21.0778 8.46811C21.5025 8.45858 21.7471 8.24997 21.7556 7.82747C21.7725 6.992 21.7747 6.15652 21.7535 5.3221C21.7418 4.86254 21.4898 4.65605 21.0312 4.65499C20.2179 4.65287 19.4045 4.6444 18.5912 4.65711C17.6105 4.67299 16.6585 4.83924 15.7932 5.33269C14.6971 5.95745 13.9674 6.87552 13.6264 8.09855C13.4962 8.56553 13.3987 9.0378 13.3881 9.52172C13.3691 10.3911 13.368 11.2615 13.3585 12.1319C13.3553 12.3998 13.3437 12.6677 13.3437 12.9356C13.3437 13.0383 13.2918 13.0458 13.2113 13.0447C12.525 13.0447 11.8398 13.0447 11.1536 13.0489C11.0307 13.0489 10.9079 13.0563 10.7861 13.0712C10.5023 13.1061 10.2788 13.356 10.2756 13.6536C10.2703 14.1502 10.2735 14.6468 10.2735 15.1434C10.2735 15.6485 10.2735 16.1547 10.2746 16.6598C10.2746 17.0908 10.5266 17.3523 10.9598 17.3555C11.6979 17.3608 12.4371 17.3576 13.1753 17.3587C13.385 17.3587 13.386 17.3587 13.386 17.5662C13.3776 20.4771 13.3691 23.387 13.3595 26.2979C13.3595 26.5002 13.3468 26.7014 13.3426 26.9036C13.3415 26.9693 13.3182 27.0032 13.2494 26.9968C13.2229 26.9947 13.1965 26.9968 13.17 26.9968C10.0522 26.9968 6.93543 26.9979 3.81763 26.9968C2.67069 26.9968 1.68261 26.6167 0.914806 25.742C0.38211 25.1353 0.0876981 24.4237 0.027333 23.6179C0.0093294 23.3817 0.00297518 23.1445 0.00297518 22.9073C0.00191615 19.7814 0.00297518 16.6556 0.00297518 13.5297Z" fill="#485993"/>
</svg>
