<svg width="32" height="30" viewBox="0 0 32 30" fill="none" xmlns="http://www.w3.org/2000/svg">
<rect width="31.8472" height="30" rx="3" fill="#AD172A"/>
<path d="M23.291 5.00133C23.2397 5.08379 23.2046 5.14392 23.1669 5.20233C22.9024 5.61977 22.7834 6.07759 22.7834 6.57062C22.7851 11.8059 22.7851 17.0403 22.7851 22.2755C22.7851 22.6208 22.7962 22.967 22.7063 23.3063C22.4555 24.2477 21.6755 24.9323 20.7064 24.995C19.9838 25.0422 19.3751 24.7553 18.8948 24.209C18.4856 23.7435 18.3366 23.1877 18.3392 22.5796C18.3426 21.8839 18.3443 21.189 18.3392 20.4932C18.3383 20.3756 18.3186 20.2484 18.269 20.1445C18.18 19.9555 18.0147 19.8731 17.8007 19.8739C16.3436 19.8774 14.8856 19.8765 13.4276 19.8774C11.7812 19.8774 10.1358 19.8774 8.48943 19.8774C8.34817 19.8774 8.34988 19.8765 8.35073 19.7382C8.36443 17.8056 8.3807 15.873 8.39097 13.9404C8.40125 12.0326 8.40553 10.1249 8.41494 8.21722C8.41751 7.62197 8.42607 7.02672 8.43892 6.43147C8.45775 5.62321 9.03735 5.03655 9.84297 5.00477C10.0202 4.9979 10.1983 5.00047 10.3763 5.00047C14.5534 5.00047 18.7304 5.00047 22.9084 5.00133C23.0282 5.00133 23.1472 5.00133 23.291 5.00133ZM15.3385 17.1872V17.1854C16.4257 17.1854 17.5139 17.1854 18.6012 17.1854C19.0635 17.1854 19.5249 17.188 19.9872 17.182C20.2038 17.1794 20.3562 17.0583 20.4453 16.8676C20.53 16.6864 20.5061 16.506 20.3862 16.3437C20.2501 16.159 20.0574 16.1161 19.84 16.1161C16.8298 16.1178 13.8188 16.1161 10.8087 16.1169C10.7342 16.1169 10.6589 16.1212 10.5861 16.135C10.2085 16.2088 10.0347 16.652 10.2608 16.9613C10.3995 17.1511 10.5955 17.1889 10.8164 17.1889C12.3232 17.1854 13.8308 17.1872 15.3376 17.1872H15.3385ZM15.3299 13.4233V13.4207C15.7383 13.4207 16.1475 13.4207 16.5559 13.4207C17.6894 13.4207 18.8229 13.4216 19.9573 13.4207C20.1987 13.4207 20.405 13.2635 20.4692 13.0436C20.5352 12.8212 20.4444 12.5892 20.2441 12.4475C20.1097 12.3522 19.9581 12.3522 19.8049 12.3522C16.8127 12.3522 13.8197 12.3513 10.8275 12.3522C10.7496 12.3522 10.67 12.3547 10.5946 12.3711C10.3823 12.4166 10.2394 12.5463 10.1803 12.7567C10.1238 12.956 10.1803 13.1278 10.3267 13.273C10.4619 13.4078 10.6298 13.4259 10.8095 13.4259C12.3163 13.4241 13.8231 13.425 15.3299 13.425V13.4233ZM13.1733 9.65767C13.1733 9.65767 13.1733 9.65509 13.1733 9.65423C14.0012 9.65423 14.8291 9.64994 15.6569 9.65681C15.9275 9.65852 16.1723 9.42232 16.18 9.18095C16.1895 8.87173 15.9891 8.63037 15.6895 8.60202C15.573 8.59086 15.4558 8.58742 15.3385 8.58742C13.8394 8.5857 12.3394 8.5857 10.8404 8.58656C10.759 8.58656 10.676 8.59 10.5964 8.60632C10.384 8.65098 10.2394 8.77897 10.1803 8.98941C10.1229 9.19298 10.182 9.36734 10.3327 9.51422C10.4671 9.64392 10.6323 9.66024 10.807 9.65938C11.5955 9.65681 12.3848 9.65852 13.1733 9.65852V9.65767Z" fill="white"/>
<path d="M5.00782 20.9194H17.2899C17.2899 20.9529 17.2899 20.9942 17.2899 21.0354C17.2899 21.6238 17.2899 22.2121 17.2899 22.8005C17.2899 23.5753 17.5433 24.259 18.0253 24.8603C18.0595 24.9032 18.0903 24.9505 18.1254 24.9986C16.2736 24.9986 14.433 24.9986 12.5931 24.9986C10.7833 24.9986 8.97427 25.0029 7.16441 24.9934C6.11908 24.9874 5.25353 24.2539 5.05405 23.2231C5.01981 23.0453 5.00611 22.8615 5.00354 22.6811C4.99755 22.1245 5.00097 21.5688 5.00097 21.0122C5.00097 20.9881 5.0044 20.9632 5.00697 20.9203L5.00782 20.9194Z" fill="white"/>
<path d="M23.8384 10.1205C23.8384 8.97982 23.8392 7.83828 23.8384 6.6976C23.8384 6.2982 23.9249 5.92971 24.1826 5.61104C24.5644 5.14034 25.2082 4.94794 25.7998 5.13433C26.3717 5.31385 26.786 5.8378 26.828 6.43649C26.84 6.60742 26.8468 6.77835 26.8468 6.94928C26.8477 9.19198 26.8468 11.4355 26.8468 13.6782C26.8468 13.8208 26.8468 13.8217 26.7098 13.8217C25.7964 13.8234 24.8829 13.8234 23.9694 13.8294C23.8632 13.8294 23.8315 13.8045 23.8315 13.6937C23.8358 12.5023 23.8341 11.3119 23.8341 10.1205C23.8358 10.1205 23.8367 10.1205 23.8384 10.1205Z" fill="white"/>
</svg>
