<svg width="50" height="50" viewBox="0 0 50 50" fill="none" xmlns="http://www.w3.org/2000/svg">
<path d="M29.5164 16.0597C29.5948 15.7068 29.6634 15.3677 29.7438 15.0305C30.1222 13.4446 30.8122 12.0311 32.0512 10.9313C32.9353 10.1472 33.9743 9.63161 35.0761 9.23757C35.4662 9.09838 35.8543 8.95331 36.2543 8.84157C36.9953 8.63573 37.7363 9.03369 37.997 9.75707C38.246 10.453 37.9108 11.2372 37.2109 11.5371C36.8169 11.7057 36.4013 11.8312 35.9974 11.9782C35.3388 12.2193 34.7056 12.5095 34.1508 12.9525C33.296 13.6328 32.8412 14.5502 32.5785 15.5833C32.5668 15.6284 32.5785 15.6774 32.5785 15.75C32.6413 15.7284 32.6922 15.7186 32.7354 15.6951C33.9273 15.0501 35.1996 14.658 36.5542 14.6365C38.0813 14.6129 39.5144 15.0031 40.8161 15.8284C42.8451 17.1144 44.0978 18.9983 44.9211 21.1959C45.6955 23.2622 46.0248 25.4147 45.8993 27.6162C45.7621 30.0059 45.2328 32.3133 44.2193 34.4952C44.1821 34.5756 44.1507 34.6579 44.1095 34.7598C44.0566 34.7363 44.0037 34.7206 43.9605 34.6912C42.8941 33.9521 41.7257 33.5307 40.424 33.4209C39.4399 33.3385 38.4754 33.4797 37.503 33.5542C36.2209 33.6542 34.9428 33.7973 33.6646 33.9169C32.0041 34.0737 30.3437 34.2246 28.6813 34.3795C27.1502 34.5207 25.6192 34.6618 24.0881 34.8069C22.2649 34.9794 20.4437 35.1578 18.6226 35.3323C18.5167 35.3421 18.4108 35.344 18.305 35.3538C17.7561 35.4048 17.758 35.4048 17.511 34.8971C16.4406 32.6897 15.8212 30.3607 15.6663 27.9161C15.4761 24.9226 15.9976 22.0644 17.4385 19.41C18.2442 17.926 19.3322 16.6792 20.7868 15.799C22.8197 14.5698 24.984 14.3012 27.2561 15.0344C28.0069 15.2775 28.7401 15.5677 29.4007 16.0107C29.4262 16.0264 29.4576 16.0342 29.5145 16.0577L29.5164 16.0597Z" fill="#AD172A"/>
<path d="M14.5939 35.6871C13.7451 35.7851 12.9315 35.8419 12.1336 35.9811C10.6026 36.2477 9.37539 37.0456 8.41088 38.2571C7.89334 38.906 7.49734 39.6196 7.27189 40.4234C7.26209 40.4606 7.24249 40.4939 7.21308 40.5606C6.95235 40.4175 6.70142 40.2881 6.46029 40.145C5.31739 39.4667 4.28427 38.6492 3.41386 37.6475C1.65147 35.6185 0.510525 33.2895 0.134131 30.6077C-0.367727 27.0241 0.553654 23.813 2.64735 20.8979C4.1294 18.8356 4.83514 16.5439 4.90179 13.9876C4.97824 11.0372 6.29562 8.70236 8.8206 7.09877C9.6616 6.56358 10.5751 6.2166 11.5475 6.02252C11.7592 5.97939 11.8337 5.89705 11.867 5.68337C12.0709 4.35423 12.5963 3.17604 13.5628 2.21741C14.2175 1.56852 15.0017 1.11763 15.8682 0.84122C16.8484 0.527558 17.8423 0.239381 18.8499 0.02962C19.6262 -0.133092 20.2889 0.392291 20.4672 1.17056C20.6221 1.8469 20.1987 2.5742 19.4753 2.80553C19.0283 2.94863 18.5618 3.03685 18.105 3.15055C17.2248 3.37012 16.37 3.64653 15.6623 4.25621C15.1683 4.67965 14.9194 5.23052 14.7704 5.84412C14.7272 6.02056 14.8586 6.02252 14.9684 6.048C16.1368 6.30677 17.211 6.79295 18.1599 7.51437C19.7145 8.69648 20.7221 10.2589 21.2279 12.1468C21.273 12.3154 21.1651 12.3408 21.0573 12.38C20.1889 12.6976 19.3792 13.1309 18.6284 13.6661C16.472 15.2089 14.9978 17.2751 14.0156 19.7138C13.2648 21.5782 12.8649 23.519 12.7453 25.5264C12.5473 28.8571 13.0707 32.0604 14.3587 35.1382C14.4371 35.3224 14.5175 35.5067 14.5959 35.6949L14.5939 35.6871Z" fill="#1568A8"/>
<path d="M46.5129 44.6382C46.7286 44.8303 46.903 44.9832 47.0736 45.1401C47.5598 45.5851 48.0538 46.0222 48.5262 46.481C48.9438 46.8868 49.1457 47.371 48.9575 47.963C48.7674 48.559 48.3478 48.8903 47.746 48.9961C47.3343 49.0687 46.9697 48.9236 46.66 48.6648C46.1248 48.2159 45.6013 47.7474 45.0799 47.2808C44.7545 46.9907 44.4388 46.6868 44.0958 46.3673C44.0291 46.5986 43.9762 46.7985 43.9115 46.9965C43.3998 48.5943 41.8845 49.8293 40.2181 49.945C39.6065 49.9881 38.9831 49.9332 38.3695 49.8783C36.0111 49.6686 33.6548 49.4372 31.2984 49.2177C29.4439 49.0432 27.5893 48.8726 25.7328 48.7021C25.3702 48.6688 25.0055 48.6452 24.6095 48.6139C24.6095 48.5178 24.6095 48.4237 24.6095 48.3276C24.6095 47.4572 24.6193 46.5849 24.6037 45.7145C24.5997 45.4831 24.5527 45.242 24.4723 45.0264C24.2253 44.3657 23.5627 44.0148 22.857 44.1481C22.1806 44.2755 21.6788 44.8793 21.6768 45.5674C21.6768 46.381 21.6768 47.1965 21.6768 48.0101V48.3041C21.3886 48.2806 21.1318 48.261 20.875 48.2375C19.1989 48.0826 17.5208 47.9258 15.8447 47.7689C14.89 47.6788 13.9333 47.5886 12.9786 47.5004C11.4906 47.3631 10.283 46.2575 10.0321 44.6833C9.86548 43.6384 9.85764 42.568 10.0517 41.5231C10.3321 40.0195 11.5612 38.9511 13.0844 38.8119C15.58 38.5826 18.0756 38.3532 20.5711 38.1199C22.8158 37.9102 25.0585 37.6945 27.3031 37.4828C29.1988 37.3044 31.0945 37.128 32.9902 36.9496C33.1176 36.9378 33.245 36.9162 33.4038 36.8947C33.4038 37.0025 33.4038 37.0907 33.4038 37.177C33.4038 38.3571 33.4038 39.5392 33.4038 40.7194C33.4038 41.5369 34.0625 42.1936 34.8741 42.1916C35.6936 42.1897 36.3307 41.5584 36.3326 40.739C36.3366 39.453 36.3366 38.165 36.3307 36.879C36.3307 36.6986 36.3699 36.6202 36.5659 36.6045C37.5304 36.5281 38.495 36.432 39.4595 36.3497C41.5649 36.1693 43.5273 37.6043 44.0036 39.6647C44.0232 39.749 44.0507 39.8313 44.086 39.9548C44.3839 39.6804 44.6506 39.4334 44.9191 39.1922C45.47 38.6982 46.013 38.1925 46.5796 37.7161C47.5304 36.9162 48.7987 37.375 49.0065 38.5963C49.0889 39.0805 48.8909 39.4981 48.54 39.8235C47.9009 40.4155 47.2461 40.988 46.5972 41.5702C46.5737 41.5918 46.5502 41.6133 46.4816 41.6761C46.6109 41.6859 46.6933 41.6976 46.7737 41.6976C47.3363 41.6976 47.897 41.6957 48.4596 41.6976C49.3182 41.6996 49.9338 42.2308 49.9965 43.0817C50.0455 43.7403 49.577 44.5676 48.5302 44.6166C47.9617 44.6441 47.3912 44.6166 46.8207 44.6166C46.7364 44.6166 46.6502 44.6264 46.507 44.6343L46.5129 44.6382Z" fill="#1568A8"/>
</svg>
