<svg width="50" height="50" viewBox="0 0 50 50" fill="none" xmlns="http://www.w3.org/2000/svg">
<path d="M39.3011 49.9903C35.2599 49.9472 31.2402 46.9782 30.0128 42.8443C29.6128 41.4951 29.4598 40.1185 29.6696 38.7183C29.7833 37.9633 29.9343 37.2142 30.0579 36.4612C30.0716 36.3749 30.0481 36.2455 29.9912 36.1886C27.3539 33.5412 24.7088 30.8977 22.0656 28.2562C19.3715 25.5618 16.6734 22.8693 13.991 20.163C13.7891 19.9591 13.6224 19.912 13.3577 19.9767C12.242 20.2513 11.1087 20.4454 9.95572 20.4199C6.86746 20.3513 4.34587 19.0903 2.36742 16.7351C1.02231 15.1271 0.292889 13.2641 0.0615149 11.1854C-0.0718196 9.98919 0.0928877 8.83414 0.371322 7.68302C0.506617 7.1202 0.837992 6.71623 1.41643 6.57111C1.98898 6.426 2.47134 6.60445 2.88115 7.01823C4.06155 8.21054 5.24391 9.39892 6.42628 10.5893C6.81256 10.9776 7.21844 11.3423 7.74786 11.5286C9.86748 12.2816 11.7146 10.7814 11.7616 8.91259C11.7832 8.03993 11.4871 7.30454 10.8753 6.69074C9.70278 5.51412 8.5263 4.34142 7.35374 3.16284C7.18707 2.99615 7.02236 2.82554 6.87726 2.63924C6.26157 1.85483 6.55373 0.723313 7.50668 0.429158C8.18316 0.219327 8.90277 0.0977435 9.61062 0.0428346C13.9714 -0.298385 17.9754 2.27645 19.6519 6.22793C20.499 8.22426 20.697 10.2951 20.2323 12.4189C20.1539 12.7758 20.0695 13.1327 19.9715 13.4838C19.9284 13.6387 19.9637 13.7446 20.0735 13.8524C22.0754 15.8566 24.0735 17.8667 26.0755 19.8708C29.4245 23.2242 32.7775 26.5736 36.1246 29.927C36.2422 30.0447 36.352 30.08 36.5148 30.0408C37.4815 29.8093 38.4579 29.6348 39.4521 29.5917C42.1286 29.476 44.4854 30.2898 46.4972 32.0626C48.411 33.7491 49.5522 35.8631 49.9051 38.3889C50.0894 39.7086 49.9953 41.0225 49.6463 42.3109C49.3286 43.4836 48.0698 43.8543 47.1972 43.011C45.9756 41.8266 44.7874 40.6088 43.5874 39.4008C43.1952 39.0046 42.7874 38.632 42.2462 38.4516C40.3501 37.8221 38.6364 38.9007 38.3187 40.6009C38.1481 41.5167 38.3109 42.3855 38.9599 43.0855C39.6678 43.8503 40.4187 44.574 41.1521 45.3133C41.7717 45.9369 42.4011 46.5507 43.009 47.1861C43.5384 47.7391 43.605 48.4294 43.2188 49.0157C43.0031 49.3432 42.6933 49.5432 42.3168 49.6373C41.4462 49.8589 40.5599 49.9786 39.2972 49.9864L39.3011 49.9903Z" fill="#1568A8"/>
<path d="M23.8911 34.3884C23.7597 34.5139 23.5891 34.6649 23.4303 34.8257C19.0479 39.2086 14.6616 43.5876 10.2871 47.9764C9.40666 48.8608 8.42233 49.5335 7.19487 49.8355C3.91837 50.6434 0.549714 48.3686 0.069317 45.0211C-0.201274 43.1366 0.349712 41.5187 1.62031 40.1303C1.96737 39.7518 2.33993 39.3988 2.70267 39.036C7.01448 34.7218 11.3282 30.4095 15.642 26.0952C15.6479 26.0893 15.6557 26.0893 15.6106 26.107C18.3754 28.872 21.1224 31.6194 23.8931 34.3884H23.8911ZM7.61644 44.1583C8.02821 44.1798 8.40861 43.9543 8.7439 43.617C10.091 42.2678 11.4361 40.9206 12.7851 39.5753C14.3538 38.0104 15.9244 36.4514 17.491 34.8845C18.0832 34.2923 18.1048 33.4138 17.5577 32.8137C17.0322 32.2371 16.1381 32.1862 15.5047 32.7039C15.342 32.8372 15.193 32.9902 15.044 33.1392C12.8204 35.3709 10.5969 37.6045 8.37331 39.8381C7.73605 40.4794 7.08114 41.103 6.46349 41.7619C6.04192 42.2149 5.97329 42.7699 6.238 43.3287C6.49094 43.8641 6.92036 44.1641 7.61644 44.1583Z" fill="#AD172A"/>
<path d="M37.8599 7.77909C37.6109 7.51631 37.3775 7.28883 37.1677 7.04174C36.5952 6.36715 36.6912 5.50625 37.3893 4.96501C37.505 4.8748 37.6265 4.79244 37.752 4.71792C40.1717 3.26479 42.5913 1.81363 45.0109 0.362467C45.4992 0.0702729 46.007 -0.153285 46.5737 0.129104C46.7894 0.235 46.9953 0.380116 47.1678 0.548765C47.9364 1.29984 48.6914 2.06464 49.4502 2.82552C49.5012 2.87651 49.5482 2.93338 49.5953 2.99025C50.0306 3.50992 50.1404 4.07078 49.7972 4.68066C49.4168 5.35329 49.0365 6.02593 48.6404 6.6868C47.5698 8.4733 46.4933 10.2539 45.4168 12.0345C45.3109 12.2091 45.205 12.3816 45.0874 12.5464C44.5443 13.3033 43.6442 13.4288 42.9442 12.817C42.6227 12.5346 42.354 12.1914 42.0403 11.8561C41.8854 12.0051 41.7795 12.1012 41.6776 12.2032C38.5873 15.284 35.4971 18.3647 32.4069 21.4475C32.1049 21.7495 32.1775 21.8083 31.8167 21.4475C30.5912 20.2218 29.3637 18.9962 28.1382 17.7686C28.0872 17.7176 28.0421 17.6607 27.9872 17.5999C31.2794 14.325 34.5638 11.0599 37.8618 7.78105L37.8599 7.77909Z" fill="#AD172A"/>
</svg>
