<svg width="50" height="50" viewBox="0 0 50 50" fill="none" xmlns="http://www.w3.org/2000/svg">
<path d="M24.9655 38.3178H39.9649C39.9649 38.2174 39.9649 38.1171 39.9649 38.0168C39.9649 35.6465 39.9649 33.2783 39.9649 30.908C39.9649 28.1426 42.1345 25.9144 44.8915 25.8434C47.4395 25.7786 49.722 27.8353 49.9185 30.375C50.092 32.6136 48.8776 34.593 46.7894 35.4542C46.6201 35.5252 46.6285 35.6256 46.6285 35.7552C46.6285 37.9081 46.6264 40.061 46.6285 42.2118C46.6285 43.2402 46.3798 44.1913 45.7611 45.019C45.0629 45.9491 44.1014 46.4424 42.9643 46.6013C42.6216 46.6494 42.2725 46.6556 41.9255 46.6556C35.5127 46.6577 29.0979 46.6598 22.6851 46.6556C21.293 46.6556 20.0911 46.2125 19.2174 45.0838C18.5925 44.2749 18.3019 43.3405 18.2998 42.3205C18.2956 40.1425 18.2956 37.9645 18.3019 35.7844C18.3019 35.5942 18.2559 35.5064 18.0699 35.4249C16.0528 34.5345 15.0015 32.9376 14.9847 30.7742C14.968 28.3579 16.5817 26.5122 18.7931 25.9918C20.4235 25.6093 21.9305 25.9228 23.1972 27.0348C24.3844 28.0757 24.9739 29.4176 24.9655 31.0187C24.953 33.3451 24.9634 35.6716 24.9634 37.9959V38.3136L24.9655 38.3178Z" fill="#1568A8"/>
<path d="M45.7944 24.19C43.6332 24.0061 41.7541 24.583 40.2303 26.1339C38.7212 27.6702 38.1171 29.5347 38.324 31.6793H26.6188C26.7819 29.5431 26.2321 27.6514 24.6937 26.1172C23.1637 24.5914 21.2971 24.0019 19.1338 24.1879C19.1338 23.5964 19.1171 23.0362 19.138 22.4761C19.186 21.1676 19.5664 19.9678 20.39 18.9352C21.6065 17.4115 23.216 16.6736 25.1494 16.6694C30.0531 16.659 34.9546 16.6548 39.8582 16.6694C42.6445 16.6778 44.9918 18.5276 45.6168 21.1613C45.8509 22.1437 45.7944 23.1428 45.7944 24.19ZM26.6335 23.3205C26.6335 22.846 26.2865 22.4907 25.8225 22.4865C25.3166 22.4823 24.9529 22.846 24.9592 23.3519C24.9634 23.8222 25.3333 24.1754 25.8141 24.1733C26.2886 24.1712 26.6335 23.8117 26.6335 23.3205ZM33.2992 23.3205C33.2992 22.846 32.9522 22.4907 32.4881 22.4865C31.9823 22.4823 31.6186 22.846 31.6249 23.3519C31.6291 23.8222 31.999 24.1754 32.4798 24.1733C32.9543 24.1712 33.2992 23.8117 33.2992 23.3205ZM39.9648 23.331C39.9648 22.8439 39.6158 22.4844 39.1392 22.4865C38.6438 22.4886 38.2885 22.846 38.2906 23.3393C38.2906 23.8138 38.6522 24.1691 39.135 24.1712C39.6116 24.1733 39.9648 23.8159 39.9648 23.3289V23.331ZM29.9653 28.3182C29.9653 27.8437 29.6183 27.4884 29.1543 27.4842C28.6484 27.48 28.2847 27.8437 28.291 28.3496C28.2952 28.8199 28.6651 29.1731 29.1459 29.171C29.6204 29.1689 29.9653 28.8094 29.9653 28.3182ZM36.631 28.314C36.631 27.8416 36.2798 27.4863 35.8158 27.4842C35.3183 27.4821 34.9588 27.8354 34.9567 28.3266C34.9546 28.8136 35.3204 29.1752 35.8158 29.171C36.2902 29.1668 36.633 28.8052 36.631 28.314Z" fill="#1568A8"/>
<path d="M32.4777 0C35.1678 0 37.8579 0 40.548 0C41.2942 0 41.6287 0.334434 41.6287 1.07855C41.6287 4.80122 41.6287 8.52598 41.6287 12.2487C41.6287 12.9969 41.2963 13.3314 40.5501 13.3314C35.1511 13.3314 29.7542 13.3314 24.3551 13.3314C23.6445 13.3314 23.2975 12.9865 23.2975 12.2779C23.2975 8.53643 23.2975 4.79704 23.2975 1.05556C23.2975 0.344885 23.6424 0 24.351 0C27.0578 0 29.7667 0 32.4735 0L32.4777 0ZM39.9502 1.68471H24.9864V6.3229C25.0658 6.24974 25.1181 6.20584 25.1661 6.15777C25.9876 5.33422 26.807 4.50859 27.6305 3.68923C28.0987 3.2252 28.4979 3.22102 28.9599 3.68087C30.0907 4.80749 31.2194 5.9383 32.346 7.0691C32.6575 7.38054 32.9605 7.70035 33.2783 8.0306C33.3744 7.94281 33.4371 7.88638 33.4977 7.82785C34.3004 7.02312 35.1009 6.2163 35.9057 5.41365C36.4491 4.8702 36.8233 4.87229 37.3667 5.41783C38.1694 6.22257 38.9699 7.02939 39.7725 7.83412C39.8185 7.88011 39.8708 7.91773 39.9481 7.98044V1.68471H39.9502Z" fill="#1568A8"/>
<path d="M8.30436 19.9971C5.89225 19.9971 3.48015 19.9971 1.06804 19.9971C0.921725 19.9971 0.77123 19.9845 0.631185 19.949C0.127444 19.8236 -0.129652 19.347 0.0647375 18.8621C0.238225 18.4294 0.449337 18.0114 0.641636 17.585C1.6951 15.2398 2.47893 12.8047 3.09137 10.3089C3.39654 9.06108 4.33922 8.34205 5.62471 8.33578C7.42856 8.32533 9.2345 8.32533 11.0384 8.33578C12.3029 8.34205 13.2394 9.1008 13.5487 10.4114C14.2176 13.2457 15.177 15.9755 16.4311 18.6029C16.5294 18.8077 16.613 19.0502 16.5983 19.2676C16.567 19.7128 16.1866 19.9887 15.6724 19.9971C15.1435 20.0054 14.6147 19.9971 14.0838 19.9971C12.1587 19.9971 10.2315 19.9971 8.30645 19.9971H8.30436Z" fill="#1568A8"/>
<path d="M9.12373 21.6776V44.9751H7.48291V21.6776H9.12373Z" fill="#1568A8"/>
<path d="M38.2969 36.6519H26.6523C26.646 36.5912 26.6335 36.5348 26.6335 36.4763C26.6335 35.5399 26.6398 34.6014 26.6272 33.6649C26.6251 33.4517 26.7129 33.389 26.8969 33.3807C27.2167 33.364 27.5386 33.3326 27.8584 33.3326C30.9644 33.3284 34.0705 33.3284 37.1786 33.3326C37.4734 33.3326 37.766 33.3681 38.0607 33.3869C38.2279 33.3974 38.3011 33.4789 38.3011 33.6545C38.2969 34.6432 38.299 35.6318 38.299 36.6498L38.2969 36.6519Z" fill="#AD172A"/>
<path d="M8.30433 49.9958C6.72413 49.9958 5.14602 49.9958 3.56582 49.9958C2.74436 49.9958 2.38903 49.5861 2.51444 48.7793C2.71301 47.5085 3.67242 46.6828 5.05196 46.6682C7.22996 46.6473 9.40796 46.6473 11.586 46.6682C12.9843 46.6807 13.9521 47.5921 14.1151 48.9758C14.1841 49.5652 13.787 49.9896 13.1453 49.9916C12.1984 49.9979 11.2536 49.9916 10.3068 49.9916C9.63789 49.9916 8.97111 49.9916 8.30224 49.9916L8.30433 49.9958Z" fill="#AD172A"/>
<path d="M11.634 21.6776H13.279C13.2853 21.732 13.2999 21.7884 13.2999 21.8469C13.2999 23.1282 13.302 24.4116 13.2999 25.6929C13.2999 26.1569 13.0742 26.4914 12.7084 26.6042C12.1524 26.7756 11.6445 26.3576 11.6382 25.7117C11.6299 24.8798 11.6382 24.0479 11.6361 23.216C11.6361 22.7081 11.6361 22.1981 11.6361 21.6776H11.634Z" fill="#AD172A"/>
<path d="M26.3095 48.3236C26.0482 48.8106 25.8392 49.2454 25.5905 49.6572C25.4358 49.9122 25.1536 49.9895 24.8651 49.9916C24.1022 49.9979 23.3414 50.002 22.5785 49.9916C21.9995 49.9832 21.6462 49.6174 21.6358 49.0406C21.6316 48.8085 21.6358 48.5744 21.6358 48.3257H26.3116L26.3095 48.3236Z" fill="#AD172A"/>
<path d="M43.2946 48.3424C43.2946 48.6037 43.3071 48.865 43.2925 49.1221C43.2612 49.6446 42.9163 49.9791 42.3728 49.9895C41.5932 50.0041 40.8114 49.9979 40.0318 49.9895C39.7057 49.9874 39.4361 49.8474 39.2772 49.5589C39.064 49.1743 38.8738 48.7772 38.6501 48.3403H43.2967L43.2946 48.3424Z" fill="#AD172A"/>
<path d="M34.1227 4.15747C34.1248 4.58387 33.7423 4.97265 33.3075 4.9831C32.8936 4.99355 32.4819 4.59223 32.4777 4.1721C32.4735 3.75406 32.8769 3.34438 33.2908 3.34229C33.7088 3.34229 34.1185 3.74361 34.1206 4.15747H34.1227Z" fill="#AD172A"/>
</svg>
