<svg width="50" height="50" viewBox="0 0 50 50" fill="none" xmlns="http://www.w3.org/2000/svg">
<path d="M24.5505 10.8594L13.668 19.8227V29.4972C13.668 29.749 13.768 29.9906 13.9461 30.1687C14.1242 30.3467 14.3657 30.4468 14.6176 30.4468L21.2322 30.4299C21.4824 30.4274 21.7215 30.3263 21.8975 30.1484C22.0735 29.9706 22.1723 29.7305 22.1723 29.4803V23.8311C22.1723 23.5793 22.2723 23.3378 22.4504 23.1597C22.6285 22.9816 22.87 22.8815 23.1219 22.8815H26.8876C27.1395 22.8815 27.381 22.9816 27.5591 23.1597C27.7372 23.3378 27.8372 23.5793 27.8372 23.8311V29.4771C27.8372 29.729 27.9373 29.9705 28.1154 30.1486C28.2935 30.3267 28.535 30.4267 28.7869 30.4267L35.3993 30.4447C35.6512 30.4447 35.8927 30.3446 36.0708 30.1665C36.2489 29.9885 36.3489 29.7469 36.3489 29.4951V19.8164L25.4537 10.8594C25.3258 10.7563 25.1664 10.7001 25.0021 10.7001C24.8378 10.7001 24.6785 10.7563 24.5505 10.8594ZM41.7417 16.9517L36.8058 12.8842V4.70805C36.8058 4.52028 36.7312 4.3402 36.5984 4.20743C36.4657 4.07465 36.2856 4.00006 36.0978 4.00006H32.7963C32.6086 4.00006 32.4285 4.07465 32.2957 4.20743C32.1629 4.3402 32.0883 4.52028 32.0883 4.70805V8.99397L26.8001 4.6458C26.2929 4.22829 25.6564 4 24.9995 4C24.3426 4 23.7061 4.22829 23.1989 4.6458L8.25728 16.9517C8.18555 17.0109 8.12618 17.0837 8.08259 17.1659C8.03899 17.248 8.01201 17.338 8.00319 17.4306C7.99437 17.5232 8.00388 17.6166 8.03119 17.7055C8.05849 17.7945 8.10305 17.8771 8.16232 17.9488L9.66798 19.7795C9.72713 19.8514 9.79991 19.911 9.88213 19.9548C9.96435 19.9986 10.0544 20.0257 10.1471 20.0346C10.2399 20.0436 10.3334 20.0341 10.4225 20.0068C10.5116 19.9795 10.5943 19.9348 10.6661 19.8755L24.5505 8.43898C24.6785 8.33586 24.8378 8.27963 25.0021 8.27963C25.1664 8.27963 25.3258 8.33586 25.4537 8.43898L39.3381 19.8755C39.4098 19.9347 39.4925 19.9793 39.5814 20.0066C39.6703 20.0339 39.7637 20.0434 39.8563 20.0346C39.9489 20.0258 40.0389 19.9988 40.1211 19.9552C40.2032 19.9116 40.276 19.8523 40.3352 19.7805L41.8409 17.9509C41.8999 17.8785 41.944 17.7952 41.9706 17.7057C41.9972 17.6161 42.0059 17.5222 41.9961 17.4294C41.9863 17.3365 41.9582 17.2465 41.9134 17.1645C41.8687 17.0825 41.8082 17.0102 41.7354 16.9517H41.7417Z" fill="#A1A1A1"/>
<path d="M9.3283 46.0601V37.3328H10.3851V41.2191H15.0385V37.3328H16.0953V46.0601H15.0385V42.1566H10.3851V46.0601H9.3283ZM20.7338 46.1964C20.1429 46.1964 19.6245 46.0558 19.1784 45.7745C18.7353 45.4933 18.3887 45.0998 18.1387 44.5941C17.8915 44.0885 17.7679 43.4976 17.7679 42.8214C17.7679 42.1396 17.8915 41.5444 18.1387 41.0359C18.3887 40.5274 18.7353 40.1325 19.1784 39.8513C19.6245 39.57 20.1429 39.4294 20.7338 39.4294C21.3248 39.4294 21.8418 39.57 22.285 39.8513C22.731 40.1325 23.0776 40.5274 23.3248 41.0359C23.5748 41.5444 23.6998 42.1396 23.6998 42.8214C23.6998 43.4976 23.5748 44.0885 23.3248 44.5941C23.0776 45.0998 22.731 45.4933 22.285 45.7745C21.8418 46.0558 21.3248 46.1964 20.7338 46.1964ZM20.7338 45.293C21.1827 45.293 21.552 45.178 21.8418 44.9478C22.1316 44.7177 22.3461 44.4152 22.4853 44.0402C22.6245 43.6652 22.6941 43.2589 22.6941 42.8214C22.6941 42.3839 22.6245 41.9763 22.4853 41.5984C22.3461 41.2206 22.1316 40.9152 21.8418 40.6822C21.552 40.4493 21.1827 40.3328 20.7338 40.3328C20.285 40.3328 19.9157 40.4493 19.6259 40.6822C19.3361 40.9152 19.1216 41.2206 18.9824 41.5984C18.8432 41.9763 18.7736 42.3839 18.7736 42.8214C18.7736 43.2589 18.8432 43.6652 18.9824 44.0402C19.1216 44.4152 19.3361 44.7177 19.6259 44.9478C19.9157 45.178 20.285 45.293 20.7338 45.293ZM25.2349 46.0601V39.5146H26.2065V40.5373H26.2917C26.4281 40.1879 26.6483 39.9166 26.9522 39.7234C27.2562 39.5274 27.6213 39.4294 28.0474 39.4294C28.4792 39.4294 28.8386 39.5274 29.1255 39.7234C29.4153 39.9166 29.6412 40.1879 29.8031 40.5373H29.8713C30.0389 40.1993 30.2903 39.9308 30.6255 39.7319C30.9608 39.5302 31.3627 39.4294 31.8315 39.4294C32.4167 39.4294 32.8954 39.6126 33.2676 39.9791C33.6397 40.3427 33.8258 40.9095 33.8258 41.6794V46.0601H32.8201V41.6794C32.8201 41.1964 32.688 40.8513 32.4238 40.6439C32.1596 40.4365 31.8485 40.3328 31.4906 40.3328C31.0304 40.3328 30.6738 40.472 30.421 40.7504C30.1681 41.026 30.0417 41.3754 30.0417 41.7987V46.0601H29.019V41.5771C29.019 41.2049 28.8983 40.9052 28.6568 40.678C28.4153 40.4478 28.1042 40.3328 27.7235 40.3328C27.4622 40.3328 27.2179 40.4024 26.9906 40.5416C26.7662 40.6808 26.5843 40.874 26.4451 41.1211C26.3088 41.3655 26.2406 41.6481 26.2406 41.9691V46.0601H25.2349ZM38.4089 46.1964C37.7782 46.1964 37.2342 46.0572 36.7768 45.7788C36.3223 45.4976 35.9714 45.1055 35.7243 44.6027C35.4799 44.097 35.3578 43.5089 35.3578 42.8385C35.3578 42.168 35.4799 41.5771 35.7243 41.0657C35.9714 40.5515 36.3152 40.151 36.7555 39.864C37.1987 39.5743 37.7157 39.4294 38.3066 39.4294C38.6475 39.4294 38.9842 39.4862 39.3166 39.5998C39.649 39.7135 39.9515 39.8981 40.2243 40.1538C40.497 40.4066 40.7143 40.7419 40.8762 41.1595C41.0382 41.5771 41.1191 42.0913 41.1191 42.7021V43.1282H36.0737V42.2589H40.0964C40.0964 41.8896 40.0225 41.5601 39.8748 41.2703C39.7299 40.9805 39.5225 40.7518 39.2527 40.5842C38.9856 40.4166 38.6703 40.3328 38.3066 40.3328C37.9061 40.3328 37.5595 40.4322 37.2669 40.6311C36.9771 40.8271 36.7541 41.0828 36.5978 41.3981C36.4416 41.7135 36.3635 42.0515 36.3635 42.4123V42.9919C36.3635 43.4862 36.4487 43.9052 36.6191 44.249C36.7924 44.5899 37.0325 44.8498 37.3393 45.0288C37.6461 45.2049 38.0027 45.293 38.4089 45.293C38.6731 45.293 38.9118 45.2561 39.1248 45.1822C39.3407 45.1055 39.5268 44.9919 39.6831 44.8413C39.8393 44.6879 39.96 44.4976 40.0453 44.2703L41.0169 44.543C40.9146 44.8726 40.7427 45.1623 40.5012 45.4123C40.2598 45.6595 39.9615 45.8527 39.6064 45.9919C39.2512 46.1282 38.8521 46.1964 38.4089 46.1964Z" fill="#A1A1A1"/>
</svg>
