<svg width="46" height="34" viewBox="0 0 46 34" fill="none" xmlns="http://www.w3.org/2000/svg">
<path d="M41.0883 33.9999H4.91326C3.80624 33.9999 2.74457 33.5602 1.96179 32.7774C1.17902 31.9946 0.739258 30.9329 0.739258 29.8259L0.739258 4.78191C0.739258 3.6749 1.17902 2.61322 1.96179 1.83045C2.74457 1.04767 3.80624 0.60791 4.91326 0.60791H41.0883C42.1953 0.60791 43.2569 1.04767 44.0397 1.83045C44.8225 2.61322 45.2623 3.6749 45.2623 4.78191V29.8259C45.2623 30.9329 44.8225 31.9946 44.0397 32.7774C43.2569 33.5602 42.1953 33.9999 41.0883 33.9999ZM10.4783 5.47791C9.51506 5.47791 8.5735 5.76353 7.77263 6.29865C6.97176 6.83378 6.34756 7.59437 5.97896 8.48424C5.61037 9.37412 5.51392 10.3533 5.70183 11.298C5.88974 12.2427 6.35357 13.1104 7.03465 13.7915C7.71573 14.4726 8.58348 14.9364 9.52817 15.1243C10.4729 15.3122 11.4521 15.2158 12.3419 14.8472C13.2318 14.4786 13.9924 13.8544 14.5275 13.0535C15.0626 12.2527 15.3483 11.3111 15.3483 10.3479C15.3483 9.05631 14.8352 7.8176 13.9219 6.9043C13.0086 5.991 11.7699 5.47791 10.4783 5.47791ZM6.30426 28.4349H39.6973V18.6949L32.0873 11.0849C31.8915 10.8893 31.626 10.7793 31.3493 10.7793C31.0725 10.7793 30.807 10.8893 30.6113 11.0849L18.8263 22.8689L13.9993 18.0419C13.8035 17.8463 13.538 17.7363 13.2613 17.7363C12.9845 17.7363 12.719 17.8463 12.5233 18.0419L6.30426 24.2609V28.4349Z" fill="#1568A8"/>
</svg>
