<svg width="29" height="27" viewBox="0 0 29 27" fill="none" xmlns="http://www.w3.org/2000/svg">
<path d="M0.467827 13.4657C0.467827 10.2019 0.467827 6.9371 0.467827 3.67227C0.467827 1.87 1.89795 0.289972 3.74953 0.050798C3.9877 0.0201075 4.23026 0.00211658 4.47062 0.00211658C11.1646 0 17.8586 0 24.5527 0C25.322 0 26.0464 0.175676 26.6918 0.579944C27.6511 1.18105 28.2262 2.03721 28.4084 3.12831C28.4534 3.39606 28.4644 3.67015 28.4644 3.94213C28.4677 10.3607 28.4655 16.7803 28.4677 23.1988C28.4677 24.0751 28.2196 24.8794 27.6609 25.5683C27.0419 26.3313 26.2199 26.7949 25.2211 26.9409C24.9478 26.9811 24.6679 26.9949 24.3913 26.9949C17.716 26.9981 11.0406 27.0065 4.36526 26.9907C2.70904 26.9864 1.50502 26.2234 0.7949 24.7704C0.563315 24.2973 0.47112 23.7904 0.470022 23.2718C0.466729 20.0038 0.467827 16.7348 0.467827 13.4657ZM15.4067 11.9809C15.3946 11.9777 15.3837 11.9746 15.3716 11.9714C15.3716 11.6962 15.3837 11.4211 15.3683 11.1459C15.3496 10.8009 15.14 10.6242 14.7833 10.6242C14.0358 10.6263 13.2884 10.6263 12.5421 10.6295C12.406 10.6295 12.2688 10.6295 12.1327 10.6432C11.8868 10.6655 11.7068 10.8422 11.6794 11.0793C11.6717 11.1491 11.6717 11.22 11.6717 11.2898C11.6717 14.6108 11.6717 17.9327 11.6739 21.2537C11.6739 21.3235 11.6739 21.3944 11.6816 21.4643C11.7134 21.7373 11.9296 21.932 12.2139 21.9331C13.093 21.9363 13.9722 21.9373 14.8524 21.9331C15.1367 21.9331 15.3507 21.7299 15.3727 21.4558C15.3771 21.4029 15.3782 21.35 15.3782 21.2981C15.3782 19.6376 15.3815 17.9772 15.3716 16.3157C15.3683 15.7717 15.4451 15.2457 15.6613 14.7462C16.0608 13.8266 16.828 13.3757 17.8641 13.5631C18.549 13.6869 18.9584 14.1176 19.1713 14.7399C19.3645 15.3029 19.3875 15.8849 19.3843 16.4712C19.3777 18.0841 19.3744 19.6959 19.3733 21.3087C19.3733 21.732 19.5829 21.9289 20.0219 21.9299C20.8649 21.9331 21.7078 21.9341 22.5507 21.9331C22.9579 21.9331 23.1653 21.7299 23.1642 21.3404C23.1631 20.515 23.1664 19.6884 23.1588 18.863C23.1456 17.484 23.1423 16.104 23.1028 14.7261C23.0841 14.0721 22.9414 13.4287 22.7011 12.8117C22.2434 11.6391 21.4114 10.8634 20.1284 10.5829C19.2954 10.4009 18.4557 10.4115 17.6194 10.566C16.8017 10.7173 16.1234 11.0983 15.6021 11.7301C15.5351 11.8116 15.4737 11.8973 15.41 11.9809H15.4067ZM10.021 16.2903H10.0188C10.0188 14.7833 10.0188 13.2773 10.0188 11.7703C10.0188 11.5597 10.0243 11.3481 10.0122 11.1385C9.99464 10.8581 9.75866 10.6284 9.47001 10.6263C8.60952 10.62 7.74794 10.6242 6.88745 10.6274C6.67672 10.6274 6.49452 10.7141 6.40452 10.8972C6.34306 11.0221 6.31343 11.1734 6.31343 11.3131C6.31013 14.6161 6.31233 17.919 6.31343 21.2219C6.31343 21.2875 6.31343 21.3542 6.32111 21.4188C6.35513 21.713 6.59769 21.9331 6.89623 21.9331C7.74793 21.9352 8.59964 21.9363 9.45135 21.9331C9.75866 21.9331 9.99135 21.713 10.0144 21.4145C10.0199 21.3404 10.0221 21.2653 10.0221 21.1912C10.0221 19.5572 10.0221 17.9232 10.0221 16.2892L10.021 16.2903ZM8.16172 9.66643C9.37562 9.7003 10.5818 8.67799 10.5599 7.31597C10.5412 6.15185 9.4722 5.09356 8.28354 5.05546C6.78977 5.00678 5.79099 6.17619 5.76794 7.32232C5.7405 8.65047 6.94342 9.69924 8.16172 9.66643Z" fill="#0278B6"/>
</svg>
