<svg width="24" height="24" viewBox="0 0 24 24" fill="none" xmlns="http://www.w3.org/2000/svg">
<g clip-path="url(#clip0_247_9216)">
<path d="M23.9406 12.0607C23.9406 13.3838 23.9463 14.7078 23.9387 16.031C23.9331 16.93 23.8738 17.8243 23.6839 18.7064C23.4582 19.7558 23.0425 20.7188 22.3523 21.5482C21.5765 22.4811 20.5966 23.1177 19.4465 23.4957C18.7234 23.7337 17.9776 23.8493 17.2197 23.8982C14.7512 24.0572 12.2798 23.981 9.80945 23.9866C8.77596 23.9885 7.74154 23.9462 6.709 23.8926C5.64166 23.8371 4.60347 23.6189 3.64146 23.1356C2.02494 22.324 0.969826 21.0338 0.445092 19.3063C0.181784 18.4374 0.0642356 17.544 0.0501298 16.6413C0.0209779 14.673 0.00499135 12.7058 0.000289428 10.7385C-0.00253173 9.62224 0.0153356 8.50506 0.0510702 7.38977C0.0849241 6.33842 0.207174 5.29647 0.579567 4.30154C1.31683 2.33708 2.70108 1.0638 4.69939 0.447844C5.37365 0.240019 6.06765 0.1441 6.77012 0.0942592C8.59541 -0.0345736 10.4226 0.00774378 12.2488 0.00304186C13.2324 0.000220702 14.2161 0.000220702 15.1997 0.0115053C15.7771 0.018088 16.3545 0.042538 16.9319 0.0745111C18.0792 0.139398 19.2058 0.314309 20.2543 0.817415C21.7467 1.53493 22.7868 2.6728 23.3783 4.22067C23.6529 4.94006 23.808 5.68767 23.8663 6.4522C23.9096 7.03148 23.9331 7.61358 23.9378 8.1938C23.9481 9.48212 23.9406 10.7705 23.9406 12.0588V12.0607ZM2.17258 12.0052C2.17258 12.7434 2.16412 13.4806 2.17446 14.2188C2.19045 15.3586 2.18198 16.4993 2.29765 17.6343C2.36818 18.3302 2.54027 19.0045 2.89103 19.6148C3.50134 20.6765 4.43326 21.3056 5.61721 21.5792C6.32532 21.7429 7.04659 21.773 7.76787 21.7908C10.8279 21.8632 13.8879 21.8717 16.947 21.7654C17.4623 21.7476 17.9729 21.6846 18.4742 21.5557C19.4785 21.2971 20.3004 20.7649 20.9051 19.9176C21.4166 19.201 21.6386 18.3782 21.7072 17.5168C21.7674 16.7588 21.8022 15.9971 21.8041 15.2363C21.8088 12.765 21.7984 10.2946 21.7815 7.82328C21.7768 7.16878 21.7514 6.51145 21.6207 5.86634C21.4909 5.22688 21.2915 4.61187 20.9013 4.07961C20.2694 3.21728 19.4258 2.6728 18.3801 2.43864C17.7792 2.30416 17.1698 2.25997 16.5567 2.2468C15.4254 2.22329 14.2932 2.17251 13.1619 2.17345C11.2887 2.17533 9.41448 2.20448 7.54124 2.23364C6.9723 2.2421 6.40337 2.28159 5.84196 2.39068C4.52636 2.64646 3.48818 3.30003 2.84025 4.5009C2.48855 5.15353 2.32022 5.86446 2.27696 6.59702C2.22148 7.52424 2.19421 8.4524 2.17634 9.3815C2.16035 10.2561 2.17258 11.1306 2.17258 12.0052Z" fill="black"/>
<path d="M5.84389 11.9929C5.82132 8.69213 8.53057 5.79668 12.0786 5.84558C15.5158 5.8926 18.1375 8.67708 18.1413 11.9882C18.1451 15.524 15.2665 18.1703 11.9602 18.1571C8.57947 18.1439 5.82696 15.3632 5.84389 11.9929ZM7.99737 11.9966C7.93343 14.199 9.89789 16.1212 12.2263 15.9999C14.0779 15.903 16.1881 14.262 15.9756 11.6101C15.8176 9.64662 14.0422 7.90879 11.8088 8C9.59415 8.09122 7.94847 10.0115 7.99643 11.9966H7.99737Z" fill="black"/>
<path d="M19.8245 5.605C19.8161 6.39493 19.17 7.03439 18.3858 7.03063C17.609 7.02687 16.9526 6.35167 16.9658 5.56927C16.9789 4.79157 17.6381 4.15211 18.4224 4.15775C19.1898 4.16339 19.833 4.82637 19.8245 5.605Z" fill="black"/>
</g>
<defs>
<clipPath id="clip0_247_9216">
<rect width="24" height="24" fill="white"/>
</clipPath>
</defs>
</svg>
