<svg width="29" height="28" viewBox="0 0 29 28" fill="none" xmlns="http://www.w3.org/2000/svg">
<path d="M14.4527 27.4665C12.3964 27.4665 10.3413 27.4622 8.28505 27.4676C6.70251 27.4719 5.26314 27.0208 3.98096 26.1004C2.4081 24.9721 1.44996 23.4391 1.07101 21.5422C0.973043 21.0556 0.935364 20.5636 0.935364 20.0652C0.93967 15.788 0.929981 11.5108 0.941823 7.23363C0.946129 5.55634 1.48441 4.04916 2.53513 2.73898C3.75919 1.21349 5.36003 0.336095 7.29354 0.0648018C7.58852 0.0228159 7.88995 0.00559091 8.18924 0.00559091C12.5246 0.00236122 16.8588 -0.00625127 21.1941 0.00774403C22.9823 0.0131268 24.5637 0.627844 25.9105 1.80237C27.2616 2.98121 28.0561 4.47655 28.3188 6.24965C28.3694 6.59307 28.3963 6.94296 28.3963 7.28961C28.4017 11.5539 28.3974 15.8171 28.4006 20.0813C28.4017 21.8587 27.8602 23.4466 26.733 24.8203C25.6231 26.1725 24.1902 26.9982 22.4752 27.333C21.9606 27.4332 21.4406 27.4687 20.9164 27.4676C18.7622 27.4644 16.608 27.4665 14.4538 27.4665H14.4527ZM23.5722 13.7533C23.5722 12.3721 23.5733 10.9908 23.5712 9.6096C23.5712 9.41367 23.5647 9.21558 23.5378 9.0218C23.3548 7.74069 22.767 6.69104 21.7496 5.87931C20.8582 5.16771 19.8463 4.82859 18.7116 4.82966C15.9803 4.83074 13.2502 4.82966 10.5189 4.83182C10.0937 4.83182 9.67274 4.88672 9.26257 5.00837C8.18601 5.32919 7.31938 5.93745 6.6616 6.85791C6.05226 7.71054 5.76267 8.65038 5.76374 9.6925C5.76697 12.4323 5.76374 15.1722 5.7659 17.9131C5.7659 18.0961 5.77451 18.2802 5.80035 18.4611C6.02104 20.0027 6.83492 21.1568 8.13756 21.975C8.90838 22.4594 9.7664 22.6392 10.6686 22.6392C13.3686 22.6392 16.0675 22.6414 18.7675 22.6371C19.3144 22.6371 19.8506 22.552 20.3716 22.3701C22.2513 21.7155 23.5712 19.8703 23.5712 17.8841C23.5712 16.5071 23.5712 15.1302 23.5712 13.7544L23.5722 13.7533Z" fill="url(#paint0_linear_3091_18608)"/>
<path d="M7.37428 13.6898C7.37428 12.3807 7.37643 11.0705 7.37428 9.76141C7.37212 8.75698 7.74031 7.91295 8.48637 7.24548C9.09355 6.7029 9.82346 6.44344 10.633 6.44129C13.3277 6.43483 16.0223 6.43376 18.7169 6.44129C20.3705 6.4456 21.7109 7.62982 21.9305 9.26081C21.9509 9.41583 21.9628 9.57301 21.9628 9.72804C21.9649 12.4054 21.9682 15.0818 21.9617 17.7592C21.9595 18.5569 21.7173 19.2858 21.1909 19.8929C20.6268 20.5432 19.9044 20.9146 19.0431 21.0018C18.8397 21.0222 18.633 21.0276 18.4284 21.0276C15.8414 21.0298 13.2534 21.0298 10.6664 21.0276C9.25395 21.0276 8.04928 20.189 7.57236 18.8799C7.44102 18.5203 7.37751 18.1457 7.37643 17.7646C7.3732 16.4059 7.37535 15.0473 7.37535 13.6887L7.37428 13.6898ZM14.7595 9.71296C12.4858 9.61607 10.7181 11.5593 10.6363 13.5563C10.5426 15.8504 12.4503 17.728 14.5926 17.7689C16.6564 17.8087 18.6351 16.1034 18.6986 13.8437C18.7621 11.598 16.8879 9.71081 14.7595 9.71189V9.71296ZM20.0885 9.11116C20.0842 8.65793 19.73 8.30913 19.2767 8.31236C18.8181 8.31451 18.4672 8.67085 18.4704 9.13162C18.4726 9.58593 18.8332 9.93258 19.2983 9.92935C19.7483 9.92612 20.0939 9.5687 20.0885 9.11116Z" fill="url(#paint1_linear_3091_18608)"/>
<path d="M14.6788 11.3276C16.0891 11.3459 17.0504 12.4451 17.072 13.7273C17.0946 15.0504 15.9954 16.1528 14.6465 16.1399C13.2211 16.1259 12.2748 14.9696 12.263 13.7542C12.249 12.4225 13.3395 11.3362 14.6788 11.3287V11.3276Z" fill="url(#paint2_linear_3091_18608)"/>
<defs>
<linearGradient id="paint0_linear_3091_18608" x1="2.8075" y1="23.8536" x2="26.508" y2="3.63899" gradientUnits="userSpaceOnUse">
<stop stop-color="#FCB850"/>
<stop offset="0.22" stop-color="#F58449"/>
<stop offset="0.5" stop-color="#F05945"/>
<stop offset="0.78" stop-color="#EC4C62"/>
<stop offset="1" stop-color="#D8408C"/>
</linearGradient>
<linearGradient id="paint1_linear_3091_18608" x1="7.3732" y1="13.7328" x2="21.9638" y2="13.7328" gradientUnits="userSpaceOnUse">
<stop stop-color="#FCB850"/>
<stop offset="0.22" stop-color="#F58449"/>
<stop offset="0.5" stop-color="#F05945"/>
<stop offset="0.78" stop-color="#EC4C62"/>
<stop offset="1" stop-color="#D8408C"/>
</linearGradient>
<linearGradient id="paint2_linear_3091_18608" x1="12.263" y1="13.7338" x2="17.073" y2="13.7338" gradientUnits="userSpaceOnUse">
<stop stop-color="#FCB850"/>
<stop offset="0.22" stop-color="#F58449"/>
<stop offset="0.5" stop-color="#F05945"/>
<stop offset="0.78" stop-color="#EC4C62"/>
<stop offset="1" stop-color="#D8408C"/>
</linearGradient>
</defs>
</svg>
