<svg width="50" height="50" viewBox="0 0 50 50" fill="none" xmlns="http://www.w3.org/2000/svg">
<g clip-path="url(#clip0_457_14941)">
<path d="M21.9308 20.8975C20.6514 22.0657 19.8853 23.4869 19.7952 25.2746C19.1447 24.9041 18.4687 25.0119 17.8104 25.0119C14.646 25.0041 11.4817 25.008 8.31738 25.0099C7.25738 25.0099 6.38547 25.7705 6.25224 26.8113C6.12096 27.8365 6.8224 28.8911 7.82558 29.1224C8.12144 29.191 8.43886 29.1773 8.74647 29.1773C11.7638 29.1773 14.7812 29.1734 17.7986 29.1675C18.4511 29.1675 19.1153 29.2714 19.7834 28.9264C19.7834 29.4458 19.7834 29.9084 19.7834 30.3691C19.7873 31.7608 19.7775 33.1525 19.7991 34.5443C19.8441 37.3826 20.6181 40.0269 21.9504 42.5183C22.1679 42.924 22.403 43.32 22.646 43.7493C22.5402 43.7551 22.4559 43.763 22.3717 43.763C16.8483 43.763 11.325 43.7689 5.80355 43.763C2.86847 43.7591 0.481996 41.6754 0.0626987 38.7665C0.0195933 38.4705 0 38.1667 0 37.8668C0 27.1622 0 16.4596 0 5.75509C0 2.80894 2.29438 0.297947 5.22163 0.043124C5.52924 0.0156814 5.83882 0.00196018 6.14643 0.00196018C13.9485 0 21.7486 0 29.5487 0C32.2742 0 34.5607 1.74652 35.2014 4.35748C35.3484 4.95926 35.3934 5.59631 35.3954 6.21965C35.4111 9.31281 35.3954 12.406 35.4013 15.4991C35.4013 15.7344 35.3268 15.8245 35.1015 15.901C33.1755 16.542 31.2553 17.1967 29.3371 17.8592C29.1098 17.9376 29.0021 17.9219 28.8669 17.6867C28.4691 16.9967 27.8402 16.6654 27.0447 16.6654C23.9215 16.6654 20.7983 16.6713 17.6752 16.6733C14.6245 16.6733 11.5738 16.6772 8.52507 16.6694C7.79619 16.6694 7.15745 16.8517 6.69113 17.4495C6.20521 18.0709 6.09745 18.7726 6.38155 19.4959C6.67545 20.2447 7.24954 20.7054 8.0607 20.8093C8.38203 20.8504 8.70924 20.8367 9.03449 20.8367C13.0276 20.8367 17.0227 20.8367 21.0158 20.8367C21.3078 20.8367 21.5997 20.8367 21.8916 20.8367C21.9034 20.8563 21.9171 20.8759 21.9289 20.8975H21.9308ZM12.5006 8.34057C12.5006 8.34057 12.5006 8.3386 12.5006 8.33665C11.176 8.33665 9.84958 8.33469 8.52507 8.33665C8.29778 8.33665 8.06462 8.33273 7.84714 8.38369C6.83808 8.61303 6.1386 9.64408 6.2542 10.7065C6.36 11.7042 7.26325 12.502 8.3017 12.504C11.0996 12.5079 13.8956 12.504 16.6935 12.504C16.7915 12.504 16.8895 12.5059 16.9855 12.4922C18.0592 12.3335 18.8214 11.3749 18.7371 10.2929C18.647 9.14228 17.7966 8.33861 16.6739 8.33861C15.2828 8.33861 13.8936 8.33861 12.5025 8.33861L12.5006 8.34057Z" fill="#1568A8"/>
<path d="M23.9568 30.1613C23.9568 28.7127 23.945 27.2642 23.9607 25.8156C23.9744 24.6218 24.4564 23.9691 25.587 23.579C27.3131 22.9831 29.0432 22.399 30.7714 21.811C32.5465 21.2053 34.3236 20.6074 36.0949 19.9939C36.7042 19.7822 37.294 19.7802 37.9053 19.9919C41.3576 21.1817 44.8139 22.3637 48.2702 23.5438C48.8129 23.728 49.3027 23.977 49.6241 24.4807C49.869 24.863 49.9787 25.2844 49.9807 25.7313C49.9846 28.6461 50.0297 31.5609 49.967 34.4737C49.9141 36.9102 49.1578 39.1664 47.9018 41.2559C46.2815 43.9531 44.0419 46.0407 41.4517 47.7735C40.3035 48.54 39.126 49.2613 37.8485 49.8062C37.243 50.065 36.6592 50.0709 36.0616 49.7906C32.4407 48.0911 29.2999 45.7781 26.8958 42.5457C25.344 40.4601 24.3271 38.1393 24.0704 35.5322C23.9705 34.507 23.9744 33.4701 23.9509 32.4371C23.9333 31.6805 23.947 30.9238 23.947 30.1652C23.9509 30.1652 23.9548 30.1652 23.9607 30.1652L23.9568 30.1613ZM36.2242 35.3264C36.1595 35.2676 36.0988 35.2186 36.042 35.1637C35.6893 34.8148 35.3405 34.462 34.9859 34.113C34.5235 33.6563 34.0826 33.1702 33.5869 32.7546C32.7503 32.0529 31.5041 32.1548 30.7518 32.9389C30.0053 33.7171 29.9857 34.9559 30.7145 35.7772C30.9242 36.0144 31.1632 36.2242 31.3885 36.4496C32.523 37.5826 33.7006 38.6744 34.7762 39.8583C35.6736 40.8482 37.2215 40.9658 38.1345 39.7799C38.403 39.431 38.6734 39.086 38.9379 38.7351C40.4211 36.7573 41.9043 34.7815 43.3856 32.8017C43.7598 32.2999 44.1575 31.8118 44.4906 31.2845C45.0392 30.4181 44.8296 29.2871 44.0439 28.6128C43.2856 27.962 42.1139 27.9463 41.3557 28.6069C41.1147 28.8166 40.9325 29.0969 40.7365 29.3557C39.6334 30.8258 38.5382 32.2999 37.4331 33.7681C37.0432 34.2875 36.6376 34.7932 36.2222 35.3244L36.2242 35.3264Z" fill="#AD172A"/>
</g>
<defs>
<clipPath id="clip0_457_14941">
<rect width="50" height="50" fill="white"/>
</clipPath>
</defs>
</svg>
