<svg width="50" height="49" viewBox="0 0 50 49" fill="none" xmlns="http://www.w3.org/2000/svg">
<path d="M32.8811 5.21628C32.7767 5.42724 32.6785 5.62776 32.5782 5.82618C32.2357 6.5071 31.8973 7.19011 31.5422 7.86477C31.3751 8.18434 31.0242 8.34726 30.7193 8.29504C30.3579 8.23238 30.0592 7.97338 30.0321 7.61203C30.0154 7.40316 30.0864 7.16505 30.1804 6.9708C30.8488 5.59016 31.5276 4.21578 32.2127 2.84559C32.6033 2.06232 33.0085 1.2874 33.4137 0.512491C33.6184 0.121901 33.9547 -0.0598172 34.2952 0.0174653C34.8633 0.146966 35.1244 0.648257 34.8737 1.19341C34.5228 1.95579 34.1385 2.70564 33.7688 3.45967C33.727 3.54322 33.6832 3.62677 33.6268 3.73747C33.8523 3.83981 34.0612 3.94007 34.2722 4.03198C35.1223 4.39959 35.9766 4.76094 36.8246 5.13064C36.9854 5.19957 37.1003 5.1933 37.2507 5.08678C38.2303 4.38915 39.3352 4.39124 40.2564 5.14317C41.1963 5.90973 42.0923 6.73269 42.9633 7.57862C43.8385 8.42872 43.9283 9.60467 43.2871 10.6469C43.2432 10.72 43.2369 10.8663 43.2829 10.9373C43.7132 11.6077 44.1623 12.2678 44.5988 12.9362C44.6823 13.0636 44.7659 13.0949 44.9205 13.0657C46.3909 12.7774 47.4436 13.6484 47.8447 14.7742C48.2206 15.8353 48.63 16.8838 49.0122 17.9407C49.43 19.1 48.7783 20.2613 47.8405 20.7626C47.6671 20.8545 47.64 20.9443 47.6734 21.1302C47.8133 21.8884 47.9386 22.6487 48.0556 23.4111C48.0807 23.5803 48.1517 23.6638 48.3083 23.7244C49.5282 24.1985 50.1214 25.1531 49.9793 26.4564C49.8603 27.5593 49.7224 28.66 49.5658 29.7587C49.4007 30.92 48.3689 31.8182 47.1888 31.8495C47.0259 31.8537 46.9486 31.8871 46.9026 32.0605C46.6896 32.8542 46.4494 33.6416 46.2405 34.4374C46.2134 34.5439 46.2698 34.7048 46.3408 34.7988C46.8797 35.5089 47.0823 36.2859 46.7982 37.1444C46.7105 37.4117 46.5643 37.6687 46.4076 37.9026C45.8123 38.7966 45.2129 39.6905 44.5925 40.5678C43.8928 41.5578 42.5853 41.8879 41.4908 41.3699C41.3571 41.3072 41.2715 41.3009 41.1482 41.4054C40.5467 41.9025 39.9368 42.3891 39.3206 42.8696C39.1911 42.9719 39.1556 43.0513 39.2162 43.2142C39.6694 44.4549 39.2057 45.6956 38.0465 46.318C37.117 46.8193 36.1687 47.2893 35.2393 47.7927C34.0591 48.4318 32.8268 48.1853 31.9976 47.166C31.9537 47.1117 31.8305 47.0783 31.7615 47.0971C30.9511 47.3164 30.1407 47.5399 29.3386 47.7843C29.2321 47.8156 29.1131 47.9472 29.0817 48.0558C28.7496 49.1984 27.8034 49.9419 26.6087 49.9545C25.5414 49.967 24.474 49.9733 23.4067 49.9545C21.978 49.9252 21.0799 48.9853 20.9107 47.9994C20.896 47.918 20.7833 47.8135 20.6955 47.7885C19.883 47.5483 19.0663 47.3185 18.2476 47.0971C18.1745 47.0783 18.0429 47.1159 18.0011 47.1723C17.4601 47.9222 16.1463 48.4882 15.0664 47.9389C13.9928 47.3916 12.9088 46.8674 11.8561 46.2867C10.8034 45.706 10.3627 44.4361 10.7679 43.2685C10.8451 43.0492 10.7908 42.9531 10.6217 42.8236C10.0306 42.3683 9.45198 41.8983 8.87549 41.4242C8.75226 41.3239 8.65826 41.3009 8.50579 41.374C7.48023 41.8649 6.26251 41.6268 5.57532 40.7182C4.82129 39.7239 4.10904 38.6963 3.44065 37.6436C2.85372 36.7204 2.96651 35.6739 3.66414 34.8134C3.79156 34.6567 3.80827 34.5272 3.75396 34.3434C3.52838 33.5977 3.31324 32.8479 3.10646 32.098C3.05842 31.9205 2.98949 31.8495 2.79315 31.8432C1.6172 31.814 0.59791 30.9117 0.432901 29.7378C0.278336 28.6391 0.138392 27.5384 0.0193355 26.4355C-0.120608 25.1322 0.503917 24.163 1.73626 23.7014C1.81563 23.6722 1.90753 23.5719 1.92216 23.4904C2.07254 22.6738 2.21249 21.8529 2.3399 21.032C2.35034 20.961 2.27097 20.842 2.19995 20.8002C1.46055 20.3511 0.957169 19.7287 0.881975 18.8535C0.850644 18.4796 0.919572 18.0723 1.04489 17.7152C1.3958 16.7105 1.79265 15.7225 2.17907 14.7304C2.68663 13.427 3.74769 12.8338 5.1346 13.0615C5.20979 13.074 5.33512 13.0176 5.37898 12.9529C5.83014 12.2949 6.26668 11.6286 6.71367 10.9665C6.79931 10.8412 6.79722 10.7451 6.71367 10.6156C6.01604 9.52739 6.19149 8.29087 7.15648 7.42614C7.95646 6.70762 8.75017 5.98075 9.55641 5.2685C10.5423 4.3975 11.6911 4.33484 12.7689 5.09304C12.9088 5.19121 13.0174 5.20583 13.1699 5.13273C13.4352 5.00323 13.7046 4.88417 13.9803 4.78183C14.1579 4.71707 14.208 4.62726 14.1913 4.4351C14.0179 2.5469 15.6784 0.77358 17.5645 0.821621C19.0872 0.861306 20.3989 1.98295 20.7373 3.53486C21.0381 4.91968 20.2653 6.45906 18.9473 7.10657C17.5771 7.77913 16.0983 7.50133 15.0664 6.36089C14.9181 6.19797 14.8095 6.1562 14.6111 6.27317C14.396 6.39849 14.1474 6.46533 13.9239 6.58021C13.8508 6.61781 13.7652 6.72642 13.7694 6.79744C13.8425 7.8397 13.3683 8.60626 12.6018 9.25168C11.9125 9.83234 11.2462 10.4422 10.5757 11.0459C9.9282 11.6265 9.18253 11.8605 8.3178 11.7372C8.24261 11.7268 8.12355 11.7874 8.07969 11.8521C7.62017 12.5247 7.17319 13.2056 6.71576 13.8803C6.62594 14.0119 6.6155 14.1163 6.69487 14.2583C7.08337 14.9685 7.13768 15.6975 6.83899 16.4598C6.45885 17.4269 6.10168 18.4023 5.73615 19.3757C5.45835 20.1151 4.96541 20.6414 4.22392 20.9255C4.06309 20.9861 3.98789 21.0738 3.95865 21.2597C3.8396 22.0555 3.6913 22.8471 3.56389 23.6429C3.55135 23.716 3.59731 23.8455 3.65579 23.879C4.69597 24.4659 4.95915 25.4518 5.06149 26.5379C5.13669 27.3232 5.24321 28.1044 5.34974 28.8856C5.46253 29.7002 5.26201 30.4187 4.71477 31.0286C4.59153 31.1665 4.56647 31.2897 4.61242 31.4505C4.82965 32.2088 5.03852 32.967 5.26828 33.721C5.29334 33.8045 5.42911 33.909 5.51475 33.9111C6.46929 33.9319 7.18154 34.3622 7.70999 35.1434C8.27394 35.9768 8.85669 36.7956 9.42482 37.6269C9.90314 38.3266 10.1057 39.0785 9.83003 39.9182C9.80915 39.985 9.85301 40.1104 9.9094 40.1563C10.5653 40.6973 11.2253 41.232 11.8916 41.7584C11.9584 41.8106 12.0963 41.8315 12.1757 41.8001C13.0446 41.4806 13.8383 41.6769 14.6174 42.1072C15.4361 42.5604 16.2695 42.9844 17.0988 43.4168C17.8737 43.8199 18.3395 44.4465 18.5045 45.305C18.5212 45.3906 18.6235 45.4972 18.7092 45.5222C19.4715 45.7499 20.2381 45.965 21.0088 46.1739C21.084 46.1948 21.2282 46.1635 21.2637 46.1092C21.7712 45.3217 22.5252 44.9875 23.4234 44.9666C24.4907 44.9416 25.5581 44.9436 26.6254 44.9666C27.4797 44.9833 28.1878 45.3342 28.6953 46.036C28.7977 46.1781 28.8896 46.2199 29.0629 46.1676C29.819 45.9441 30.5793 45.7394 31.3334 45.5139C31.4086 45.4909 31.4963 45.3844 31.5109 45.3029C31.6717 44.4528 32.1333 43.8325 32.8978 43.4314C33.8189 42.9489 34.7421 42.4727 35.6591 41.9818C36.3546 41.6101 37.0648 41.5286 37.8167 41.7897C37.9149 41.8231 38.0757 41.7897 38.1593 41.7249C38.8026 41.2257 39.4397 40.7161 40.0663 40.1939C40.1415 40.1312 40.1958 39.9662 40.1728 39.8702C39.9702 39.043 40.1101 38.2953 40.6031 37.5997C41.1942 36.7642 41.7686 35.9183 42.3534 35.0786C42.8735 34.3309 43.5753 33.9215 44.5006 33.9131C44.5821 33.9131 44.7116 33.8233 44.7325 33.7502C44.9706 32.9544 45.1941 32.1524 45.4134 31.3503C45.4343 31.2772 45.4134 31.1581 45.3633 31.1059C44.8474 30.5587 44.5779 29.907 44.6531 29.1655C44.7701 28.0021 44.9309 26.8428 45.0959 25.6836C45.2066 24.9066 45.6327 24.3218 46.3094 23.927C46.4536 23.8434 46.4765 23.7474 46.4536 23.6074C46.3157 22.7886 46.182 21.9678 46.0337 21.149C46.0212 21.0759 45.9356 20.9882 45.8625 20.961C45.0291 20.6373 44.5111 20.0336 44.2166 19.2002C43.8949 18.2937 43.5461 17.3998 43.2014 16.5016C42.9028 15.7204 42.9174 14.9643 43.333 14.2228C43.379 14.1414 43.3644 13.9805 43.3121 13.9012C42.8735 13.2244 42.4182 12.5602 41.9733 11.8876C41.8793 11.7456 41.7811 11.6997 41.6078 11.7289C40.8224 11.8688 40.1289 11.66 39.5357 11.1315C38.7337 10.4151 37.94 9.69031 37.14 8.97179C36.5301 8.42246 36.2126 7.7478 36.2606 6.92276C36.2732 6.7118 36.2084 6.60736 36.0037 6.52173C35.0429 6.12487 34.0926 5.70713 33.1359 5.29774C33.0649 5.2685 32.9918 5.24552 32.8936 5.21001L32.8811 5.21628ZM17.5082 5.82409C18.423 5.83036 19.152 5.09931 19.1561 4.1761C19.1603 3.26542 18.4021 2.48424 17.5082 2.48006C16.5849 2.47588 15.8372 3.20276 15.8372 4.10508C15.8372 5.06589 16.5682 5.81783 17.5082 5.82409Z" fill="#1568A8"/>
<path d="M16.6593 29.3561C19.159 29.311 21.3151 31.0434 21.5934 33.6885C21.8817 36.4338 19.8234 38.8758 16.9677 38.9685C14.1848 39.0588 12.2718 36.9528 12.0211 34.5961C11.7679 32.2218 13.563 29.494 16.6593 29.3561ZM12.9588 34.0219C12.9588 34.0771 12.9588 34.1322 12.9588 34.1874C12.9638 34.4281 13.1368 34.6236 13.3674 34.6512C13.6257 34.6813 13.8363 34.5409 13.8914 34.2877C13.9215 34.1523 13.929 34.0094 13.9466 33.8715C14.0644 32.9589 14.4957 32.2368 15.2704 31.7354C15.7392 31.432 16.2657 31.3042 16.8223 31.2791C17.1357 31.2641 17.3087 31.061 17.2936 30.7576C17.2811 30.4893 17.0755 30.3138 16.7747 30.3113C16.2782 30.3113 15.7994 30.4041 15.3406 30.5921C13.9516 31.1562 12.9613 32.5803 12.9563 34.0219H12.9588Z" fill="#AD172A"/>
<path d="M25.9659 34.1147C26.0286 31.6276 27.9641 29.3486 30.8022 29.3637C33.6253 29.3787 35.5934 31.58 35.5884 34.1749C35.5834 36.9052 33.4347 38.9711 30.7972 38.9736C27.9215 38.9736 25.9835 36.6871 25.9659 34.1147ZM26.9287 34.017C26.9287 34.0721 26.9287 34.1273 26.9287 34.1824C26.9337 34.4256 27.1017 34.6187 27.3323 34.6488C27.5906 34.6814 27.8062 34.541 27.8613 34.2902C27.8914 34.1498 27.9015 34.0019 27.919 33.859C28.0368 32.9589 28.4631 32.2444 29.2252 31.7455C29.7016 31.4321 30.2381 31.3042 30.8047 31.2766C31.1081 31.2616 31.2786 31.0585 31.2661 30.7602C31.256 30.4944 31.053 30.3114 30.7671 30.3089C29.8946 30.3039 29.1074 30.5696 28.423 31.1062C27.4828 31.8433 26.9864 32.8185 26.9287 34.0145V34.017Z" fill="#AD172A"/>
<path d="M30.6392 25.4776C31.0053 25.4776 31.3788 25.5227 31.7349 25.4676C32.4945 25.3522 32.9935 24.6628 32.9057 23.8981C32.833 23.2713 32.7452 22.6445 32.6625 22.0202C32.5296 21.0123 32.3942 20.002 32.2614 18.9941C32.126 17.9762 31.9906 16.9583 31.8552 15.9379C31.7524 15.1682 31.6246 14.401 31.5518 13.6263C31.4691 12.7287 31.9705 11.4827 33.2868 11.1517C34.1442 10.9386 35.0368 10.9562 35.8992 11.1342C36.8921 11.3398 37.6367 12.2198 37.6994 13.2352C37.7245 13.6388 37.6568 14.0525 37.6041 14.4587C37.4562 15.6069 37.2932 16.7527 37.1353 17.901C36.9999 18.8988 36.8595 19.8967 36.7291 20.897C36.6965 21.1452 36.6765 21.3984 36.6965 21.6467C36.7216 21.9601 36.882 22.2258 37.0977 22.454C37.3333 22.6997 37.5765 22.9403 37.8122 23.186C37.9501 23.329 38.0454 23.4869 37.9777 23.7C37.8824 24.0009 37.5038 24.1538 37.2757 23.9482C36.8369 23.5521 36.3831 23.166 36.0672 22.6545C35.7463 22.1356 35.6686 21.5664 35.7563 20.9622C35.9444 19.6535 36.1174 18.3397 36.2954 17.0285C36.4408 15.9755 36.5937 14.925 36.7266 13.8695C36.7592 13.6137 36.7717 13.343 36.7191 13.0948C36.5812 12.4429 35.9995 12.0042 35.3326 12.0042C34.8713 12.0042 34.41 12.0042 33.9487 12.0042C33.0486 12.0042 32.3892 12.7638 32.5096 13.6589C32.7478 15.4515 32.9859 17.2466 33.2266 19.0392C33.3821 20.1975 33.54 21.3533 33.698 22.5116C33.7556 22.9378 33.8258 23.3641 33.871 23.7928C33.9662 24.7279 33.4648 25.8386 32.3566 26.2648C32.0984 26.3651 31.8151 26.4328 31.5393 26.4428C30.8874 26.4629 30.2331 26.4704 29.5837 26.4228C28.5408 26.3426 27.741 25.6255 27.4953 24.6101C27.4677 24.4998 27.4276 24.4396 27.3122 24.3895C26.7181 24.1388 26.3696 23.4769 26.4799 22.8401C26.5902 22.2032 27.039 21.7645 27.6808 21.6667C28.2825 21.5765 28.8892 21.8773 29.1575 22.3988C29.5236 23.1083 29.2804 23.9232 28.5784 24.3368C28.4004 24.4421 28.3928 24.4446 28.4881 24.6327C28.7639 25.1817 29.2051 25.4801 29.8269 25.4926C30.0977 25.4976 30.3685 25.4926 30.6392 25.4926C30.6392 25.4851 30.6392 25.4801 30.6392 25.4726V25.4776ZM28.3753 23.0958C28.3753 22.815 28.1772 22.6019 27.9039 22.5994C27.6181 22.5994 27.4075 22.8025 27.405 23.0858C27.405 23.3615 27.6106 23.5721 27.8839 23.5747C28.1622 23.5772 28.3703 23.3741 28.3728 23.0983L28.3753 23.0958Z" fill="#AD172A"/>
<path d="M16.6718 25.4751C17.0379 25.4751 17.4089 25.5203 17.7675 25.4651C18.5196 25.3498 19.021 24.6653 18.9358 23.9082C18.848 23.141 18.7402 22.3763 18.64 21.6116C18.5246 20.7416 18.4068 19.8742 18.289 19.0042C18.1511 17.9813 18.0157 16.9583 17.8803 15.9329C17.7775 15.1632 17.6471 14.396 17.5794 13.6213C17.4992 12.7162 18.0056 11.4752 19.3194 11.1518C20.1768 10.9387 21.0694 10.9587 21.9318 11.1367C22.9172 11.3398 23.6367 12.2223 23.7395 13.2227C23.7821 13.6464 23.6843 14.0501 23.6317 14.4612C23.4838 15.6095 23.3208 16.7553 23.1629 17.9035C23.0275 18.9014 22.8871 19.8992 22.7567 20.8996C22.7266 21.1227 22.7091 21.3484 22.7141 21.574C22.7241 21.9977 22.9523 22.3161 23.2431 22.6019C23.4687 22.8226 23.7044 23.0357 23.9075 23.2764C24.1532 23.5647 23.9927 23.9709 23.6166 24.026C23.5189 24.0411 23.376 24.016 23.3083 23.9533C22.852 23.5246 22.3581 23.1284 22.0472 22.5694C21.7764 22.083 21.7037 21.564 21.7814 21.0124C21.9845 19.5532 22.18 18.0916 22.3806 16.6324C22.5135 15.6496 22.6489 14.6668 22.7843 13.6815C22.8946 12.8642 22.3907 12.1572 21.5959 12.0193C21.5282 12.0067 21.4555 12.0067 21.3853 12.0067C20.919 12.0067 20.4526 12.0067 19.9863 12.0067C19.0812 12.0067 18.4168 12.7564 18.5347 13.6514C18.7252 15.1031 18.9233 16.5522 19.1188 18.0038C19.3144 19.4705 19.5099 20.9347 19.7055 22.4014C19.7657 22.8426 19.8283 23.2839 19.8885 23.7277C20.0565 24.9587 19.1965 26.1621 17.9781 26.3953C17.7725 26.4354 17.5594 26.4554 17.3513 26.4554C16.7696 26.4554 16.1855 26.473 15.6063 26.4254C14.5734 26.3426 13.7711 25.6306 13.5229 24.6202C13.4953 24.5074 13.4577 24.4397 13.3348 24.387C12.7431 24.1338 12.3997 23.4845 12.505 22.8527C12.6103 22.2133 13.0565 21.7696 13.6984 21.6693C14.3051 21.574 14.9193 21.8774 15.1876 22.4039C15.5511 23.1159 15.3105 23.9332 14.6009 24.3369C14.4605 24.4171 14.433 24.4823 14.5082 24.6252C14.7965 25.1818 15.2403 25.4877 15.8746 25.4927C16.1403 25.4952 16.4061 25.4927 16.6718 25.4927C16.6718 25.4852 16.6718 25.4776 16.6718 25.4726V25.4751ZM14.4029 23.0908C14.4029 22.81 14.1998 22.5994 13.9265 22.5994C13.6407 22.5994 13.4326 22.8075 13.4326 23.0908C13.4326 23.3641 13.6432 23.5747 13.919 23.5747C14.1973 23.5747 14.4029 23.3716 14.4029 23.0908Z" fill="#AD172A"/>
<path d="M18.1863 28.5412C17.2712 28.3357 16.3561 28.3332 15.4385 28.5412C15.4861 27.942 16.158 27.418 16.84 27.4306C17.5094 27.4431 18.1688 27.9796 18.1863 28.5438V28.5412Z" fill="#1568A8"/>
<path d="M32.1636 28.5438C31.2359 28.3357 30.3233 28.3332 29.4107 28.5362C29.4032 28.0198 30.0174 27.5008 30.6969 27.4306C31.3462 27.3654 32.0482 27.8869 32.1636 28.5438Z" fill="#1568A8"/>
</svg>
