<svg width="50" height="50" viewBox="0 0 50 50" fill="none" xmlns="http://www.w3.org/2000/svg">
<g clip-path="url(#clip0_457_14821)">
<path d="M25.0154 22.1631C32.3879 22.1631 39.7626 22.1631 47.1351 22.1631C48.539 22.1631 49.5255 22.8294 49.8997 24.0322C50.3064 25.3366 49.3784 26.8964 48.022 27.13C47.6867 27.1884 47.5872 27.3355 47.5353 27.634C47.1632 29.7259 46.7824 31.8135 46.3995 33.9033C45.8133 37.1114 45.2249 40.3196 44.6365 43.5277C44.5672 43.9063 44.5067 44.2892 44.405 44.6591C44.0394 45.9852 42.8539 46.9371 41.4824 47.0236C41.2855 47.0366 41.0887 47.0452 40.8896 47.0452C30.3285 47.0452 19.7673 47.0431 9.2061 47.0474C8.31267 47.0474 7.47764 46.9003 6.74861 46.3422C5.94603 45.73 5.61288 44.8819 5.44414 43.9214C4.97904 41.293 4.49446 38.6668 4.01421 36.0406C3.55776 33.5463 3.1013 31.052 2.64268 28.5599C2.5713 28.1727 2.50423 27.7833 2.41121 27.4004C2.39174 27.3182 2.27925 27.21 2.19488 27.1971C0.933687 26.9937 -0.0657528 25.8017 -0.000854142 24.5557C0.0640445 23.3248 1.17165 22.241 2.43717 22.1804C2.85036 22.1609 3.26355 22.1652 3.67674 22.1652C10.7896 22.1652 17.9025 22.1652 25.0154 22.1652V22.1631ZM11.6398 41.5332C11.6203 41.3926 11.5987 41.1697 11.5576 40.9513C11.1877 38.9069 10.8178 36.8648 10.4435 34.8205C10.2942 34.0028 10.1493 33.1829 9.97407 32.3673C9.8724 31.8957 9.5306 31.6318 9.06549 31.5712C8.62418 31.5128 8.25426 31.6729 7.99683 32.0515C7.75886 32.4019 7.81511 32.7848 7.88433 33.1677C8.3105 35.5019 8.73667 37.8361 9.16284 40.1703C9.26668 40.7436 9.36402 41.3168 9.49382 41.8836C9.61497 42.4115 10.1298 42.7554 10.6447 42.6884C11.2504 42.6083 11.6441 42.1865 11.6398 41.531V41.5332ZM38.3737 41.4596C38.3564 42.3249 39.0487 42.8571 39.7626 42.6603C40.2731 42.5196 40.4916 42.1454 40.5781 41.663C40.9005 39.8826 41.2249 38.1022 41.5473 36.3196C41.7571 35.1645 41.9713 34.0114 42.1638 32.8541C42.2568 32.2938 41.9907 31.8395 41.5148 31.6578C40.7966 31.3852 40.1368 31.7573 39.9919 32.5382C39.5549 34.9092 39.1266 37.2802 38.6961 39.6511C38.5792 40.2936 38.4668 40.9383 38.3737 41.4575V41.4596ZM16.4401 41.2931C16.3926 40.8972 16.3277 40.3282 16.2584 39.7593C16.0118 37.7409 15.7652 35.7204 15.5186 33.7021C15.4667 33.2846 15.4299 32.8627 15.3563 32.4495C15.2568 31.8914 14.7701 31.5258 14.2379 31.5799C13.5759 31.6491 13.2017 32.0298 13.1995 32.6485C13.1995 32.8281 13.2104 33.0077 13.232 33.185C13.4397 34.9113 13.6473 36.6377 13.8572 38.364C13.9935 39.4759 14.1168 40.59 14.2725 41.6976C14.3677 42.3769 14.8891 42.7727 15.5099 42.6927C16.1178 42.6148 16.4812 42.1411 16.4401 41.2909V41.2931ZM36.7989 33.0661C36.8746 32.151 36.5393 31.6837 35.9119 31.5994C35.2132 31.5042 34.7675 31.8481 34.6377 32.5858C34.6226 32.6745 34.6096 32.7632 34.5988 32.8519C34.3716 34.7188 34.1445 36.5879 33.9195 38.4548C33.7962 39.4781 33.6642 40.4991 33.5691 41.5267C33.5107 42.1519 33.9433 42.6365 34.5425 42.697C35.1396 42.7576 35.6502 42.366 35.7345 41.7452C35.8989 40.5208 36.0439 39.292 36.1931 38.0654C36.4051 36.3305 36.615 34.5977 36.801 33.0682L36.7989 33.0661ZM21.2816 41.5786C21.1302 39.1363 20.9809 36.7307 20.8316 34.3229C20.7948 33.715 20.7819 33.1028 20.7083 32.4993C20.6391 31.9217 20.1826 31.5453 19.6721 31.5756C19.0145 31.6145 18.6142 31.9974 18.5753 32.6312C18.5667 32.774 18.571 32.919 18.5796 33.0617C18.6965 35.0563 18.8133 37.053 18.9344 39.0476C18.9885 39.9432 19.0296 40.8388 19.1118 41.73C19.1681 42.3531 19.6807 42.7489 20.2821 42.697C20.8792 42.6451 21.2967 42.1605 21.2816 41.5764V41.5786ZM28.8098 40.1595C28.8098 40.1595 28.8228 40.1595 28.8271 40.1595C28.7969 40.6246 28.7579 41.0897 28.7406 41.557C28.7125 42.3596 29.4458 42.8982 30.1987 42.6386C30.6486 42.485 30.9039 42.0913 30.932 41.5245C30.971 40.7176 31.0056 39.9107 31.0532 39.106C31.183 36.9924 31.3214 34.8811 31.4512 32.7675C31.488 32.1834 31.0813 31.6664 30.5534 31.6037C29.9001 31.5258 29.4004 31.8633 29.3139 32.5079C29.236 33.0942 29.2209 33.6869 29.1841 34.2775C29.0586 36.2374 28.9331 38.1995 28.8098 40.1595ZM23.9251 37.1287C23.9251 38.6171 23.9251 40.1076 23.9251 41.5959C23.9251 41.9399 24.0354 42.2298 24.308 42.4461C24.6671 42.7273 25.0609 42.7706 25.4697 42.5737C25.8786 42.3747 26.0798 42.0286 26.0819 41.5786C26.0863 39.623 26.0819 37.6674 26.0819 35.7118C26.0819 34.7167 26.0863 33.7194 26.0819 32.7243C26.0798 32.0883 25.6233 31.582 25.0695 31.582C24.3535 31.582 23.9295 32.0039 23.9273 32.7156C23.9273 34.1866 23.9273 35.6577 23.9273 37.1287H23.9251Z" fill="#1568A8"/>
<path d="M9.68636 7.94595C10.4067 7.43325 11.0947 6.90108 11.8259 6.43814C12.3148 6.12879 12.8599 5.90597 13.3921 5.67017C13.7642 5.5036 14.0065 5.67017 14.0065 6.08768C14.0065 7.5955 13.8096 9.06653 13.2298 10.4792C12.821 11.4743 12.2217 12.3115 11.4105 13.0059C11.3759 13.034 11.3478 13.0686 11.3175 13.0989C11.3132 13.1032 11.3132 13.114 11.3088 13.1487C11.4862 13.1898 11.6679 13.2265 11.8475 13.2741C12.9573 13.5618 13.7469 14.2498 14.2834 15.2427C14.9258 16.4282 15.2936 17.7089 15.5705 19.0177C15.6376 19.3313 15.7046 19.6429 15.7782 19.9847C15.657 19.9911 15.5705 20.002 15.484 20.002C12.1179 19.9976 8.74966 19.9933 5.38358 19.989C4.7757 19.989 4.78868 19.9825 4.73459 19.3789C4.65672 18.5093 4.61994 17.6461 4.79084 16.7808C5.00933 15.6646 5.5653 14.7884 6.54527 14.1935C6.57339 14.1762 6.59719 14.1503 6.64911 14.1048C6.35706 13.9794 6.08881 13.8669 5.82057 13.7501C4.11157 13.0059 2.94988 11.7014 2.08673 10.0963C1.83795 9.63115 1.6173 9.14874 1.40962 8.66416C1.24521 8.2791 1.37501 8.0844 1.80117 8.0606C3.20082 7.98056 4.55071 8.22285 5.86599 8.69228C5.93089 8.71608 5.99796 8.73555 6.09098 8.76584C6.16669 8.37428 6.20996 7.99138 6.31596 7.62578C6.50633 6.97463 6.73347 6.33214 6.94764 5.68748C6.96062 5.64637 6.98442 5.60527 7.00605 5.56633C7.17478 5.25698 7.37813 5.20074 7.62691 5.44302C8.02496 5.83025 8.41868 6.22613 8.76913 6.65447C9.11525 7.07631 9.40514 7.54141 9.69069 7.94379L9.68636 7.94595Z" fill="#1568A8"/>
<path d="M31.6459 19.9717C31.5118 19.9825 31.4231 19.9955 31.3366 19.9955C27.0619 19.9998 22.7872 19.9998 18.5126 20.0084C18.3395 20.0084 18.2941 19.95 18.3092 19.7878C18.439 18.3492 18.5277 16.9063 18.7051 15.4742C18.9063 13.8582 20.2627 12.7895 21.8852 12.915C23.4773 13.0383 25.0674 13.1941 26.6595 13.3325C27.5703 13.4126 28.4897 13.4493 29.3939 13.5727C30.8022 13.7652 31.9358 15.087 31.8925 16.5104C31.8579 17.6569 31.7324 18.7992 31.6459 19.9717Z" fill="#AD172A"/>
<path d="M42.4688 19.9825H34.0688C34.0645 19.9652 34.0601 19.95 34.0536 19.9327C34.1359 19.8895 34.2181 19.8462 34.3024 19.8051C35.8102 19.0869 36.7102 17.9274 36.9178 16.253C37.0758 14.9918 37.2467 13.7328 37.4176 12.4326C39.0703 12.6489 40.7079 12.8631 42.378 13.0816C42.3088 13.6159 42.2395 14.12 42.1768 14.624C42.0578 15.6018 41.9194 16.5796 41.8372 17.5618C41.7701 18.3579 41.9843 19.1064 42.3996 19.7943C42.4234 19.8332 42.4472 19.87 42.4667 19.9111C42.4732 19.9241 42.4667 19.9457 42.4667 19.9868L42.4688 19.9825Z" fill="#AD172A"/>
<path d="M42.471 10.8751C41.305 10.7215 39.953 10.5441 38.6009 10.3645C38.2807 10.3213 37.9584 10.291 37.6426 10.2239C37.065 10.1028 36.7275 9.64848 36.7946 9.06439C36.9135 8.0325 37.0455 7.00062 37.1904 5.97089C37.2921 5.25268 37.7702 4.91737 38.5165 5.01255C39.3256 5.11639 40.1347 5.23537 40.9438 5.34354C41.6987 5.44521 42.4559 5.5404 43.2109 5.64856C43.9724 5.75672 44.3228 6.17857 44.2406 6.94221C44.1324 7.95895 43.9983 8.97137 43.8512 9.98379C43.7625 10.596 43.2801 10.94 42.4667 10.8729L42.471 10.8751Z" fill="#1568A8"/>
<path d="M29.5194 11.3575C29.2274 11.3359 28.9526 11.3207 28.68 11.2948C27.1528 11.1607 25.6276 11.0222 24.1004 10.8881C23.5639 10.8405 23.0274 10.7994 22.4909 10.7734C22.2983 10.7626 22.2486 10.6934 22.2659 10.5095C22.3611 9.52953 22.4411 8.54523 22.5385 7.56526C22.6358 6.59395 23.2718 6.08557 24.2453 6.16994C25.6125 6.28892 26.9775 6.40358 28.3447 6.51391C29.2923 6.58962 29.8417 7.25375 29.7639 8.11907C29.6687 9.18773 29.5994 10.2586 29.5172 11.3553L29.5194 11.3575Z" fill="#1568A8"/>
</g>
<defs>
<clipPath id="clip0_457_14821">
<rect width="50" height="50" fill="white"/>
</clipPath>
</defs>
</svg>
