<svg width="29" height="29" viewBox="0 0 29 29" fill="none" xmlns="http://www.w3.org/2000/svg">
<path d="M28.8532 20.3097C28.8532 22.0935 28.8634 23.8773 28.8498 25.6599C28.8419 26.6965 28.461 27.5737 27.6132 28.2078C27.0559 28.6249 26.4161 28.8352 25.722 28.8363C22.1782 28.842 18.6333 28.8397 15.0895 28.8386C14.313 28.8386 13.594 28.6509 12.9757 28.1569C12.3721 27.6754 12.0047 27.0503 11.8385 26.2997C11.8238 26.2341 11.7786 26.1595 11.7255 26.1211C11.1614 25.7164 10.5917 25.3208 10.0265 24.9172C9.67157 24.664 9.3155 24.4108 8.97186 24.1429C8.50614 23.7789 8.49031 23.1832 8.95377 22.817C9.41384 22.4541 9.90217 22.1274 10.3792 21.786C10.7952 21.4876 11.2089 21.1892 11.6272 20.8942C11.7368 20.8173 11.7809 20.7314 11.7798 20.5912C11.7741 18.7238 11.7696 16.8553 11.7775 14.9879C11.782 13.862 12.2274 12.9509 13.1622 12.302C13.7546 11.8906 14.4283 11.7617 15.1382 11.7617C17.9076 11.7651 20.6771 11.7617 23.4465 11.764C24.2401 11.764 25.0336 11.7561 25.826 11.7764C27.2243 11.8115 28.4293 12.7904 28.7503 14.1514C28.8159 14.4272 28.8464 14.7177 28.8487 15.0014C28.8577 16.7705 28.8532 18.5407 28.8532 20.3097ZM20.3018 16.9694C19.7615 16.9966 19.6269 17.1017 19.4709 17.6126C19.1861 18.5441 18.9001 19.4744 18.6141 20.4058C18.3507 21.2649 18.0873 22.1252 17.8251 22.9843C17.7516 23.225 17.7934 23.3607 18.0139 23.4794C18.1552 23.5551 18.3157 23.606 18.4739 23.6331C18.7509 23.6806 18.8843 23.5901 18.9645 23.3211C19.064 22.9899 19.1578 22.6553 19.2483 22.3218C19.2743 22.2246 19.3206 22.1885 19.4246 22.1896C20.0203 22.1941 20.616 22.1941 21.2129 22.1896C21.3146 22.1896 21.3508 22.2292 21.3757 22.3185C21.4684 22.6564 21.5656 22.9944 21.6662 23.3313C21.7385 23.5755 21.8696 23.6659 22.124 23.6421C22.2257 23.632 22.3308 23.615 22.4247 23.5766C22.7796 23.4308 22.904 23.277 22.7841 22.8916C22.2291 21.118 21.6888 19.3387 21.1428 17.5629C21.0026 17.1085 20.7732 16.9468 20.3018 16.9706V16.9694Z" fill="#1568A8"/>
<path d="M7.77502 10.4041C7.39747 10.6178 7.01879 10.7738 6.60846 10.8416C6.38238 10.8789 6.15291 10.897 5.92457 10.9241C5.63293 10.958 5.46676 11.1479 5.47693 11.4362C5.48598 11.6871 5.68719 11.868 5.97205 11.868C6.77689 11.868 7.5399 11.6871 8.22153 11.2576C8.46795 11.1027 8.63751 11.105 8.88055 11.2598C9.46835 11.634 10.1262 11.8149 10.8214 11.8567C10.8587 11.859 10.896 11.8623 10.9333 11.8657C10.9842 11.8714 11.0351 11.8793 11.1006 11.8883C11.0814 11.9234 11.0712 11.9516 11.0532 11.9743C10.4518 12.7678 10.1172 13.6608 10.0901 14.6555C10.0697 15.3971 10.0867 16.1386 10.0878 16.8802C10.0878 17.0689 10.0889 17.0723 9.89564 17.0723C7.65181 17.0723 5.40798 17.0836 3.16415 17.0689C1.6596 17.0588 0.444426 16.1013 0.112091 14.6917C0.0487887 14.4249 0.0137465 14.1446 0.0126161 13.871C0.00696415 10.3047 0.00696415 6.73714 0.00922493 3.16962C0.0103553 1.67976 1.0311 0.263382 2.71878 0.037303C2.89964 0.0135647 3.08276 0.00226079 3.26589 0.00113039C6.7441 0 10.2235 0 13.7017 0C14.4647 0 15.1836 0.151473 15.8076 0.621716C16.4225 1.08631 16.8272 1.68994 16.9911 2.44504C17.0239 2.59877 17.0974 2.70051 17.2251 2.78981C18.065 3.381 18.9026 3.97672 19.7346 4.58035C19.8872 4.69113 20.0387 4.82678 20.1359 4.9839C20.3608 5.34563 20.2399 5.78761 19.8567 6.07134C19.4757 6.35281 19.0869 6.6241 18.7014 6.89879C18.1939 7.26164 17.684 7.62224 17.181 7.99075C17.1279 8.02918 17.0838 8.11848 17.0838 8.18517C17.0782 8.7628 17.0815 9.33931 17.0895 9.91694C17.0917 10.0447 17.0555 10.082 16.9222 10.0797C16.2552 10.0707 15.5894 10.0763 14.9225 10.0741C13.713 10.0695 12.6515 10.4595 11.7393 11.2553C11.7178 11.2734 11.6964 11.2915 11.6749 11.3096C11.6681 11.3152 11.6579 11.3175 11.65 11.3209C11.6421 11.3175 11.6285 11.3152 11.6274 11.3107C11.5517 11.0541 11.3821 10.9173 11.1131 10.9151C10.6609 10.9128 10.228 10.8224 9.81425 10.6438C9.65147 10.5737 9.49435 10.4934 9.32592 10.4132C9.46835 10.2267 9.60626 10.0628 9.72721 9.88642C10.1375 9.28844 10.3874 8.62716 10.4834 7.90936C10.497 7.80423 10.5422 7.77484 10.6372 7.77597C10.8158 7.77823 10.9944 7.77936 11.1719 7.77371C11.4149 7.7658 11.5833 7.60415 11.6104 7.36338C11.6331 7.16217 11.4861 6.92931 11.286 6.87392C11.1888 6.84679 11.0826 6.84114 10.9808 6.84001C10.3568 6.83435 9.73173 6.83209 9.10776 6.8287C9.08515 6.8287 9.06254 6.82418 9.02524 6.82079C9.02524 6.47037 9.02524 6.12447 9.02524 5.77744C9.02524 5.70283 9.02298 5.62596 9.00602 5.55475C8.95628 5.34111 8.77429 5.19868 8.55952 5.19529C8.33909 5.19302 8.13901 5.33658 8.09492 5.55023C8.06893 5.67683 8.06892 5.81022 8.06779 5.94134C8.06666 6.19455 8.06892 6.44776 8.07684 6.70097C8.08023 6.80723 8.04067 6.83888 7.9378 6.83775C7.35565 6.83322 6.7735 6.83435 6.19134 6.83435C6.10656 6.83435 6.02178 6.83435 5.93814 6.83888C5.65893 6.85583 5.4792 7.04574 5.48598 7.31138C5.49276 7.58041 5.67814 7.76354 5.9517 7.77145C6.11109 7.77597 6.27273 7.78841 6.42986 7.77145C6.59489 7.75223 6.60507 7.84945 6.63107 7.96588C6.70002 8.27561 6.76106 8.58986 6.8628 8.89054C7.04253 9.42521 7.33982 9.89659 7.71059 10.3227C7.72868 10.3431 7.74563 10.3646 7.77841 10.4041H7.77502Z" fill="#AD172A"/>
<path d="M8.54698 9.78699C8.02474 9.2071 7.68675 8.56278 7.5918 7.78394H9.50781C9.40156 8.55486 9.08279 9.21049 8.54698 9.78699Z" fill="#1568A8"/>
<path d="M21.0888 21.2819H19.5322C19.79 20.3731 20.0443 19.4778 20.2975 18.5825C20.3065 18.5825 20.3156 18.5825 20.3235 18.5825C20.5767 19.4755 20.8299 20.3685 21.0888 21.2819Z" fill="#AD172A"/>
</svg>
