<svg width="24" height="24" viewBox="0 0 24 24" fill="none" xmlns="http://www.w3.org/2000/svg">
<path d="M18.595 0C20.0169 0.0459382 21.3886 0.619697 22.4921 1.78597C23.297 2.63629 23.7855 3.64506 23.9423 4.79914C24.1747 6.50635 23.6995 8.01013 22.5488 9.29452C22.1322 9.75953 21.673 10.1861 21.229 10.6267C19.8988 11.9486 18.5676 13.2705 17.2336 14.5896C16.527 15.2881 15.6937 15.7802 14.7244 16.0165C14.3011 16.1196 13.859 16.1618 13.4234 16.1965C12.3351 16.2818 11.3403 15.9715 10.4078 15.4371C10.0053 15.2065 9.63878 14.9262 9.31567 14.5934C8.71953 13.9793 8.68269 13.0718 9.22309 12.4549C9.79844 11.7986 10.7999 11.7386 11.4962 12.3208C11.7361 12.5214 11.9742 12.7211 12.268 12.8468C13.1476 13.2255 14.2501 13.0671 14.9672 12.3518C16.5714 10.7514 18.1888 9.16327 19.8005 7.56949C19.912 7.4598 20.0244 7.35105 20.1312 7.23761C20.9267 6.39291 21.007 5.07945 20.3211 4.16819C19.4434 3.00098 17.7249 2.85942 16.6781 3.88037C15.7239 4.81039 14.7754 5.74697 13.8429 6.69854C13.5727 6.97417 13.3271 7.04542 12.9615 6.89542C12.2482 6.60198 11.4895 6.50166 10.7196 6.48573C10.6175 6.48385 10.5146 6.4801 10.4154 6.46416C10.1197 6.41541 9.99211 6.1126 10.1659 5.86978C10.2198 5.79384 10.2878 5.72728 10.354 5.66165C11.6501 4.37726 12.9473 3.09286 14.2435 1.80847C14.6752 1.38002 15.1382 0.991891 15.6767 0.700324C16.5298 0.238129 17.4415 0.00562509 18.595 0Z" fill="#1568A8"/>
<path d="M5.67053 23.9982C3.0979 23.9598 0.959554 22.3428 0.254324 20.0228C0.0466253 19.3394 -0.0534476 18.6401 0.0286877 17.9268C0.176909 16.6398 0.665 15.4999 1.58643 14.5701C2.84206 13.3018 4.11279 12.0476 5.37881 10.7896C5.88862 10.2834 6.3937 9.77161 6.91767 9.28042C7.77489 8.47615 8.79734 7.99715 9.96517 7.84436C11.7873 7.60533 13.3554 8.15182 14.6676 9.41166C15.3842 10.0997 15.2992 11.217 14.5175 11.7795C13.9492 12.1891 13.1694 12.1835 12.6077 11.7645C12.501 11.6848 12.4018 11.5967 12.2989 11.5123C11.335 10.7193 9.93968 10.7652 9.04469 11.6351C8.20445 12.4516 7.37838 13.283 6.54664 14.1089C5.70074 14.9478 4.85862 15.7905 4.008 16.6248C3.60299 17.0222 3.3292 17.4825 3.23291 18.0449C2.99783 19.4191 4.02216 20.7155 5.41846 20.8083C6.18317 20.8589 6.8327 20.618 7.3746 20.0771C8.2998 19.152 9.22973 18.2315 10.1578 17.3091C10.5222 16.9472 10.5505 16.9379 11.0301 17.1141C11.7995 17.3981 12.5973 17.5106 13.4148 17.5153C13.5178 17.5153 13.631 17.5331 13.7198 17.5781C13.9265 17.684 13.9719 17.9352 13.8321 18.1312C13.7897 18.1911 13.7368 18.2455 13.6849 18.2971C12.3575 19.615 11.0263 20.9302 9.70177 22.2509C8.93612 23.0149 8.04585 23.5623 6.98658 23.821C6.75906 23.8763 6.52682 23.9185 6.29457 23.9495C6.05761 23.9804 5.81875 23.9888 5.6677 24.0001L5.67053 23.9982Z" fill="#AD172A"/>
</svg>
