<svg width="50" height="42" viewBox="0 0 50 42" fill="none" xmlns="http://www.w3.org/2000/svg">
<path d="M25.0019 16.3625C26.5618 18.0968 28.4749 19.0289 30.8346 19.0405C33.206 19.0521 35.1003 18.0922 36.679 16.351C38.4447 18.3867 40.6875 19.2492 43.3933 19.0057V37.96C43.5266 37.96 43.6295 37.96 43.7348 37.96C45.2479 37.96 46.7634 37.9554 48.2765 37.96C49.3523 37.9646 50.1287 38.848 49.9861 39.8798C49.8738 40.6982 49.1067 41.2987 48.1666 41.301C45.0795 41.301 41.9948 41.301 38.9077 41.301C26.66 41.301 14.4123 41.301 2.16464 41.2987C1.85593 41.2987 1.53553 41.2918 1.2432 41.2106C0.398933 40.9788 -0.0898522 40.2252 0.0177274 39.3929C0.122968 38.5814 0.843283 37.9693 1.72965 37.9623C3.22407 37.953 4.71849 37.96 6.21291 37.96C6.3275 37.96 6.44444 37.96 6.58943 37.96V19.0011C9.30465 19.2839 11.5241 18.3658 13.3202 16.3649C14.9011 18.0342 16.7697 19.0428 19.1435 19.0451C21.5149 19.0451 23.4139 18.1038 25.0019 16.3625ZM23.1169 37.9461C23.1169 37.7954 23.1169 37.6539 23.1169 37.5125C23.1099 35.0038 23.1029 32.4928 23.0935 29.9841C23.0935 29.4462 23.1099 28.906 23.0702 28.3704C22.8807 25.7968 20.4228 23.9698 17.8736 24.4938C15.7898 24.9204 14.3749 26.6755 14.3773 28.8248C14.3796 31.672 14.3819 34.5169 14.3819 37.3641C14.3819 37.5542 14.3819 37.742 14.3819 37.9461H23.1169Z" fill="#1568A8"/>
<path d="M36.7257 12.1241C36.3679 13.7982 35.7248 15.2797 34.235 16.2813C33.1709 16.9978 32.0016 17.4174 30.7153 17.385C28.3509 17.327 25.4135 15.6298 25.0183 12.0384C24.3635 15.4327 22.3709 17.3618 18.7717 17.3316C17.331 17.3201 16.0775 16.6616 15.0485 15.6437C14.0265 14.6328 13.5096 13.3854 13.3482 11.9827C13.2103 12.5299 13.1307 13.091 12.9273 13.6034C12.1041 15.6924 10.5442 16.9444 8.31773 17.2899C5.16285 17.7791 2.25118 15.609 1.75304 12.4789C1.67119 11.9595 1.71796 11.4796 1.9074 10.9881C3.28488 7.42905 4.64834 3.86773 6.00711 0.301778C6.09598 0.0699216 6.21058 0.000364672 6.45146 0.000364672C16.4681 0.0050018 26.4846 0.000364672 36.5012 0.000364672C38.8586 0.000364672 41.2184 0.000364672 43.5758 -0.00427246C43.7722 -0.00427246 43.9008 0.0420989 43.978 0.241496C45.3555 3.84918 46.7283 7.45919 48.1292 11.0599C48.4659 11.9248 48.2461 12.727 47.9748 13.5292C47.0113 16.381 44.1815 17.5705 41.9784 17.3456C38.9335 17.0349 37.0461 14.758 36.7538 12.2818C36.7468 12.2285 36.7374 12.1752 36.7281 12.1218L36.7257 12.1241Z" fill="#AD172A"/>
</svg>
