<svg width="29" height="29" viewBox="0 0 29 29" fill="none" xmlns="http://www.w3.org/2000/svg">
<path d="M10.0818 2.43822C10.1553 2.46988 10.2367 2.51398 10.3249 2.54111C11.4251 2.88825 12.0346 3.91271 12.0289 5.02763C12.0187 7.18736 12.0255 9.34709 12.0255 11.508C12.0255 15.2507 12.0266 18.9924 12.0244 22.7352C12.0244 22.8437 12.0583 22.8709 12.1589 22.8709C13.3236 22.8697 14.4883 22.8765 15.653 22.8709C16.3597 22.8675 16.8448 22.3236 16.8402 21.5931C16.8301 20.044 16.8267 18.4937 16.8301 16.9446C16.8312 16.3159 17.2123 15.8285 17.772 15.6996C18.4538 15.5425 19.1345 16.0242 19.216 16.7275C19.2318 16.8666 19.2374 17.0079 19.2386 17.1493C19.2397 18.5864 19.2352 20.0225 19.2408 21.4597C19.2431 22.1732 19.1085 22.855 18.7433 23.4701C18.2492 24.3035 17.5323 24.8745 16.5904 25.1267C16.25 25.2172 15.8882 25.2646 15.5354 25.2703C14.4137 25.2884 13.2908 25.2793 12.168 25.2737C12.0323 25.2737 12.0086 25.3167 12.0086 25.4433C12.0052 25.9442 12.0402 26.4542 11.9667 26.9461C11.8163 27.949 10.8869 28.7587 9.8737 28.8604C9.4508 28.9034 9.05504 28.822 8.65928 28.6908C6.3435 27.9174 4.02773 27.144 1.71195 26.375C0.772302 26.063 0.232934 25.4071 0.0429685 24.4494C0.013569 24.3035 0.0022615 24.1509 0.0022615 24.0016C0 16.8349 0 9.66936 0 2.5038C0 1.44203 0.653573 0.493328 1.62715 0.167672C1.85443 0.0919121 2.10432 0.0523359 2.34517 0.0478129C3.19889 0.0319824 4.05374 0.0331132 4.90858 0.0319824C8.43991 0.0319824 11.9712 0.0319824 15.5026 0.0331132C16.7521 0.0331132 17.7709 0.519335 18.5296 1.51892C18.9468 2.06846 19.1696 2.69829 19.2114 3.38126C19.2442 3.9195 19.234 4.46 19.2363 5.00049C19.2397 5.70947 19.2374 6.41845 19.2363 7.12743C19.2363 7.42256 19.1933 7.70751 19.0068 7.95288C18.689 8.37239 18.1553 8.54879 17.6646 8.39161C17.167 8.23217 16.8323 7.79684 16.8289 7.2439C16.821 6.09393 16.8244 4.94283 16.8357 3.79285C16.8402 3.37222 16.7487 3.00246 16.4173 2.71977C16.1946 2.52981 15.9356 2.43143 15.6428 2.43143C14.0654 2.43143 12.4869 2.43596 10.9095 2.43822C10.6336 2.43822 10.3565 2.43822 10.0795 2.43822H10.0818Z" fill="#1568A8"/>
<path d="M21.6399 13.2561C20.188 13.2561 18.7565 13.2573 17.325 13.255C17.0818 13.255 16.832 13.2629 16.5968 13.2143C16.1139 13.1159 15.7939 12.8084 15.6763 12.3301C15.5599 11.8551 15.7103 11.4436 16.08 11.1292C16.3242 10.9223 16.6262 10.851 16.9462 10.851C18.4489 10.851 19.9506 10.851 21.4533 10.851C21.5087 10.851 21.5653 10.851 21.641 10.851C21.641 10.7889 21.641 10.7346 21.641 10.6803C21.641 9.55407 21.6388 8.42672 21.6422 7.30049C21.6433 6.89568 21.7824 6.54628 22.1126 6.29299C22.5671 5.94359 23.206 5.95377 23.6278 6.34501C24.0608 6.74642 24.4724 7.17272 24.8908 7.59109C26.0125 8.7128 27.1342 9.8345 28.2525 10.9596C28.447 11.1552 28.6539 11.3407 28.758 11.6098C28.9174 12.0259 28.8609 12.4115 28.5997 12.7665C28.5103 12.8864 28.404 12.9949 28.2989 13.1001C26.7995 14.6017 25.2979 16.1011 23.7985 17.6027C23.5882 17.8131 23.353 17.977 23.0556 18.0336C22.4156 18.1568 21.7824 17.7113 21.6716 17.0589C21.6523 16.9435 21.6433 16.8259 21.6422 16.7095C21.6399 15.6104 21.641 14.5124 21.641 13.4133V13.255L21.6399 13.2561Z" fill="#AD172A"/>
</svg>
