<svg width="50" height="41" viewBox="0 0 50 41" fill="none" xmlns="http://www.w3.org/2000/svg">
<path d="M45.3602 13.8747C45.223 13.8747 45.1184 13.8747 45.0138 13.8747C42.7377 13.8747 40.4617 13.8747 38.1857 13.8747C36.2072 13.8747 34.6101 15.2301 34.2892 17.1807C34.2637 17.3411 34.2613 17.5061 34.2613 17.6689C34.2613 21.5235 34.2613 25.3758 34.2613 29.2304C34.2613 29.3443 34.2613 29.4559 34.2613 29.6H33.9242C23.8553 29.6 13.7887 29.6 3.71976 29.6C1.53208 29.6 0 28.0726 0 25.8919C0 18.4919 0 11.0942 0 3.69419C0 1.57625 1.49953 0.046497 3.62212 0C3.69884 0 3.77556 0 3.8546 0C16.4506 0 29.0444 0 41.6404 0C43.4003 0 44.779 0.990387 45.216 2.58756C45.309 2.92699 45.3648 3.28966 45.3648 3.64072C45.3765 6.98385 45.3718 10.327 45.3718 13.6701C45.3718 13.7259 45.3672 13.7817 45.3625 13.8724L45.3602 13.8747ZM22.7045 26.3127C22.7045 26.3127 22.7045 26.3196 22.7045 26.322C22.9347 26.322 23.1671 26.322 23.3973 26.322C23.6275 26.322 23.86 26.3452 24.0901 26.3289C24.6341 26.2894 24.9875 25.9453 24.9991 25.4688C25.0108 24.9712 24.6481 24.5225 24.1203 24.5086C23.1021 24.4784 22.0838 24.4946 21.0655 24.5202C20.9074 24.5249 20.7214 24.6504 20.6028 24.7713C20.3471 25.0317 20.296 25.3641 20.4122 25.7082C20.5308 26.0569 20.7795 26.2871 21.1492 26.3057C21.6653 26.3313 22.1861 26.3127 22.7045 26.3127Z" fill="#1568A8"/>
<path d="M36.1118 28.1865C36.1118 24.7666 36.1118 21.3445 36.1118 17.9246C36.1118 16.6041 36.9767 15.7276 38.2995 15.7253C41.4729 15.7206 44.6463 15.7206 47.8198 15.7253C49.1287 15.7253 49.9982 16.5925 49.9982 17.9037C50.0005 24.8015 50.0005 31.7017 49.9982 38.5995C49.9982 39.7898 49.1031 40.6942 47.9151 40.6965C44.6835 40.7035 41.452 40.7035 38.2228 40.6965C36.9906 40.6965 36.1165 39.7922 36.1141 38.5344C36.1095 35.3749 36.1141 32.2131 36.1141 29.0537C36.1141 28.7654 36.1141 28.4748 36.1141 28.1865H36.1118ZM43.0561 36.0747C42.5935 36.0747 42.1309 36.0724 41.6705 36.0747C41.1172 36.0794 40.7406 36.4513 40.7383 36.993C40.7383 37.5324 41.1102 37.9206 41.6589 37.9253C42.6028 37.9323 43.5467 37.9323 44.4906 37.9253C45.016 37.9206 45.381 37.5301 45.3763 36.993C45.3717 36.4606 45.002 36.0817 44.4743 36.077C44.0024 36.0724 43.5304 36.077 43.0585 36.077L43.0561 36.0747Z" fill="#1568A8"/>
<path d="M28.6933 38.8506C29.8813 38.8506 31.0182 38.8506 32.155 38.8529C32.3177 38.8529 32.4828 38.8715 32.6386 38.9134C33.0338 39.0203 33.3291 39.4062 33.3198 39.7829C33.3128 40.1734 33.0222 40.5408 32.6246 40.6407C32.4758 40.6779 32.3201 40.6965 32.169 40.6965C25.843 40.6989 19.5194 40.7012 13.1935 40.6919C12.9541 40.6919 12.6913 40.6268 12.4798 40.5129C12.1287 40.3222 11.9869 39.9014 12.0915 39.5434C12.2124 39.1249 12.5798 38.8553 13.0819 38.8506C14.1607 38.8436 15.2417 38.8483 16.3204 38.8483C16.4251 38.8483 16.5297 38.8483 16.6529 38.8483V31.4715H28.691V38.8483L28.6933 38.8506Z" fill="#1568A8"/>
<path d="M29.3837 9.86204C29.3837 10.1945 29.3837 10.5176 29.3837 10.8408C29.3837 10.8664 29.3861 10.8919 29.3837 10.9152C29.3675 10.9942 29.4047 11.0082 29.4744 11.0082C30.0882 11.0082 30.7043 11.0082 31.318 11.0082C31.4133 11.0082 31.5086 11.0082 31.6179 11.0082C31.6179 11.0524 31.6179 11.0849 31.6179 11.1175C31.6179 11.4174 31.6133 11.7173 31.6179 12.0172C31.6179 12.1009 31.597 12.1288 31.5086 12.1288C30.8414 12.1264 30.1742 12.1288 29.507 12.1288C29.4698 12.1288 29.4326 12.1288 29.3861 12.1288C29.3861 12.1636 29.3814 12.1915 29.3814 12.2218C29.3814 12.524 29.3814 12.8262 29.3814 13.1285C29.3814 13.1843 29.3907 13.2098 29.4581 13.2098C30.1463 13.2075 30.8344 13.2098 31.5249 13.2052C31.6016 13.2052 31.6202 13.2307 31.6202 13.3005C31.6202 13.612 31.6202 13.9236 31.6226 14.2351C31.6226 14.3072 31.597 14.3211 31.5296 14.3211C30.9019 14.3211 30.2765 14.3211 29.6488 14.3211C29.5651 14.3211 29.4837 14.3211 29.3884 14.3211C29.3884 14.3862 29.3884 14.442 29.3884 14.4955C29.3884 14.7837 29.3884 15.0697 29.3837 15.358C29.3837 15.4184 29.3954 15.437 29.4605 15.437C30.3346 15.437 31.2087 15.4394 32.0829 15.437C32.1619 15.437 32.1805 15.4626 32.1805 15.537C32.1782 16.2112 32.1782 16.8831 32.1805 17.5573C32.1805 17.6433 32.1573 17.6666 32.0713 17.6642C31.7411 17.6596 31.411 17.6642 31.0693 17.6642V16.5599H29.3954C29.3954 16.5855 29.3884 16.6111 29.3884 16.639C29.3884 17.5062 29.3884 18.3756 29.393 19.2428C29.393 19.3242 29.3698 19.3498 29.2884 19.3474C28.4329 19.3451 27.5773 19.3474 26.7218 19.3451C26.6311 19.3451 26.5962 19.3614 26.5962 19.4637C26.6009 19.9565 26.5962 20.4517 26.5939 20.9469C26.5939 21.012 26.6218 21.0237 26.6776 21.0237C26.9868 21.0237 27.296 21.0237 27.6029 21.0237C27.6354 21.0237 27.6703 21.0237 27.7098 21.0237V22.1349H27.5866C26.9264 22.1349 26.2638 22.1349 25.6035 22.1349C25.5105 22.1349 25.4826 22.1117 25.4826 22.0187C25.4826 20.1844 25.4803 18.3501 25.478 16.5158C25.478 15.995 25.478 15.4719 25.4803 14.9511C25.4803 14.8698 25.4385 14.8814 25.3873 14.8814C24.1203 14.8814 22.8556 14.8791 21.5885 14.8791C21.5141 14.8791 21.4769 14.8558 21.4444 14.7838C21.2003 14.2444 20.7957 13.8864 20.2052 13.7934C19.5357 13.6887 18.9754 13.891 18.5523 14.4466C17.8315 15.3905 18.336 16.8273 19.5705 17.0807C20.5051 17.2737 21.2258 16.6553 21.449 16.0717C21.4723 16.0113 21.5025 15.9857 21.5699 15.9857C22.4859 15.9857 23.4042 15.9857 24.3202 15.9857C24.3295 15.9857 24.3388 15.9903 24.3574 15.995C24.3597 16.0508 24.3644 16.1089 24.3644 16.1647C24.3644 17.9037 24.3644 19.6427 24.3644 21.3817C24.3644 21.5746 24.3644 21.5746 24.1737 21.5746C23.9017 21.5746 23.6297 21.5723 23.3577 21.5746C23.2694 21.5746 23.2438 21.5514 23.2438 21.4607C23.2461 20.7679 23.2438 20.0774 23.2438 19.3846C23.2438 19.3753 23.2415 19.366 23.2392 19.3498H22.1279C22.1279 19.4149 22.1279 19.4753 22.1279 19.5357C22.1279 20.1751 22.1279 20.8144 22.1325 21.4538C22.1325 21.5444 22.1139 21.577 22.0163 21.5746C21.7141 21.5677 21.4118 21.57 21.1096 21.5746C21.0329 21.5746 21.0119 21.5514 21.0143 21.4747C21.0166 20.7958 21.0143 20.117 21.0143 19.4358C21.0143 19.3614 20.998 19.3405 20.9236 19.3428C20.5958 19.3451 20.268 19.3428 19.9425 19.3428C19.9309 19.3428 19.9193 19.3451 19.8983 19.3498C19.8983 19.4172 19.8983 19.4846 19.8983 19.552C19.8983 20.382 19.8983 21.2143 19.8983 22.0443C19.8983 22.0954 19.8983 22.1326 19.8286 22.1326C19.1242 22.1326 18.4197 22.1326 17.7153 22.1326C17.706 22.1326 17.6967 22.1303 17.6781 22.1256V21.0283H18.7778V19.3451C18.7243 19.3451 18.6685 19.3451 18.615 19.3451C17.7711 19.3451 16.9295 19.3451 16.0856 19.3498C15.9786 19.3498 15.9903 19.2916 15.9903 19.2265C15.9903 18.3733 15.9903 17.5224 15.9903 16.6692C15.9903 16.5716 15.9624 16.5506 15.8717 16.553C15.3812 16.5576 14.8906 16.553 14.3977 16.553C14.3745 16.553 14.3489 16.553 14.3117 16.553C14.3117 16.5925 14.3117 16.625 14.3117 16.6576C14.3117 16.9645 14.3117 17.269 14.3117 17.5759C14.3117 17.6456 14.2954 17.6712 14.2187 17.6689C13.9258 17.6642 13.6329 17.6689 13.3376 17.6689C13.2958 17.6689 13.2516 17.6689 13.1981 17.6689C13.1981 17.627 13.1981 17.5945 13.1981 17.5619C13.1981 16.8924 13.1981 16.2205 13.1981 15.551C13.1981 15.4649 13.2237 15.4417 13.3074 15.4417C14.1908 15.4417 15.0743 15.4417 15.9554 15.4417C15.96 15.4417 15.967 15.437 15.9786 15.4347C15.981 15.4184 15.9879 15.3975 15.9879 15.3766C15.9879 15.0627 15.9856 14.7466 15.9879 14.4327C15.9879 14.3513 15.9693 14.3281 15.8856 14.3304C15.2114 14.3327 14.5396 14.3304 13.8654 14.3304C13.7747 14.3304 13.7538 14.3025 13.7538 14.2142C13.7607 13.9143 13.7584 13.6143 13.7538 13.3168C13.7538 13.2354 13.7747 13.2122 13.8584 13.2122C14.5372 13.2122 15.2161 13.2122 15.8973 13.2122C15.967 13.2122 15.9879 13.1936 15.9856 13.1238C15.9856 12.8216 15.9856 12.5193 15.9856 12.2148C15.9856 12.1915 15.981 12.166 15.9786 12.1334H13.7631V11.0221H15.9833C15.9833 10.9222 15.9833 10.8385 15.9833 10.7525C15.9833 10.4805 15.9833 10.2084 15.9833 9.93644C15.9833 9.88064 15.9717 9.86436 15.9112 9.86436C15.0301 9.86436 14.1513 9.86204 13.2702 9.85739C13.2493 9.85739 13.2283 9.85274 13.2004 9.85042V7.63948H14.3047C14.3047 7.66506 14.3047 7.6976 14.3047 7.73015C14.3047 8.04168 14.3047 8.35321 14.3047 8.66474C14.3047 8.71821 14.3094 8.75076 14.3768 8.75076C14.8883 8.74611 15.4021 8.74611 15.9135 8.74379C15.9321 8.74379 15.9507 8.73914 15.9763 8.73681C15.9763 8.70194 15.981 8.66939 15.981 8.63452C15.981 7.7813 15.981 6.9304 15.981 6.07718C15.981 5.95164 15.981 5.95164 16.1019 5.95164C16.9597 5.95164 17.8176 5.95164 18.6778 5.95629C18.7568 5.95629 18.7824 5.93769 18.7801 5.85167C18.7731 5.36345 18.7754 4.87523 18.7731 4.38702C18.7731 4.35447 18.7731 4.31959 18.7731 4.27542H17.6642V3.16879H19.8797C19.8797 3.20367 19.8844 3.23621 19.8844 3.26876C19.8867 5.58431 19.889 7.89987 19.8914 10.2177C19.8914 10.6316 19.8914 11.0454 19.8844 11.4592C19.8844 11.5522 19.9379 11.5383 19.9913 11.5383C20.8748 11.5383 21.7582 11.5383 22.6417 11.5359C22.7509 11.5359 22.8021 11.5662 22.8509 11.6684C23.1578 12.3171 23.7622 12.7123 24.5364 12.6449C25.2316 12.5844 25.8407 12.0497 26.0034 11.3685C26.2289 10.4293 25.6152 9.48076 24.662 9.325C23.7529 9.17621 23.0694 9.6993 22.8207 10.3386C22.7998 10.3944 22.7649 10.4247 22.7044 10.4247C22.1604 10.4247 21.6164 10.4247 21.0747 10.4247C21.0212 10.4247 21.005 10.4014 21.0073 10.3526C21.0073 10.2456 21.0073 10.1364 21.0073 10.0294C21.0073 7.96031 21.0073 5.89119 21.0073 3.82208C21.0073 3.73838 21.0329 3.71746 21.1142 3.71746C21.4165 3.72211 21.7187 3.72443 22.0209 3.71746C22.1046 3.71746 22.1255 3.74303 22.1255 3.82208C22.1255 4.50093 22.1255 5.17979 22.1255 5.86097C22.1255 5.92839 22.1372 5.95164 22.2092 5.94932C22.5277 5.94467 22.8463 5.94467 23.1624 5.94932C23.2229 5.94932 23.2415 5.93537 23.2415 5.8726C23.2415 5.19374 23.2415 4.51488 23.2415 3.8337C23.2415 3.74536 23.2647 3.71746 23.3554 3.71746C23.6576 3.72211 23.9599 3.72211 24.2621 3.71746C24.3295 3.71746 24.3551 3.73373 24.3551 3.8058C24.3551 4.49163 24.3551 5.17746 24.3551 5.8633C24.3551 5.92839 24.3714 5.94932 24.4365 5.94932C24.7643 5.94932 25.0921 5.94932 25.4175 5.94932C25.4361 5.94932 25.4664 5.91909 25.471 5.90049C25.478 5.85632 25.471 5.8075 25.471 5.761C25.471 4.91476 25.4757 4.06851 25.478 3.22226C25.478 3.20599 25.478 3.19204 25.4803 3.16879H27.1333V4.2731C26.9752 4.2731 26.8264 4.27775 26.6753 4.2731C26.5986 4.27077 26.5823 4.301 26.5846 4.37074C26.5893 4.86593 26.5916 5.3588 26.5893 5.854C26.5893 5.93304 26.6125 5.95164 26.6892 5.95164C27.5262 5.95164 28.3631 5.95164 29.2001 5.95164C29.3768 5.95164 29.3791 5.95164 29.3791 6.13065C29.3791 6.97457 29.3791 7.81617 29.3768 8.66009C29.3768 8.72054 29.3861 8.74844 29.4558 8.74844C29.958 8.74379 30.4625 8.74146 30.967 8.74611C31.0483 8.74611 31.0623 8.71821 31.0623 8.64382C31.0576 8.34159 31.0623 8.03936 31.0623 7.7348C31.0623 7.70458 31.0623 7.67435 31.0623 7.63716H32.1736C32.1736 7.6697 32.1736 7.7069 32.1736 7.74178C32.1736 8.40436 32.1736 9.06927 32.1736 9.73185C32.1736 9.85739 32.1736 9.85739 32.048 9.85739C31.1739 9.85739 30.2997 9.85971 29.4256 9.86204C29.414 9.86204 29.4023 9.86436 29.3837 9.86901V9.86204Z" fill="#AD172A"/>
<path d="M24.383 10.4176C24.6759 10.4176 24.927 10.6757 24.9247 10.9733C24.9247 11.2662 24.6573 11.5336 24.3691 11.5336C24.0622 11.5336 23.8111 11.2732 23.8157 10.9593C23.8181 10.6617 24.0761 10.4176 24.383 10.4176Z" fill="#AD172A"/>
<path d="M20.4633 15.437C20.4633 15.7323 20.2029 15.9903 19.9147 15.9857C19.6124 15.981 19.3544 15.7206 19.3544 15.4207C19.3544 15.1301 19.6217 14.8651 19.9147 14.8698C20.2029 14.8744 20.4656 15.1441 20.4633 15.4347V15.437Z" fill="#AD172A"/>
</svg>
