<svg width="29" height="29" viewBox="0 0 29 29" fill="none" xmlns="http://www.w3.org/2000/svg">
<path d="M14.34 28.8317C11.9985 28.8317 9.65597 28.8464 7.31452 28.825C6.11077 28.8137 4.99659 28.4779 4.05262 27.6799C3.168 26.9328 2.67866 25.9663 2.4939 24.8269C2.34945 23.934 2.40432 23.0387 2.47598 22.1458C2.54989 21.22 2.69322 20.3022 2.91382 19.4002C3.2016 18.2167 3.64167 17.0977 4.35944 16.1064C5.24518 14.8822 6.44222 14.1859 7.92704 13.9881C8.04237 13.9723 8.15771 13.9655 8.27305 13.9486C8.71424 13.8864 9.12072 13.978 9.49584 14.221C9.95271 14.5171 10.4085 14.8155 10.8698 15.1049C11.6682 15.6056 12.5371 15.9278 13.4643 16.0657C14.5572 16.2285 15.612 16.0702 16.6467 15.6689C17.3074 15.4135 17.8773 15.0201 18.463 14.6415C18.6813 14.5002 18.9109 14.3747 19.1281 14.23C19.5592 13.9429 20.0239 13.8932 20.5278 13.9531C21.5368 14.0729 22.4617 14.3996 23.2668 15.0326C23.9375 15.5604 24.4314 16.2352 24.8334 16.9869C25.4683 18.1749 25.793 19.4578 25.999 20.7792C26.1726 21.8948 26.2588 23.0161 26.2152 24.1442C26.1704 25.3073 25.8288 26.3653 25.0405 27.2436C24.3496 28.0134 23.4852 28.4745 22.4841 28.6871C21.9959 28.791 21.5032 28.8317 21.0037 28.8306C18.7832 28.825 16.5616 28.8283 14.3411 28.8283L14.34 28.8317Z" fill="#1568A8"/>
<path d="M14.1703 8.75365e-05C17.8096 -0.0179979 20.9942 3.04748 21.02 6.91098C21.0446 10.6049 18.0425 13.8693 14.1603 13.884C10.4314 13.8976 7.3106 10.8321 7.26805 7.03193C7.22326 3.12774 10.353 -0.0191282 14.1703 8.75365e-05Z" fill="#AD172A"/>
</svg>
