<svg width="28" height="30" viewBox="0 0 28 30" fill="none" xmlns="http://www.w3.org/2000/svg">
<path d="M12.4796 2.59634C12.4796 2.27637 12.4726 1.96346 12.482 1.65173C12.489 1.4141 12.4902 1.1706 12.542 0.940029C12.6878 0.27421 13.3231 -0.0222322 13.7971 0.00129501C14.4206 0.0330567 14.917 0.482426 14.9688 1.08707C15.0076 1.5435 14.9923 2.00463 14.9947 2.46341C14.9947 2.56458 15.0229 2.61163 15.1276 2.6281C16.4486 2.84102 17.6615 3.32098 18.7567 4.09385C20.7894 5.529 21.9764 7.49235 22.3834 9.93329C22.4622 10.4027 22.4845 10.885 22.4916 11.3626C22.5081 12.5542 22.4845 13.747 22.5081 14.9387C22.5492 17.0079 23.2762 18.816 24.6526 20.3582C24.9055 20.6417 25.1902 20.8969 25.4713 21.1546C25.9642 21.6075 26.2312 22.1615 26.2477 22.8321C26.2736 23.859 25.4407 24.8248 24.4032 24.9672C24.1914 24.9966 23.975 25.006 23.7609 25.006C17.0262 25.0083 10.2928 25.0083 3.55811 25.0071C2.35588 25.0071 1.48655 24.3049 1.27951 23.1297C1.15246 22.4062 1.40891 21.7851 1.91709 21.2663C2.30294 20.8722 2.72055 20.5064 3.07463 20.0864C4.04748 18.936 4.64977 17.6055 4.88622 16.1162C4.94739 15.728 4.96974 15.3292 4.97445 14.9352C4.98621 13.8553 4.98151 12.7754 4.97798 11.6967C4.9721 10.1909 5.22384 8.73811 5.91671 7.39118C7.18836 4.91847 9.18581 3.36097 11.8914 2.71868C12.0808 2.67398 12.2738 2.63987 12.4808 2.59752L12.4796 2.59634Z" fill="#0066A1"/>
<path d="M0.0019606 11.8931C0.069013 10.2662 0.344281 8.72051 0.863055 7.21947C1.63592 4.98086 2.88169 3.03634 4.52859 1.34356C4.89091 0.970659 5.34028 0.83773 5.8414 1.00595C6.34018 1.17417 6.62368 1.54237 6.69073 2.06232C6.73897 2.43405 6.60368 2.75402 6.35783 3.02811C6.0555 3.3669 5.73436 3.6904 5.44732 4.04095C4.11098 5.66903 3.22048 7.51592 2.78052 9.57807C2.60289 10.4109 2.50643 11.2532 2.51466 12.1061C2.51819 12.4966 2.44408 12.8648 2.17234 13.1671C1.82179 13.5565 1.30889 13.6906 0.827764 13.5165C0.333694 13.3401 0.0254878 12.906 0.00313696 12.3496C-0.00392119 12.1837 0.00313696 12.0178 0.00313696 11.8931H0.0019606Z" fill="#AD172A"/>
<path d="M27.5041 12.006C27.4888 12.2142 27.497 12.4283 27.4535 12.6306C27.3217 13.2353 26.7359 13.6505 26.1277 13.5906C25.5337 13.5317 25.0584 13.0224 25.0149 12.4154C24.9643 11.7096 24.9419 10.999 24.842 10.3003C24.569 8.39693 23.8715 6.65121 22.8069 5.05254C22.3504 4.3679 21.8305 3.73502 21.2541 3.14802C21.06 2.95039 20.8976 2.73394 20.8329 2.4575C20.6729 1.77403 21.127 1.08351 21.8187 0.958814C22.2857 0.874117 22.6763 1.03528 22.9974 1.36583C23.975 2.3728 24.8102 3.48681 25.5007 4.70905C26.3795 6.26654 26.9641 7.92756 27.2676 9.68739C27.3994 10.4532 27.4899 11.2237 27.5041 12.0036V12.006Z" fill="#AD172A"/>
<path d="M9.18465 26.2646H18.3202C17.9403 28.2656 16.1828 29.9702 13.7971 29.9996C11.2374 30.0313 9.50579 28.0821 9.18347 26.2646H9.18465Z" fill="#AD172A"/>
</svg>
