<svg width="50" height="50" viewBox="0 0 50 50" fill="none" xmlns="http://www.w3.org/2000/svg">
<path d="M42 13.0495L25 2L8 13.0495L25 24.0991L42 13.0495Z" fill="#A1A1A1"/>
<path d="M25.0002 26.4494L10.065 16.7424L8.79199 18.7004L24.9991 29.2355L41.2063 18.7004L39.9343 16.7424L25.0002 26.4494Z" fill="#A1A1A1"/>
<path d="M25.0002 31.1208L10.065 21.4128L8.79199 23.3718L24.9991 33.9109L41.2063 23.3758L39.9343 21.4169L25.0002 31.1208Z" fill="#A1A1A1"/>
<path d="M17.4205 41.5953C17.4205 42.5158 17.2543 43.3113 16.9219 43.9817C16.5895 44.6522 16.1335 45.1692 15.554 45.5328C14.9744 45.8965 14.3125 46.0783 13.5682 46.0783C12.8239 46.0783 12.1619 45.8965 11.5824 45.5328C11.0028 45.1692 10.5469 44.6522 10.2145 43.9817C9.8821 43.3113 9.71591 42.5158 9.71591 41.5953C9.71591 40.6749 9.8821 39.8794 10.2145 39.209C10.5469 38.5385 11.0028 38.0215 11.5824 37.6578C12.1619 37.2942 12.8239 37.1124 13.5682 37.1124C14.3125 37.1124 14.9744 37.2942 15.554 37.6578C16.1335 38.0215 16.5895 38.5385 16.9219 39.209C17.2543 39.8794 17.4205 40.6749 17.4205 41.5953ZM16.3977 41.5953C16.3977 40.8397 16.2713 40.2019 16.0185 39.682C15.7685 39.1621 15.429 38.7686 15 38.5016C14.5739 38.2346 14.0966 38.101 13.5682 38.101C13.0398 38.101 12.5611 38.2346 12.1321 38.5016C11.706 38.7686 11.3665 39.1621 11.1136 39.682C10.8636 40.2019 10.7386 40.8397 10.7386 41.5953C10.7386 42.351 10.8636 42.9888 11.1136 43.5087C11.3665 44.0286 11.706 44.4221 12.1321 44.6891C12.5611 44.9561 13.0398 45.0897 13.5682 45.0897C14.0966 45.0897 14.5739 44.9561 15 44.6891C15.429 44.4221 15.7685 44.0286 16.0185 43.5087C16.2713 42.9888 16.3977 42.351 16.3977 41.5953ZM19.0611 45.959V39.4135H20.0327V40.4022H20.1009C20.2202 40.0783 20.4361 39.8155 20.7486 39.6138C21.0611 39.4121 21.4134 39.3113 21.8054 39.3113C21.8793 39.3113 21.9716 39.3127 22.0824 39.3155C22.1932 39.3184 22.277 39.3226 22.3338 39.3283V40.351C22.2997 40.3425 22.2216 40.3297 22.0994 40.3127C21.9801 40.2928 21.8537 40.2828 21.7202 40.2828C21.402 40.2828 21.1179 40.3496 20.8679 40.4831C20.6207 40.6138 20.4247 40.7956 20.2798 41.0286C20.1378 41.2587 20.0668 41.5215 20.0668 41.8169V45.959H19.0611ZM25.7983 46.0953C25.2528 46.0953 24.7713 45.9576 24.3537 45.682C23.9361 45.4036 23.6094 45.0115 23.3736 44.5059C23.1378 43.9973 23.0199 43.3965 23.0199 42.7033C23.0199 42.0158 23.1378 41.4192 23.3736 40.9135C23.6094 40.4078 23.9375 40.0172 24.358 39.7417C24.7784 39.4661 25.2642 39.3283 25.8153 39.3283C26.2415 39.3283 26.5781 39.3993 26.8253 39.5414C27.0753 39.6806 27.2656 39.8397 27.3963 40.0186C27.5298 40.1948 27.6335 40.3397 27.7074 40.4533H27.7926V37.2317H28.7983V45.959H27.8267V44.9533H27.7074C27.6335 45.0726 27.5284 45.2232 27.392 45.405C27.2557 45.584 27.0611 45.7445 26.8082 45.8865C26.5554 46.0257 26.2188 46.0953 25.7983 46.0953ZM25.9347 45.1919C26.3381 45.1919 26.679 45.0868 26.9574 44.8766C27.2358 44.6635 27.4474 44.3695 27.5923 43.9945C27.7372 43.6167 27.8097 43.1806 27.8097 42.6863C27.8097 42.1976 27.7386 41.7701 27.5966 41.4036C27.4545 41.0343 27.2443 40.7473 26.9659 40.5428C26.6875 40.3354 26.3438 40.2317 25.9347 40.2317C25.5085 40.2317 25.1534 40.3411 24.8693 40.5598C24.5881 40.7757 24.3764 41.0698 24.2344 41.4419C24.0952 41.8113 24.0256 42.226 24.0256 42.6863C24.0256 43.1522 24.0966 43.5755 24.2386 43.9561C24.3835 44.334 24.5966 44.6351 24.8778 44.8596C25.1619 45.0811 25.5142 45.1919 25.9347 45.1919ZM33.5241 46.0953C32.8935 46.0953 32.3494 45.9561 31.892 45.6777C31.4375 45.3965 31.0866 45.0044 30.8395 44.5016C30.5952 43.9959 30.473 43.4078 30.473 42.7374C30.473 42.0669 30.5952 41.476 30.8395 40.9647C31.0866 40.4505 31.4304 40.0499 31.8707 39.763C32.3139 39.4732 32.831 39.3283 33.4219 39.3283C33.7628 39.3283 34.0994 39.3851 34.4318 39.4988C34.7642 39.6124 35.0668 39.7971 35.3395 40.0527C35.6122 40.3056 35.8295 40.6408 35.9915 41.0584C36.1534 41.476 36.2344 41.9902 36.2344 42.601V43.0272H31.1889V42.1578H35.2116C35.2116 41.7885 35.1378 41.459 34.9901 41.1692C34.8452 40.8794 34.6378 40.6507 34.3679 40.4831C34.1009 40.3155 33.7855 40.2317 33.4219 40.2317C33.0213 40.2317 32.6747 40.3311 32.3821 40.53C32.0923 40.726 31.8693 40.9817 31.7131 41.2971C31.5568 41.6124 31.4787 41.9505 31.4787 42.3113V42.8908C31.4787 43.3851 31.5639 43.8042 31.7344 44.1479C31.9077 44.4888 32.1477 44.7488 32.4545 44.9277C32.7614 45.1039 33.1179 45.1919 33.5241 45.1919C33.7884 45.1919 34.027 45.155 34.2401 45.0811C34.456 45.0044 34.642 44.8908 34.7983 44.7402C34.9545 44.5868 35.0753 44.3965 35.1605 44.1692L36.1321 44.4419C36.0298 44.7715 35.858 45.0613 35.6165 45.3113C35.375 45.5584 35.0767 45.7516 34.7216 45.8908C34.3665 46.0272 33.9673 46.0953 33.5241 46.0953ZM37.7642 45.959V39.4135H38.7358V40.4022H38.804C38.9233 40.0783 39.1392 39.8155 39.4517 39.6138C39.7642 39.4121 40.1165 39.3113 40.5085 39.3113C40.5824 39.3113 40.6747 39.3127 40.7855 39.3155C40.8963 39.3184 40.9801 39.3226 41.0369 39.3283V40.351C41.0028 40.3425 40.9247 40.3297 40.8026 40.3127C40.6832 40.2928 40.5568 40.2828 40.4233 40.2828C40.1051 40.2828 39.821 40.3496 39.571 40.4831C39.3239 40.6138 39.1278 40.7956 38.983 41.0286C38.8409 41.2587 38.7699 41.5215 38.7699 41.8169V45.959H37.7642Z" fill="#A1A1A1"/>
</svg>
