<svg width="167" height="40" viewBox="0 0 167 40" fill="none" xmlns="http://www.w3.org/2000/svg">
<path d="M81.5097 15.0203C79.6549 15.0158 77.8488 15.3021 76.0993 15.8899C72.9724 16.9419 70.3842 18.7188 68.352 21.2358C68.2562 21.3548 68.1604 21.4739 68.0583 21.5869C67.7159 21.9743 67.1741 22.1054 66.7344 21.911C66.2098 21.6789 65.9381 21.2026 66.0119 20.6796C66.3213 18.4973 66.9888 16.4219 68.0348 14.4642C68.9378 12.7731 70.078 11.2419 71.4663 9.87941C72.9284 8.4431 74.5806 7.25848 76.4228 6.31651C77.9069 5.55691 79.4727 4.99474 81.1108 4.63303C82.1143 4.41147 83.1257 4.22911 84.1591 4.18088C84.4497 4.16732 84.4434 4.15827 84.4481 3.87644C84.4622 3.18315 84.4669 2.48685 84.5109 1.79507C84.5345 1.41828 84.6931 1.06711 84.9224 0.753626C85.5003 -0.0361201 86.5102 -0.232049 87.4352 0.293945C87.7571 0.47631 88.0587 0.709918 88.3241 0.963119C90.2841 2.82746 92.2331 4.70235 94.1837 6.57423C94.4554 6.83497 94.7286 7.09571 94.9862 7.37001C96.3211 8.79276 96.351 10.8018 94.9972 12.208C93.9135 13.3338 92.7639 14.4009 91.6379 15.4905C90.6594 16.437 89.6842 17.3865 88.6853 18.3149C88.299 18.6736 87.8844 19.0203 87.4321 19.2961C86.6829 19.7527 85.8349 19.6819 85.2318 19.177C84.7245 18.752 84.5015 18.1868 84.4701 17.5629C84.434 16.8635 84.4371 16.1612 84.4497 15.4604C84.4528 15.2765 84.3743 15.2494 84.2314 15.2388C83.4273 15.171 82.6232 15.1032 81.8175 15.0369C81.7138 15.0278 81.6086 15.0263 81.505 15.0218L81.5097 15.0203Z" fill="#1568A8"/>
<path d="M82.555 35.6966C82.555 36.2793 82.5738 36.881 82.5487 37.4796C82.533 37.8419 82.4921 38.2152 82.3868 38.5601C82.1731 39.261 81.7472 39.795 80.9929 39.9572C80.3832 40.088 79.8206 39.91 79.335 39.5461C78.9657 39.2689 78.6263 38.9476 78.2994 38.6215C76.3791 36.7078 74.4666 34.7861 72.551 32.8661C72.1314 32.4455 71.7165 32.0202 71.4352 31.4847C70.6982 30.0829 70.8993 28.4227 72.0229 27.213C72.9643 26.1986 73.959 25.2331 74.9349 24.2502C76.1229 23.0547 77.311 21.8576 78.51 20.6731C78.7913 20.3943 79.093 20.1234 79.4246 19.9108C80.7682 19.0523 82.1967 19.695 82.4733 21.2701C82.5251 21.5646 82.5456 21.8671 82.5534 22.1663C82.566 22.735 82.5597 23.3051 82.5534 23.8738C82.5534 23.9919 82.5833 24.0486 82.7074 24.0691C84.0275 24.277 85.3538 24.3305 86.6864 24.2471C89.1709 24.0943 91.4857 23.3713 93.6465 22.1553C95.6344 21.037 97.3237 19.5674 98.7082 17.7466C98.8826 17.5166 99.0964 17.2929 99.3399 17.1464C99.7312 16.9102 100.146 16.9732 100.517 17.2394C100.896 17.5119 101.048 17.8994 100.987 18.3546C100.911 18.9043 100.828 19.454 100.713 19.9974C100.218 22.3349 99.3195 24.5101 98.0403 26.5231C97.3175 27.6603 96.4767 28.7094 95.5401 29.6843C94.1934 31.0878 92.6565 32.236 90.9703 33.1827C89.0923 34.238 87.0918 34.972 84.9656 35.339C84.1768 35.4745 83.3816 35.5768 82.555 35.6981V35.6966Z" fill="#AD172A"/>
<path d="M6.5845 17.136L7.3045 18.416L5.1125 19.232L7.3045 20.048L6.5685 21.36L4.7445 19.92L5.0805 22.24H3.6085L3.9125 19.92L2.0885 21.392L1.3205 20.032L3.4965 19.216L1.3205 18.432L2.0565 17.12L3.9285 18.56L3.6085 16.224H5.0965L4.7445 18.56L6.5845 17.136ZM14.647 17.136L15.367 18.416L13.175 19.232L15.367 20.048L14.631 21.36L12.807 19.92L13.143 22.24H11.671L11.975 19.92L10.151 21.392L9.383 20.032L11.559 19.216L9.383 18.432L10.119 17.12L11.991 18.56L11.671 16.224H13.159L12.807 18.56L14.647 17.136ZM22.7095 17.136L23.4295 18.416L21.2375 19.232L23.4295 20.048L22.6935 21.36L20.8695 19.92L21.2055 22.24H19.7335L20.0375 19.92L18.2135 21.392L17.4455 20.032L19.6215 19.216L17.4455 18.432L18.1815 17.12L20.0535 18.56L19.7335 16.224H21.2215L20.8695 18.56L22.7095 17.136ZM30.772 17.136L31.492 18.416L29.3 19.232L31.492 20.048L30.756 21.36L28.932 19.92L29.268 22.24H27.796L28.1 19.92L26.276 21.392L25.508 20.032L27.684 19.216L25.508 18.432L26.244 17.12L28.116 18.56L27.796 16.224H29.284L28.932 18.56L30.772 17.136ZM38.8345 17.136L39.5545 18.416L37.3625 19.232L39.5545 20.048L38.8185 21.36L36.9945 19.92L37.3305 22.24H35.8585L36.1625 19.92L34.3385 21.392L33.5705 20.032L35.7465 19.216L33.5705 18.432L34.3065 17.12L36.1785 18.56L35.8585 16.224H37.3465L36.9945 18.56L38.8345 17.136ZM46.897 17.136L47.617 18.416L45.425 19.232L47.617 20.048L46.881 21.36L45.057 19.92L45.393 22.24H43.921L44.225 19.92L42.401 21.392L41.633 20.032L43.809 19.216L41.633 18.432L42.369 17.12L44.241 18.56L43.921 16.224H45.409L45.057 18.56L46.897 17.136Z" fill="#1568A8"/>
<path d="M124.585 17.136L125.305 18.416L123.113 19.232L125.305 20.048L124.569 21.36L122.745 19.92L123.081 22.24H121.609L121.913 19.92L120.089 21.392L119.321 20.032L121.497 19.216L119.321 18.432L120.057 17.12L121.929 18.56L121.609 16.224H123.097L122.745 18.56L124.585 17.136ZM132.647 17.136L133.367 18.416L131.175 19.232L133.367 20.048L132.631 21.36L130.807 19.92L131.143 22.24H129.671L129.975 19.92L128.151 21.392L127.383 20.032L129.559 19.216L127.383 18.432L128.119 17.12L129.991 18.56L129.671 16.224H131.159L130.807 18.56L132.647 17.136ZM140.71 17.136L141.43 18.416L139.238 19.232L141.43 20.048L140.694 21.36L138.87 19.92L139.206 22.24H137.734L138.038 19.92L136.214 21.392L135.446 20.032L137.622 19.216L135.446 18.432L136.182 17.12L138.054 18.56L137.734 16.224H139.222L138.87 18.56L140.71 17.136ZM148.772 17.136L149.492 18.416L147.3 19.232L149.492 20.048L148.756 21.36L146.932 19.92L147.268 22.24H145.796L146.1 19.92L144.276 21.392L143.508 20.032L145.684 19.216L143.508 18.432L144.244 17.12L146.116 18.56L145.796 16.224H147.284L146.932 18.56L148.772 17.136ZM156.835 17.136L157.555 18.416L155.363 19.232L157.555 20.048L156.819 21.36L154.995 19.92L155.331 22.24H153.859L154.163 19.92L152.339 21.392L151.571 20.032L153.747 19.216L151.571 18.432L152.307 17.12L154.179 18.56L153.859 16.224H155.347L154.995 18.56L156.835 17.136ZM164.897 17.136L165.617 18.416L163.425 19.232L165.617 20.048L164.881 21.36L163.057 19.92L163.393 22.24H161.921L162.225 19.92L160.401 21.392L159.633 20.032L161.809 19.216L159.633 18.432L160.369 17.12L162.241 18.56L161.921 16.224H163.409L163.057 18.56L164.897 17.136Z" fill="#AD172A"/>
</svg>
