<svg width="30" height="29" viewBox="0 0 30 29" fill="none" xmlns="http://www.w3.org/2000/svg">
<path fill-rule="evenodd" clip-rule="evenodd" d="M1.80209 6.0031H28.1948C28.6727 6.00453 29.1307 6.19628 29.4686 6.53647C29.8066 6.87666 29.997 7.33764 29.9985 7.81874V9.77227H0V7.81564C0.00121882 7.33448 0.191637 6.87338 0.529619 6.53315C0.867602 6.19291 1.32565 6.00123 1.80363 6L1.80209 6.0031ZM30 12.8342V22.1844C29.9988 22.6655 29.8084 23.1266 29.4704 23.4669C29.1324 23.8071 28.6743 23.9988 28.1964 24H1.80363C1.32565 23.9988 0.867602 23.8071 0.529619 23.4669C0.191637 23.1266 0.00121882 22.6655 0 22.1844V12.8342H30ZM3.94121 20.5453H12.1699V21.1882H3.94198L3.94121 20.5453ZM18.2041 20.5453H26.4327V21.1882H18.2048L18.2041 20.5453ZM3.94121 17.684H12.1699V18.3269H3.94198L3.94121 17.684ZM18.2041 17.684H26.4327V18.3269H18.2048L18.2041 17.684Z" fill="#1568A8"/>
</svg>
