<svg width="50" height="50" viewBox="0 0 50 50" fill="none" xmlns="http://www.w3.org/2000/svg">
<g clip-path="url(#clip0_457_15059)">
<path d="M40.6907 44.1194C40.5477 43.3821 40.4399 42.684 40.2714 41.9997C39.6444 39.4485 38.1669 37.4876 35.9624 36.1072C34.8083 35.3855 33.5894 34.7522 32.3491 34.1894C30.66 33.4227 29.5411 32.1344 28.7592 30.5245C28.4849 29.9578 28.3869 29.3028 28.2341 28.6812C27.9107 27.3694 27.5384 26.0752 26.9663 24.8476C26.7017 24.2809 26.3627 23.7672 25.8983 23.3456C24.607 22.1789 23.3098 21.018 22.0145 19.8571C21.9401 19.7905 21.848 19.7415 21.7226 19.6552C21.7226 19.8238 21.7226 19.9415 21.7226 20.0591C21.7108 20.9709 21.6912 21.8828 21.6951 22.7926C21.6951 23.0083 21.6128 23.075 21.4208 23.1358C20.8957 23.3025 20.3725 23.4789 19.863 23.6907C19.332 23.9103 18.9185 24.2868 18.6148 24.781C18.4698 25.0163 18.315 25.2457 18.1563 25.4732C17.7487 26.0595 17.153 26.3262 16.4789 26.4615C15.9773 26.5615 15.9812 26.5654 15.9733 27.0674C15.9518 28.4557 16.6278 29.4087 17.8251 30.0323C18.1347 30.1931 18.4541 30.3382 18.7735 30.4774C19.7591 30.9127 20.2157 31.75 20.4646 32.7305C20.6958 33.6443 20.5625 34.5561 20.396 35.464C20.2471 36.2876 20.0766 37.1092 19.9766 37.9386C19.7317 39.9721 20.1765 41.8644 21.2229 43.6213C21.3307 43.8037 21.4463 43.9821 21.5423 44.1684C21.8715 44.8096 21.8911 45.4646 21.5835 46.1176C21.268 46.7862 20.7703 47.2902 20.1295 47.651C19.9041 47.7785 19.667 47.8902 19.4339 48.002C18.9597 48.2314 18.6422 48.5844 18.5129 49.104C18.4012 49.557 18.4561 49.7119 18.8891 49.9786C18.7872 49.9884 18.7226 49.9982 18.6579 49.9982C14.8074 50.0002 10.9589 50.0041 7.10848 49.9982C6.79495 49.9982 6.47359 49.9551 6.16791 49.8766C5.27045 49.6472 4.89422 48.9746 5.11369 48.0765C5.63296 45.9489 7.07908 44.8077 9.11698 44.2939C9.40699 44.2214 9.70876 44.1743 10.0066 44.1527C10.1908 44.141 10.277 44.0743 10.3476 43.9135C11.147 42.0918 11.9524 40.2702 12.7558 38.4504C13.6396 36.4523 14.5213 34.4522 15.4168 32.4599C15.5383 32.1893 15.5501 31.9598 15.4521 31.6755C14.633 29.3126 13.8238 26.9458 13.0223 24.577C12.4795 22.9769 11.9505 21.3729 11.4214 19.7689C11.3528 19.5591 11.245 19.4846 11.0216 19.4748C9.19341 19.3865 7.36125 19.3336 5.5389 19.1728C3.10322 18.9571 1.43958 17.6649 0.59895 15.351C0.122787 14.0333 -0.0163393 12.6646 -0.000663117 11.2723C0.0012964 11.0801 0.114949 11.0625 0.242317 11.0429C1.1339 10.9076 2.02548 10.7762 2.91902 10.6409C4.22994 10.4448 5.5389 10.2507 6.84786 10.0428C6.96347 10.0252 7.08692 9.9389 7.16726 9.8487C7.76883 9.16434 8.36649 8.47607 8.95434 7.77995C9.13462 7.56621 9.34037 7.4309 9.6147 7.35443C11.102 6.9446 12.5873 6.52301 14.0687 6.09553C14.1823 6.06219 14.3097 5.9563 14.3607 5.85042C15.1425 4.21698 15.9087 2.57571 16.6905 0.940314C16.8081 0.69324 16.9531 0.450088 17.1295 0.242232C17.4018 -0.0754342 17.7134 -0.0871996 17.9858 0.226545C18.2111 0.487345 18.4051 0.787363 18.5599 1.09523C20.3137 4.5621 21.944 8.08585 23.3745 11.6998C24.2092 13.8058 25.6005 15.4981 27.2621 17.0021C28.9963 18.5708 30.8755 19.9572 32.6881 21.4298C34.1381 22.6063 35.4529 23.926 36.7247 25.2889C38.0003 26.6576 39.2701 28.0322 40.5379 29.4087C40.6026 29.4793 40.6613 29.6146 40.6378 29.695C40.2283 31.0951 40.3517 32.4991 40.6143 33.9011C40.922 35.5522 41.4687 37.1327 42.082 38.6936C42.4484 39.627 42.7639 40.5741 42.8031 41.5879C42.8286 42.2311 42.7384 42.8448 42.2819 43.339C41.8547 43.8017 41.2786 43.9723 40.6907 44.1174V44.1194Z" fill="#1568A8"/>
<path d="M22.7925 50.0002C23.4822 49.606 23.784 48.9883 23.9525 48.2589C24.3914 46.3588 24.8304 44.4586 25.3065 42.5683C25.7357 40.8584 26.7624 39.7034 28.5417 39.3328C29.4548 39.1426 30.3582 39.2721 31.2399 39.5329C31.7416 39.6819 32.2275 39.8799 32.7076 40.0897C32.2471 39.9995 31.7906 39.8878 31.3281 39.8211C30.4699 39.6956 29.6057 39.6799 28.7612 39.9152C27.1739 40.3604 26.3196 41.4977 25.8944 43.0193C25.7239 43.6292 25.6436 44.2527 25.816 44.8744C26.0374 45.6705 26.5136 46.3137 27.1779 46.7823C27.6717 47.1314 28.2262 47.398 28.7533 47.7C28.8101 47.7314 28.8728 47.753 28.9297 47.7824C28.9395 47.7883 28.9414 47.8098 28.9532 47.8432C28.7298 47.8432 28.5143 47.8392 28.3007 47.8432C27.5129 47.8608 26.7213 47.8353 25.9414 47.9177C25.3359 47.9824 24.8872 48.3452 24.6697 48.955C24.46 49.5413 24.7422 49.808 25.3222 49.8962C25.4868 49.9217 25.6612 49.8707 25.8317 49.8688C27.6109 49.857 29.3902 49.8374 31.1694 49.8394C32.641 49.8394 34.1146 49.8217 35.5842 49.8903C36.7227 49.9433 37.7593 49.6727 38.7449 49.1589C39.6051 48.7099 40.2224 48.0216 40.5281 47.0843C40.5771 46.9353 40.6515 46.8941 40.8004 46.8725C42.3739 46.647 43.726 46.0176 44.694 44.7057C45.3132 43.8664 45.5111 42.9154 45.5425 41.8859C45.5954 40.1682 45.0193 38.6132 44.4197 37.0543C43.8769 35.6405 43.4164 34.2031 43.2107 32.6971C43.1499 32.2559 43.146 31.8049 43.1342 31.3598C43.1323 31.248 43.1891 31.1245 43.2498 31.0245C43.3811 30.8088 43.5399 30.6127 43.6692 30.397C43.7534 30.2578 43.8455 30.2244 43.9905 30.2833C44.163 30.3539 44.3374 30.4225 44.5137 30.4813C45.1663 30.7029 45.8638 30.4421 46.1715 29.8636C46.4791 29.2871 46.3224 28.491 45.7757 28.1126C45.5013 27.9223 45.1702 27.8086 44.8547 27.6812C44.7234 27.6282 44.6764 27.5694 44.694 27.4321C44.9409 25.5869 44.7881 23.7652 44.3609 21.9612C44.3158 21.771 44.2766 21.5788 44.257 21.3867C44.21 20.9121 44.5451 20.6082 45.0154 20.6925C45.4759 20.7749 45.8364 21.0415 46.1558 21.3592C46.8985 22.0985 47.4726 22.9691 48.0311 23.8495C48.8717 25.1692 49.4988 26.5791 49.8162 28.1204C50.2806 30.3833 49.8299 32.4932 48.762 34.5031C48.2505 35.464 47.5921 36.3209 46.8887 37.1445C46.7946 37.2562 46.6966 37.3641 46.6398 37.4268C46.9533 38.0602 47.3257 38.6367 47.5334 39.2681C48.4876 42.1683 48.2172 44.9234 46.3439 47.4059C45.3563 48.7138 43.9847 49.4589 42.3837 49.7492C41.7077 49.8727 41.0121 49.9217 40.3243 49.9413C39.2681 49.9707 38.208 49.9472 37.1499 49.9452C33.5639 49.9354 29.978 49.9178 26.3921 49.9198C25.2399 49.9198 24.0877 49.9727 22.9355 50.0021C22.8865 50.0021 22.8395 50.0021 22.7905 50.0021L22.7925 50.0002Z" fill="#AD172A"/>
</g>
<defs>
<clipPath id="clip0_457_15059">
<rect width="50" height="50" fill="white"/>
</clipPath>
</defs>
</svg>
