<svg width="50" height="50" viewBox="0 0 50 50" fill="none" xmlns="http://www.w3.org/2000/svg">
<g clip-path="url(#clip0_457_14857)">
<path d="M49.998 19.0353C49.9511 19.7791 49.9315 20.4857 49.8591 21.1845C49.6947 22.7778 49.3893 24.3456 48.9195 25.8802C48.0485 28.7145 46.696 31.2982 44.8522 33.6176C41.4659 37.8788 37.1167 40.6661 31.8338 41.9775C30.0056 42.4316 28.1422 42.643 26.2573 42.6293C24.891 42.6195 23.5209 42.6665 22.1605 42.5804C18.3163 42.3377 14.7304 41.222 11.442 39.2059C6.66805 36.2796 3.34054 32.1594 1.4008 26.9176C0.705936 25.0425 0.296849 23.1008 0.108942 21.1121C0.052179 20.5073 0.046307 19.8966 0.00324512 19.2878C-0.0104564 19.0784 0.0697953 19.0256 0.265531 19.0295C0.827292 19.0393 1.3871 19.0334 1.94886 19.0334C17.7565 19.0334 33.5641 19.0334 49.3717 19.0334C49.5576 19.0334 49.7436 19.0334 50 19.0334L49.998 19.0353ZM24.9595 35.2246V35.2207C25.3823 35.2207 25.8051 35.2129 26.2279 35.2246C26.4178 35.2305 26.4589 35.16 26.4569 34.9839C26.4491 34.1716 26.4569 33.3593 26.4491 32.547C26.4471 32.3591 26.498 32.2906 26.6957 32.2925C27.5158 32.3003 28.3379 32.2925 29.1581 32.2964C29.3244 32.2964 29.3871 32.2534 29.3851 32.0772C29.3773 31.2492 29.3753 30.4193 29.3871 29.5914C29.389 29.3839 29.3068 29.3526 29.1287 29.3545C28.3242 29.3623 27.5198 29.3545 26.7153 29.3643C26.5156 29.3663 26.4471 29.3095 26.4491 29.104C26.4589 28.2917 26.453 27.4794 26.4569 26.6671C26.4569 26.5183 26.4413 26.4263 26.2494 26.4283C25.4117 26.44 24.5759 26.44 23.7382 26.4361C23.5679 26.4361 23.515 26.489 23.517 26.6612C23.5248 27.4657 23.515 28.2701 23.5248 29.0746C23.5268 29.286 23.4876 29.3741 23.2449 29.3702C22.4561 29.3545 21.6692 29.3702 20.8804 29.3623C20.671 29.3604 20.5829 29.4015 20.5868 29.6423C20.6005 30.4624 20.5907 31.2825 20.5809 32.1026C20.579 32.2749 20.6475 32.3023 20.7982 32.3003C21.6105 32.2945 22.4228 32.3082 23.2371 32.2925C23.4739 32.2886 23.5248 32.3708 23.5209 32.5842C23.5111 33.3886 23.5209 34.1931 23.5091 34.9976C23.5072 35.1835 23.562 35.2344 23.7421 35.2285C24.1472 35.2168 24.5544 35.2246 24.9615 35.2246H24.9595Z" fill="#1568A8"/>
<path d="M23.5111 16.0269C23.6442 15.8977 23.7793 15.7705 23.9124 15.6413C24.7384 14.8349 25.535 13.9971 26.3962 13.2298C27.9249 11.8675 29.6944 10.9084 31.6302 10.2449C33.5093 9.59894 35.1691 8.57915 36.5843 7.18552C38.4829 5.31428 40.362 3.42348 42.2489 1.53854C42.7813 1.00614 43.3469 0.51876 44.0751 0.272133C46.8624 -0.667398 49.3932 1.06095 49.8728 3.6153C50.1664 5.17923 49.6575 6.49457 48.5516 7.60243C46.7234 9.4306 44.8972 11.2588 43.067 13.083C42.2645 13.8836 41.5227 14.7331 40.9688 15.7274C40.8102 16.0132 40.6164 16.0993 40.2896 16.0974C35.2494 16.0876 30.2092 16.0915 25.169 16.0934C24.6268 16.0934 24.0866 16.0934 23.5444 16.0934C23.5346 16.07 23.5248 16.0484 23.515 16.0249L23.5111 16.0269Z" fill="#AD172A"/>
<path d="M0.00127827 0.00592998C0.680481 0.00592998 1.32249 0.00592998 1.96451 0.00592998C3.75353 0.00592998 5.5406 -0.00972887 7.32962 0.00984469C8.85636 0.0274609 10.2989 0.391529 11.5536 1.28996C13.5305 2.70708 14.6169 4.65269 14.7089 7.08373C14.7774 8.8845 14.7226 10.6911 14.7226 12.4449C12.6732 10.3956 10.5945 8.31686 8.51774 6.24011C7.77198 6.99369 7.09865 7.67094 6.42532 8.3521C8.48642 10.4112 10.5632 12.488 12.6399 14.5667C12.6321 14.5902 12.6223 14.6137 12.6145 14.6391H12.3659C10.7393 14.6391 9.11277 14.6783 7.48817 14.6313C4.50711 14.5413 2.22484 13.2455 0.805752 10.5757C0.247905 9.5226 0.00519299 8.38146 0.00323563 7.19334C-0.00263644 4.90128 0.00127827 2.61117 0.00127827 0.319107C0.00127827 0.223197 0.00127827 0.127286 0.00127827 0.00592998Z" fill="#1568A8"/>
<path d="M25.032 49.9479C22.1449 49.9479 19.2578 49.9577 16.3726 49.944C14.9398 49.9361 13.693 49.4585 12.7769 48.3057C11.6436 46.8768 11.5301 44.9116 12.4579 43.3438C12.5714 43.1519 12.6849 43.2165 12.822 43.2772C14.4113 43.9897 16.0555 44.5377 17.7545 44.9273C19.6238 45.3559 21.5244 45.536 23.4367 45.5575C24.9811 45.5732 26.5274 45.5771 28.0698 45.5066C30.8179 45.3814 33.4701 44.7726 36.0343 43.7842C36.4512 43.6237 36.8642 43.4553 37.2674 43.2635C37.4436 43.1813 37.5258 43.2126 37.6138 43.3692C38.4379 44.8313 38.4927 46.3013 37.6315 47.7635C36.7663 49.2315 35.4373 49.9263 33.7657 49.94C30.8551 49.9635 27.9445 49.9459 25.032 49.9459V49.9479Z" fill="#AD172A"/>
<path d="M17.6919 8.78467C17.684 8.67506 17.6742 8.6046 17.6742 8.53218C17.6742 7.18356 17.6645 5.83298 17.6742 4.48436C17.6919 2.41152 18.9681 0.712535 20.9176 0.187963C21.3443 0.072479 21.7984 0.0215877 22.2408 0.0137583C23.5502 -0.00777262 24.8597 0.00984359 26.1672 0.00201416C26.3806 0.00201416 26.4432 0.0587775 26.4432 0.276044C26.4334 1.57573 26.4295 2.87737 26.4393 4.17706C26.4471 5.26339 26.1535 6.25381 25.4919 7.11113C24.7501 8.0722 23.7381 8.62809 22.5402 8.72204C21.401 8.81208 20.2501 8.77293 19.1051 8.78467C18.6431 8.79055 18.1792 8.78467 17.6899 8.78467H17.6919Z" fill="#AD172A"/>
<path d="M17.1379 15.0326C16.4744 15.702 15.8069 16.3714 15.1453 17.0388C14.3839 16.2676 13.5971 15.4671 12.7926 14.6509H14.7363V12.6505C15.5564 13.4647 16.3589 14.2594 17.1379 15.0326Z" fill="#AD172A"/>
</g>
<defs>
<clipPath id="clip0_457_14857">
<rect width="50" height="50" fill="white"/>
</clipPath>
</defs>
</svg>
