<svg width="29" height="24" viewBox="0 0 29 24" fill="none" xmlns="http://www.w3.org/2000/svg">
<path d="M27.608 16.0476H26.9V11.2656C26.899 10.7027 26.6746 10.1632 26.276 9.76561L21.856 5.34561C21.4584 4.94705 20.9189 4.72261 20.356 4.72161H18.405V2.59861C18.405 2.03529 18.1812 1.49504 17.7829 1.09671C17.3846 0.698387 16.8443 0.474609 16.281 0.474609L4.955 0.474609C4.39185 0.474875 3.85186 0.698769 3.45375 1.09707C3.05564 1.49537 2.832 2.03546 2.832 2.59861V4.72161H0.354C0.260367 4.72187 0.170629 4.75912 0.104327 4.82523C0.0380244 4.89135 0.000527145 4.98098 0 5.07461L0 5.78261C0.000263871 5.87641 0.0376449 5.9663 0.103976 6.03263C0.170306 6.09896 0.260195 6.13635 0.354 6.13661H12.388C12.4818 6.13687 12.5717 6.17425 12.638 6.24058C12.7044 6.30692 12.7417 6.3968 12.742 6.49061V7.19861C12.7417 7.29241 12.7044 7.3823 12.638 7.44863C12.5717 7.51496 12.4818 7.55235 12.388 7.55261H1.77C1.67619 7.55287 1.58631 7.59025 1.51998 7.65659C1.45364 7.72292 1.41626 7.8128 1.416 7.90661V8.61461C1.41626 8.70842 1.45364 8.7983 1.51998 8.86463C1.58631 8.93096 1.67619 8.96835 1.77 8.96861H10.97C11.0638 8.96887 11.1537 9.00625 11.22 9.07259C11.2864 9.13892 11.3237 9.2288 11.324 9.32261V10.0306C11.3237 10.1244 11.2864 10.2143 11.22 10.2806C11.1537 10.347 11.0638 10.3843 10.97 10.3846H0.354C0.260195 10.3849 0.170306 10.4223 0.103976 10.4886C0.0376449 10.5549 0.000263871 10.6448 0 10.7386L0 11.4466C0.000263871 11.5404 0.0376449 11.6303 0.103976 11.6966C0.170306 11.763 0.260195 11.8003 0.354 11.8006H9.554C9.64781 11.8009 9.73769 11.8383 9.80402 11.9046C9.87036 11.9709 9.90774 12.0608 9.908 12.1546V12.8626C9.90774 12.9564 9.87036 13.0463 9.80402 13.1126C9.73769 13.179 9.64781 13.2163 9.554 13.2166H2.832V18.8796C2.832 20.0061 3.2795 21.0865 4.07606 21.883C4.87262 22.6796 5.95299 23.1271 7.0795 23.1271C8.20601 23.1271 9.28638 22.6796 10.0829 21.883C10.8795 21.0865 11.327 20.0061 11.327 18.8796H16.99C16.99 20.0061 17.4375 21.0865 18.2341 21.883C19.0306 22.6796 20.111 23.1271 21.2375 23.1271C22.364 23.1271 23.4444 22.6796 24.2409 21.883C25.0375 21.0865 25.485 20.0061 25.485 18.8796H27.609C27.7966 18.8791 27.9764 18.8043 28.109 18.6717C28.2417 18.539 28.3165 18.3592 28.317 18.1716V16.7556C28.3165 16.5678 28.2416 16.3879 28.1087 16.2552C27.9758 16.1225 27.7958 16.0479 27.608 16.0476ZM7.079 21.0036C6.65879 21.0042 6.24784 20.8801 5.89815 20.6471C5.54847 20.4141 5.27576 20.0826 5.11454 19.6945C4.95332 19.3065 4.91083 18.8793 4.99245 18.4671C5.07406 18.0549 5.27612 17.6761 5.57304 17.3788C5.86997 17.0814 6.24843 16.8788 6.66052 16.7966C7.07262 16.7144 7.49984 16.7563 7.88813 16.917C8.27641 17.0777 8.60831 17.3499 8.84183 17.6993C9.07535 18.0486 9.2 18.4594 9.2 18.8796C9.2 19.4424 8.97663 19.9822 8.57896 20.3804C8.18128 20.7787 7.6418 21.0028 7.079 21.0036ZM21.237 21.0036C20.8169 21.0036 20.4063 20.879 20.057 20.6457C19.7077 20.4123 19.4354 20.0805 19.2747 19.6924C19.1139 19.3043 19.0719 18.8773 19.1538 18.4652C19.2358 18.0532 19.4381 17.6748 19.7351 17.3777C20.0322 17.0807 20.4106 16.8784 20.8226 16.7964C21.2346 16.7145 21.6617 16.7565 22.0498 16.9173C22.4379 17.0781 22.7697 17.3503 23.003 17.6996C23.2364 18.0489 23.361 18.4595 23.361 18.8796C23.361 19.4429 23.1372 19.9832 22.7389 20.3815C22.3406 20.7798 21.8003 21.0036 21.237 21.0036ZM24.776 11.8036H18.405V6.84561H20.356L24.776 11.2656V11.8036Z" fill="white"/>
</svg>
