<svg width="37" height="36" viewBox="0 0 37 36" fill="none" xmlns="http://www.w3.org/2000/svg">
<path d="M2.79353 26.3075C2.85292 25.9749 2.90043 25.6378 2.97616 25.3082C3.10236 24.7574 3.18254 24.2006 3.12612 23.6393C3.09642 23.335 2.99546 23.0365 2.90934 22.7411C2.67326 21.9334 2.1046 21.3677 1.49881 20.8302C1.11723 20.4916 0.763854 20.1175 0.536685 19.6631C0.299123 19.188 0.119466 18.6832 0.068984 18.1442C0.0481973 17.9156 -0.00673908 17.6854 0.000684747 17.4583C0.00662381 17.2964 0.112042 17.1405 0.134314 16.9757C0.196674 16.5347 0.370391 16.1309 0.594591 15.7627C0.873727 15.3039 1.22265 14.897 1.66511 14.5645C1.95909 14.3447 2.24417 14.0656 2.41937 13.7493C2.52776 13.5533 2.69553 13.4049 2.77868 13.1851C3.04148 12.4902 3.2152 11.785 3.12463 11.0441C3.07266 10.6194 2.94052 10.2052 2.85292 9.785C2.83065 9.67809 2.84401 9.56525 2.83659 9.45389C2.79798 8.88523 2.88855 8.33884 3.10385 7.81026C3.16472 7.66178 3.17363 7.48955 3.24787 7.34998C3.33101 7.1926 3.45425 7.05451 3.57452 6.9194C3.80465 6.66105 4.03182 6.39825 4.28423 6.16365C4.42826 6.03002 4.61831 5.94391 4.78905 5.84146C4.91526 5.76574 5.03998 5.68556 5.17361 5.62617C5.6517 5.41236 6.15652 5.31288 6.67916 5.28616C7.37255 5.25052 8.02733 5.06196 8.62569 4.71452C8.8781 4.56753 9.08745 4.34333 9.3161 4.15625C9.6873 3.85336 9.93228 3.45693 10.1387 3.03525C10.2961 2.71306 10.4237 2.37453 10.5841 2.05234C10.6702 1.87862 10.7875 1.71678 10.9107 1.56385C11.0815 1.35153 11.2552 1.13921 11.4557 0.955095C11.6026 0.819981 11.7912 0.730896 11.9634 0.625477C12.057 0.569056 12.1609 0.528967 12.25 0.466607C12.691 0.156291 13.1988 0.0701748 13.717 0.0345404C13.9887 0.0152384 14.2708 -0.00851784 14.5351 0.0419642C14.9241 0.117687 15.3012 0.257255 15.6828 0.371582C15.7912 0.404247 15.8981 0.439881 16.0035 0.47997C16.054 0.499272 16.1059 0.524513 16.1445 0.561632C16.6167 1.00261 17.1779 1.21641 17.8179 1.30402C18.1534 1.35004 18.483 1.37825 18.8142 1.35747C19.1022 1.33965 19.3858 1.26541 19.6723 1.22235C20.0183 1.17039 20.2915 0.950641 20.6092 0.82889C20.7963 0.757621 20.9478 0.592812 21.123 0.48294C21.4734 0.263194 21.8683 0.157776 22.2677 0.0761138C22.4875 0.0300861 22.7161 -0.00406354 22.9403 0.00039076C24.2142 0.0256318 25.2759 0.497787 26.088 1.50446C26.382 1.86823 26.5854 2.27505 26.7636 2.69821C27.2432 3.83703 28.0345 4.6581 29.206 5.07087C29.546 5.19113 29.9157 5.24904 30.2765 5.28022C30.8215 5.32773 31.3589 5.38415 31.8593 5.62023C33.0753 6.19483 33.8385 7.13766 34.128 8.45168C34.2839 9.15991 34.2082 9.85924 34.0033 10.5511C33.9469 10.7412 33.938 10.9461 33.9142 11.145C33.8964 11.2906 33.8682 11.4375 33.8801 11.583C33.9395 12.3626 34.1503 13.0931 34.6195 13.733C34.9565 14.1933 35.3767 14.5704 35.8014 14.949C36.3166 15.4078 36.6358 16.0062 36.8303 16.6654C37.0129 17.2875 37.0634 17.926 36.906 18.5555C36.7442 19.2044 36.4977 19.828 36.0166 20.3194C35.7464 20.5956 35.4495 20.845 35.1763 21.1182C35.007 21.289 34.86 21.4805 34.7041 21.6646C34.3181 22.1219 34.1295 22.6683 33.987 23.2355C33.9573 23.3528 33.9261 23.4701 33.9172 23.5889C33.889 24.0031 33.8474 24.4144 33.9662 24.8272C34.0642 25.1672 34.1369 25.5191 34.1755 25.8695C34.2884 26.888 34.0315 27.7982 33.4124 28.6326C32.9462 29.2592 32.3656 29.6957 31.6544 29.9748C31.2209 30.1456 30.768 30.2421 30.2973 30.2599C29.4644 30.2896 28.7042 30.545 28.0583 31.078C27.7851 31.3037 27.5119 31.5324 27.304 31.8353C27.062 32.1871 26.8497 32.5465 26.6938 32.9444C26.1637 34.3074 25.166 35.124 23.7465 35.4343C22.7117 35.66 21.7644 35.4165 20.872 34.885C20.6508 34.7528 20.4474 34.585 20.2128 34.4885C19.9277 34.3698 19.6219 34.2881 19.3175 34.2272C18.3776 34.0386 17.4719 34.1574 16.6152 34.591C16.2975 34.7513 16.0065 34.9696 15.6828 35.1121C15.3368 35.2636 14.9731 35.3928 14.6048 35.4655C14.2782 35.5294 13.9278 35.5472 13.6011 35.5011C13.2299 35.4477 12.8588 35.3319 12.5113 35.1879C11.4987 34.7692 10.7994 34.0327 10.3837 33.0201C10.0941 32.3148 9.71105 31.6675 9.10378 31.1864C8.80386 30.9503 8.4787 30.7543 8.11641 30.6059C7.66356 30.4203 7.21071 30.303 6.72073 30.2866C6.3733 30.2748 6.00656 30.248 5.68734 30.1263C5.26418 29.9644 4.85438 29.7388 4.48319 29.4789C4.14021 29.2399 3.81356 28.9504 3.55818 28.6222C3.33992 28.3416 3.21372 27.9823 3.08454 27.6423C2.9227 27.2176 2.80392 26.7781 2.83807 26.3134C2.82174 26.3104 2.80689 26.309 2.79056 26.306L2.79353 26.3075ZM25.8193 10.6417C25.6619 10.3863 25.4243 10.2096 25.2135 10.0077C25.0487 9.84884 24.7785 9.78648 24.7339 9.50883C24.7309 9.48507 24.6938 9.44796 24.6745 9.44944C24.3731 9.45983 24.2024 9.21336 23.9722 9.08864C23.65 8.91492 23.3546 8.68479 23.019 8.54967C22.6879 8.41604 22.3731 8.24381 22.0272 8.13839C21.3219 7.92459 20.6241 7.69593 19.8876 7.61576C19.8312 7.60982 19.7792 7.55636 19.7629 7.54597C19.607 7.54597 19.4867 7.54597 19.365 7.54597C18.8156 7.54597 18.2678 7.543 17.7184 7.54746C17.5729 7.54746 17.4274 7.56527 17.2848 7.59051C16.9834 7.64397 16.6835 7.70633 16.3821 7.76572C16.2203 7.79838 16.0584 7.8652 15.8981 7.85926C15.5981 7.84886 15.3368 7.92756 15.0993 8.10276C15.0755 8.12057 15.0428 8.12651 15.0146 8.13542C14.7979 8.21115 14.5781 8.27648 14.3673 8.36556C14.2366 8.4205 14.1223 8.51701 13.9961 8.58679C13.7214 8.73824 13.4304 8.86444 13.172 9.03965C12.7296 9.34105 12.3094 9.67216 11.8788 9.98989C11.3874 10.3522 10.9954 10.8095 10.6182 11.2831C10.4579 11.4851 10.2604 11.6528 10.1416 11.8963C10.0243 12.1369 9.82835 12.3373 9.69917 12.5734C9.22256 13.4405 8.80535 14.3343 8.59748 15.3083C8.48909 15.8161 8.37476 16.3284 8.32725 16.8451C8.28122 17.3439 8.29607 17.8517 8.3228 18.3536C8.34804 18.8361 8.38367 19.3246 8.48018 19.7968C8.73853 21.0633 9.16911 22.2674 9.92634 23.332C10.204 23.721 10.495 24.1026 10.7994 24.4708C10.9894 24.701 11.2166 24.9014 11.426 25.1152C11.6175 25.2889 11.7986 25.473 12.0006 25.6319C12.3732 25.9259 12.7385 26.2377 13.1423 26.4856C13.8951 26.9489 14.6969 27.3112 15.5462 27.5695C16.4608 27.8487 17.4007 27.9645 18.3509 27.9971C18.7785 28.012 19.2136 27.9867 19.6367 27.9244C20.2959 27.8264 20.9596 27.7165 21.6011 27.5413C22.0792 27.4107 22.5305 27.179 22.9849 26.9741C23.8074 26.6015 24.5394 26.0788 25.2447 25.525C25.5416 25.2919 25.7955 25.0009 26.0524 24.7203C26.8883 23.8027 27.5639 22.7841 28.0123 21.6186C28.3226 20.8124 28.5809 19.9913 28.6611 19.1301C28.719 18.5006 28.7502 17.8651 28.7294 17.2341C28.7086 16.655 28.6329 16.0715 28.526 15.5013C28.3463 14.5392 27.9781 13.638 27.5045 12.7813C27.0605 11.978 26.4934 11.2698 25.8208 10.6462L25.8193 10.6417Z" fill="#3DB654"/>
<path d="M25.8178 10.6417C26.4904 11.2653 27.0576 11.9736 27.5015 12.7768C27.9737 13.6336 28.3419 14.5333 28.523 15.4969C28.6299 16.0686 28.7056 16.6506 28.7264 17.2297C28.7487 17.8607 28.716 18.4962 28.6581 19.1257C28.5794 19.9869 28.3196 20.8079 28.0093 21.6142C27.5609 22.7797 26.8853 23.7983 26.0494 24.7158C25.794 24.9965 25.5386 25.2875 25.2417 25.5206C24.5364 26.0744 23.8059 26.5985 22.9819 26.9697C22.5275 27.1746 22.0747 27.4062 21.5981 27.5369C20.9552 27.7121 20.293 27.822 19.6337 27.92C19.2106 27.9838 18.7755 28.0076 18.3479 27.9927C17.3977 27.9615 16.4578 27.8442 15.5432 27.5651C14.6939 27.3068 13.8921 26.943 13.1394 26.4812C12.737 26.2333 12.3702 25.923 11.9976 25.6275C11.7956 25.4686 11.6145 25.283 11.423 25.1108C11.4141 25.0262 11.4289 24.9296 11.3918 24.8584C11.1869 24.4619 10.9746 24.07 10.7578 23.681C10.443 23.1153 10.1966 22.5169 10.0407 21.8918C9.87584 21.2341 9.71846 20.5659 9.65758 19.8933C9.55068 18.6877 9.65313 17.9052 9.93969 16.6357C9.99165 16.4041 10.008 16.1621 10.1268 15.9468C10.1713 15.8666 10.198 15.7746 10.2248 15.6855C10.2827 15.4895 10.3183 15.2876 10.4193 15.102C10.5039 14.9476 10.544 14.7694 10.6256 14.615C10.7073 14.4621 10.8291 14.3299 10.9122 14.177C11.5759 12.9624 12.4712 11.9439 13.5358 11.0708C14.1356 10.5794 14.8038 10.1904 15.4808 9.81473C15.5922 9.75237 15.7021 9.68259 15.8208 9.64102C16.005 9.57717 16.1965 9.53114 16.3851 9.48066C16.924 9.33664 17.4585 9.17777 18.002 9.0575C18.538 8.93872 19.0829 8.85112 19.6382 8.89715C19.7659 8.90754 19.8936 8.90457 20.0212 8.90606C20.3627 8.91051 20.7087 8.88527 21.0457 8.92536C21.457 8.97584 21.8698 9.05602 22.2677 9.16886C22.8675 9.33961 23.4718 9.51333 24.0435 9.75831C24.581 9.98845 25.0769 10.3166 25.5936 10.5942C25.6574 10.6284 25.7421 10.6239 25.8163 10.6358L25.8178 10.6417ZM17.1957 18.367C16.8112 17.972 16.44 17.6142 16.097 17.2326C15.7303 16.8243 15.2433 16.7575 14.7488 16.707C14.6672 16.6981 14.5796 16.7679 14.4935 16.7976C13.4823 17.148 13.0057 18.3967 13.7734 19.2653C14.5469 20.1428 15.3576 20.9876 16.1564 21.8428C16.5127 22.2259 16.9701 22.2883 17.46 22.2259C17.5773 22.211 17.7184 22.2185 17.8075 22.1576C18.051 21.9913 18.2826 21.8057 18.4979 21.6053C18.6464 21.4672 18.7547 21.286 18.8913 21.1331C19.3219 20.6491 19.7599 20.1725 20.1875 19.6869C20.4503 19.3885 20.6909 19.0708 20.9537 18.7738C21.2224 18.4709 21.512 18.1873 21.7822 17.8859C22.1163 17.5147 22.4414 17.1376 22.7666 16.759C23.2358 16.2141 23.7094 15.6736 24.1652 15.1183C24.48 14.7367 24.5869 14.2913 24.4815 13.8013C24.4028 13.4346 24.1934 13.154 23.9143 12.9164C23.6456 12.6878 23.307 12.5601 22.9863 12.5615C22.5943 12.5645 22.1964 12.7026 21.9069 13.0144C21.5372 13.4108 21.1705 13.8102 20.8111 14.2156C20.2603 14.8377 19.7169 15.4672 19.1705 16.0938C18.7057 16.6268 18.2395 17.1599 17.7748 17.6929C17.5833 17.9126 17.3947 18.1339 17.1957 18.364V18.367Z" fill="#8ECD97"/>
<path d="M25.8176 10.6417C25.7433 10.6284 25.6587 10.6343 25.5949 10.6002C25.0782 10.3225 24.5822 9.99438 24.0448 9.76424C23.4731 9.51926 22.8688 9.34554 22.269 9.17479C21.8711 9.06046 21.4583 8.98029 21.047 8.93129C20.71 8.88971 20.364 8.91644 20.0225 8.91199C19.8948 8.9105 19.7672 8.91347 19.6395 8.90308C19.0842 8.85705 18.5393 8.94465 18.0032 9.06343C17.4598 9.1837 16.9238 9.34257 16.3863 9.48659C16.1978 9.53707 16.0062 9.58162 15.8221 9.64694C15.7033 9.68852 15.5935 9.7583 15.4821 9.82066C14.8065 10.1963 14.1369 10.5853 13.5371 11.0768C12.4725 11.9498 11.5772 12.9684 10.9135 14.1829C10.8303 14.3358 10.7086 14.4665 10.6269 14.6209C10.5438 14.7768 10.5037 14.9535 10.4206 15.1079C10.3196 15.2935 10.2854 15.4954 10.226 15.6914C10.1993 15.7805 10.1726 15.8726 10.1281 15.9527C10.0093 16.168 9.99294 16.4086 9.94097 16.6417C9.65441 17.9112 9.55196 18.6951 9.65886 19.8993C9.71826 20.5719 9.87713 21.24 10.0419 21.8977C10.1978 22.5228 10.4443 23.1212 10.7591 23.6869C10.9759 24.0774 11.1897 24.4679 11.3931 24.8643C11.4287 24.9341 11.4153 25.0321 11.4243 25.1167C11.2134 24.9029 10.9877 24.7025 10.7977 24.4723C10.4933 24.1041 10.2008 23.724 9.92464 23.3335C9.16741 22.2689 8.73831 21.0648 8.47848 19.7983C8.38197 19.3261 8.34485 18.8391 8.32109 18.3551C8.29436 17.8532 8.27952 17.3455 8.32555 16.8466C8.37306 16.3299 8.48738 15.8191 8.59577 15.3098C8.80512 14.3358 9.22234 13.442 9.69747 12.5749C9.82664 12.3388 10.0226 12.1384 10.1399 11.8978C10.2587 11.6529 10.4562 11.4866 10.6165 11.2846C10.9937 10.811 11.3856 10.3537 11.8771 9.99141C12.3077 9.67367 12.7294 9.34257 13.1703 9.04116C13.4287 8.86596 13.7197 8.73975 13.9944 8.58831C14.1206 8.51852 14.2334 8.4235 14.3656 8.36708C14.5764 8.27799 14.7976 8.21266 15.0129 8.13694C15.0411 8.12654 15.0738 8.12061 15.0976 8.10427C15.3351 7.92907 15.5964 7.85038 15.8964 7.86077C16.0567 7.86671 16.2186 7.7999 16.3804 7.76723C16.6803 7.70784 16.9802 7.64548 17.2831 7.59203C17.4257 7.56679 17.5727 7.55046 17.7167 7.54897C18.2646 7.54452 18.8139 7.54749 19.3633 7.54749C19.485 7.54749 19.6053 7.54749 19.7612 7.54749C19.7775 7.55788 19.8295 7.61133 19.8859 7.61727C20.6224 7.69745 21.3217 7.9261 22.0255 8.13991C22.3729 8.24533 22.6862 8.41756 23.0173 8.55119C23.3529 8.6863 23.6483 8.91644 23.9705 9.09016C24.2021 9.21488 24.3714 9.46135 24.6728 9.45096C24.6921 9.45096 24.7292 9.48808 24.7322 9.51035C24.7753 9.788 25.047 9.85184 25.2118 10.0092C25.4241 10.2126 25.6617 10.3893 25.8176 10.6432V10.6417Z" fill="#7DC18A"/>
<path d="M17.1958 18.3668C17.3948 18.1367 17.5833 17.914 17.7749 17.6957C18.2396 17.1627 18.7058 16.6297 19.1705 16.0966C19.7169 15.4701 20.2604 14.8405 20.8112 14.2184C21.1705 13.8131 21.5387 13.4137 21.907 13.0172C22.1965 12.7054 22.5944 12.5659 22.9864 12.5644C23.3071 12.5629 23.6471 12.6906 23.9144 12.9192C24.1935 13.1583 24.4014 13.4374 24.4816 13.8042C24.587 14.2956 24.4801 14.7396 24.1653 15.1211C23.708 15.6764 23.2358 16.2169 22.7667 16.7618C22.4415 17.1404 22.1148 17.5176 21.7823 17.8887C21.512 18.1902 21.2225 18.4737 20.9538 18.7766C20.6909 19.0736 20.4489 19.3913 20.1876 19.6898C19.76 20.1768 19.3205 20.6519 18.8914 21.1359C18.7548 21.2889 18.6479 21.47 18.4979 21.6081C18.2827 21.8085 18.051 21.9941 17.8075 22.1604C17.7184 22.2213 17.5774 22.2139 17.4601 22.2287C16.9701 22.2911 16.5128 22.2287 16.1565 21.8456C15.3592 20.9889 14.5485 20.1441 13.7734 19.2681C13.0058 18.3995 13.4824 17.1493 14.4935 16.8004C14.5797 16.7707 14.6673 16.7009 14.7489 16.7098C15.2448 16.7603 15.7318 16.8271 16.0971 17.2355C16.4401 17.617 16.8098 17.9749 17.1958 18.3698V18.3668Z" fill="#F8F9FB"/>
</svg>
