<svg width="50" height="50" viewBox="0 0 50 50" fill="none" xmlns="http://www.w3.org/2000/svg">
<path fill-rule="evenodd" clip-rule="evenodd" d="M25.5665 11.8513V34.4929L11.6006 30.4881V18.9527L22.5187 19.5782L25.5665 11.8513Z" fill="#A1A1A1"/>
<path fill-rule="evenodd" clip-rule="evenodd" d="M39.7735 11.3347L26.668 10.5354L29.9161 18.8531L43.0217 18.0528L39.7735 11.3347Z" fill="#A1A1A1"/>
<path fill-rule="evenodd" clip-rule="evenodd" d="M26.4766 11.8513L29.5274 19.5802L40.4455 18.9548V30.4912L26.4796 34.4949L26.4766 11.8513Z" fill="#A1A1A1"/>
<path fill-rule="evenodd" clip-rule="evenodd" d="M12.2686 11.3347L9.02148 18.0528L22.127 18.8531L25.3742 10.5354L12.2686 11.3347Z" fill="#A1A1A1"/>
<path d="M25.742 2H22.5518V10.1062L25.742 9.91194V2Z" fill="#A1A1A1"/>
<path d="M21.5838 6.65161H18.3926V10.3594L21.5838 10.1642V6.65161Z" fill="#A1A1A1"/>
<path d="M34.0604 2.2522H30.8682V10.1255L34.0594 10.3197L34.0604 2.2522Z" fill="#A1A1A1"/>
<path d="M29.7802 3.95044H26.8311V9.8783L29.7802 10.0583V3.95044Z" fill="#A1A1A1"/>
<path d="M4.05682 46.959V38.2317H7.00568C7.69034 38.2317 8.25 38.3553 8.68466 38.6024C9.12216 38.8468 9.44602 39.1777 9.65625 39.5953C9.86648 40.013 9.97159 40.4789 9.97159 40.9931C9.97159 41.5073 9.86648 41.9746 9.65625 42.3951C9.44886 42.8155 9.12784 43.1507 8.69318 43.4007C8.25852 43.6479 7.7017 43.7715 7.02273 43.7715H4.90909V42.834H6.98864C7.45739 42.834 7.83381 42.753 8.1179 42.5911C8.40199 42.4292 8.60795 42.2104 8.7358 41.9348C8.86648 41.6564 8.93182 41.3425 8.93182 40.9931C8.93182 40.6436 8.86648 40.3311 8.7358 40.0556C8.60795 39.78 8.40057 39.5641 8.11364 39.4078C7.8267 39.2488 7.44602 39.1692 6.97159 39.1692H5.11364V46.959H4.05682ZM11.5376 46.959V40.4135H12.5092V41.4022H12.5774C12.6967 41.0783 12.9126 40.8155 13.2251 40.6138C13.5376 40.4121 13.8899 40.3113 14.282 40.3113C14.3558 40.3113 14.4482 40.3127 14.5589 40.3155C14.6697 40.3184 14.7536 40.3226 14.8104 40.3283V41.351C14.7763 41.3425 14.6982 41.3297 14.576 41.3127C14.4567 41.2928 14.3303 41.2828 14.1967 41.2828C13.8786 41.2828 13.5945 41.3496 13.3445 41.4831C13.0973 41.6138 12.9013 41.7956 12.7564 42.0286C12.6143 42.2587 12.5433 42.5215 12.5433 42.8169V46.959H11.5376ZM18.4624 47.0953C17.8714 47.0953 17.353 46.9547 16.907 46.6735C16.4638 46.3922 16.1172 45.9988 15.8672 45.4931C15.62 44.9874 15.4964 44.3965 15.4964 43.7203C15.4964 43.0385 15.62 42.4434 15.8672 41.9348C16.1172 41.4263 16.4638 41.0314 16.907 40.7502C17.353 40.4689 17.8714 40.3283 18.4624 40.3283C19.0533 40.3283 19.5703 40.4689 20.0135 40.7502C20.4595 41.0314 20.8061 41.4263 21.0533 41.9348C21.3033 42.4434 21.4283 43.0385 21.4283 43.7203C21.4283 44.3965 21.3033 44.9874 21.0533 45.4931C20.8061 45.9988 20.4595 46.3922 20.0135 46.6735C19.5703 46.9547 19.0533 47.0953 18.4624 47.0953ZM18.4624 46.1919C18.9112 46.1919 19.2805 46.0769 19.5703 45.8468C19.8601 45.6167 20.0746 45.3141 20.2138 44.9391C20.353 44.5641 20.4226 44.1578 20.4226 43.7203C20.4226 43.2828 20.353 42.8752 20.2138 42.4973C20.0746 42.1195 19.8601 41.8141 19.5703 41.5811C19.2805 41.3482 18.9112 41.2317 18.4624 41.2317C18.0135 41.2317 17.6442 41.3482 17.3544 41.5811C17.0646 41.8141 16.8501 42.1195 16.7109 42.4973C16.5717 42.8752 16.5021 43.2828 16.5021 43.7203C16.5021 44.1578 16.5717 44.5641 16.7109 44.9391C16.8501 45.3141 17.0646 45.6167 17.3544 45.8468C17.6442 46.0769 18.0135 46.1919 18.4624 46.1919ZM25.435 47.0953C24.8896 47.0953 24.408 46.9576 23.9904 46.682C23.5728 46.4036 23.2461 46.0115 23.0103 45.5059C22.7745 44.9973 22.6566 44.3965 22.6566 43.7033C22.6566 43.0158 22.7745 42.4192 23.0103 41.9135C23.2461 41.4078 23.5742 41.0172 23.9947 40.7417C24.4151 40.4661 24.9009 40.3283 25.4521 40.3283C25.8782 40.3283 26.2148 40.3993 26.462 40.5414C26.712 40.6806 26.9023 40.8397 27.033 41.0186C27.1665 41.1948 27.2702 41.3397 27.3441 41.4533H27.4293V38.2317H28.435V46.959H27.4634V45.9533H27.3441C27.2702 46.0726 27.1651 46.2232 27.0288 46.405C26.8924 46.584 26.6978 46.7445 26.445 46.8865C26.1921 47.0257 25.8555 47.0953 25.435 47.0953ZM25.5714 46.1919C25.9748 46.1919 26.3157 46.0868 26.5941 45.8766C26.8725 45.6635 27.0842 45.3695 27.229 44.9945C27.3739 44.6167 27.4464 44.1806 27.4464 43.6863C27.4464 43.1976 27.3754 42.7701 27.2333 42.4036C27.0913 42.0343 26.881 41.7473 26.6026 41.5428C26.3242 41.3354 25.9805 41.2317 25.5714 41.2317C25.1452 41.2317 24.7901 41.3411 24.506 41.5598C24.2248 41.7757 24.0131 42.0698 23.8711 42.4419C23.7319 42.8113 23.6623 43.226 23.6623 43.6863C23.6623 44.1522 23.7333 44.5755 23.8754 44.9561C24.0202 45.334 24.2333 45.6351 24.5146 45.8596C24.7987 46.0811 25.1509 46.1919 25.5714 46.1919ZM34.5415 44.2828V40.4135H35.5472V46.959H34.5415V45.851H34.4734C34.32 46.1834 34.0813 46.4661 33.7575 46.699C33.4336 46.9292 33.0245 47.0442 32.5302 47.0442C32.1211 47.0442 31.7575 46.9547 31.4393 46.7757C31.1211 46.5939 30.8711 46.3212 30.6893 45.9576C30.5075 45.5911 30.4165 45.1294 30.4165 44.5726V40.4135H31.4222V44.5044C31.4222 44.9817 31.5558 45.3624 31.8228 45.6465C32.0927 45.9306 32.4364 46.0726 32.854 46.0726C33.104 46.0726 33.3583 46.0087 33.6168 45.8809C33.8782 45.753 34.0969 45.557 34.2731 45.2928C34.4521 45.0286 34.5415 44.6919 34.5415 44.2828ZM40.0483 47.0953C39.4347 47.0953 38.9063 46.9505 38.4631 46.6607C38.0199 46.3709 37.679 45.9718 37.4403 45.4632C37.2017 44.9547 37.0824 44.3738 37.0824 43.7203C37.0824 43.0556 37.2045 42.4689 37.4489 41.9604C37.696 41.449 38.0398 41.0499 38.4801 40.763C38.9233 40.4732 39.4403 40.3283 40.0312 40.3283C40.4915 40.3283 40.9062 40.4135 41.2756 40.584C41.6449 40.7544 41.9474 40.9931 42.1832 41.2999C42.419 41.6067 42.5653 41.9647 42.6222 42.3738H41.6165C41.5398 42.0755 41.3693 41.8113 41.1051 41.5811C40.8438 41.3482 40.4915 41.2317 40.0483 41.2317C39.6563 41.2317 39.3125 41.334 39.017 41.5385C38.7244 41.7402 38.4957 42.0257 38.331 42.3951C38.169 42.7615 38.0881 43.1919 38.0881 43.6863C38.0881 44.1919 38.1676 44.6323 38.3267 45.0073C38.4886 45.3823 38.7159 45.6735 39.0085 45.8809C39.304 46.0882 39.6506 46.1919 40.0483 46.1919C40.3097 46.1919 40.5469 46.1465 40.7599 46.0556C40.973 45.9647 41.1534 45.834 41.3011 45.6635C41.4489 45.4931 41.554 45.2885 41.6165 45.0499H42.6222C42.5653 45.4363 42.4247 45.7843 42.2003 46.0939C41.9787 46.4007 41.6847 46.6451 41.3182 46.8269C40.9545 47.0059 40.5313 47.0953 40.0483 47.0953ZM46.9389 40.4135V41.2658H43.5469V40.4135H46.9389ZM44.5355 38.8453H45.5412V45.084C45.5412 45.3681 45.5824 45.5811 45.6648 45.7232C45.75 45.8624 45.858 45.9561 45.9886 46.0044C46.1222 46.0499 46.2628 46.0726 46.4105 46.0726C46.5213 46.0726 46.6122 46.0669 46.6832 46.0556C46.7543 46.0414 46.8111 46.03 46.8537 46.0215L47.0582 46.9249C46.9901 46.9505 46.8949 46.976 46.7727 47.0016C46.6506 47.03 46.4957 47.0442 46.3082 47.0442C46.0241 47.0442 45.7457 46.9831 45.473 46.861C45.2031 46.7388 44.9787 46.5527 44.7997 46.3027C44.6236 46.0527 44.5355 45.7374 44.5355 45.3567V38.8453Z" fill="#A1A1A1"/>
</svg>
