<svg width="50" height="50" viewBox="0 0 50 50" fill="none" xmlns="http://www.w3.org/2000/svg">
<g clip-path="url(#clip0_457_15023)">
<path d="M38.6505 26.3197C37.9354 26.5843 37.2536 26.8019 36.5993 27.0822C35.4551 27.5703 34.4422 27.3742 33.4705 26.6353C32.246 25.7061 31 24.8045 29.7539 23.9047C29.5384 23.7499 29.4522 23.5813 29.4561 23.3167C29.4698 21.8446 29.4679 20.3706 29.4757 18.8985C29.4796 17.8537 28.7469 17.0735 27.7007 17.0657C25.9022 17.052 24.1037 17.052 22.3052 17.0696C21.2394 17.0794 20.5145 17.8694 20.5145 18.9769C20.5145 20.1647 20.5204 21.3526 20.5223 22.5424C20.5223 23.1697 20.5341 23.795 20.5223 24.4222C20.5204 24.5594 20.4694 24.7084 20.4008 24.8299C20.1814 25.218 19.9483 25.6003 19.7093 25.9766C19.6544 26.0629 19.5584 26.1648 19.4683 26.1805C18.4613 26.3549 17.4347 26.453 16.4453 26.6941C15.2012 26.9979 14.0453 26.7431 12.8855 26.3589C12.5779 26.2569 12.282 26.1178 11.9745 26.01C11.7942 25.9472 11.802 25.861 11.8785 25.7179C12.0176 25.4513 12.1625 25.1847 12.2664 24.9044C12.6543 23.8459 12.5465 22.8639 11.7942 21.9838C11.6982 21.8701 11.6198 21.7015 11.6179 21.5565C11.6002 20.1157 11.6022 18.675 11.5983 17.2343C11.5963 16.3228 11.5905 15.4113 11.5983 14.4998C11.5983 14.4058 11.661 14.2764 11.7374 14.2235C14.5429 12.2888 17.3504 10.358 20.1618 8.43312C21.6978 7.38051 23.2436 6.34162 24.7796 5.28901C24.9344 5.18316 25.0402 5.16356 25.2067 5.27921C27.7791 7.0512 30.3554 8.81535 32.9317 10.5795C34.6832 11.7791 36.4347 12.9768 38.1901 14.1705C38.3253 14.2627 38.386 14.3607 38.3841 14.5273C38.3782 16.7893 38.3821 19.0533 38.3704 21.3154C38.3704 21.4349 38.3018 21.5898 38.2117 21.6701C37.4064 22.4013 37.3007 23.7401 37.7336 24.5555C37.9962 25.0514 38.2646 25.5434 38.5271 26.0394C38.5741 26.1295 38.6074 26.2256 38.6466 26.3216L38.6505 26.3197ZM24.9971 15.2584C26.823 15.3662 28.5725 13.7648 28.5804 11.7321C28.5882 9.81112 27.0287 8.1979 25.1185 8.11949C23.0927 8.03717 21.4255 9.80916 21.4059 11.6341C21.3843 13.7001 23.1261 15.3682 24.9971 15.2584Z" fill="#1568A8"/>
<path d="M11.1496 39.5234C10.3503 38.6413 9.36288 38.3453 8.21481 38.6296C7.04519 38.9216 6.46527 39.8213 6.04405 40.8661C5.57189 40.6485 5.13695 40.4545 4.70985 40.2408C4.67655 40.2232 4.67655 40.0683 4.70985 39.9997C5.06055 39.2843 5.42299 38.5766 5.77956 37.8631C7.21955 34.9778 8.65954 32.0904 10.1015 29.2051C10.3562 28.6954 10.6285 28.1975 10.8812 27.6879C10.9596 27.5291 11.0419 27.5546 11.1712 27.6134C12.3389 28.1485 13.5594 28.5014 14.8388 28.6464C15.6616 28.7385 16.4551 28.5366 17.2505 28.37C17.6952 28.2779 18.1419 28.1877 18.5867 28.0995C18.616 28.0936 18.6474 28.1074 18.7062 28.1152C18.5005 28.5641 18.3006 28.9973 18.1027 29.4305C17.8147 30.0577 17.517 30.6811 17.2407 31.3142C16.651 32.6648 17.0232 34.2662 18.1478 35.162C19.243 36.0323 21.1904 36.1539 22.3463 34.9366C23.2534 33.982 24.1115 32.9803 24.9951 32.0003C25.3105 31.6494 25.6377 31.3103 25.9571 30.9614C26.0472 30.8634 26.1099 30.8555 26.2157 30.9496C28.4139 32.898 30.6179 34.8405 32.8181 36.787C34.2855 38.0866 35.749 39.3921 37.2145 40.6956C37.526 40.972 37.8277 41.2542 37.9727 41.6639C38.2979 42.5832 37.7513 43.5594 36.7991 43.7691C36.2153 43.8965 35.7294 43.7162 35.2945 43.334C33.5763 41.8266 31.8522 40.3231 30.1379 38.8119C29.8186 38.5296 29.464 38.4865 29.0957 38.6394C28.5412 38.8667 28.3825 39.5783 28.7959 40.0213C29.078 40.3231 29.4091 40.578 29.7206 40.8524C30.855 41.854 32.005 42.838 33.1198 43.8632C34.0288 44.7002 33.6586 46.0821 32.4693 46.4154C32.0736 46.5271 31.7053 46.4448 31.3781 46.2174C31.1587 46.0645 30.9588 45.8822 30.7688 45.694C29.6716 44.6042 28.5804 43.5084 27.4891 42.4127C27.2462 42.1677 26.968 42.0305 26.6134 42.0951C25.9629 42.2108 25.6436 42.938 26.0139 43.4888C26.104 43.6221 26.2196 43.7417 26.3332 43.8554C27.4206 44.9452 28.5079 46.0312 29.5972 47.1191C29.8715 47.3915 30.0478 47.7032 29.9596 48.1031C29.797 48.842 28.8958 49.14 28.3296 48.6225C27.9104 48.2383 27.5303 47.813 27.1286 47.4072C26.9406 47.2171 26.7486 47.0269 26.5507 46.8466C26.1471 46.482 25.5731 46.482 25.2282 46.8289C24.9422 47.1171 24.8638 47.76 25.2772 48.1501C25.6318 48.4853 25.9845 48.8264 26.2999 49.1988C26.7995 49.7868 26.5664 50.6101 25.8493 50.9002C25.4594 51.057 25.0911 51.0178 24.7698 50.761C24.0214 50.1612 23.2808 49.5477 22.5461 48.9322C22.5011 48.893 22.4952 48.7558 22.5246 48.6891C22.6794 48.3402 22.8635 48.005 23.0183 47.6561C23.7236 46.0606 22.8655 44.2886 21.1943 43.9063C20.9279 43.8456 20.6457 43.8456 20.3715 43.8436C20.2284 43.8436 20.1677 43.7985 20.1403 43.6633C19.8523 42.299 18.4456 41.0955 16.7294 41.3248C16.553 41.3483 16.5178 41.2758 16.4845 41.1229C15.9927 38.8609 13.4164 37.8553 11.5532 39.1941C11.4161 39.2941 11.2907 39.4117 11.1575 39.5234H11.1496Z" fill="#1568A8"/>
<path d="M24.6895 29.5795C24.3956 29.9206 24.1056 30.2695 23.802 30.6066C22.9537 31.5495 22.0916 32.4825 21.2492 33.4312C20.5811 34.182 19.6133 33.9977 19.1862 33.5528C18.7904 33.1411 18.6454 32.655 18.8668 32.1199C19.145 31.4456 19.4683 30.7889 19.768 30.1205C20.1638 29.2384 20.5478 28.3524 20.9494 27.4743C21.4647 26.3511 22.1739 25.3612 23.0928 24.5379C24.3114 23.4481 25.91 23.356 27.2403 24.3086C29.0271 25.5847 30.7943 26.8901 32.5653 28.1858C33.1786 28.6347 33.8408 28.9581 34.599 29.0738C35.5061 29.2129 36.3759 29.0934 37.2282 28.7523C37.9374 28.47 38.6564 28.2152 39.3695 27.9408C39.5086 27.8879 39.5811 27.8977 39.6575 28.0427C41.123 30.7615 42.5924 33.4763 44.0618 36.1931C44.1499 36.3578 44.2283 36.5283 44.3262 36.6871C44.436 36.8654 44.387 36.9517 44.1989 37.0281C43.0391 37.4986 41.8851 37.9749 40.7292 38.4532C40.0533 38.7335 39.3774 39.0118 38.7093 39.3059C38.5428 39.3784 38.4487 39.3078 38.341 39.2157C37.6494 38.61 36.9539 38.0102 36.2643 37.4006C33.9995 35.3934 31.7347 33.3861 29.4718 31.375C28.2317 30.2714 27.0033 29.1561 25.7572 28.0604C25.5848 27.9094 25.3458 27.7918 25.1205 27.7467C24.7463 27.6722 24.4034 27.882 24.2291 28.2093C24.0606 28.5288 24.1056 28.9228 24.3486 29.2129C24.4465 29.3305 24.5563 29.4403 24.6836 29.5795H24.6895Z" fill="#1568A8"/>
<path d="M0.00195917 42.9891V18.8947C0.0783668 18.9162 0.139101 18.926 0.195917 18.9495C3.44618 20.2687 6.69644 21.5879 9.94475 22.9091C10.027 22.9424 10.1113 22.9757 10.1896 23.0169C10.6324 23.2443 10.8127 23.6402 10.6128 24.093C10.3307 24.732 10.0055 25.3515 9.69398 25.9767C7.22542 30.9105 4.75687 35.8423 2.28635 40.776C2.04342 41.2621 1.77305 41.7385 1.55362 42.2344C1.3146 42.7774 0.909055 43.0028 0.340896 42.991C0.2351 42.9891 0.131264 42.991 0 42.991L0.00195917 42.9891Z" fill="#AD172A"/>
<path d="M50 18.826V19.1083C50 26.3433 50 33.5802 50 40.8152C50 41.1347 50 41.1171 49.6767 41.1406C49.0576 41.1877 48.6678 40.927 48.3719 40.3762C46.8203 37.4731 45.2412 34.5858 43.6719 31.6926C42.5571 29.6344 41.4404 27.5762 40.3295 25.5181C40.0435 24.9888 39.7692 24.4537 39.493 23.9205C39.1579 23.2717 39.2814 22.9306 39.9592 22.6699C41.936 21.9074 43.9168 21.1469 45.8955 20.3883C47.2003 19.8885 48.5051 19.3886 49.808 18.8888C49.8589 18.8692 49.9138 18.8555 49.998 18.828L50 18.826Z" fill="#AD172A"/>
<path d="M24.9677 3.0702C24.7208 3.19565 24.4798 3.2917 24.2702 3.43283C23.3592 4.04441 22.458 4.67166 21.5509 5.29107C17.9676 7.74521 14.3842 10.1974 10.8009 12.6515C10.0564 13.1612 9.30999 13.6688 8.56354 14.1765C8.24811 14.3921 7.91701 14.4451 7.582 14.2353C7.04322 13.8982 7.00992 13.1906 7.5291 12.7985C7.9562 12.4751 8.40877 12.185 8.85154 11.8812C10.9008 10.4698 12.9462 9.05264 14.9994 7.64916C17.5287 5.91833 20.0658 4.1973 22.599 2.47235C23.1359 2.1058 23.6746 1.73925 24.2095 1.36878C24.9128 0.880693 25.0735 0.876773 25.7788 1.35897C28.457 3.19173 31.1312 5.02645 33.8114 6.85725C35.7176 8.1588 37.6318 9.45251 39.538 10.7541C40.4706 11.3911 41.3953 12.0419 42.3259 12.6829C42.6374 12.8985 42.8706 13.1612 42.8432 13.563C42.8 14.202 42.0967 14.5744 41.5442 14.2334C40.8938 13.8335 40.259 13.4062 39.6262 12.9769C38.1607 11.9792 36.7012 10.9716 35.2396 9.97C32.9591 8.40774 30.6767 6.84941 28.3962 5.28519C27.4774 4.65402 26.5683 4.01108 25.6455 3.38579C25.4496 3.25446 25.2145 3.18389 24.9638 3.0702H24.9677Z" fill="#AD172A"/>
<path d="M27.638 22.4073C25.7964 21.6233 24.0449 21.7252 22.3561 22.8033C22.3424 22.7582 22.3208 22.721 22.3208 22.6857C22.3169 21.4978 22.3189 20.3119 22.3052 19.124C22.3032 18.9065 22.3698 18.8457 22.5814 18.8457C24.1918 18.8555 25.8003 18.8575 27.4108 18.8555C27.5832 18.8555 27.6792 18.881 27.6772 19.0927C27.6654 20.1257 27.6694 21.1587 27.6674 22.1898C27.6674 22.2584 27.6498 22.327 27.638 22.4073Z" fill="#1568A8"/>
<path d="M10.605 44.9316C10.654 44.7454 10.6775 44.5474 10.7559 44.371C11.2182 43.3242 11.6845 42.2795 12.1665 41.2406C12.4368 40.6584 13.005 40.3467 13.5633 40.4349C14.443 40.5741 14.9681 41.5326 14.6017 42.3696C14.2765 43.1145 13.9258 43.8456 13.5829 44.5827C13.4262 44.9218 13.2832 45.2687 13.099 45.5921C12.7581 46.1841 12.0548 46.437 11.467 46.2057C10.9753 46.0116 10.6344 45.4941 10.605 44.9316Z" fill="#1568A8"/>
<path d="M16.9841 43.0909C17.8833 43.0909 18.5534 43.9711 18.3202 44.7571C18.2438 45.0119 18.1302 45.2569 18.0205 45.502C17.7285 46.1449 17.4484 46.7957 17.129 47.4249C16.6647 48.3364 15.5421 48.4638 14.9073 47.6856C14.588 47.2955 14.5175 46.8388 14.7212 46.3781C15.1013 45.5157 15.5049 44.665 15.9065 43.8142C15.9633 43.6927 16.0574 43.581 16.1534 43.4849C16.4041 43.2321 16.7137 43.1027 16.986 43.0929L16.9841 43.0909Z" fill="#1568A8"/>
<path d="M9.99373 41.4032C9.95259 41.5503 9.92712 41.7051 9.86638 41.8443C9.55487 42.5401 9.24141 43.238 8.91031 43.926C8.70655 44.3513 8.25203 44.6062 7.86607 44.5513C7.40958 44.4866 7.01775 44.1455 6.95701 43.6888C6.92763 43.4751 6.96877 43.2282 7.05497 43.0302C7.35277 42.3363 7.66623 41.6483 8.01105 40.9759C8.1188 40.7642 8.30492 40.5486 8.51064 40.4349C9.18655 40.0586 9.96434 40.5859 9.99373 41.4052V41.4032Z" fill="#1568A8"/>
<path d="M20.5732 45.6431C21.1884 45.6489 21.6371 46.2703 21.3922 46.8329C21.0219 47.6875 20.6163 48.5284 20.203 49.3654C20.0051 49.7653 19.5486 49.9162 19.1685 49.7594C18.7336 49.581 18.4848 49.1341 18.5945 48.7029C18.6297 48.5618 18.6885 48.4265 18.7493 48.2952C19.0686 47.6032 19.3919 46.9133 19.7132 46.2213C19.8836 45.8548 20.1716 45.6646 20.5732 45.6431Z" fill="#1568A8"/>
<path d="M23.2299 11.6752C23.2279 10.6873 23.9979 9.92872 25.001 9.92676C25.959 9.92676 26.7623 10.7343 26.7642 11.7046C26.7662 12.6612 25.9394 13.4943 24.9951 13.4864C24.0253 13.4786 23.2319 12.6651 23.2299 11.6752Z" fill="#AD172A"/>
</g>
<defs>
<clipPath id="clip0_457_15023">
<rect width="50" height="50" fill="white"/>
</clipPath>
</defs>
</svg>
