<svg width="50" height="50" viewBox="0 0 50 50" fill="none" xmlns="http://www.w3.org/2000/svg">
<path d="M40.2159 26.5769C40.875 27.6923 41.8425 28.3577 43.0614 28.645C44.2655 28.9281 45.4231 28.814 46.5174 28.0578C46.5174 28.2077 46.5174 28.3007 46.5174 28.3936C46.5195 35.1366 46.5216 41.8817 46.5237 48.6247C46.5237 48.9922 46.5152 49.3619 46.5258 49.7295C46.5321 49.9407 46.4519 49.9914 46.247 49.9914C38.2576 49.9851 30.2704 49.9851 22.2811 49.9851C21.9832 49.9851 21.6854 49.9851 21.3601 49.9851C21.3495 49.8985 21.3326 49.8161 21.3326 49.7337C21.3326 44.8413 21.3368 39.9488 21.3389 35.0563C21.3389 34.0846 21.2418 33.9853 20.2764 33.9874C16.4 33.9874 12.5236 33.9874 8.64939 33.9917C8.37899 33.9917 8.10437 33.998 7.83609 34.0318C7.5319 34.0698 7.38825 34.2177 7.35445 34.5282C7.32487 34.7965 7.3291 35.0711 7.3291 35.3415C7.33121 40.0333 7.33755 44.7251 7.33966 49.4168C7.33966 49.9914 7.33544 49.9893 6.77141 49.9893C5.58843 49.9893 4.40334 49.983 3.22036 49.9999C2.97532 50.0041 2.93518 49.9259 2.93518 49.7041C2.93941 42.8809 2.93729 36.0598 2.93518 29.2365C2.93518 28.8647 2.93518 28.4908 2.93518 28.0556C4.04845 28.8077 5.22086 28.9386 6.4313 28.6619C7.65653 28.381 8.57545 27.6332 9.27045 26.5748C10.1682 28.0282 11.4759 28.7274 13.1468 28.7528C14.841 28.776 16.0958 28.0071 17.0021 26.5558C17.8999 27.9796 19.1568 28.7591 20.8657 28.7591C22.5684 28.7591 23.8338 28.0134 24.7294 26.5431C25.6315 27.9986 26.8968 28.7612 28.6079 28.757C30.3021 28.7528 31.5759 28.0176 32.4589 26.5748C33.9672 29.321 38.4604 29.6484 40.2138 26.5811L40.2159 26.5769ZM33.5088 33.9874C30.8873 33.9874 28.2657 33.9874 25.6441 33.9874C25.1308 33.9874 24.9428 34.1776 24.9428 34.6782C24.9428 37.247 24.9428 39.8157 24.9428 42.3866C24.9428 43.0266 25.1097 43.1956 25.7519 43.1956C30.9696 43.1935 36.1853 43.1914 41.4031 43.1893C41.946 43.1893 42.1403 42.9886 42.1382 42.4373C42.1319 40.0523 42.1277 37.6673 42.1213 35.2824C42.1213 35.0289 42.1213 34.7733 42.1044 34.5198C42.0833 34.224 41.927 34.055 41.6355 34.0064C41.5066 33.9853 41.3735 33.9874 41.2425 33.9874C38.6653 33.9874 36.086 33.9874 33.5088 33.9874Z" fill="#1568A8"/>
<path d="M37.3451 8.00197C37.531 8.00197 37.6873 8.00197 37.8436 8.00197C40.9046 8.00197 43.9634 8.00197 47.0244 8.00197C47.1215 8.00197 47.2166 8.00197 47.3138 8.00831C47.8482 8.04422 48.2116 8.33151 48.3003 8.85963C48.4418 9.68771 48.5495 10.5221 48.67 11.3544C48.9256 13.131 49.1769 14.9097 49.4347 16.6863C49.553 17.5059 49.1495 17.9897 48.3172 17.9918C45.2309 18.0002 42.1446 18.0066 39.0583 18.0108C26.975 18.0235 14.8938 18.0362 2.81055 18.0467C2.21483 18.0467 1.61912 18.0235 1.02341 17.9981C0.349531 17.9686 -0.0708486 17.47 0.0220997 16.7961C0.157297 15.7991 0.307282 14.802 0.450929 13.8049C0.670625 12.2607 0.890321 10.7186 1.11002 9.17438C1.12058 9.10467 1.13114 9.03707 1.14593 8.96736C1.28746 8.28293 1.61067 8.00831 2.30989 8.00619C3.93226 8.00197 5.55463 8.00619 7.177 8.00619C8.74656 8.00619 10.3161 8.00619 11.8857 8.00619C11.9554 8.00619 12.0251 8.00619 12.1202 8.00619C12.1286 8.12238 12.1413 8.22378 12.1413 8.32517C12.1371 10.6045 12.1286 12.8839 12.1265 15.1653C12.1265 15.8138 12.3272 16.0082 12.9799 16.0082C20.8193 16.0082 28.6586 16.0082 36.4958 16.0082C37.1528 16.0082 37.3451 15.816 37.3429 15.1611C37.3387 12.8564 37.3345 10.5496 37.3303 8.2449C37.3303 8.1773 37.3408 8.10759 37.3493 8.01042L37.3451 8.00197Z" fill="#1568A8"/>
<path d="M24.7379 14.7978C21.0728 14.7978 17.4076 14.7978 13.7425 14.7978C13.244 14.7978 13.339 14.802 13.339 14.3901C13.339 10.1546 13.339 5.92123 13.339 1.68574C13.339 1.44915 13.339 1.21255 13.3602 0.975957C13.4087 0.426717 13.7235 0.0971732 14.2706 0.0211246C14.4079 0.00211246 14.5495 0.00422492 14.691 0.00422492C21.4424 0 28.1939 0 34.9474 0C35.767 0 36.124 0.367568 36.124 1.22523C36.124 5.26848 36.124 9.30961 36.124 13.3529C36.124 13.7479 36.124 14.1429 36.1367 14.5358C36.1452 14.7408 36.0818 14.8041 35.8684 14.8041C32.1589 14.7978 28.4495 14.7999 24.74 14.7999L24.7379 14.7978ZM28.1263 10.4968C28.1263 10.4968 28.1241 10.4968 28.122 10.4968C28.122 10.5412 28.122 10.5855 28.122 10.6278C28.1284 11.1791 28.1157 11.7326 28.1495 12.2818C28.1706 12.6156 28.4136 12.7909 28.741 12.7846C29.0515 12.7783 29.2797 12.5755 29.3135 12.2502C29.3367 12.0326 29.3346 11.8129 29.3346 11.5932C29.3367 10.7165 29.3388 9.83984 29.3346 8.96317C29.3346 8.80051 29.3747 8.72024 29.5522 8.67165C30.2662 8.4773 30.8218 8.05693 31.2126 7.4253C31.6541 6.71129 31.7196 5.90644 31.7512 5.09737C31.7914 4.10029 31.4111 3.2891 30.6464 2.65325C30.0232 2.13359 29.2902 2.01951 28.5023 2.04064C27.1841 2.07444 26.0307 3.02504 25.7751 4.31576C25.661 4.89457 25.7117 5.46916 25.7899 6.04164C25.9715 7.36615 26.6391 8.30197 27.9615 8.68855C28.1263 8.73714 28.1241 8.84276 28.1241 8.96951C28.1241 9.47861 28.1241 9.9856 28.1241 10.4947L28.1263 10.4968ZM20.12 10.4968C20.12 10.4968 20.1221 10.4968 20.1243 10.4968C20.1243 10.5412 20.1243 10.5834 20.1243 10.6278C20.1306 11.1791 20.1179 11.7326 20.1517 12.2818C20.1728 12.6177 20.4158 12.7931 20.7411 12.7867C21.0516 12.7804 21.2777 12.5776 21.3178 12.2544C21.3347 12.1234 21.3368 11.9924 21.3368 11.8615C21.3368 10.9151 21.3368 9.9687 21.3284 9.02232C21.3284 8.82586 21.3875 8.74136 21.5861 8.6801C22.712 8.33788 23.4894 7.58796 23.6542 6.43033C23.7978 5.4248 23.7218 4.38547 23.7218 3.36304C23.7218 3.11165 23.5633 2.92365 23.3056 2.84548C22.8578 2.71029 22.5303 2.97012 22.5282 3.48134C22.5219 4.26928 22.5367 5.05934 22.524 5.84729C22.5092 6.74931 21.7318 7.52247 20.8298 7.57951C19.9405 7.63443 18.9075 6.87395 18.9328 5.72688C18.9497 4.98118 18.9392 4.2376 18.9307 3.4919C18.9265 3.06729 18.692 2.81169 18.3266 2.80957C17.9505 2.80535 17.733 3.03983 17.7308 3.48345C17.7245 4.29041 17.7118 5.09737 17.7308 5.90222C17.7646 7.23095 18.635 8.33577 19.9193 8.697C20.082 8.74347 20.1221 8.81952 20.12 8.97162C20.1137 9.48072 20.1179 9.98771 20.1179 10.4968H20.12ZM20.1348 4.58826C20.1348 4.58826 20.1433 4.58826 20.1454 4.58826C20.1454 5.00864 20.1327 5.42902 20.1496 5.84729C20.1644 6.18529 20.3756 6.36484 20.7136 6.37329C21.0474 6.38174 21.3072 6.18529 21.3157 5.85152C21.3368 5.01287 21.3389 4.17211 21.3241 3.33135C21.3178 2.99758 21.0643 2.79267 20.7348 2.79267C20.3947 2.79267 20.1496 3.00603 20.1369 3.35248C20.1221 3.76229 20.1327 4.17422 20.1327 4.58615L20.1348 4.58826Z" fill="#AD172A"/>
<path d="M8.54797 35.1872C8.93033 35.1872 9.28734 35.1872 9.64645 35.1872C13.0665 35.1872 16.4866 35.1893 19.9067 35.1851C20.0862 35.1851 20.139 35.2464 20.1348 35.4112C20.1264 35.8315 20.1243 36.2519 20.1243 36.6744C20.1221 41.0155 20.12 45.3566 20.1221 49.6977C20.1221 49.8731 20.1243 49.9935 19.8834 49.9935C16.138 49.9871 12.3948 49.9892 8.64937 49.9892C8.62402 49.9892 8.59867 49.9829 8.55009 49.9766V35.1915L8.54797 35.1872ZM10.5252 44.1948H10.5316C10.5316 44.4842 10.5168 44.7736 10.5358 45.0609C10.5569 45.382 10.8125 45.5974 11.14 45.5996C11.4632 45.5996 11.7272 45.3777 11.7357 45.0609C11.7484 44.4926 11.7526 43.9223 11.7315 43.354C11.7188 42.997 11.4653 42.8111 11.085 42.8174C10.7365 42.8238 10.5464 43.0118 10.5316 43.3815C10.521 43.6519 10.5316 43.9244 10.5316 44.1969L10.5252 44.1948Z" fill="#1568A8"/>
<path d="M13.1426 19.198C14.1418 19.198 15.141 19.2043 16.1402 19.1917C16.3598 19.1895 16.4084 19.2719 16.4063 19.4663C16.4021 21.0696 16.4296 22.6751 16.3979 24.2785C16.362 26.186 14.8706 27.6204 13.0243 27.5739C11.5793 27.538 10.2717 26.4036 9.95275 24.8932C9.88727 24.5869 9.86192 24.2679 9.85981 23.9553C9.84924 22.447 9.85981 20.9408 9.84924 19.4325C9.84924 19.2212 9.93374 19.1853 10.1154 19.1874C11.1231 19.1938 12.1307 19.1895 13.1383 19.1895C13.1383 19.1938 13.1383 19.1959 13.1383 19.2001L13.1426 19.198Z" fill="#1568A8"/>
<path d="M28.6143 19.2002C29.622 19.2002 30.6317 19.2044 31.6394 19.196C31.84 19.196 31.8928 19.2614 31.8928 19.4537C31.8865 21.0063 31.9034 22.559 31.8865 24.1095C31.8675 25.8777 30.7247 27.2402 29.0368 27.5444C27.7059 27.7852 26.3265 27.01 25.6864 25.6664C25.4351 25.1404 25.3421 24.5849 25.34 24.0081C25.3358 22.483 25.3358 20.9578 25.3315 19.4304C25.3315 19.2593 25.3653 19.1854 25.566 19.1875C26.5821 19.2002 27.6003 19.1939 28.6164 19.1939C28.6164 19.196 28.6164 19.1981 28.6164 19.2002H28.6143Z" fill="#1568A8"/>
<path d="M5.4215 19.1981C6.39534 19.1981 7.36919 19.2044 8.34092 19.1938C8.58597 19.1917 8.6768 19.253 8.67469 19.5149C8.66413 21.076 8.68525 22.6372 8.66835 24.1983C8.64934 26.1924 7.03753 27.724 5.06238 27.5634C3.78012 27.4599 2.91401 26.7036 2.42181 25.5228C2.20845 25.0137 2.1324 24.4792 2.1324 23.93C2.1324 22.4576 2.13874 20.9831 2.12817 19.5107C2.12817 19.2636 2.18521 19.1833 2.44927 19.1875C3.44001 19.2065 4.43076 19.1938 5.4215 19.1938V19.1981Z" fill="#AD172A"/>
<path d="M36.3311 19.198C37.3218 19.198 38.3104 19.2022 39.3012 19.1938C39.5082 19.1938 39.599 19.2424 39.5969 19.4684C39.5906 21.0359 39.6265 22.6054 39.5864 24.1729C39.5505 25.5924 38.9019 26.6867 37.5922 27.293C35.7311 28.1548 33.9165 27.0374 33.3187 25.4277C33.1666 25.0178 33.0737 24.5615 33.0652 24.1243C33.0356 22.5653 33.0568 21.0042 33.0504 19.4452C33.0504 19.255 33.1032 19.1874 33.306 19.1896C34.3137 19.2001 35.3213 19.1938 36.329 19.1938C36.329 19.1938 36.329 19.1959 36.329 19.198H36.3311Z" fill="#AD172A"/>
<path d="M17.5766 19.2086C17.7541 19.2001 17.8998 19.1896 18.0456 19.1896C19.9996 19.1896 21.9558 19.1938 23.9098 19.1875C24.0936 19.1875 24.1358 19.2593 24.1337 19.4177C24.121 21.1183 24.1591 22.8209 24.0809 24.5193C24.0196 25.8565 23.0373 27.3373 21.172 27.5613C19.7377 27.7345 18.2568 26.7564 17.7942 25.2714C17.6632 24.851 17.5914 24.3968 17.583 23.9574C17.5576 22.485 17.5724 21.0126 17.5724 19.5381C17.5724 19.4431 17.5724 19.3459 17.5724 19.2086H17.5766Z" fill="#AD172A"/>
<path d="M44.0627 19.198C45.0619 19.198 46.0611 19.2044 47.0603 19.1938C47.2736 19.1917 47.3328 19.2614 47.3307 19.4621C47.318 21.0845 47.3265 22.7047 47.3011 24.3271C47.2884 25.0897 47.0476 25.8058 46.5681 26.3994C45.9153 27.2064 45.0112 27.5507 43.9909 27.5317C42.153 27.4979 40.8243 26.0952 40.7947 24.1539C40.7694 22.5759 40.7905 20.9979 40.782 19.4198C40.782 19.1896 40.9046 19.1917 41.0651 19.1917C42.0643 19.1938 43.0635 19.1917 44.0627 19.1917V19.2001V19.198Z" fill="#1568A8"/>
<path d="M26.1257 41.9746C26.1257 41.7613 26.1257 41.5627 26.1257 41.3641C26.1257 39.4629 26.1257 37.5596 26.1257 35.6584C26.1257 35.1957 26.1257 35.1915 26.5799 35.1915C31.1471 35.1915 35.7142 35.1915 40.2813 35.1957C40.9383 35.1957 40.9383 35.2021 40.9383 35.8591C40.9383 37.7518 40.9383 39.6467 40.9383 41.5395C40.9383 42.076 40.951 41.9831 40.5095 41.9831C35.7586 41.9894 31.0076 41.9915 26.2567 41.9936C26.2314 41.9936 26.206 41.9873 26.1257 41.9746Z" fill="#1568A8"/>
<path d="M26.937 5.23047C26.9053 4.01792 27.7883 3.15393 28.8382 3.20251C29.8332 3.24687 30.6676 4.24396 30.543 5.24526C30.507 5.54101 30.4627 5.83464 30.4078 6.12616C30.2472 6.97325 29.5628 7.56897 28.7516 7.57953C27.9277 7.59009 27.256 7.02395 27.068 6.1325C26.994 5.78183 26.9644 5.42271 26.9391 5.23047H26.937Z" fill="#1568A8"/>
</svg>
