<svg width="25" height="24" viewBox="0 0 25 24" fill="none" xmlns="http://www.w3.org/2000/svg">
<path d="M19.6909 9.85773C20.9276 9.85773 22.1564 9.85676 23.3842 9.85869C23.5752 9.85869 23.7693 9.85483 23.9554 9.88862C24.5669 9.99771 24.9696 10.4785 24.9971 11.1079C24.999 11.1562 24.999 11.2045 24.999 11.2518C24.999 13.757 24.999 16.2612 25 18.7664C25 19.1526 24.8883 19.4924 24.608 19.7695C23.5057 20.8594 22.4023 21.9494 21.297 23.0374C21.0422 23.2884 20.7286 23.4013 20.371 23.4042C20.2289 23.4052 20.0858 23.4052 19.9438 23.4052C17.2873 23.4052 14.6298 23.4023 11.9733 23.4071C11.5569 23.4071 11.16 23.3704 10.8435 23.077C10.7337 23.1455 10.6377 23.2131 10.5358 23.2681C10.3232 23.383 10.089 23.4062 9.85086 23.4062C7.11304 23.4062 4.37424 23.4062 1.63642 23.4042C1.47768 23.4042 1.31894 23.4042 1.16019 23.3946C0.574217 23.3608 0.102889 22.9293 0.0244973 22.3548C0.00881903 22.2361 0 22.1154 0 21.9957C0 19.3505 0 16.7053 0 14.0601C0 13.5562 0.217536 13.1806 0.648689 12.8968C1.4326 12.3794 2.20084 11.8407 2.97299 11.3068C3.54819 10.909 4.12045 10.5055 4.69271 10.1029C4.87595 9.97454 5.07682 9.89248 5.30024 9.8751C5.40411 9.86738 5.42273 9.82683 5.42273 9.73223C5.41979 7.87673 5.41881 6.02123 5.42273 4.16573C5.42273 3.68882 5.64124 3.33452 6.04496 3.06324C7.03563 2.39711 8.01454 1.71457 8.99639 1.0359C9.36973 0.778135 9.73817 0.516512 10.1086 0.254888C10.3153 0.109113 10.5436 0.0222265 10.7984 0.0116071C10.8915 0.00774553 10.9856 0.00388393 11.0787 0.00388393C13.5725 0.00388393 16.0673 0.00581473 18.5611 0.00195312C18.9727 0.00195312 19.3421 0.0917354 19.638 0.39101C19.8644 0.619809 19.979 0.896879 19.9937 1.2116C20.0055 1.46743 20.0035 1.72423 20.0035 1.98102C20.0035 4.24585 20.0006 6.50972 20.0074 8.77455C20.0084 9.16071 19.9447 9.51404 19.7017 9.8249C19.6949 9.83359 19.6939 9.84614 19.69 9.85966L19.6909 9.85773ZM5.61674 22.5749C7.07287 22.5749 8.52997 22.5749 9.98609 22.5749C10.2281 22.5749 10.378 22.4504 10.4065 22.2139C10.4212 22.0913 10.4153 21.9658 10.4153 21.8422C10.4153 19.2858 10.4153 16.7285 10.4153 14.1721C10.4153 14.0881 10.4123 14.0041 10.4045 13.9201C10.3829 13.7077 10.2536 13.5726 10.038 13.5533C9.87242 13.5388 9.70486 13.5398 9.53827 13.5398C6.82103 13.5378 4.10281 13.5369 1.38557 13.5369C0.981852 13.5369 0.82605 13.6826 0.82605 14.062C0.827029 16.6831 0.828989 19.3032 0.830949 21.9243C0.830949 22.0198 0.828009 22.1173 0.841728 22.212C0.877004 22.4591 1.01909 22.5759 1.2719 22.5759C2.72018 22.5759 4.16846 22.5759 5.61674 22.5759V22.5749ZM16.031 22.5749C17.4627 22.5749 18.8943 22.5749 20.3269 22.5749C20.368 22.5749 20.4082 22.5769 20.4494 22.574C20.6708 22.5605 20.8208 22.4157 20.8296 22.1975C20.8355 22.0575 20.8296 21.9175 20.8296 21.7766C20.8296 19.2482 20.8296 16.7198 20.8296 14.1924C20.8296 14.1007 20.8325 14.008 20.8257 13.9163C20.8129 13.7396 20.6875 13.5948 20.517 13.5581C20.4504 13.5436 20.3798 13.5398 20.3112 13.5398C17.4842 13.5388 14.6572 13.5378 11.8302 13.5388C11.7538 13.5388 11.6754 13.5475 11.6 13.5581C11.403 13.5871 11.2776 13.7097 11.2531 13.9057C11.2394 14.0167 11.2364 14.1296 11.2364 14.2416C11.2364 15.0429 11.2364 15.8442 11.2364 16.6455C11.2364 18.4488 11.2384 20.2512 11.2335 22.0546C11.2335 22.3529 11.3922 22.5836 11.7607 22.5807C13.1845 22.5692 14.6082 22.5759 16.032 22.5759L16.031 22.5749ZM11.0346 12.7327C12.475 12.7327 13.9145 12.7308 15.3549 12.7346C15.6254 12.7346 15.8253 12.6082 15.8243 12.2751C15.8164 9.61831 15.8194 6.96153 15.8194 4.30474C15.8194 3.82011 15.7018 3.70426 15.2079 3.70426C12.7837 3.70426 10.3594 3.7033 7.93517 3.70426C7.49226 3.70426 7.04837 3.70716 6.60644 3.72164C6.384 3.72936 6.24975 3.88866 6.24975 4.11263C6.24975 6.84568 6.24975 9.57776 6.24975 12.3108C6.24975 12.5599 6.38792 12.7047 6.64171 12.7259C6.69463 12.7308 6.74754 12.7317 6.80046 12.7317C8.21248 12.7317 9.62353 12.7317 11.0356 12.7317L11.0346 12.7327ZM16.668 11.6582C16.6944 11.6418 16.7101 11.635 16.7209 11.6244C17.4832 10.8743 18.2446 10.1222 19.0089 9.3731C19.1226 9.26111 19.1755 9.13464 19.1736 8.97535C19.1687 8.53416 19.1716 8.09394 19.1716 7.65275C19.1716 5.60514 19.1716 3.55752 19.1716 1.50991C19.1716 1.4655 19.1677 1.42013 19.1638 1.35351C19.1138 1.3931 19.0854 1.41433 19.0579 1.4375C18.76 1.69913 18.4651 1.96268 18.1652 2.22141C17.6537 2.66163 17.1383 3.09703 16.6239 3.53435C16.5808 3.57104 16.5494 3.59614 16.568 3.67144C16.6141 3.86452 16.665 4.06339 16.665 4.26033C16.6709 6.62074 16.669 8.98114 16.669 11.3406C16.669 11.44 16.669 11.5385 16.669 11.6572L16.668 11.6582ZM24.1661 11.2247C24.1103 11.2662 24.074 11.2894 24.0417 11.3174C23.8633 11.4699 23.6869 11.6244 23.5096 11.7769C22.8874 12.3108 22.2651 12.8456 21.6399 13.3766C21.5723 13.4345 21.5723 13.4818 21.5929 13.562C21.6341 13.728 21.6762 13.8989 21.6762 14.0688C21.6811 16.4688 21.6801 18.8697 21.6801 21.2697C21.6801 21.3402 21.6801 21.4097 21.6801 21.4995C21.7085 21.4773 21.7213 21.4696 21.7321 21.4599C22.4983 20.7069 23.2636 19.9539 24.0299 19.2009C24.1338 19.0985 24.173 18.975 24.173 18.8311C24.17 16.519 24.1691 14.2069 24.1671 11.8947C24.1671 11.6823 24.1671 11.4709 24.1671 11.2257L24.1661 11.2247ZM23.5145 10.6918C23.4302 10.6841 23.3851 10.6754 23.3391 10.6754C21.8712 10.6754 20.4023 10.6735 18.9345 10.6764C18.8806 10.6764 18.8139 10.7025 18.7757 10.7391C18.1251 11.3734 17.4783 12.0115 16.8316 12.6487C16.812 12.668 16.8003 12.6941 16.7718 12.7356C16.8346 12.7356 16.8708 12.7356 16.9071 12.7356C18.0584 12.7356 19.2088 12.7317 20.3602 12.7404C20.5346 12.7414 20.711 12.7945 20.8825 12.8399C20.954 12.8582 20.9981 12.8592 21.0559 12.809C21.8222 12.1448 22.5895 11.4825 23.3577 10.8202C23.3989 10.7845 23.442 10.7507 23.5145 10.6918ZM12.4584 2.87402C12.5495 2.87885 12.6034 2.88367 12.6583 2.88367C13.5451 2.88367 14.4319 2.87692 15.3187 2.88657C15.5058 2.8885 15.694 2.94063 15.8782 2.98697C15.9605 3.00725 16.0114 2.99952 16.0742 2.94546C16.8571 2.26389 17.643 1.58521 18.4279 0.905568C18.4465 0.890122 18.4592 0.867917 18.4798 0.842817C18.4533 0.838955 18.4416 0.836059 18.4298 0.836059C17.348 0.836059 16.2662 0.836059 15.1844 0.837025C15.1442 0.837025 15.0962 0.854402 15.0639 0.878537C14.3887 1.39406 13.7165 1.91152 13.0434 2.428C12.8591 2.56895 12.6749 2.7099 12.4603 2.87402H12.4584ZM7.79113 2.84892C7.79309 2.85761 7.79407 2.86533 7.79603 2.87402C7.84992 2.87692 7.90381 2.88367 7.95771 2.88367C8.97484 2.88367 9.99098 2.8856 11.0071 2.88078C11.0767 2.88078 11.159 2.85085 11.2149 2.80837C12.0321 2.18665 12.8454 1.56011 13.6597 0.935495C13.693 0.910395 13.7254 0.884329 13.7792 0.842817C13.7283 0.83799 13.7087 0.834128 13.6901 0.834128C12.7219 0.834128 11.7548 0.832198 10.7867 0.83799C10.7161 0.83799 10.6358 0.87371 10.576 0.914257C9.84008 1.42109 9.10712 1.93275 8.37318 2.44345C8.17916 2.57861 7.98417 2.71376 7.79015 2.84795L7.79113 2.84892ZM5.47662 12.723C5.46584 12.6497 5.44624 12.5763 5.44428 12.5029C5.43252 11.9874 5.42665 11.4709 5.41489 10.9544C5.41293 10.8617 5.39725 10.77 5.38745 10.6774C5.29338 10.7189 5.18951 10.7459 5.10622 10.8029C4.23706 11.4014 3.37181 12.0038 2.50559 12.6062C2.46051 12.6371 2.41446 12.668 2.36938 12.6989C2.37232 12.7066 2.37428 12.7153 2.37722 12.723H5.47662Z" fill="#AD172A"/>
<path d="M3.35145 19.3031C3.63268 19.3031 3.91293 19.3031 4.19416 19.3031C4.59003 19.305 4.95652 19.6246 4.97807 20.0175C4.99669 20.3573 4.99669 20.6991 4.97807 21.0389C4.95847 21.4154 4.59983 21.7446 4.19906 21.7533C3.62582 21.7649 3.0516 21.7668 2.47837 21.7504C1.9992 21.7369 1.66016 21.3652 1.66016 20.8921C1.66016 20.644 1.66016 20.395 1.66016 20.1469C1.66212 19.6719 2.02566 19.3099 2.50874 19.305C2.78899 19.3021 3.07022 19.305 3.35145 19.305V19.3031ZM4.1628 20.143C4.14614 20.1314 4.1432 20.1266 4.14026 20.1266C3.61602 20.1247 3.09276 20.1218 2.56852 20.1218C2.54598 20.1218 2.50482 20.1536 2.50482 20.171C2.5009 20.422 2.50188 20.672 2.50188 20.9288H4.16378V20.142L4.1628 20.143Z" fill="#AD172A"/>
<path d="M8.54967 19.3031C8.74467 19.3031 8.93967 19.3012 9.13467 19.3031C9.37474 19.306 9.55308 19.4585 9.57072 19.6719C9.58836 19.8968 9.43941 20.0909 9.19248 20.1015C8.76231 20.1198 8.33115 20.1218 7.90098 20.1063C7.65111 20.0976 7.49727 19.8987 7.51392 19.669C7.5296 19.4595 7.71088 19.305 7.95096 19.3021C8.14987 19.2992 8.34977 19.3021 8.54869 19.3021L8.54967 19.3031Z" fill="#AD172A"/>
<path d="M8.54355 21.7562C8.34855 21.7562 8.15257 21.7611 7.95757 21.7553C7.6881 21.7475 7.51172 21.5805 7.5127 21.345C7.5127 21.1162 7.70182 20.9434 7.96639 20.9405C8.35247 20.9356 8.73952 20.9366 9.1256 20.9405C9.35 20.9424 9.52442 21.0795 9.56558 21.2706C9.60281 21.4415 9.5205 21.6191 9.35098 21.7012C9.28435 21.734 9.20399 21.7504 9.12854 21.7533C8.93354 21.7601 8.73855 21.7553 8.54257 21.7553C8.54257 21.7553 8.54257 21.7562 8.54257 21.7572L8.54355 21.7562Z" fill="#AD172A"/>
<path d="M13.7559 21.7553C13.4835 21.7553 13.2111 21.762 12.9387 21.7543C12.4419 21.7398 12.0989 21.4 12.0911 20.9134C12.0862 20.617 12.0822 20.3197 12.1067 20.0253C12.141 19.6111 12.4752 19.3118 12.8985 19.306C13.4678 19.2983 14.0371 19.2993 14.6064 19.306C14.9925 19.3099 15.3639 19.6121 15.4002 19.9915C15.4335 20.3438 15.4354 20.7039 15.4031 21.0563C15.3668 21.4512 15.0004 21.7475 14.5976 21.7562C14.3174 21.762 14.0361 21.7572 13.7559 21.7572V21.7553ZM14.5819 20.9337C14.5849 20.8787 14.5888 20.8275 14.5888 20.7763C14.5868 20.6045 14.5741 20.4317 14.581 20.2599C14.5849 20.1517 14.5565 20.116 14.4408 20.117C13.9656 20.1218 13.4894 20.117 13.0131 20.117C12.9818 20.117 12.9514 20.1228 12.9161 20.1257V20.9337H14.5819Z" fill="#AD172A"/>
<path d="M18.9785 21.7524C18.7669 21.7524 18.5552 21.7572 18.3445 21.7504C18.1681 21.7446 18.0339 21.6635 17.9614 21.4985C17.9006 21.3614 17.9202 21.231 18.0084 21.1123C18.0995 20.9897 18.2328 20.9405 18.3808 20.9385C18.7669 20.9347 19.1539 20.9327 19.54 20.9385C19.8634 20.9443 20.0711 21.2146 19.9721 21.4878C19.9143 21.6471 19.7742 21.7495 19.589 21.7533C19.3861 21.7582 19.1823 21.7543 18.9785 21.7543C18.9785 21.7533 18.9785 21.7514 18.9785 21.7504V21.7524Z" fill="#AD172A"/>
<path d="M18.9817 20.1025C18.7504 20.1025 18.5172 20.117 18.2879 20.0986C18.0684 20.0803 17.9155 19.8862 17.9263 19.6864C17.9381 19.4827 18.1086 19.3099 18.3271 19.306C18.7504 19.2993 19.1737 19.2983 19.5961 19.306C19.8214 19.3099 19.9929 19.4972 19.9939 19.7144C19.9958 19.9287 19.8253 20.1054 19.5912 20.115C19.3883 20.1237 19.1845 20.117 18.9807 20.117C18.9807 20.1121 18.9807 20.1073 18.9807 20.1025H18.9817Z" fill="#AD172A"/>
<path d="M8.75247 11.9004C8.4634 11.9004 8.17433 11.9091 7.88624 11.8985C7.47077 11.883 7.13074 11.5732 7.10331 11.1658C7.08175 10.8433 7.07685 10.516 7.10135 10.1936C7.13564 9.74082 7.48155 9.44927 7.94503 9.44734C8.47418 9.44541 9.00234 9.44541 9.53148 9.44637C10.0146 9.44637 10.3693 9.74854 10.4036 10.2216C10.4271 10.5479 10.4281 10.879 10.4016 11.2053C10.3712 11.576 10.0234 11.8811 9.64319 11.8956C9.34726 11.9072 9.04937 11.8975 8.75247 11.8975C8.75247 11.8975 8.75247 11.8985 8.75247 11.8995V11.9004ZM7.91662 10.267V11.0837H9.56284V10.267H7.91662Z" fill="#AD172A"/>
<path d="M13.9353 11.9004C13.7364 11.9004 13.5375 11.9072 13.3386 11.8985C13.0995 11.8888 12.9368 11.7266 12.928 11.5065C12.9202 11.2941 13.0809 11.1107 13.3219 11.102C13.7433 11.0856 14.1666 11.0827 14.5879 11.0914C14.8339 11.0962 14.9966 11.2758 14.9966 11.4978C14.9966 11.7276 14.8437 11.8898 14.5919 11.9043C14.3734 11.9159 14.1539 11.9072 13.9344 11.9072C13.9344 11.9052 13.9344 11.9033 13.9344 11.9014L13.9353 11.9004Z" fill="#AD172A"/>
<path d="M13.9595 10.2612C13.7645 10.2612 13.5695 10.2612 13.3745 10.2612C13.1227 10.2592 12.9434 10.1048 12.9287 9.8779C12.914 9.65972 13.0717 9.48788 13.3216 9.45795C13.4137 9.44637 13.5078 9.44926 13.6009 9.44926C13.9174 9.44733 14.2349 9.44443 14.5514 9.44733C14.8199 9.45023 14.9963 9.61628 14.9953 9.8557C14.9953 10.0884 14.8052 10.2592 14.5445 10.2612C14.3495 10.2621 14.1545 10.2612 13.9595 10.2612Z" fill="#AD172A"/>
</svg>
