<svg width="29" height="29" viewBox="0 0 29 29" fill="none" xmlns="http://www.w3.org/2000/svg">
<path d="M22.4019 26.0826C21.9219 26.0894 21.5175 25.894 21.1515 25.6093C20.6217 25.1982 20.0964 24.7813 19.5723 24.3634C19.5125 24.3159 19.4752 24.3092 19.4029 24.3408C18.9488 24.5396 18.4947 24.7418 18.0293 24.9135C17.8621 24.9756 17.8136 25.0581 17.7944 25.2196C17.7096 25.9369 17.6283 26.6542 17.5142 27.367C17.3911 28.1373 16.7484 28.727 15.9757 28.8106C15.7622 28.8343 15.5453 28.8365 15.3307 28.8377C14.5988 28.8411 13.8668 28.8411 13.1348 28.8377C12.3294 28.8343 11.6415 28.3678 11.3964 27.6279C11.3071 27.3602 11.2812 27.0699 11.2416 26.7875C11.1659 26.2351 11.0993 25.6816 11.0327 25.127C11.0202 25.0276 10.9784 24.9768 10.8802 24.9383C10.4103 24.752 9.94374 24.5577 9.47948 24.3577C9.38572 24.3171 9.32246 24.3182 9.24113 24.3826C8.67634 24.8254 8.11494 25.2727 7.53885 25.7008C6.88821 26.1843 6.10089 26.2159 5.47397 25.8036C5.38021 25.7426 5.29098 25.6715 5.21191 25.5924C4.58047 24.9632 3.94903 24.334 3.32211 23.7003C2.94257 23.3163 2.73473 22.8588 2.76184 22.3087C2.78104 21.9257 2.92111 21.588 3.15267 21.2875C3.58756 20.7227 4.02471 20.1602 4.46638 19.5999C4.52738 19.5231 4.53302 19.4712 4.49236 19.3785C4.2879 18.9109 4.09249 18.4398 3.90385 17.9666C3.86318 17.8638 3.81461 17.8242 3.70617 17.8107C2.99905 17.726 2.29193 17.639 1.58594 17.5441C0.669844 17.421 0.0169438 16.6743 0.00677751 15.7288C-0.00225917 14.8512 -0.00225917 13.9735 0.00677751 13.0969C0.0158142 12.1492 0.689047 11.4138 1.63338 11.2975C2.31678 11.2139 3.00018 11.1235 3.68358 11.0411C3.80444 11.0264 3.86544 10.9778 3.91288 10.8592C4.09926 10.3848 4.2992 9.91487 4.5014 9.44722C4.53189 9.37606 4.53077 9.33539 4.48219 9.2744C4.0394 8.7096 3.59773 8.14368 3.16284 7.57324C2.56755 6.79157 2.6308 5.83029 3.32211 5.1356C3.92079 4.53353 4.52173 3.93259 5.1238 3.33504C5.82866 2.6347 6.77977 2.56918 7.57161 3.16899C8.1172 3.58242 8.65601 4.00488 9.19369 4.42848C9.30665 4.51771 9.39024 4.52675 9.52805 4.46462C9.97085 4.26356 10.4227 4.08169 10.8768 3.90661C10.9773 3.8682 11.0157 3.82189 11.0281 3.72136C11.1129 3.03231 11.2044 2.34439 11.2902 1.65647C11.4133 0.678254 12.1329 0.0230946 13.1303 0.0106692C13.9978 -0.000626697 14.8665 -0.000626697 15.734 0.0106692C16.6998 0.0230946 17.4159 0.666958 17.5425 1.62372C17.634 2.31163 17.7187 2.99955 17.8 3.6886C17.8147 3.81285 17.8655 3.86933 17.983 3.91564C18.4529 4.09977 18.9194 4.29631 19.3837 4.49625C19.4639 4.53127 19.517 4.53127 19.5847 4.47705C20.0964 4.07266 20.6127 3.67504 21.1221 3.26952C21.4745 2.98938 21.8586 2.78945 22.3183 2.76347C22.8357 2.73523 23.2796 2.91031 23.6445 3.26839C24.2861 3.89983 24.9277 4.53353 25.5523 5.18191C26.1962 5.85175 26.2629 6.74977 25.7195 7.5066C25.3072 8.08043 24.8622 8.63166 24.4228 9.18629C24.329 9.30489 24.3166 9.39413 24.3798 9.53533C24.5764 9.97474 24.756 10.4232 24.9311 10.8716C24.9706 10.9744 25.0226 11.0219 25.1276 11.0343C25.6913 11.1009 26.2538 11.1687 26.8163 11.2421C27.1959 11.2907 27.5856 11.3099 27.9256 11.5166C28.5299 11.8849 28.818 12.4418 28.8293 13.1353C28.844 13.9983 28.8428 14.8625 28.8304 15.7255C28.8157 16.7014 28.1606 17.4232 27.1959 17.5486C26.5215 17.6356 25.8483 17.7226 25.1728 17.8016C25.0327 17.8186 24.9683 17.8773 24.9175 18.0095C24.7413 18.4636 24.5527 18.912 24.3572 19.3571C24.3132 19.4587 24.3188 19.5254 24.3843 19.6101C24.7955 20.1342 25.201 20.6617 25.6133 21.1859C25.8686 21.5101 26.0448 21.8647 26.0742 22.2827C26.1137 22.8385 25.9104 23.305 25.5297 23.6935C24.9153 24.3193 24.294 24.9395 23.6682 25.554C23.3203 25.8951 22.8967 26.0781 22.4031 26.0826H22.4019ZM20.4285 14.4242C20.4557 11.0625 17.6215 8.43737 14.4881 8.40687C11.0824 8.37412 8.45155 11.2195 8.40185 14.3146C8.3465 17.735 11.2044 20.4516 14.4406 20.4403C17.5854 20.429 20.4342 17.8344 20.4285 14.4242Z" fill="#1568A8"/>
</svg>
