<svg width="71" height="71" viewBox="0 0 71 71" fill="none" xmlns="http://www.w3.org/2000/svg">
<path d="M56.9846 35.4996C56.9846 36.5483 56.9846 37.5998 56.9846 38.6485C56.9846 39.4558 56.6399 39.7948 55.8241 39.7977C54.5947 39.7977 53.3681 39.8063 52.1387 39.792C51.8888 39.7891 51.7797 39.8638 51.7136 40.1023C51.366 41.3837 50.8518 42.599 50.1969 43.7539C50.0906 43.9436 50.1136 44.0613 50.2687 44.2136C51.1678 45.1014 52.0612 45.9978 52.9459 46.8999C53.4888 47.4516 53.5118 47.8308 52.9746 48.3767C51.4522 49.9253 49.9183 51.4595 48.3729 52.9851C47.8501 53.4994 47.4738 53.4821 46.951 52.9736C46.072 52.1145 45.1988 51.2526 44.3399 50.3735C44.1245 50.1522 43.955 50.089 43.6678 50.2499C42.5331 50.8906 41.3267 51.3675 40.0743 51.7238C39.856 51.7841 39.7985 51.8789 39.8014 52.0944C39.81 53.3356 39.8072 54.5767 39.8043 55.815C39.8043 56.631 39.4653 56.9757 38.6582 56.9757C36.5584 56.9757 34.4586 56.9757 32.3588 56.9757C31.5718 56.9757 31.2184 56.6281 31.2156 55.8438C31.2127 54.6026 31.207 53.3614 31.2213 52.1232C31.2242 51.8703 31.1409 51.7669 30.9082 51.7037C29.6529 51.356 28.4551 50.8561 27.3176 50.2241C27.0993 50.1034 26.9614 50.135 26.792 50.3074C25.9819 51.1319 25.1575 51.945 24.3389 52.7638C24.2556 52.8472 24.1723 52.9334 24.0832 53.0138C23.592 53.4563 23.1755 53.4821 22.6987 53.0253C21.8254 52.195 20.9781 51.3388 20.1249 50.4884C19.447 49.8161 18.7777 49.138 18.1027 48.4629C17.5052 47.8682 17.4937 47.4343 18.0855 46.8482C18.9558 45.9805 19.8262 45.1158 20.7109 44.2625C20.8948 44.0843 20.9407 43.9493 20.8086 43.7166C20.1508 42.5645 19.6481 41.3434 19.2977 40.062C19.2373 39.8408 19.1339 39.792 18.9242 39.792C17.6833 39.8006 16.4424 39.7977 15.2015 39.7948C14.3886 39.7948 14.041 39.4501 14.041 38.6456C14.041 36.5339 14.041 34.4222 14.041 32.3105C14.041 31.5664 14.3972 31.2101 15.1354 31.2073C16.3878 31.2044 17.6402 31.1987 18.8926 31.213C19.1425 31.2159 19.2431 31.1383 19.3091 30.8999C19.6625 29.6443 20.1479 28.4434 20.7971 27.3143C20.9292 27.0816 20.9091 26.9379 20.7253 26.7569C19.8664 25.9122 19.019 25.0589 18.1659 24.2056C18.0998 24.1395 18.0338 24.0677 17.9706 23.9959C17.5598 23.5132 17.5541 23.1254 17.9964 22.6714C18.7864 21.8583 19.5935 21.0654 20.3949 20.2638C21.136 19.5225 21.8743 18.7755 22.624 18.04C23.164 17.5114 23.5604 17.4999 24.1062 18.0285C24.988 18.8847 25.8527 19.7553 26.7115 20.6373C26.9356 20.8671 27.0936 20.8959 27.4067 20.7522C28.5212 20.2465 29.6529 19.7782 30.7962 19.3444C31.1208 19.2209 31.2328 19.1002 31.2271 18.7554C31.2041 17.5516 31.2156 16.3449 31.2184 15.1411C31.2184 14.3769 31.5689 14.0292 32.3387 14.0264C34.4615 14.0264 36.5842 14.0264 38.707 14.0264C39.4424 14.0264 39.8014 14.3884 39.8043 15.1296C39.8072 16.3708 39.81 17.6119 39.8014 18.8502C39.8014 19.0858 39.8474 19.2151 40.0973 19.2841C41.3727 19.6489 42.5963 20.1402 43.7539 20.7924C43.9349 20.893 44.0527 20.8844 44.2107 20.7235C45.104 19.8098 46.0088 18.9134 46.9165 18.0142C47.4221 17.5114 47.8616 17.4999 48.37 18.0056C49.9011 19.5283 51.4263 21.0539 52.9459 22.591C53.5089 23.1598 53.5031 23.5563 52.9401 24.128C52.0784 25.0043 51.2109 25.872 50.3319 26.731C50.1395 26.9178 50.0878 27.0557 50.2314 27.3057C50.8806 28.4491 51.3746 29.6616 51.7308 30.9257C51.7969 31.1584 51.9118 31.2101 52.133 31.2101C53.3739 31.2015 54.6148 31.2044 55.8557 31.2073C56.637 31.2073 56.9846 31.5607 56.9875 32.3479C56.9875 33.3965 56.9875 34.4481 56.9875 35.4967L56.9846 35.4996ZM35.2686 45.5065C40.2696 45.811 45.239 41.5963 45.5349 36.1432C45.848 30.3712 41.4473 25.7082 35.9896 25.4841C29.9948 25.2371 25.7923 29.8885 25.4965 34.8704C25.1374 40.8694 29.9316 45.4749 35.2715 45.5036L35.2686 45.5065Z" fill="#AD172A"/>
<path d="M-0.00406163 35.442C0.15967 27.1129 2.73054 19.6372 7.97856 13.1298C9.97206 10.6589 12.227 8.4438 14.838 6.62515C18.9945 3.73485 23.533 1.7036 28.5139 0.715268C31.0704 0.209609 33.6499 -0.0575853 36.261 -0.000124092C38.401 0.0487179 40.5151 0.321659 42.6063 0.749745C47.9261 1.83289 52.7318 4.05376 57.029 7.35778C58.1608 8.22832 59.2178 9.19654 60.2893 10.1418C60.5334 10.3573 60.6598 10.3716 60.8896 10.1274C61.5474 9.43501 62.2368 8.77708 62.9061 8.09616C63.1876 7.80885 63.4864 7.59338 63.9144 7.73128C64.351 7.87206 64.4946 8.22832 64.5635 8.63342C64.8508 10.2653 65.1352 11.8943 65.4253 13.5262C65.7499 15.3564 66.0802 17.1837 66.3962 19.0167C66.4364 19.258 66.4508 19.5223 66.3933 19.7579C66.3014 20.1285 65.9423 20.3325 65.4799 20.2664C64.621 20.1429 63.765 19.982 62.909 19.8326C60.2002 19.3586 57.4886 18.8816 54.7799 18.399C54.619 18.3702 54.4495 18.33 54.3059 18.2524C53.763 17.9565 53.6797 17.3733 54.1221 16.8992C54.596 16.3936 55.093 15.9138 55.5813 15.4253C55.8341 15.1725 56.0754 14.9053 56.3454 14.6726C56.5263 14.5146 56.4919 14.4169 56.3454 14.2704C54.349 12.3368 52.1774 10.6388 49.7243 9.31434C46.4928 7.56752 43.063 6.41255 39.4207 5.9701C31.8977 5.05934 24.9406 6.63665 18.6527 10.9175C15.3924 13.1384 12.7268 15.9511 10.5494 19.2494C8.43241 22.4586 7.0249 25.9407 6.27805 29.6958C5.66334 32.7815 5.57142 35.8959 5.92761 39.0218C5.96782 39.3637 6.01378 39.7085 6.02815 40.0532C6.09134 41.5702 5.0199 42.8114 3.49462 43.0039C2.11583 43.1791 0.711186 42.1793 0.44979 40.7514C0.133817 39.0017 -0.0356589 37.2319 -0.00406163 35.442Z" fill="#1568A8"/>
<path d="M10.4258 60.6069C9.75079 61.2792 9.093 61.9371 8.4352 62.5893C8.27434 62.7502 8.11348 62.9111 7.944 63.0605C7.41547 63.5288 6.68873 63.3277 6.525 62.6353C6.34691 61.8711 6.22913 61.0925 6.09126 60.3196C5.60006 57.5414 5.10599 54.7602 4.63204 51.9791C4.58608 51.7004 4.60044 51.3729 4.70959 51.1201C4.85034 50.7868 5.1893 50.6776 5.55697 50.7379C6.59107 50.9132 7.62516 51.0856 8.65638 51.2666C11.0606 51.6889 13.4649 52.1113 15.8692 52.5365C16.0789 52.5738 16.2914 52.6112 16.4954 52.6715C17.1503 52.8698 17.3686 53.476 16.9349 54.0075C16.5528 54.4787 16.1076 54.8981 15.6853 55.3348C15.3521 55.6767 15.016 56.0158 14.6714 56.3462C14.5191 56.4927 14.5105 56.5818 14.6771 56.7484C18.6354 60.6759 23.3462 63.2444 28.7637 64.5171C31.8028 65.2297 34.885 65.3963 37.9988 65.1722C41.6956 64.905 45.1886 63.9196 48.5178 62.325C52.1716 60.5753 55.2624 58.0959 57.9481 55.0734C61.3204 51.281 63.4834 46.8852 64.5979 41.9607C65.2902 38.9009 65.4338 35.8009 65.158 32.6808C65.1092 32.1119 65.0144 31.543 64.9914 30.9742C64.9254 29.4543 66.0026 28.1959 67.5049 28.0063C68.9239 27.8253 70.3084 28.782 70.5583 30.2645C70.791 31.6465 70.9547 33.0543 70.9892 34.4563C71.1414 40.8058 69.6994 46.7904 66.6919 52.39C65.3074 54.9671 63.6012 57.3173 61.6622 59.495C60.4156 60.8942 59.0483 62.1785 57.5603 63.3191C52.9328 66.8731 47.7795 69.2836 42.026 70.3581C38.6767 70.9844 35.3101 71.1999 31.9177 70.8034C26.1412 70.1282 20.807 68.2464 15.9295 65.0544C14.0653 63.8334 12.3418 62.4514 10.7504 60.8971C10.6499 60.7994 10.5407 60.7132 10.4201 60.6069H10.4258Z" fill="#1568A8"/>
<path d="M27.2099 35.3815C27.3679 30.7042 30.901 27.2507 35.5142 27.2364C40.5066 27.222 43.8186 31.2673 43.7784 35.5194C43.7353 40.191 40.2883 43.7392 35.5659 43.768C30.5879 43.7996 27.3047 39.9813 27.207 35.3786L27.2099 35.3815ZM30.6425 35.5079C30.5247 38.154 33.0152 40.4007 35.5286 40.4007C38.0104 40.4007 40.4434 38.1597 40.3975 35.5165C40.3515 32.8216 38.2488 30.6869 35.5889 30.6208C32.8457 30.5519 30.5161 33.0141 30.6396 35.5079H30.6425Z" fill="#1568A8"/>
</svg>
