<svg width="26" height="26" viewBox="0 0 26 26" fill="none" xmlns="http://www.w3.org/2000/svg">
<rect width="26.0011" height="26" rx="3" fill="#1568A8"/>
<path d="M17.4291 19.47C17.1628 19.4738 16.9384 19.3654 16.7353 19.2074C16.4414 18.9793 16.15 18.748 15.8592 18.5162C15.826 18.4898 15.8053 18.4861 15.7652 18.5036C15.5132 18.6139 15.2613 18.7261 15.0031 18.8214C14.9103 18.8558 14.8834 18.9016 14.8727 18.9912C14.8257 19.3892 14.7806 19.7871 14.7173 20.1826C14.649 20.61 14.2924 20.9372 13.8637 20.9835C13.7452 20.9967 13.6249 20.998 13.5058 20.9986C13.0997 21.0005 12.6936 21.0005 12.2875 20.9986C11.8406 20.9967 11.459 20.7379 11.323 20.3274C11.2735 20.1788 11.2591 20.0178 11.2371 19.8611C11.1951 19.5546 11.1581 19.2475 11.1212 18.9398C11.1143 18.8847 11.0911 18.8565 11.0366 18.8352C10.7758 18.7317 10.517 18.6239 10.2594 18.513C10.2074 18.4905 10.1723 18.4911 10.1272 18.5268C9.81383 18.7725 9.50236 19.0207 9.18273 19.2582C8.82174 19.5264 8.38491 19.544 8.03708 19.3152C7.98507 19.2814 7.93556 19.2419 7.89169 19.198C7.54135 18.8489 7.19101 18.4999 6.84318 18.1483C6.63261 17.9352 6.51729 17.6814 6.53233 17.3761C6.54298 17.1637 6.6207 16.9763 6.74917 16.8096C6.99046 16.4962 7.233 16.1841 7.47805 15.8733C7.51189 15.8307 7.51503 15.8018 7.49246 15.7504C7.37903 15.491 7.27061 15.2296 7.16594 14.967C7.14338 14.91 7.11643 14.8881 7.05627 14.8806C6.66394 14.8335 6.27161 14.7853 5.87991 14.7326C5.37164 14.6643 5.0094 14.2501 5.00376 13.7255C4.99875 13.2385 4.99875 12.7516 5.00376 12.2652C5.00877 11.7394 5.3823 11.3314 5.90624 11.2669C6.2854 11.2205 6.66457 11.1704 7.04373 11.1246C7.11079 11.1165 7.14464 11.0895 7.17096 11.0237C7.27437 10.7605 7.3853 10.4998 7.49748 10.2403C7.5144 10.2008 7.51377 10.1783 7.48682 10.1444C7.24115 9.83107 6.9961 9.51708 6.75482 9.20059C6.42453 8.7669 6.45963 8.23356 6.84318 7.84813C7.17534 7.51409 7.50876 7.18067 7.8428 6.84914C8.23387 6.46057 8.76157 6.42422 9.2009 6.75701C9.50361 6.98639 9.80255 7.22078 10.1009 7.4558C10.1635 7.50531 10.2099 7.51033 10.2864 7.47586C10.5321 7.3643 10.7827 7.2634 11.0347 7.16626C11.0905 7.14495 11.1118 7.11925 11.1187 7.06347C11.1657 6.68118 11.2164 6.2995 11.2641 5.91783C11.3324 5.37509 11.7316 5.01159 12.285 5.0047C12.7663 4.99843 13.2483 4.99843 13.7296 5.0047C14.2654 5.01159 14.6628 5.36882 14.733 5.89966C14.7837 6.28133 14.8307 6.663 14.8759 7.0453C14.884 7.11424 14.9122 7.14558 14.9774 7.17127C15.2381 7.27343 15.4969 7.38248 15.7545 7.4934C15.799 7.51283 15.8285 7.51283 15.8661 7.48275C16.15 7.25838 16.4364 7.03778 16.719 6.81279C16.9146 6.65736 17.1277 6.54643 17.3827 6.53202C17.6698 6.51635 17.9161 6.61349 18.1185 6.81216C18.4745 7.1625 18.8305 7.51409 19.177 7.87382C19.5343 8.24547 19.5712 8.74371 19.2698 9.16361C19.041 9.48199 18.7941 9.78783 18.5503 10.0955C18.4983 10.1614 18.4914 10.2109 18.5265 10.2892C18.6355 10.533 18.7352 10.7818 18.8323 11.0306C18.8543 11.0876 18.8831 11.114 18.9414 11.1209C19.2541 11.1578 19.5662 11.1954 19.8783 11.2362C20.0889 11.2631 20.3051 11.2738 20.4938 11.3885C20.8291 11.5928 20.9889 11.9018 20.9951 12.2866C21.0033 12.7654 21.0027 13.2448 20.9958 13.7236C20.9876 14.2651 20.6241 14.6656 20.0889 14.7352C19.7148 14.7834 19.3412 14.8317 18.9665 14.8755C18.8887 14.8849 18.853 14.9175 18.8248 14.9909C18.727 15.2428 18.6224 15.4916 18.514 15.7385C18.4895 15.7949 18.4927 15.8319 18.529 15.8789C18.7571 16.1697 18.9821 16.4624 19.2109 16.7532C19.3525 16.9331 19.4503 17.1298 19.4666 17.3617C19.4885 17.6701 19.3757 17.9289 19.1645 18.1445C18.8236 18.4917 18.4789 18.8358 18.1317 19.1767C17.9386 19.366 17.7036 19.4675 17.4297 19.47H17.4291ZM16.3342 13.0016C16.3493 11.1365 14.7768 9.68003 13.0383 9.66311C11.1487 9.64493 9.68912 11.2236 9.66154 12.9409C9.63083 14.8386 11.2164 16.3458 13.012 16.3396C14.7568 16.3333 16.3374 14.8937 16.3342 13.0016Z" fill="white"/>
</svg>
