<svg width="29" height="29" viewBox="0 0 29 29" fill="none" xmlns="http://www.w3.org/2000/svg">
<path d="M14.4197 5.62308C14.5034 5.49884 14.578 5.39055 14.6492 5.28112C15.4149 4.12417 16.1817 2.96836 16.9439 1.80912C17.3533 1.18562 17.6146 1.08645 18.3135 1.32012C21.3421 2.33232 24.3696 3.34565 27.3983 4.35784C27.6833 4.45245 27.9683 4.54478 28.251 4.64508C28.5767 4.76021 28.7633 4.99958 28.8289 5.33698C28.8719 5.55697 28.7905 5.74961 28.6751 5.92514C28.2985 6.50191 27.914 7.07298 27.5317 7.64633C27.0737 8.33252 26.6146 9.01871 26.1531 9.70377C25.9903 9.94656 25.8263 10.1893 25.6499 10.4219C25.5752 10.521 25.5831 10.5872 25.6476 10.6829C26.3533 11.7259 27.0556 12.7723 27.7591 13.8164C28.0282 14.2153 28.2985 14.6131 28.5665 15.0132C28.6299 15.1067 28.6864 15.2047 28.7407 15.3039C28.9952 15.7678 28.6943 16.2853 28.3279 16.4266C28.0305 16.5406 27.7274 16.6398 27.4254 16.7412C24.3663 17.7648 21.3059 18.7873 18.2468 19.8109C17.929 19.9169 17.6112 19.9773 17.3239 19.7459C17.2086 19.6524 17.1068 19.535 17.0242 19.4119C16.2835 18.3017 15.5483 17.1881 14.811 16.0744C14.6866 15.8863 14.5622 15.6971 14.4242 15.4863C14.3586 15.5797 14.2975 15.6595 14.2432 15.7427C13.4991 16.8678 12.7561 17.9939 12.0108 19.119C11.9067 19.2763 11.8015 19.4336 11.6839 19.5806C11.4555 19.8656 11.1558 19.9784 10.8052 19.8701C10.2092 19.6866 9.61884 19.4872 9.02736 19.2888C6.37193 18.402 3.71649 17.5141 1.06105 16.6261C0.883494 16.5668 0.703675 16.511 0.530642 16.438C0.0454703 16.2329 -0.149051 15.7085 0.120112 15.256C0.382489 14.8149 0.684449 14.3966 0.970576 13.9702C1.70455 12.8771 2.4374 11.7851 3.17703 10.6954C3.25167 10.586 3.24602 10.5119 3.1759 10.4082C2.38764 9.2444 1.60277 8.07833 0.816769 6.91226C0.605284 6.5988 0.393799 6.28648 0.184575 5.97302C0.00136378 5.69717 -0.0721471 5.40879 0.0805293 5.09077C0.193623 4.85368 0.384751 4.71006 0.62451 4.62913C1.43313 4.3567 2.24288 4.08769 3.05263 3.81755C5.55426 2.98089 8.0525 2.14424 10.5519 1.30872C10.6537 1.27453 10.7577 1.24147 10.8629 1.22096C11.1852 1.1594 11.4645 1.24489 11.667 1.5082C11.8343 1.72363 11.9814 1.95502 12.1329 2.18299C12.8737 3.29891 13.6133 4.41711 14.3529 5.53303C14.3688 5.55697 14.3857 5.57863 14.4185 5.62308H14.4197ZM21.8375 10.5792C21.8375 10.5655 21.8375 10.5518 21.8375 10.5393C21.8103 10.5245 21.7855 10.5062 21.7572 10.4971C19.3517 9.69009 16.9462 8.88193 14.5395 8.07947C14.4626 8.05326 14.362 8.05667 14.284 8.08289C12.1307 8.801 9.97961 9.52253 7.82744 10.2441C7.54923 10.3375 7.27102 10.431 6.99281 10.5256C6.98942 10.5381 6.98716 10.5507 6.98376 10.5621C7.04823 10.5894 7.11156 10.6202 7.17715 10.6419C9.49331 11.4215 11.8106 12.1978 14.1245 12.982C14.3281 13.0504 14.5056 13.0515 14.7081 12.982C16.9258 12.232 19.1447 11.4876 21.3636 10.7422C21.5219 10.6886 21.6791 10.6328 21.8375 10.578V10.5792Z" fill="#AD172A"/>
<path d="M3.43904 19.233C3.48541 19.2455 3.52499 19.2546 3.56232 19.2672C5.59348 19.9499 7.62464 20.635 9.65693 21.3121C10.0109 21.4295 10.3728 21.5514 10.7415 21.5982C11.7243 21.7247 12.525 21.3622 13.1029 20.5563C13.5372 19.9511 13.933 19.3185 14.3458 18.6984C14.3639 18.671 14.382 18.6437 14.4125 18.5969C14.451 18.6505 14.4826 18.6938 14.512 18.7383C14.883 19.2968 15.2471 19.8587 15.6237 20.4127C16.3645 21.5013 17.4728 21.882 18.7135 21.4682C20.8883 20.7421 23.0608 20.0092 25.2344 19.2786C25.2819 19.2626 25.3306 19.2512 25.3939 19.233C25.3973 19.2945 25.4007 19.339 25.4007 19.3846C25.4007 20.9416 25.4018 22.4987 25.403 24.0557C25.403 24.5652 25.1858 24.8604 24.6701 25.0337C23.4623 25.4418 22.2522 25.8464 21.0432 26.2522C18.9725 26.9487 16.9006 27.6428 14.831 28.3438C14.5516 28.4384 14.2881 28.443 14.0076 28.3484C10.7415 27.2473 7.47309 26.1508 4.20582 25.0508C4.0735 25.0063 3.94118 24.9493 3.82243 24.8775C3.60529 24.7453 3.48202 24.5424 3.45262 24.2871C3.43791 24.156 3.43 24.0226 3.43 23.8904C3.42773 22.371 3.42773 20.8516 3.42773 19.3321C3.42773 19.3048 3.43226 19.2763 3.43565 19.233H3.43904Z" fill="#1568A8"/>
</svg>
