<svg width="18" height="19" viewBox="0 0 18 19" fill="none" xmlns="http://www.w3.org/2000/svg">
<path fill-rule="evenodd" clip-rule="evenodd" d="M9 18.5C13.9706 18.5 18 14.4706 18 9.5C18 4.52944 13.9706 0.5 9 0.5C4.02944 0.5 0 4.52944 0 9.5C0 14.4706 4.02944 18.5 9 18.5ZM14.634 6.95354C15.035 6.55258 15.035 5.9025 14.634 5.50154C14.2331 5.10058 13.583 5.10058 13.182 5.50154L7.15803 11.5255L4.81585 9.18336C4.41489 8.78239 3.7648 8.7824 3.36384 9.18336C2.96288 9.58432 2.96288 10.2344 3.36384 10.6354L6.43202 13.7035C6.83298 14.1045 7.48307 14.1045 7.88403 13.7035L14.634 6.95354Z" fill="#3EC775"/>
</svg>
