<svg width="70" height="28" viewBox="0 0 70 28" fill="none" xmlns="http://www.w3.org/2000/svg">
<path fill-rule="evenodd" clip-rule="evenodd" d="M3.41348 0.00184734H13.9289C13.9289 0.00184734 14.7501 -0.139549 15.8838 2.05173L21.267 11.6001C21.267 11.6001 21.9582 12.84 22.9356 12.9372H25.7705L22.3924 17.4446L20.5437 17.4454C20.5437 17.4454 19.0431 17.461 17.8868 15.1594L12.4466 5.34859C12.4466 5.34859 12.0684 4.50971 10.9123 4.56109H0L3.41348 0.00184734Z" fill="white"/>
<path fill-rule="evenodd" clip-rule="evenodd" d="M6.07031 5.40137H11.462L17.8307 16.6868C17.8307 16.6868 18.3802 17.9825 19.8841 18.2784L21.7659 18.2793L18.7059 22.3689H16.7354C16.7354 22.3689 15.453 22.4248 14.6036 20.7671L6.07031 5.40137Z" fill="white"/>
<path fill-rule="evenodd" clip-rule="evenodd" d="M0 5.37598H5.19876L14.5018 22.0805C14.5018 22.0805 14.9205 23.0371 15.9555 23.1355H18.1338L14.8712 27.4986L13.0215 27.4985C13.0215 27.4985 12.1502 27.4995 11.3835 25.9998L0 5.37598Z" fill="white"/>
<path fill-rule="evenodd" clip-rule="evenodd" d="M55.5208 12.937H44.1924C44.1924 12.937 42.9178 12.8773 41.9952 14.113L33.1483 25.9455C33.1483 25.9455 31.8155 27.4982 34.1891 27.4982H44.642L47.9986 23.0353L43.1859 23.0348C43.1859 23.0348 42.1796 23.1377 42.8125 22.2918L46.1874 17.7591C46.1874 17.7591 46.486 17.445 47.5123 17.445H52.1609L55.5208 12.937Z" fill="white"/>
<path fill-rule="evenodd" clip-rule="evenodd" d="M60.4808 17.4652L60.7465 17.0999L59.3654 17.1009C59.3654 17.1009 59.1491 17.0551 58.8441 17.4729C58.8441 17.4729 58.2817 18.1928 58.8455 18.1938L63.4344 18.1943C63.4344 18.1943 64.8329 18.1436 64.0431 19.1969L58.5432 26.5501C58.5432 26.5501 57.9992 27.5376 56.3046 27.5376H47.726C47.726 27.5376 46.0755 27.4009 46.716 26.4232L49.2476 23.0354H54.6521L54.2743 23.5936H55.7271C55.7271 23.5936 55.8624 23.6312 56.1653 23.21C56.1653 23.21 56.9301 22.3033 56.4117 22.2792H51.2827C51.2827 22.2792 50.1019 22.0835 50.6268 21.1041L56.309 13.609C56.309 13.609 56.7025 12.9198 57.6271 12.9201H66.9555C66.9555 12.9201 68.7636 12.8766 67.8167 14.1606L65.338 17.4637L60.4808 17.4652Z" fill="white"/>
<path fill-rule="evenodd" clip-rule="evenodd" d="M27.0145 12.9375L23.6346 17.4458H27.7752L20.2637 27.4895H26.6212L34.1328 17.4458H38.2894L41.6589 12.939L27.0145 12.9375Z" fill="white"/>
<path fill-rule="evenodd" clip-rule="evenodd" d="M67.4324 9.56397C67.1657 9.83081 67.0324 10.1534 67.0324 10.5312C67.0324 10.912 67.165 11.2367 67.4303 11.5051C67.697 11.7734 68.021 11.9076 68.4022 11.9076C68.7833 11.9076 69.1073 11.7734 69.3741 11.5051C69.6408 11.2367 69.7741 10.9122 69.7742 10.5312C69.7742 10.1532 69.6408 9.83081 69.3741 9.56397C69.106 9.29559 68.782 9.16147 68.4022 9.16147C68.0238 9.16147 67.7005 9.29559 67.4324 9.56397ZM69.5327 11.6588C69.2209 11.9704 68.8442 12.1262 68.4021 12.1262C67.96 12.1262 67.5838 11.9704 67.2737 11.6588C66.965 11.3487 66.8105 10.9728 66.8105 10.5314C66.8105 10.0943 66.9664 9.72063 67.278 9.41039C67.5881 9.10169 67.9628 8.94741 68.4021 8.94727C68.8441 8.94727 69.2209 9.10169 69.5327 9.41039C69.8444 9.71923 70 10.0927 70.0002 10.5314C70.0002 10.9714 69.8444 11.3471 69.5327 11.6588ZM68.7021 9.92965C68.6252 9.88639 68.5013 9.86469 68.3304 9.86469H68.0673V10.4966H68.3457C68.4761 10.4966 68.574 10.4836 68.6391 10.4577C68.7594 10.4101 68.8196 10.3193 68.8196 10.185C68.8196 10.0582 68.7804 9.97305 68.7021 9.92965ZM68.3717 9.65483C68.5891 9.65483 68.7486 9.67583 68.8501 9.71755C69.0312 9.79259 69.1217 9.93973 69.1218 10.159C69.1218 10.3148 69.0645 10.4294 68.9502 10.5031C68.8893 10.542 68.8044 10.5701 68.6958 10.5875C68.8334 10.6091 68.9342 10.6662 68.998 10.7584C69.0617 10.8508 69.0937 10.941 69.0937 11.0289V11.1566C69.0937 11.1971 69.0951 11.2403 69.098 11.2865C69.1008 11.3327 69.106 11.363 69.1133 11.3774L69.1242 11.3991H68.8349C68.8334 11.3933 68.832 11.3876 68.8306 11.3817C68.8291 11.376 68.8277 11.3694 68.8263 11.3623L68.8197 11.306V11.1675C68.8197 10.9655 68.7645 10.8322 68.6545 10.7671C68.5892 10.7297 68.4747 10.7108 68.3109 10.7108H68.0675V11.3991H67.7588V9.65483H68.3717Z" fill="white"/>
</svg>
