<svg width="17" height="17" viewBox="0 0 17 17" fill="none" xmlns="http://www.w3.org/2000/svg">
<path d="M13.2727 1H3.72727C2.22104 1 1 2.11929 1 3.5V13.5C1 14.8807 2.22104 16 3.72727 16H13.2727C14.779 16 16 14.8807 16 13.5V3.5C16 2.11929 14.779 1 13.2727 1Z" fill="white"/>
<path d="M13.75 1H3.25C2.00736 1 1 1.91578 1 3.04545V13.9545C1 15.0842 2.00736 16 3.25 16H13.75C14.9926 16 16 15.0842 16 13.9545V3.04545C16 1.91578 14.9926 1 13.75 1Z" stroke="#707070"/>
<path d="M5 8.5L7.66667 12L13 5" stroke="#3D3D3D" stroke-width="2" stroke-linecap="round" stroke-linejoin="round"/>
</svg>
