<svg width="22" height="22" viewBox="0 0 22 22" fill="none" xmlns="http://www.w3.org/2000/svg">
<path d="M9.5488 13.1839C9.4761 13.1838 9.40376 13.1737 9.33381 13.1539L1.0898 10.7539C0.878051 10.6872 0.700101 10.5416 0.592855 10.3472C0.485609 10.1528 0.457302 9.92461 0.513807 9.70992L1.11381 7.2709C1.15478 7.08913 1.25623 6.92665 1.40156 6.81003C1.54688 6.69341 1.72747 6.62955 1.9138 6.62891C1.98684 6.62889 2.05953 6.63898 2.1298 6.65891L10.3708 9.05891C10.5458 9.11459 10.6985 9.22479 10.8064 9.3734C10.9144 9.52201 10.972 9.70124 10.9708 9.88492C10.9708 9.95842 10.9617 10.0316 10.9438 10.1029L10.3438 12.5429C10.3178 12.6525 10.27 12.7558 10.2034 12.8467C10.1367 12.9376 10.0525 13.0141 9.9558 13.0719C9.83193 13.1462 9.69026 13.1856 9.5458 13.1859L9.5488 13.1839ZM1.9548 7.51691L1.36081 9.9239L9.5188 12.2989L10.1018 9.88492L7.84781 9.23691L1.9548 7.51691Z" fill="white"/>
<path d="M1.91468 7.49995C1.72754 7.4984 1.54646 7.43335 1.40112 7.31544C1.25578 7.19753 1.15478 7.03376 1.11468 6.85095L0.514683 4.41395C0.459129 4.19967 0.488034 3.97225 0.595425 3.77868C0.702815 3.58512 0.880482 3.44022 1.09169 3.37395L9.33068 0.973947C9.4358 0.944015 9.54592 0.935938 9.65428 0.950213C9.76263 0.964488 9.86691 1.00081 9.96068 1.05695C10.0579 1.11544 10.1424 1.19284 10.2093 1.28456C10.2761 1.37628 10.3238 1.48046 10.3497 1.59095L10.9497 4.02995C10.967 4.09997 10.9757 4.17182 10.9757 4.24395C10.9768 4.42749 10.9192 4.60657 10.8112 4.75501C10.7033 4.90345 10.5506 5.01346 10.3757 5.06895L2.13269 7.46895C2.06144 7.4892 1.98875 7.49963 1.91468 7.49995ZM9.50769 1.83295L1.33368 4.21395L1.95568 6.61395L10.1017 4.23795L9.50769 1.83295Z" fill="white"/>
<path d="M19.1617 7.49991C19.089 7.49958 19.0167 7.48949 18.9467 7.46991L10.7057 5.06991C10.5307 5.0141 10.3782 4.90387 10.2703 4.75529C10.1624 4.60671 10.1047 4.42755 10.1057 4.24391C10.1056 4.1704 10.1146 4.09717 10.1327 4.02591L10.7327 1.58591C10.7581 1.4768 10.8049 1.37383 10.8705 1.28301C10.9361 1.19218 11.0191 1.11532 11.1147 1.05691C11.2078 1.0013 11.3112 0.965172 11.4186 0.950732C11.526 0.936293 11.6353 0.943839 11.7397 0.972914L19.9847 3.37291C20.196 3.4394 20.3737 3.58449 20.4811 3.77822C20.5884 3.97194 20.6173 4.19951 20.5617 4.41391L19.9617 6.85591C19.9209 7.03787 19.8196 7.20058 19.6742 7.3174C19.5289 7.43422 19.3482 7.49922 19.1617 7.49991ZM11.5587 1.82891L10.9757 4.23891L19.1217 6.61091L19.7167 4.20091V4.19491L11.5587 1.82891Z" fill="white"/>
<path d="M10.9499 9.89594L10.1029 9.88293L1.89087 7.49693L1.91687 6.62693L10.1299 4.22693L10.9769 4.23993L19.1889 6.62593L19.1629 7.49593C19.1708 7.4972 19.1789 7.4972 19.1869 7.49593L10.9499 9.89594ZM3.52987 7.06393L10.3729 9.05693C10.4306 9.074 10.4863 9.09747 10.5389 9.12693C10.5904 9.09756 10.6451 9.07408 10.7019 9.05693L17.5479 7.06293L10.7019 5.07093C10.6441 5.05387 10.5884 5.03039 10.5359 5.00093C10.4843 5.03031 10.4297 5.05379 10.3729 5.07093L3.52987 7.06393Z" fill="white"/>
<path d="M10.5399 21.923C10.4841 21.923 10.4288 21.9125 10.3769 21.892L1.94091 18.492C1.77001 18.4341 1.62182 18.3236 1.51762 18.1763C1.41342 18.029 1.35856 17.8524 1.36091 17.672V10.504C1.36085 10.4362 1.37659 10.3692 1.40688 10.3085C1.43717 10.2478 1.48117 10.195 1.53541 10.1543C1.58965 10.1135 1.65263 10.0859 1.71937 10.0738C1.78611 10.0616 1.85477 10.0651 1.91991 10.084L9.51991 12.297L10.1029 9.887C10.1029 9.873 10.1029 9.86 10.1029 9.846C10.1104 9.73218 10.1621 9.6258 10.2469 9.54957C10.3317 9.47333 10.443 9.43329 10.557 9.43799C10.6709 9.44269 10.7786 9.49175 10.8568 9.57471C10.9351 9.65768 10.9778 9.76796 10.9759 9.88201V21.482C10.9759 21.5394 10.9646 21.5962 10.9426 21.6492C10.9207 21.7023 10.8885 21.7504 10.8479 21.791C10.8073 21.8316 10.7592 21.8638 10.7061 21.8857C10.6531 21.9077 10.5963 21.919 10.5389 21.919L10.5399 21.923ZM2.23491 11.086V17.671L10.1029 20.838V12.961C10.0593 13.002 10.0113 13.0382 9.95991 13.069C9.86699 13.125 9.7636 13.1613 9.65611 13.1757C9.54862 13.1902 9.4393 13.1824 9.33491 13.153L2.23491 11.086Z" fill="white"/>
<path d="M11.5239 13.1819C11.3799 13.1817 11.2386 13.1427 11.1149 13.0689C11.0176 13.0105 10.933 12.9331 10.8662 12.8414C10.7993 12.7497 10.7516 12.6454 10.7259 12.5349L10.1259 10.0959C10.1085 10.0259 10.0998 9.95402 10.0999 9.88189C10.0988 9.69835 10.1564 9.51927 10.2644 9.37083C10.3723 9.22239 10.5249 9.11238 10.6999 9.05689L18.9419 6.6569C19.0495 6.62893 19.1616 6.62279 19.2716 6.63888C19.3816 6.65496 19.4873 6.69293 19.5824 6.75054C19.6774 6.80815 19.76 6.88424 19.8252 6.9743C19.8904 7.06436 19.9369 7.16657 19.9619 7.2749L20.5619 9.71189C20.6169 9.92615 20.5878 10.1534 20.4805 10.3468C20.3732 10.5402 20.1958 10.6852 19.9849 10.7519L11.7459 13.1519C11.674 13.1723 11.5996 13.1828 11.5249 13.1829L11.5239 13.1819ZM19.1179 7.5119L10.9459 9.89489L11.5669 12.2949L19.7159 9.9239L19.1179 7.5119Z" fill="white"/>
<path d="M10.5359 21.924C10.42 21.924 10.3088 21.8779 10.2269 21.7959C10.1449 21.714 10.0989 21.6028 10.0989 21.4869V9.88695C10.0989 9.77105 10.1449 9.6599 10.2269 9.57794C10.3088 9.49599 10.42 9.44995 10.5359 9.44995C10.6518 9.44995 10.7629 9.49599 10.8449 9.57794C10.9268 9.6599 10.9729 9.77105 10.9729 9.88695L11.5669 12.2979L19.1549 10.088C19.22 10.069 19.2887 10.0655 19.3554 10.0777C19.4222 10.0899 19.4851 10.1174 19.5394 10.1582C19.5936 10.1989 19.6376 10.2518 19.6679 10.3125C19.6982 10.3732 19.714 10.4401 19.7139 10.5079V14.2929C19.7139 14.3723 19.6923 14.4502 19.6514 14.5182C19.6105 14.5863 19.5519 14.6419 19.4818 14.6791C19.4116 14.7163 19.3327 14.7337 19.2535 14.7295C19.1742 14.7252 19.0976 14.6994 19.0319 14.6549C18.4584 14.2683 17.7826 14.0615 17.0909 14.0609C16.4741 14.0604 15.8681 14.2232 15.3346 14.5327C14.8011 14.8423 14.3591 15.2876 14.0535 15.8234C13.7479 16.3592 13.5897 16.9663 13.5948 17.5831C13.6 18.1999 13.7684 18.8043 14.0829 19.3349C14.1739 19.493 14.2794 19.6423 14.3979 19.7809C14.4433 19.8336 14.4755 19.8963 14.4918 19.9639C14.5081 20.0316 14.5081 20.1021 14.4916 20.1697C14.4752 20.2372 14.4429 20.2999 14.3974 20.3525C14.3518 20.4051 14.2944 20.446 14.2299 20.4719L10.6979 21.8969C10.6458 21.9182 10.5901 21.929 10.5339 21.9289L10.5359 21.924ZM10.9729 12.9619V20.8389L13.3859 19.866C13.3679 19.837 13.3499 19.8069 13.3319 19.7759C12.9386 19.1126 12.728 18.357 12.7215 17.5859C12.715 16.8147 12.9128 16.0557 13.2948 15.3858C13.6767 14.7159 14.2293 14.1591 14.8962 13.772C15.5632 13.3849 16.3207 13.1813 17.0919 13.1819C17.5896 13.1807 18.0836 13.2663 18.5519 13.435C18.6519 13.469 18.7449 13.507 18.8399 13.549V11.0849L11.7459 13.1509C11.6408 13.181 11.5307 13.1893 11.4224 13.1752C11.314 13.1611 11.2097 13.1249 11.1159 13.0689C11.0646 13.038 11.0166 13.0018 10.9729 12.9609V12.9619Z" fill="white"/>
<path d="M17.0948 21.92C16.4519 21.9221 15.8166 21.7809 15.235 21.5067C14.6535 21.2326 14.1403 20.8323 13.7328 20.335C13.5827 20.1598 13.4488 19.9714 13.3328 19.772C12.9395 19.1087 12.7289 18.3531 12.7223 17.582C12.7158 16.8109 12.9136 16.0519 13.2956 15.3821C13.6776 14.7122 14.2302 14.1555 14.8972 13.7685C15.5641 13.3816 16.3217 13.1781 17.0928 13.179C17.9588 13.18 18.8047 13.4391 19.5228 13.923C20.303 14.4434 20.895 15.2011 21.2111 16.0841C21.5272 16.967 21.5506 17.9283 21.278 18.8257C21.0053 19.723 20.451 20.5087 19.6971 21.0665C18.9431 21.6244 18.0297 21.9246 17.0918 21.923L17.0948 21.92ZM17.0948 14.053C16.4779 14.0521 15.8718 14.2147 15.3381 14.5242C14.8044 14.8337 14.3623 15.279 14.0566 15.8149C13.751 16.3508 13.5927 16.9581 13.5981 17.575C13.6034 18.1919 13.772 18.7964 14.0868 19.327C14.1779 19.485 14.2833 19.6343 14.4018 19.773C14.7278 20.1721 15.1387 20.4935 15.6045 20.7137C16.0704 20.9339 16.5795 21.0474 17.0948 21.046C17.8452 21.0476 18.5762 20.8075 19.1795 20.3612C19.7828 19.9149 20.2264 19.2862 20.4445 18.5682C20.6626 17.8502 20.6436 17.081 20.3905 16.3745C20.1373 15.6681 19.6634 15.062 19.0388 14.646C18.4648 14.2572 17.788 14.0483 17.0948 14.046V14.053Z" fill="white"/>
<path d="M17.0957 20.1749C16.9798 20.1749 16.8686 20.1289 16.7867 20.0469C16.7047 19.965 16.6587 19.8538 16.6587 19.7379V15.3669C16.6587 15.251 16.7047 15.1399 16.7867 15.0579C16.8686 14.976 16.9798 14.9299 17.0957 14.9299C17.2116 14.9299 17.3227 14.976 17.4047 15.0579C17.4866 15.1399 17.5327 15.251 17.5327 15.3669V19.7379C17.5327 19.8538 17.4866 19.965 17.4047 20.0469C17.3227 20.1289 17.2116 20.1749 17.0957 20.1749Z" fill="white"/>
<path d="M19.2799 17.99H14.9089C14.793 17.99 14.6819 17.9439 14.5999 17.862C14.518 17.78 14.4719 17.6689 14.4719 17.553C14.4719 17.4371 14.518 17.3259 14.5999 17.244C14.6819 17.162 14.793 17.116 14.9089 17.116H19.2799C19.3958 17.116 19.507 17.162 19.5889 17.244C19.6709 17.3259 19.7169 17.4371 19.7169 17.553C19.7169 17.6689 19.6709 17.78 19.5889 17.862C19.507 17.9439 19.3958 17.99 19.2799 17.99Z" fill="white"/>
</svg>
