<svg width="50" height="50" viewBox="0 0 50 50" fill="none" xmlns="http://www.w3.org/2000/svg">
<g clip-path="url(#clip0_457_15099)">
<path d="M14.2274 10.6937C13.8133 10.0157 13.5038 9.32749 13.305 8.58979C13.0344 7.57184 13.141 6.57449 13.471 5.58951C13.4771 5.57303 13.4853 5.5586 13.4894 5.54212C13.7867 4.64574 13.7908 4.64574 13.4771 3.76173C13.4505 3.68343 13.3439 3.61337 13.2578 3.5804C12.9667 3.46294 12.6633 3.3764 12.3743 3.25482C11.7655 2.99724 11.4232 2.36875 11.5502 1.76704C11.6343 1.36522 11.8639 1.20243 12.2677 1.26837C12.6961 1.33843 13.1246 1.40643 13.5468 1.49504C13.8154 1.55068 13.9876 1.49916 14.1721 1.26219C15.3364 -0.227645 17.9787 -0.295645 19.1471 1.60632C19.8954 2.82209 19.8154 4.12853 18.9237 5.25363C18.8991 5.2866 18.8766 5.31957 18.8253 5.39169C18.9832 5.45557 19.1164 5.51945 19.2558 5.56684C20.8158 6.09849 22.3757 6.62807 23.9357 7.16177C24.0771 7.21123 24.237 7.26686 24.3354 7.36989C24.4215 7.46262 24.4994 7.64602 24.4687 7.75523C24.0997 9.039 23.7184 10.3207 22.7304 11.2975C22.0375 11.9816 21.2134 12.4411 20.2377 12.744C20.496 12.8429 20.7153 12.9254 20.9326 13.0119C22.058 13.4529 22.7242 14.7366 22.4372 15.9133C22.3204 16.3975 22.06 16.5418 21.5906 16.3872C21.5332 16.3687 21.4738 16.3563 21.4225 16.3295C20.9941 16.1131 20.6682 16.1193 20.2459 16.482C19.387 17.2218 18.0054 16.6118 17.8065 15.4517C17.7553 15.155 17.6446 15.0313 17.3658 14.9406C16.2916 14.5924 15.2278 14.2091 14.1577 13.8506C14.0819 13.8258 13.9425 13.8671 13.883 13.9289C13.4095 14.4131 12.8663 14.648 12.198 14.4193C11.5113 14.1823 11.1444 13.6795 11.0419 12.9624C11.0296 12.8738 10.925 12.7646 10.8369 12.7255C10.6114 12.6286 10.3675 12.575 10.1358 12.4926C9.71559 12.3422 9.60695 12.0929 9.76684 11.6745C10.2219 10.4876 11.4949 9.85913 12.7269 10.2239C13.1184 10.3393 13.4997 10.4814 13.8892 10.6071C13.9999 10.6422 14.1126 10.6669 14.2254 10.6958L14.2274 10.6937ZM19.0303 11.1264C19.9774 11.1532 20.742 10.7905 21.3385 10.1167C21.6029 9.81792 21.7956 9.44083 21.9596 9.07197C22.1092 8.72991 21.976 8.5053 21.6316 8.359C21.4902 8.29924 21.3467 8.24978 21.2011 8.20033C20.0512 7.81087 18.9012 7.41729 17.7471 7.04019C17.2879 6.88977 17.0993 6.99486 16.9271 7.45438C16.8472 7.67075 16.7816 7.89123 16.7078 8.10966C16.5376 8.61864 16.3634 9.12761 16.1994 9.63865C16.0436 10.1291 16.1277 10.296 16.6073 10.4835C16.7426 10.535 16.8759 10.5886 17.0153 10.6298C17.6897 10.8256 18.3272 11.1656 19.0303 11.1244V11.1264ZM16.1564 2.21832C15.7382 2.2142 15.3999 2.52742 15.404 2.91688C15.4061 3.32282 15.7443 3.65458 16.1584 3.66076C16.5397 3.66694 16.8595 3.3393 16.8779 2.94572C16.8923 2.62839 16.5889 2.18123 16.1584 2.21832H16.1564ZM19.9917 15.1467C19.9876 14.8067 19.7191 14.5471 19.3665 14.545C19.0262 14.545 18.7597 14.8129 18.7597 15.1632C18.7597 15.5032 19.0344 15.7814 19.3706 15.7834C19.717 15.7855 19.9958 15.5011 19.9917 15.1467ZM13.2537 12.8883C13.2599 12.5338 12.9831 12.2577 12.6223 12.2577C12.3251 12.2577 12.0504 12.54 12.0381 12.8615C12.0258 13.1788 12.3046 13.4755 12.6244 13.4858C12.9749 13.4961 13.2496 13.2365 13.2558 12.8883H13.2537Z" fill="#1568A8"/>
<path d="M27.6316 38.3C28.2507 39.5446 28.8677 40.7913 29.4888 42.0338C29.866 42.7901 29.9993 42.8251 30.7454 42.4254C34.0744 40.6429 37.4076 38.8646 40.7386 37.0842C40.8268 37.0368 40.917 36.9977 41.0646 36.9255C41.0646 37.2532 41.0646 37.5396 41.0646 37.824C41.0605 39.6126 41.0523 41.3992 41.0564 43.1878C41.0564 43.398 40.9785 43.501 40.7919 43.5917C37.7561 45.0671 34.7243 46.5549 31.6904 48.0344C30.3908 48.667 29.0871 49.2914 27.7854 49.9178C27.7321 49.9425 27.6767 49.9631 27.5906 49.9982V38.3123C27.605 38.3082 27.6214 38.3041 27.6357 38.3H27.6316Z" fill="#1568A8"/>
<path d="M13.0774 36.9111C13.3849 37.0697 13.6862 37.2181 13.9814 37.3768C15.9842 38.4462 17.989 39.5157 19.9897 40.5914C21.1724 41.2281 22.3511 41.8731 23.5319 42.5139C23.5852 42.5428 23.6385 42.5696 23.6918 42.5922C24.0402 42.7509 24.2821 42.6788 24.4543 42.3388C25.0959 41.0674 25.7294 39.7898 26.3648 38.5163C26.3997 38.4462 26.4366 38.3762 26.5186 38.3185V49.9755C26.4407 49.9507 26.3874 49.9384 26.3382 49.9136C24.7085 49.1244 23.0788 48.3331 21.4512 47.5419C18.7126 46.2107 15.976 44.8816 13.2414 43.5422C13.1512 43.4968 13.0549 43.3526 13.0549 43.2537C13.0426 41.1745 13.0446 39.0953 13.0426 37.0182C13.0426 36.9956 13.0569 36.9729 13.0774 36.9131V36.9111Z" fill="#1568A8"/>
<path d="M23.7246 41.4136C22.2814 40.645 20.8629 39.8908 19.4444 39.1345C17.5216 38.1104 15.5967 37.0924 13.678 36.0621C12.5157 35.4398 11.3657 34.7948 10.2014 34.1746C9.98412 34.0592 9.95952 33.9727 10.0764 33.7522C10.8348 32.32 11.581 30.8797 12.3149 29.4352C12.4235 29.2229 12.5157 29.2105 12.7064 29.3074C14.3073 30.1193 15.9104 30.925 17.5134 31.7307C19.922 32.9423 22.3327 34.1519 24.7413 35.3615C25.2046 35.5944 25.6638 35.8355 26.1311 36.0621C26.2828 36.1363 26.332 36.2023 26.248 36.3712C25.5346 37.8075 24.8294 39.2479 24.1181 40.6862C24.0013 40.9211 23.868 41.1478 23.7246 41.4115V41.4136Z" fill="#1568A8"/>
<path d="M41.6345 29.2105C42.477 30.8219 43.3113 32.4189 44.1558 34.0365C43.9918 34.1272 43.8525 34.2034 43.711 34.2796C41.6345 35.3944 39.56 36.5113 37.4834 37.622C35.1876 38.8501 32.8876 40.068 30.5937 41.2981C30.4031 41.4012 30.3375 41.3558 30.2514 41.1807C29.454 39.5672 28.6525 37.9558 27.8428 36.3485C27.7526 36.1713 27.8428 36.1321 27.9699 36.0683C30.9012 34.5908 33.8285 33.1071 36.7619 31.6338C38.2665 30.8775 39.7793 30.1378 41.288 29.3898C41.3864 29.3403 41.4828 29.2867 41.6345 29.2084V29.2105Z" fill="#1568A8"/>
<path d="M40.4865 28.615C39.1356 29.295 37.8545 29.942 36.5733 30.587C34.013 31.8749 31.4506 33.1607 28.8882 34.4466C28.3491 34.7165 27.81 34.9906 27.2627 35.2461C27.1622 35.2935 27.0064 35.312 26.9142 35.2667C24.1776 33.9108 21.4471 32.5446 18.7167 31.1784C17.0809 30.3603 15.4491 29.5381 13.8154 28.716C13.7662 28.6912 13.7272 28.65 13.6452 28.5882C13.8502 28.5202 14.0163 28.4646 14.1803 28.4089C15.3794 28.0009 16.5786 27.597 17.7758 27.1828C17.9418 27.1252 17.9951 27.2261 18.0546 27.323C18.6101 28.2029 19.1594 29.0869 19.7109 29.9688C19.922 30.3088 20.0983 30.6777 20.3484 30.9847C21.1396 31.9511 22.5664 32.0521 23.5216 31.2361C24.4318 30.4592 24.5384 29.0024 23.7389 28.0751C23.5647 27.8732 23.3433 27.7145 23.1485 27.5167C23.8045 27.7846 24.401 27.5125 25.0119 27.3498C26.0758 27.0675 27.0884 26.6842 27.8981 25.9011C28.1646 25.6436 28.3983 25.3551 28.6832 25.0398C28.4352 25.5467 28.2077 26.0104 27.9801 26.474C27.8325 26.7728 27.6685 27.0633 27.5374 27.3683C27.1643 28.2441 27.4492 29.1961 28.2835 29.6474C29.3085 30.1996 30.3539 30.7189 31.4158 31.199C32.2542 31.5802 33.2197 31.2155 33.6419 30.3913C34.1913 29.3218 34.712 28.2358 35.2306 27.1519C35.3351 26.9356 35.4171 26.8779 35.6652 26.9624C37.1739 27.4858 38.6908 27.9865 40.2057 28.4955C40.2815 28.5202 40.3512 28.5594 40.4845 28.617L40.4865 28.615Z" fill="#1568A8"/>
<path d="M36.9833 14.6934C36.7352 15.1859 36.4974 15.6578 36.2637 16.1297C34.591 19.5194 32.904 22.903 31.262 26.3071C30.9586 26.9377 30.5937 27.3869 29.9234 27.6198C29.3638 27.8155 28.8411 28.1123 28.302 28.3636C28.2425 28.3925 28.1769 28.411 28.1031 28.4399C27.9453 28.1576 28.0293 27.8918 28.1359 27.6465C28.3922 27.0613 28.6648 26.4802 28.9477 25.9074C30.8315 22.089 32.7215 18.2748 34.6074 14.4585C34.9846 13.6961 35.4274 13.5683 36.1448 14.0134C36.1879 14.0402 36.2289 14.067 36.2945 14.1082C36.3457 14.0299 36.397 13.966 36.4318 13.8918C36.8459 13.0491 37.262 12.2083 37.6679 11.3635C37.7417 11.211 37.8012 11.1553 37.9713 11.2419C38.6601 11.5942 39.355 11.9363 40.0519 12.2722C40.218 12.3526 40.2282 12.4391 40.1524 12.5937C39.7383 13.4261 39.3324 14.2628 38.9225 15.0994C38.8897 15.1674 38.8589 15.2354 38.8179 15.3199C38.9676 15.3982 39.1028 15.462 39.232 15.5362C39.7629 15.8391 39.8941 16.208 39.6276 16.7561C38.9737 18.1079 38.3054 19.4535 37.6454 20.8011C36.358 23.4305 35.0748 26.0599 33.7875 28.6892C33.5743 29.1261 33.3631 29.5671 33.1151 29.9833C32.988 30.1955 32.7892 30.3686 32.6088 30.5438C32.5001 30.6489 32.4058 30.6036 32.373 30.4552C32.1804 29.5794 31.9815 28.7057 31.8052 27.8279C31.7786 27.6939 31.836 27.5229 31.9016 27.391C32.8999 25.3428 33.9105 23.3007 34.9108 21.2545C35.698 19.6451 36.479 18.0317 37.2661 16.4223C37.4342 16.0782 37.6003 15.7299 37.793 15.4002C37.916 15.1921 37.8524 15.0994 37.6597 15.0149C37.4424 14.9201 37.2313 14.8109 36.9833 14.6914V14.6934Z" fill="#1568A8"/>
<path d="M12.9544 24.4237C16.1236 24.4278 17.989 22.8844 18.5527 19.7255C18.6367 19.8017 18.7208 19.8676 18.7925 19.9439C19.8318 21.0319 20.3012 22.9359 19.2168 24.5185C19.1123 24.671 19.1348 24.7493 19.2517 24.8585C20.3402 25.8641 21.4266 26.8758 22.5172 27.8794C22.6996 28.0463 22.9066 28.1843 23.0891 28.3513C23.5995 28.819 23.7574 29.4042 23.538 30.0533C23.3166 30.7086 22.8246 31.1104 22.14 31.164C21.4471 31.2197 20.9428 30.8508 20.6026 30.2553C20.2192 29.5815 19.8667 28.885 19.4526 28.2317C18.9647 27.4611 18.4194 26.7275 17.909 25.9692C17.7963 25.8023 17.6897 25.86 17.5626 25.9156C16.5643 26.3504 15.566 26.3545 14.5738 25.8991C13.9384 25.6065 13.4484 25.1387 13.0344 24.5844C13.0016 24.5391 12.9811 24.4835 12.9503 24.4258L12.9544 24.4237Z" fill="#AD172A"/>
<path d="M7.06712 23.6675C6.21641 23.6489 5.48255 23.4717 4.79994 23.1214C3.85904 22.6371 3.20102 21.9015 3.03088 20.8217C2.81564 19.4555 3.62125 18.4891 5.00493 18.4067C5.10742 18.4005 5.21197 18.4211 5.31036 18.4005C5.39851 18.3819 5.5092 18.3428 5.5584 18.2769C6.59359 16.8591 8.37085 16.9745 9.19901 18.5262C9.82013 19.6884 9.70738 20.8485 9.13136 21.986C8.95917 22.326 8.71523 22.6289 8.51639 22.9565C8.16176 23.5397 7.65749 23.787 7.06712 23.6654V23.6675Z" fill="#AD172A"/>
<path d="M45.7875 22.1817C45.7055 23.4099 45.0414 24.2877 43.9959 24.9018C43.2477 25.3407 42.4216 25.5405 41.5627 25.5776C41.368 25.5859 41.122 25.5199 40.9785 25.3942C39.9679 24.5185 39.2812 23.449 39.1172 22.0849C39.0065 21.1658 39.5846 19.9542 40.3738 19.4885C41.1814 19.0125 42.1346 19.165 42.8541 19.9212C43.0325 20.1087 43.2006 20.1479 43.4343 20.1211C43.9283 20.0655 44.4039 20.1479 44.8323 20.4137C45.4718 20.8093 45.7691 21.4028 45.7896 22.1797L45.7875 22.1817Z" fill="#AD172A"/>
<path d="M32.2398 6.46323C32.0184 6.38905 31.8011 6.37257 31.6658 6.25923C30.5384 5.32371 29.7615 4.16975 29.7635 2.64901C29.7656 1.561 30.2268 0.670806 31.2435 0.174194C31.9508 -0.169931 32.6293 0.0175867 33.1909 0.501835C33.5538 0.81505 33.8982 0.938688 34.3819 0.942809C35.8107 0.959294 36.7045 2.21216 36.3191 3.59896C35.9808 4.81679 35.1506 5.58747 34.0027 6.00577C33.4328 6.2139 32.8261 6.31487 32.2439 6.46323H32.2398Z" fill="#AD172A"/>
<path d="M24.3764 17.5473C25.8933 17.6092 27.1151 18.2129 28.017 19.4328C28.181 19.6533 28.3429 19.8367 28.6238 19.9418C29.2961 20.1953 29.5319 20.9783 29.1219 21.5697C28.96 21.8025 28.8944 22.0375 28.8841 22.3053C28.8288 23.7169 28.2199 24.844 27.1356 25.7239C26.6579 26.1113 26.0963 26.3339 25.5161 26.509C25.0201 26.6594 24.526 26.8222 24.0238 26.9376C23.3412 27.0942 22.7652 26.6842 22.6975 25.9877C22.6258 25.2562 22.5827 24.5226 22.5561 23.7869C22.5294 23.0348 22.3183 22.3424 21.9555 21.6913C21.6172 21.0875 21.2585 20.4961 20.9367 19.8862C20.8239 19.6739 20.7296 19.4184 20.7358 19.1855C20.746 18.7982 20.9449 18.4478 21.3159 18.316C22.3142 17.9595 23.3125 17.5844 24.3764 17.5453V17.5473ZM21.6808 19.2082C21.8161 19.4555 21.9329 19.6698 22.0498 19.8841C22.4987 20.7063 23.0399 21.479 23.3187 22.3898C23.6159 23.3604 23.6097 24.3639 23.6671 25.3592C23.7061 26.0289 23.6938 26.033 24.3272 25.8331C24.5281 25.7693 24.8233 25.7487 24.9012 25.6106C24.9873 25.4581 24.8807 25.1902 24.8417 24.9759C24.813 24.8234 24.8417 24.7534 25.0057 24.7039C25.3952 24.5885 25.7867 24.4649 26.1598 24.3042C27.0392 23.9291 27.8346 23.4284 28.3983 22.6247C28.7304 22.1508 28.8882 21.6253 28.798 21.0504C28.6566 20.152 28.0539 19.6574 27.2503 19.3834C26.3156 19.066 25.3542 19.1196 24.3969 19.2535C23.9972 19.3092 23.6036 19.3999 23.2141 19.474C23.1424 19.2906 23.0952 19.1237 23.0112 18.9795C22.9743 18.9177 22.8472 18.8558 22.7795 18.8723C22.427 18.963 22.0826 19.0805 21.6808 19.2041V19.2082Z" fill="#1568A8"/>
<path d="M17.7286 19.1588C17.3453 19.4432 17.4068 19.8841 17.3145 20.2715C16.8718 22.1076 15.3118 23.3336 13.4321 23.3213C13.1389 23.3192 12.8294 23.2471 12.608 23.5376C12.2247 22.7711 12.4071 20.933 13.4812 19.8821C14.5349 18.8497 16.2445 18.419 17.7286 19.1588Z" fill="#1568A8"/>
<path d="M29.29 16.0987C28.552 16.0286 27.8899 15.7731 27.2996 15.3548C29.1793 13.4611 31.0509 11.5756 32.947 9.66748C33.0147 9.76433 33.1028 9.8756 33.1725 9.99718C33.4492 10.4856 33.6112 11.011 33.6911 11.5674C33.7219 11.7837 33.6747 11.8579 33.4492 11.8538C31.3337 11.8208 29.8865 13.5003 29.5155 14.8376C29.4048 15.2374 29.3679 15.6557 29.2921 16.0987H29.29Z" fill="#1568A8"/>
<path d="M26.3894 14.4853C25.9241 13.8053 25.6699 13.1418 25.5879 12.3608C26.8506 12.4473 27.9412 12.0723 28.839 11.2068C29.741 10.3372 30.151 9.25747 30.1038 7.96545C30.8295 8.052 31.4526 8.31164 32.0328 8.72171C30.1407 10.6525 28.2774 12.5545 26.3873 14.4853H26.3894Z" fill="#1568A8"/>
<path d="M41.8333 9.02049C41.7718 9.19564 41.7431 9.3131 41.6919 9.41819C41.3967 10.0343 41.0953 10.6443 40.8022 11.2625C40.7346 11.4046 40.6731 11.4603 40.5132 11.3778C39.8039 11.009 39.0885 10.6546 38.3813 10.2816C38.328 10.2527 38.2808 10.1023 38.3075 10.0467C38.6211 9.40376 38.945 8.76497 39.2791 8.13029C39.4472 7.81296 39.6563 7.74084 39.9802 7.89126C40.4886 8.13029 40.9928 8.37551 41.4828 8.64751C41.6304 8.72788 41.7267 8.90303 41.8333 9.02049Z" fill="#AD172A"/>
<path d="M28.8821 8.05408C28.919 8.96075 28.6094 9.73555 27.9596 10.3455C27.3344 10.9328 26.5739 11.1986 25.7027 11.1327C25.8482 9.75204 27.5988 8.0582 28.8821 8.05408Z" fill="#AD172A"/>
<path d="M30.5896 15.9689C30.3887 14.5965 32.125 12.8945 33.5292 13.0882C33.5661 14.172 31.7704 15.9339 30.5896 15.9689Z" fill="#AD172A"/>
<path d="M28.9251 29.2518C29.5873 28.9447 30.1735 28.6727 30.8274 28.3698C30.9791 29.0436 31.1288 29.703 31.2948 30.4449C30.481 30.0348 29.7389 29.6618 28.9251 29.2518Z" fill="#1568A8"/>
<path d="M21.1663 25.8847C21.4799 25.7776 21.7321 25.691 21.9903 25.6003C22.0867 26.0269 22.1789 26.4328 22.2753 26.8573C21.9248 26.5503 21.566 26.2371 21.1663 25.8847Z" fill="#1568A8"/>
<path d="M17.8106 8.17358C18.7925 8.50741 19.7519 8.83505 20.7174 9.16475C20.3996 9.76645 19.4936 10.2095 18.813 10.0632C18.36 9.96633 17.9213 9.79736 17.4806 9.64487C17.4273 9.62633 17.3617 9.49445 17.3781 9.44087C17.5072 9.02875 17.6569 8.62074 17.8127 8.17358H17.8106Z" fill="#AD172A"/>
<path d="M23.6651 20.4652C24.7864 20.2303 25.8749 19.9789 26.9736 20.4013C27.8243 20.7269 28.017 21.4151 27.4779 22.1528C27.1028 22.668 26.5596 22.9586 26.0061 23.2223C25.6474 23.3913 25.2599 23.5026 24.8909 23.653C24.6962 23.7334 24.6286 23.6612 24.606 23.4778C24.4789 22.4352 24.1427 21.4543 23.6631 20.4652H23.6651Z" fill="#AD172A"/>
</g>
<defs>
<clipPath id="clip0_457_15099">
<rect width="50" height="50" fill="white"/>
</clipPath>
</defs>
</svg>
