<svg width="50" height="50" viewBox="0 0 50 50" fill="none" xmlns="http://www.w3.org/2000/svg">
<path d="M11.8757 24.1816C11.2377 24.1816 10.5957 24.1736 9.95371 24.1836C9.49259 24.1896 9.02154 24.1655 8.57235 24.2496C7.47522 24.4538 6.68814 25.0922 6.25684 26.1369C6.16939 26.3511 6.06206 26.4312 5.83946 26.4232C5.50157 26.4111 5.16369 26.4171 4.8258 26.4292C4.66083 26.4352 4.54357 26.3771 4.49785 26.227C4.4104 25.9428 4.29711 25.6586 4.27723 25.3664C4.24146 24.864 4.22556 24.3517 4.27723 23.8513C4.36071 23.0447 4.76021 22.6745 5.57114 22.6184C6.19523 22.5744 6.8233 22.5724 7.45137 22.5664C8.11919 22.5584 8.789 22.5584 9.45682 22.5744C9.62974 22.5784 9.6993 22.5304 9.75893 22.3703C10.4943 20.4089 11.2079 18.4395 11.989 16.4981C12.8635 14.3245 14.4476 12.9235 16.7392 12.3932C17.1686 12.2931 17.6237 12.2751 18.0669 12.2711C19.3966 12.2591 20.7243 12.2711 22.054 12.2811C22.2229 12.2811 22.2845 12.189 22.3303 12.0529C22.5449 11.4445 22.7596 10.8361 22.9762 10.2256C23.2664 9.39904 23.7454 9.01677 24.6159 9.01076C26.3571 8.99475 28.1001 9.00075 29.8412 9.01677C30.5031 9.02277 30.998 9.349 31.2465 9.97545C31.5068 10.6279 31.7394 11.2924 31.964 11.9609C32.0435 12.199 32.1647 12.2751 32.4092 12.2731C33.5242 12.2591 34.6392 12.2931 35.7523 12.2571C37.1555 12.211 38.3917 12.6614 39.5366 13.4319C40.8981 14.3486 41.8123 15.6175 42.4344 17.1245C43.1659 18.8998 43.9152 20.6691 44.6665 22.4343C44.6943 22.5004 44.8294 22.5564 44.9149 22.5584C45.9385 22.5664 46.9621 22.5584 47.9857 22.5664C48.258 22.5664 48.5303 22.5864 48.8006 22.6244C49.532 22.7265 49.8997 23.0427 49.9653 23.7853C50.0229 24.4317 50.009 25.0982 49.9216 25.7407C49.8202 26.4992 49.3233 26.9135 48.5223 27.0316C48.1149 27.0916 47.7015 27.1196 47.2901 27.1317C46.7216 27.1477 46.1512 27.1437 45.5807 27.1317C45.382 27.1277 45.3104 27.1777 45.3124 27.3938C45.3263 30.6482 45.3303 33.9005 45.3383 37.1548C45.3403 37.9694 45.2468 38.7619 44.8493 39.4904C44.2531 40.5852 43.3905 41.2777 42.0985 41.2957C41.4148 41.3057 40.7271 41.3177 40.0454 41.2817C39.7075 41.2637 39.3517 41.1897 39.0437 41.0496C37.9426 40.5532 37.396 39.6145 37.1455 38.4777C37.076 38.1635 37.0561 37.8373 37.0442 37.515C37.0362 37.3009 36.9706 37.2348 36.752 37.2348C34.8698 37.2429 32.9876 37.2388 31.1053 37.2388C28.2333 37.2388 25.3593 37.2388 22.4873 37.2388C22.1076 37.2388 22.1096 37.2388 22.1096 36.8606C22.1096 34.7851 22.1136 32.7116 22.1057 30.6362C22.1057 30.1138 22.0878 29.5914 22.0421 29.071C21.9467 27.9883 21.2828 27.3058 20.3884 26.8074C19.9094 26.5412 19.3847 26.4372 18.8401 26.4332C17.4945 26.4252 16.1489 26.4171 14.8034 26.4212C14.5509 26.4212 14.4138 26.3571 14.3025 26.1029C14.1495 25.7527 13.9129 25.4405 13.6963 25.0882C13.9368 25.0642 14.215 25.0282 14.4933 25.0081C15.7534 24.9201 17.0135 24.85 18.2717 24.748C21.1516 24.5118 24.0376 24.3877 26.9275 24.3937C28.9071 24.3977 30.8887 24.4818 32.8663 24.5558C33.9873 24.5979 35.1063 24.6819 36.2253 24.758C37.8551 24.87 39.4829 24.9941 41.1127 25.1062C41.2916 25.1182 41.4784 25.1122 41.6553 25.0782C42.1065 24.9941 42.3231 24.7199 42.2595 24.2656C42.2098 23.9154 42.1383 23.5611 42.0111 23.2329C41.3592 21.5497 40.6854 19.8765 40.0215 18.1973C39.3796 16.5741 38.2049 15.4513 36.6864 14.6748C36.0901 14.3686 35.4303 14.2845 34.7624 14.2845C32.6238 14.2845 30.4872 14.2845 28.3486 14.2845C25.3195 14.2845 22.2885 14.3386 19.2595 14.2665C16.8883 14.2105 15.3519 15.3713 14.3442 17.3747C13.897 18.2653 13.5989 19.232 13.2471 20.1687C12.8377 21.2615 12.4401 22.3583 12.0466 23.457C11.9671 23.6812 11.9313 23.9214 11.8717 24.1776L11.8757 24.1816ZM42.1959 29.7735C42.1959 29.4753 42.1999 29.1771 42.1959 28.8789C42.186 28.2004 41.9157 27.9783 41.2578 28.1104C40.7967 28.2024 40.3376 28.2905 39.8784 28.3865C38.8469 28.6007 37.8153 28.8149 36.7858 29.033C36.1955 29.1571 35.7721 29.5114 35.6052 30.0818C35.4521 30.6001 35.3587 31.1425 35.307 31.6829C35.2554 32.2293 35.4501 32.4414 35.9868 32.5735C36.0981 32.6015 36.2154 32.6316 36.3267 32.6276C37.0004 32.5995 37.6782 32.6056 38.344 32.5155C39.2563 32.3914 40.1646 32.2173 41.063 32.0191C41.8223 31.851 42.192 31.3286 42.1979 30.5501C42.1979 30.2939 42.1979 30.0357 42.1979 29.7795L42.1959 29.7735Z" fill="#1568A8"/>
<path d="M15.4056 34.595C15.4056 36.7525 15.4056 38.9101 15.4056 41.0676C15.4056 41.2137 15.4096 41.3178 15.2048 41.3178C12.3905 41.3118 9.57607 41.3118 6.76169 41.3138C6.25088 41.3138 5.73809 41.3178 5.22729 41.3298C5.03251 41.3338 4.95897 41.2858 4.95897 41.0636C4.96891 36.9567 4.96692 32.8478 4.96891 28.7408C4.96891 28.5167 4.97288 28.2925 4.96891 28.0684C4.96493 27.9042 5.03648 27.8582 5.1935 27.8582C5.91896 27.8642 6.64641 27.8502 7.37187 27.8622C7.5746 27.8662 7.6064 27.7942 7.62628 27.61C7.66205 27.2598 7.67795 26.8855 7.81708 26.5753C8.09932 25.9489 8.63795 25.6306 9.32167 25.6206C10.0392 25.6086 10.7587 25.6166 11.4742 25.6526C12.3428 25.6967 13.0066 26.3952 13.0583 27.2698C13.0808 27.6607 13.2842 27.8569 13.6685 27.8582C14.1316 27.8602 14.5927 27.8642 15.0558 27.8682C15.3976 27.8702 15.3976 27.8702 15.3976 28.2225C15.3976 30.346 15.3976 32.4715 15.3976 34.595H15.4056ZM10.4148 27.8522C10.8998 27.8522 11.3867 27.8482 11.8717 27.8542C12.0208 27.8562 12.0705 27.8022 12.0764 27.6521C12.1023 27.0176 11.8419 26.7374 11.2019 26.7354C10.6593 26.7354 10.1147 26.7354 9.5721 26.7354C8.86055 26.7354 8.7254 26.8775 8.71149 27.59C8.70751 27.7802 8.7572 27.8602 8.95794 27.8562C9.44291 27.8462 9.92986 27.8522 10.4148 27.8522Z" fill="#AD172A"/>
<path d="M17.2361 34.605C17.2361 32.4555 17.2401 30.3079 17.2322 28.1584C17.2322 27.9202 17.2977 27.8402 17.5422 27.8542C17.9695 27.8782 18.4008 27.8542 18.8282 27.8782C19.9571 27.9363 20.6826 28.7068 20.6845 29.8496C20.6885 32.3134 20.6845 34.7771 20.6845 37.2409C20.6845 37.9294 20.6845 38.6179 20.6845 39.3063C20.6826 40.4672 19.969 41.2337 18.8222 41.2958C18.379 41.3198 17.9318 41.3138 17.4886 41.3278C17.3057 41.3338 17.2282 41.2878 17.2282 41.0776C17.2361 38.9201 17.2341 36.7645 17.2341 34.607L17.2361 34.605Z" fill="#AD172A"/>
<path d="M3.34308 34.585C3.34308 36.7345 3.3391 38.884 3.34705 41.0336C3.34705 41.2677 3.28345 41.3258 3.05091 41.3118C2.58979 41.2838 2.12669 41.3118 1.66558 41.2838C0.80695 41.2337 0.109316 40.5532 0.0357761 39.6926C0.00198756 39.2983 0 38.8981 0 38.4998C0 35.6117 0 32.7237 0.00993781 29.8356C0.0119254 28.8469 0.522729 28.1024 1.39726 27.9443C1.98359 27.8402 2.59576 27.8822 3.196 27.8762C3.24171 27.8762 3.32519 28.0103 3.32917 28.0864C3.34507 28.4086 3.34109 28.7328 3.34109 29.0571C3.34109 30.9004 3.34109 32.7417 3.34109 34.585H3.34308Z" fill="#AD172A"/>
</svg>
