<svg width="28" height="28" viewBox="0 0 28 28" fill="none" xmlns="http://www.w3.org/2000/svg">
<path d="M0.400635 13.7109C0.400635 10.162 0.400635 6.6121 0.400635 3.06325C0.400635 1.50848 1.44182 0.281022 2.97075 0.0387617C3.14195 0.0107671 3.31853 0.00215343 3.49188 0.00215343C10.6079 0 17.725 0 24.8409 0C26.3893 0 27.6113 1.05841 27.8321 2.58627C27.8547 2.74454 27.8654 2.90713 27.8654 3.06756C27.8665 10.1663 27.8676 17.2651 27.8654 24.3639C27.8654 25.2295 27.6081 26.0037 26.9728 26.6153C26.4711 27.0976 25.8671 27.3776 25.1693 27.44C24.9605 27.4583 24.7505 27.4659 24.5405 27.4659C17.5182 27.467 10.4959 27.4702 3.47357 27.4637C2.25581 27.4626 1.32768 26.9297 0.741953 25.8443C0.501846 25.4029 0.402788 24.9238 0.402788 24.4263C0.400635 20.8538 0.400635 17.2823 0.400635 13.7109ZM22.6035 8.60402C22.5766 8.60294 22.5551 8.60078 22.5346 8.60078C21.4794 8.58248 20.5276 8.24332 19.7093 7.59083C18.5971 6.70362 18.035 5.51493 17.9489 4.10012C17.9414 3.96984 17.894 3.94508 17.7799 3.94723C17.4891 3.95261 17.1984 3.94938 16.9088 3.94938C16.1853 3.94938 15.4606 3.95154 14.7371 3.94508C14.6122 3.94508 14.5691 3.98384 14.5766 4.10443C14.5831 4.20241 14.5734 4.30147 14.5734 4.39945C14.5734 8.63309 14.5723 12.8667 14.5702 17.1004C14.5702 17.3006 14.5691 17.5041 14.5379 17.7012C14.2816 19.3205 12.8399 20.2745 11.3487 20.0549C10.0329 19.86 9.0671 18.793 8.97342 17.4761C8.84207 15.6274 10.5002 14.1674 12.3198 14.5313C12.4146 14.5507 12.5094 14.5701 12.6084 14.5895C12.6084 14.5119 12.6084 14.4463 12.6084 14.3806C12.6084 13.3566 12.6073 12.3327 12.6095 11.3098C12.6095 11.2097 12.5955 11.1591 12.4781 11.1483C11.8698 11.0934 11.2636 11.0869 10.6628 11.2C9.21784 11.4713 8.01192 12.1636 7.06334 13.2877C5.83481 14.7445 5.38905 16.4274 5.67976 18.3009C5.91664 19.8277 6.67249 21.0745 7.85687 22.0511C9.33951 23.2742 11.0515 23.6726 12.9303 23.3485C14.203 23.1289 15.2754 22.5087 16.1777 21.5946C17.3007 20.4565 17.9112 19.0847 17.9306 17.4858C17.9586 15.2107 17.9424 12.9346 17.9446 10.6595C17.9446 10.6078 17.9446 10.5572 17.9446 10.4732C19.354 11.4778 20.8991 11.9644 22.6035 11.9666V8.60617V8.60402Z" fill="black"/>
<path d="M19.0558 11.5822V11.7696C19.0536 14.0447 19.0698 16.3198 19.0418 18.5949C19.0213 20.1938 18.4108 21.5655 17.2878 22.7036C16.3855 23.6188 15.3142 24.2379 14.0404 24.4576C12.1616 24.7827 10.4496 24.3833 8.96695 23.1601C7.78364 22.1836 7.02671 20.9367 6.79091 19.4099C6.5002 17.5375 6.94596 15.8546 8.17449 14.3978C9.12307 13.2727 10.3279 12.5803 11.7739 12.3101C12.3747 12.197 12.9809 12.2024 13.5893 12.2573C13.7066 12.2681 13.7206 12.3198 13.7206 12.4188C13.7174 13.4428 13.7185 14.4667 13.7185 15.4907V15.6996C13.6194 15.6791 13.5247 15.6597 13.4299 15.6414C11.6103 15.2775 9.95214 16.7375 10.0835 18.5863C10.1772 19.9031 11.143 20.9701 12.4587 21.165C13.95 21.3857 15.3917 20.4307 15.648 18.8113C15.6792 18.6142 15.6803 18.4107 15.6803 18.2105C15.6824 13.9768 15.6824 9.74321 15.6835 5.50957C15.6835 5.41159 15.6932 5.31253 15.6878 5.21455C15.6803 5.09396 15.7233 5.05412 15.8482 5.0552C16.5718 5.06166 17.2964 5.0595 18.02 5.0595C18.3107 5.0595 18.6014 5.06273 18.8921 5.05735C19.0051 5.05627 19.0525 5.07996 19.0601 5.21024C19.1462 6.62504 19.7082 7.81374 20.8205 8.70095C21.6377 9.35344 22.5906 9.6926 23.6458 9.71091C23.6662 9.71091 23.6878 9.71306 23.7147 9.71414V13.0756C22.0103 13.0735 20.4662 12.5868 19.0558 11.5822Z" fill="#EE3558"/>
<path d="M17.9791 10.5056V10.6929C17.9769 12.968 17.9931 15.2431 17.9651 17.5182C17.9446 19.1171 17.3341 20.4889 16.2111 21.6269C15.3088 22.5422 14.2375 23.1613 12.9638 23.3809C11.0849 23.7061 9.37292 23.3066 7.89029 22.0835C6.70698 21.1069 5.95005 19.8601 5.71425 18.3333C5.42354 16.4609 5.8693 14.778 7.09783 13.3212C8.04641 12.196 9.25126 11.5037 10.6973 11.2334C11.2981 11.1204 11.9043 11.1258 12.5126 11.1807C12.63 11.1914 12.644 11.2431 12.644 11.3422C12.6407 12.3661 12.6418 13.3901 12.6418 14.414V14.6229C12.5428 14.6025 12.448 14.5831 12.3533 14.5648C10.5336 14.2009 8.87548 15.6609 9.00684 17.5096C9.10052 18.8264 10.0663 19.8934 11.3821 20.0883C12.8733 20.309 14.315 19.354 14.5713 17.7346C14.6025 17.5376 14.6036 17.3341 14.6036 17.1338C14.6058 12.9002 14.6058 8.66655 14.6068 4.43291C14.6068 4.33493 14.6165 4.23587 14.6111 4.13789C14.6036 4.0173 14.6467 3.97746 14.7716 3.97854C15.4951 3.985 16.2197 3.98284 16.9433 3.98284C17.234 3.98284 17.5247 3.98607 17.8154 3.98069C17.9285 3.97961 17.9759 4.0033 17.9834 4.13358C18.0695 5.54838 18.6316 6.73708 19.7438 7.62429C20.561 8.27678 21.5139 8.61594 22.5691 8.63424C22.5896 8.63424 22.6111 8.6364 22.638 8.63748V11.999C20.9336 11.9968 19.3896 11.5101 17.9791 10.5056Z" fill="white"/>
<path d="M10.6983 11.2333C9.25229 11.5035 8.04744 12.1959 7.09886 13.321C5.87033 14.7778 5.42457 16.4607 5.71528 18.3331C5.87679 19.3775 6.28163 20.2906 6.89967 21.0755C6.87167 21.0529 6.8426 21.0303 6.81461 21.0066C5.6313 20.03 4.87437 18.7832 4.63857 17.2564C4.34786 15.384 4.79362 13.7011 6.02215 12.2443C6.97073 11.1191 8.17557 10.4268 9.6216 10.1566C10.2224 10.0435 10.8286 10.0489 11.4369 10.1038C11.5543 10.1146 11.5683 10.1663 11.5683 10.2653C11.5672 10.5582 11.5672 10.8521 11.5672 11.145C11.2765 11.1525 10.9869 11.1794 10.6983 11.2333Z" fill="#6CCAD3"/>
<path d="M16.9078 3.05692C16.9272 3.37778 16.9713 3.6868 17.0413 3.9829H16.9444C16.2209 3.9829 15.4962 3.98505 14.7727 3.97859C14.6478 3.97751 14.6047 4.01735 14.6122 4.13794C14.6176 4.23592 14.6079 4.33498 14.6079 4.43296C14.6069 8.6666 14.6069 12.9002 14.6047 17.1339C14.6047 17.3341 14.6047 17.5376 14.5724 17.7347C14.3162 19.3541 12.8744 20.3091 11.3832 20.0884C10.4938 19.957 9.76489 19.4273 9.35681 18.6908C9.64322 18.8502 9.963 18.9611 10.3065 19.0117C11.7977 19.2324 13.2394 18.2773 13.4957 16.658C13.5269 16.4609 13.528 16.2574 13.528 16.0572C13.5302 11.8235 13.5302 7.58989 13.5312 3.35625C13.5312 3.25827 13.5409 3.15921 13.5355 3.06123C13.528 2.94064 13.5711 2.9008 13.696 2.90188C14.4195 2.90834 15.1441 2.90618 15.8677 2.90618C16.1584 2.90618 16.4491 2.90941 16.7398 2.90403C16.8529 2.90295 16.9003 2.92664 16.9078 3.05692Z" fill="#6CCAD3"/>
</svg>
