<svg width="29" height="29" viewBox="0 0 29 29" fill="none" xmlns="http://www.w3.org/2000/svg">
<path d="M14.4086 -3.72784e-05C18.1415 -3.72784e-05 21.8745 -0.00133017 25.6074 0.0025485C26.4328 0.0025485 27.1871 0.228804 27.8045 0.801554C28.493 1.44153 28.8353 2.24442 28.8366 3.18047C28.8405 7.92925 28.8418 12.6793 28.8366 17.4281C28.8353 18.9576 27.8368 20.2143 26.3889 20.5272C26.1499 20.5789 25.9006 20.606 25.6552 20.6073C18.1725 20.6112 10.6912 20.6112 3.20852 20.6099C1.65592 20.6099 0.414627 19.6376 0.0839587 18.1547C0.0297085 17.9103 0.00387502 17.6556 0.00387502 17.4048C0 12.6444 0 7.884 0 3.12487C0 1.51652 1.2258 0.174503 2.82489 0.0284063C3.01089 0.0115987 3.19947 0.0025485 3.38677 0.0025485C7.06028 -3.72785e-05 10.7338 -3.72784e-05 14.4086 -3.72784e-05ZM14.4241 18.5503C18.1842 18.5503 21.9442 18.5503 25.7043 18.5503C25.7947 18.5503 25.8877 18.5503 25.9755 18.5309C26.4677 18.4197 26.7777 18.0215 26.7777 17.5057C26.7777 12.7285 26.7777 7.95252 26.7777 3.1753C26.7777 3.14298 26.7777 3.11065 26.7777 3.07833C26.7505 2.51722 26.3023 2.06083 25.774 2.06083C18.2048 2.06083 10.6369 2.06083 3.06772 2.06083C2.50326 2.06083 2.06022 2.50687 2.06022 3.07445C2.06022 7.8827 2.06022 12.6923 2.06022 17.5005C2.06022 18.0901 2.52264 18.549 3.11035 18.549C6.88074 18.549 10.6524 18.549 14.4228 18.549L14.4241 18.5503Z" fill="#1568A8"/>
<path d="M17.9866 26.7925C14.7316 26.7925 11.4753 26.7925 8.22029 26.7899C8.09113 26.7899 8.03042 26.8235 7.97358 26.9489C7.43108 28.1254 6.51012 28.799 5.21457 28.8365C4.02882 28.8714 3.1156 28.322 2.50335 27.2954C2.43747 27.1855 2.36772 27.073 2.33027 26.9515C2.28635 26.808 2.20497 26.7834 2.07064 26.7873C1.74901 26.7976 1.42739 26.7938 1.10576 26.7899C0.431507 26.7808 0.0336715 26.3619 0.00783809 25.7698C-0.0179954 25.188 0.458632 24.7445 1.08897 24.7316C1.43772 24.7251 1.78647 24.7264 2.13522 24.7316C2.23597 24.7329 2.28377 24.7019 2.32122 24.6036C2.85856 23.184 4.47961 22.3811 5.94437 22.7819C6.91183 23.047 7.55767 23.6572 7.95808 24.5519C8.02138 24.6941 8.09758 24.7329 8.24483 24.7329C14.7135 24.729 21.1809 24.729 27.6496 24.7329C27.8033 24.7329 27.9622 24.7484 28.1095 24.7898C28.5822 24.9255 28.8263 25.3108 28.8315 25.7789C28.8367 26.252 28.4905 26.6541 28.0242 26.7537C27.9054 26.7795 27.7801 26.7886 27.6574 26.7886C24.4347 26.7899 21.2106 26.7899 17.9879 26.7899L17.9866 26.7925ZM5.15386 26.7989C5.71574 26.8054 6.16395 26.3555 6.17299 25.7776C6.18203 25.2242 5.71186 24.7316 5.17195 24.7264C4.58682 24.7213 4.1244 25.1634 4.12052 25.7323C4.11536 26.3257 4.56873 26.7938 5.15386 26.7989Z" fill="#AD172A"/>
<path d="M12.3589 5.10547C12.7387 5.11064 13.0913 5.21149 13.4129 5.408C14.3365 5.9717 15.2587 6.53799 16.1797 7.10686C16.9637 7.59169 17.7465 8.07653 18.5254 8.57041C19.135 8.95698 19.4593 9.52456 19.4941 10.2408C19.5316 10.9985 19.2216 11.6061 18.5809 12.0082C16.8785 13.0761 15.1722 14.1363 13.4556 15.1809C12.1187 15.9942 10.517 15.199 10.3271 13.6463C10.3103 13.508 10.3013 13.3683 10.3013 13.23C10.3 11.2286 10.2987 9.2272 10.3013 7.22581C10.3013 6.18115 11.0014 5.3356 12.0257 5.13908C12.1355 5.1184 12.2491 5.11581 12.3615 5.10547H12.3589ZM12.3641 13.4705C14.0756 12.4064 15.7573 11.3592 17.4533 10.3055C15.7509 9.24659 14.0665 8.19935 12.3641 7.14048V13.4718V13.4705Z" fill="#AD172A"/>
</svg>
