<svg width="24" height="24" viewBox="0 0 24 24" fill="none" xmlns="http://www.w3.org/2000/svg">
<path d="M7.90525 17.0995C6.50338 17.004 5.32777 16.4801 4.41552 15.4481C4.01912 14.9998 3.5639 14.1997 3.54399 13.9383C4.22909 14.026 4.91056 14.0147 5.59475 13.8488C5.54226 13.8305 5.49067 13.808 5.43728 13.7941C4.98115 13.6759 4.54675 13.5091 4.14673 13.2667C2.88152 12.5005 2.13308 11.406 1.90592 9.98735C1.87334 9.78494 1.8661 9.57992 1.84438 9.33755C2.51861 9.67982 3.20552 9.87181 3.96482 9.88397C2.97474 9.17858 2.30412 8.27772 2.02719 7.13102C1.74935 5.97823 1.94212 4.88886 2.54033 3.84988C5.10966 6.73141 8.3297 8.35069 12.3036 8.57916C12.2855 8.45494 12.2701 8.34287 12.2529 8.23081C11.8918 5.80362 13.5245 3.55452 16.0214 3.09149C17.6269 2.79352 19.0306 3.23049 20.2207 4.29814C20.3383 4.40325 20.4352 4.43366 20.5935 4.39804C21.5357 4.18694 22.4316 3.86552 23.2715 3.40336C23.2941 3.3912 23.3167 3.38078 23.3502 3.37817C22.9864 4.41715 22.3149 5.22332 21.3501 5.81752C21.6506 5.81231 21.9438 5.75932 22.2343 5.69156C22.533 5.62206 22.8307 5.54648 23.1239 5.45787C23.4117 5.37013 23.6923 5.26241 24 5.15469C23.943 5.22766 23.8959 5.28152 23.8552 5.33886C23.3158 6.09638 22.6542 6.74183 21.8922 7.29173C21.7121 7.42204 21.6443 7.55495 21.6642 7.77039C21.7212 8.3811 21.6424 8.98746 21.5655 9.59208C21.4162 10.764 21.0994 11.8942 20.6343 12.987C20.1455 14.1346 19.5066 15.1979 18.7147 16.1778C17.1952 18.0586 15.2639 19.399 12.938 20.2173C11.9615 20.5613 10.9515 20.7716 9.9189 20.8949C8.98945 21.0061 8.0591 21.0339 7.12875 20.9549C5.98481 20.8576 4.86441 20.6413 3.77748 20.2755C2.91772 19.9854 2.09507 19.6205 1.31404 19.1705C1.20996 19.1106 1.10408 19.0533 1 18.9829C3.55214 19.1949 5.86263 18.6093 7.90344 17.0986L7.90525 17.0995Z" fill="black"/>
</svg>
