<svg width="28" height="28" viewBox="0 0 28 28" fill="none" xmlns="http://www.w3.org/2000/svg">
<rect width="27.4676" height="27.4676" rx="7" fill="#47AC0E"/>
<path d="M20.1501 7.23379C18.5929 5.67812 16.5236 4.74125 14.3273 4.59751C12.1311 4.45377 9.95741 5.11295 8.21075 6.45239C6.46408 7.79183 5.26337 9.72032 4.83202 11.879C4.40067 14.0378 4.76806 16.2797 5.86583 18.1878L4.57794 22.8899L9.39001 21.6268C10.7207 22.3526 12.2123 22.7324 13.7279 22.7313C16.1428 22.7311 18.4601 21.7773 20.1757 20.0774C21.8914 18.3774 22.8667 16.0688 22.8897 13.6534C22.8765 12.4556 22.6275 11.272 22.1567 10.1705C21.686 9.06899 21.0028 8.07106 20.1462 7.23379H20.1501ZM13.7318 21.2014C12.3793 21.2007 11.052 20.8356 9.88932 20.1445L9.61589 19.9806L6.76273 20.7284L7.52357 17.9434L7.34393 17.6567C6.73734 16.6625 6.36858 15.5417 6.26643 14.3816C6.16427 13.2214 6.33148 12.0534 6.75501 10.9685C7.17854 9.88367 7.84693 8.91136 8.70804 8.12745C9.56916 7.34353 10.5997 6.76921 11.7193 6.44929C12.8389 6.12937 14.0172 6.07251 15.1624 6.28313C16.3076 6.49374 17.3886 6.96616 18.3212 7.66351C19.2538 8.36085 20.0127 9.26428 20.5386 10.3033C21.0646 11.3423 21.3435 12.4889 21.3535 13.6534C21.3323 15.6618 20.5201 17.5807 19.0932 18.9938C17.6663 20.4069 15.7398 21.2001 13.7318 21.2014ZM17.8689 15.5507C17.6444 15.4357 16.5282 14.8901 16.3195 14.8148C16.1108 14.7395 15.9602 14.6998 15.8083 14.9297C15.6564 15.1596 15.2231 15.6656 15.0884 15.8215C14.9537 15.9774 14.8242 15.9933 14.5984 15.8783C13.2919 15.3567 12.2028 14.4044 11.5114 13.1791C11.2789 12.7828 11.7439 12.8066 12.1718 11.9399C12.2015 11.8773 12.2151 11.8084 12.2117 11.7392C12.2082 11.6701 12.1877 11.6028 12.152 11.5435C12.0952 11.4286 11.6408 10.3122 11.4533 9.85899C11.2657 9.40583 11.0808 9.47849 10.9421 9.47056C10.8034 9.46264 10.6594 9.46264 10.5088 9.46264C10.394 9.4659 10.2811 9.49267 10.177 9.5413C10.073 9.58993 9.98001 9.65938 9.90385 9.74537C9.64774 9.98875 9.44503 10.2827 9.3086 10.6087C9.17216 10.9346 9.10497 11.2853 9.1113 11.6386C9.18644 12.4937 9.5076 13.3087 10.0359 13.9851C11.0096 15.4436 12.345 16.6244 13.9115 17.4122C14.7346 17.8885 15.689 18.0877 16.6339 17.9803C16.9498 17.9164 17.2489 17.7875 17.5122 17.6016C17.7756 17.4158 17.9974 17.1772 18.1635 16.9009C18.3119 16.5617 18.3578 16.1865 18.2956 15.8215C18.2441 15.7185 18.0935 15.6603 17.8689 15.5507Z" fill="white"/>
</svg>
