<svg width="15" height="14" viewBox="0 0 15 14" fill="none" xmlns="http://www.w3.org/2000/svg">
<path d="M12.3232 2.08208C11.1442 0.904597 9.57769 0.195492 7.91501 0.0866964C6.25233 -0.022099 4.60673 0.476825 3.28441 1.49064C1.96209 2.50445 1.05308 3.96411 0.72653 5.59804C0.399976 7.23197 0.678109 8.92889 1.50918 10.3731L0.53418 13.9321L4.17718 12.9761C5.18455 13.5254 6.31377 13.8129 7.46118 13.8121C9.28944 13.8119 11.0437 13.09 12.3425 11.8033C13.6414 10.5166 14.3798 8.76925 14.3972 6.94108C14.3872 6.03442 14.1986 5.13861 13.8423 4.30487C13.4859 3.47113 12.9687 2.7158 12.3202 2.08208H12.3232ZM7.46418 12.6541C6.44026 12.6535 5.43539 12.3772 4.55518 11.8541L4.34818 11.7301L2.18818 12.2961L2.76418 10.1881L2.62818 9.97108C2.16896 9.21864 1.88979 8.37029 1.81245 7.49219C1.73512 6.61409 1.8617 5.72999 2.18234 4.90887C2.50297 4.08776 3.00898 3.35182 3.66089 2.75848C4.3128 2.16514 5.09299 1.73044 5.94057 1.4883C6.78816 1.24615 7.68023 1.20311 8.5472 1.36253C9.41416 1.52194 10.2326 1.87951 10.9386 2.40733C11.6446 2.93515 12.2191 3.61894 12.6173 4.40538C13.0155 5.19181 13.2266 6.05961 13.2342 6.94108C13.2181 8.46115 12.6033 9.91356 11.523 10.9831C10.4428 12.0527 8.98434 12.6531 7.46418 12.6541ZM10.5962 8.37708C10.4262 8.29008 9.58118 7.87708 9.42318 7.82008C9.26518 7.76308 9.15118 7.73308 9.03618 7.90708C8.92118 8.08108 8.59318 8.46408 8.49118 8.58208C8.38918 8.70008 8.29118 8.71208 8.12018 8.62508C7.13115 8.23026 6.30663 7.50947 5.78318 6.58208C5.60718 6.28208 5.95918 6.30008 6.28318 5.64408C6.30559 5.59671 6.31595 5.54453 6.31333 5.49219C6.31072 5.43986 6.29521 5.38897 6.26818 5.34408C6.22518 5.25708 5.88118 4.41208 5.73918 4.06908C5.59718 3.72608 5.45718 3.78108 5.35218 3.77508C5.24718 3.76908 5.13818 3.76908 5.02418 3.76908C4.93726 3.77155 4.85178 3.79181 4.773 3.82862C4.69423 3.86542 4.62384 3.91799 4.56618 3.98308C4.37229 4.16729 4.21883 4.38981 4.11554 4.63651C4.01225 4.8832 3.96139 5.14868 3.96618 5.41608C4.02307 6.06326 4.2662 6.68012 4.66618 7.19208C5.40331 8.296 6.41424 9.18979 7.60018 9.78608C8.22335 10.1466 8.94585 10.2973 9.66118 10.2161C9.90033 10.1677 10.1268 10.0701 10.3262 9.92943C10.5255 9.78878 10.6934 9.60816 10.8192 9.39908C10.9315 9.14233 10.9663 8.85833 10.9192 8.58208C10.8802 8.50408 10.7662 8.46008 10.5962 8.37708Z" fill="white"/>
</svg>
