<svg width="50" height="50" viewBox="0 0 50 50" fill="none" xmlns="http://www.w3.org/2000/svg">
<path d="M11.1697 16.0388C11.1697 16.6635 11.1697 17.2715 11.1697 17.8794C11.1697 19.0115 11.1634 20.1414 11.176 21.2734C11.1781 21.5082 11.1004 21.5711 10.8799 21.5711C9.84235 21.5732 8.80483 21.5879 7.7673 21.5984C7.7253 21.5984 7.68329 21.5921 7.62029 21.5879V16.0262H2.14493L2.12183 15.9696C2.27935 15.8543 2.43266 15.7369 2.59228 15.6258C4.86896 14.0347 7.14353 12.4393 9.4244 10.8545C12.0266 9.04531 14.6372 7.24663 17.2373 5.43537C19.682 3.73521 22.1183 2.02248 24.5588 0.316031C24.6239 0.272007 24.6869 0.225887 24.752 0.18396C25.128 -0.0613155 25.2624 -0.0634119 25.6278 0.190249C31.1221 4.01822 36.6164 7.84619 42.1106 11.6742C44.1185 13.0724 46.1284 14.4665 48.1384 15.8627C48.1804 15.8921 48.2203 15.9214 48.2539 16.0032H42.7743C42.7743 16.7201 42.7617 17.3952 42.7806 18.0723C42.789 18.3238 42.705 18.3784 42.474 18.3763C41.4533 18.3616 40.4346 18.3637 39.4139 18.3574C39.3551 18.3574 39.2963 18.3406 39.2207 18.328V16.0367H11.1697V16.0388ZM25.1658 11.322C25.6615 11.322 26.1592 11.3262 26.6549 11.322C27.0224 11.3178 27.0938 11.2528 27.1085 10.8817C27.1211 10.5778 27.1085 10.2738 27.1085 9.96981C27.1043 9.25705 27.098 8.54638 27.0959 7.83361C27.0959 7.6072 26.9867 7.50239 26.762 7.50029C25.735 7.4961 24.7079 7.47933 23.6809 7.48771C23.3323 7.48981 23.2777 7.56737 23.2735 7.94682C23.2651 8.92792 23.263 9.91111 23.2651 10.8943C23.2651 11.2444 23.3407 11.3178 23.7019 11.322C24.1892 11.3304 24.6764 11.322 25.1658 11.322Z" fill="#1568A8"/>
<path d="M15.6096 46.2328C15.5907 45.9498 15.5886 45.671 15.5487 45.3985C15.198 43.0505 13.1838 41.1114 10.8127 40.8913C8.77541 40.7026 7.10991 41.4154 5.85396 43.0547C5.17978 43.9352 4.82694 44.9205 4.78493 46.0211C4.77863 46.2077 4.72193 46.2831 4.5203 46.2727C4.18216 46.2538 3.83982 46.2768 3.50168 46.2622C2.59227 46.2202 2.0294 45.6521 2.0168 44.7465C2.0021 43.8157 2.0105 42.8849 2 41.9541C2 41.7885 2.06091 41.7445 2.21633 41.7445C2.62588 41.7445 3.03542 41.7298 3.44287 41.7235C3.73901 41.7193 3.87132 41.5349 3.88813 41.277C3.90913 40.9479 3.91123 40.6145 3.88603 40.2875C3.85872 39.95 3.6865 39.8054 3.32946 39.7928C2.96402 39.7802 2.59647 39.7823 2.23103 39.7886C2.07351 39.7907 2 39.7655 2.0021 39.5768C2.0126 37.8285 1.9958 36.078 2.0231 34.3296C2.0294 33.9397 2.11551 33.5288 2.26463 33.1703C3.30846 30.6694 4.37959 28.1789 5.44021 25.6863C5.58303 25.3509 5.71955 25.0113 5.85816 24.6759C6.25931 23.7094 7.0259 23.2881 8.03192 23.2482C8.51078 23.2294 8.99174 23.2461 9.4706 23.2461C12.3311 23.2461 15.1917 23.2503 18.0501 23.2419C18.3169 23.2419 18.3883 23.3132 18.3883 23.5753C18.3799 30.7197 18.3799 37.8641 18.3778 45.0064C18.3778 45.3544 18.382 45.7024 18.3883 46.0504C18.3904 46.1993 18.3442 46.2747 18.1803 46.2747C17.378 46.2706 16.5757 46.2747 15.7735 46.2706C15.723 46.2706 15.6726 46.2517 15.6096 46.2391V46.2328ZM15.5067 33.3674V26.1265C15.4521 26.114 15.4353 26.1056 15.4185 26.1056C13.1355 26.1056 10.8526 26.1056 8.56749 26.0972C8.40157 26.0972 8.31546 26.1538 8.25245 26.3026C7.28423 28.5898 6.30972 30.8748 5.3394 33.1599C5.3142 33.2207 5.3058 33.2877 5.28479 33.3674H15.5067Z" fill="#1568A8"/>
<path d="M31.6577 46.2664C29.9313 46.2664 28.2322 46.2664 26.531 46.2664C24.4727 46.2664 22.4166 46.2601 20.3583 46.2706C20.1 46.2706 20.0601 46.1846 20.0622 45.9582C20.0706 43.9143 20.0727 41.8682 20.0643 39.8243C20.0643 39.5978 20.121 39.5245 20.3562 39.5245C29.591 39.5308 38.8258 39.5308 48.0606 39.5245C48.3169 39.5245 48.382 39.602 48.3799 39.8515C48.3694 41.3127 48.3715 42.7759 48.3736 44.2371C48.3736 45.0023 48.0879 45.6165 47.4201 46.0044C47.1953 46.1343 46.9181 46.2433 46.6619 46.2475C45.345 46.2727 44.0303 46.2559 42.7134 46.2622C42.5349 46.2622 42.5202 46.1658 42.516 46.0316C42.4572 44.7214 42.0035 43.5684 41.1004 42.6124C40.0713 41.5202 38.8132 40.9144 37.2884 40.8724C35.8036 40.8326 34.4909 41.2624 33.4261 42.2938C32.3739 43.3126 31.7144 44.5453 31.6829 46.0526C31.6829 46.1113 31.6703 46.17 31.6598 46.2685L31.6577 46.2664Z" fill="#1568A8"/>
<path d="M27.495 20.0471C27.495 20.4684 27.495 20.8437 27.495 21.2168C27.495 21.9652 27.4908 22.7136 27.495 23.462C27.5013 24.0805 27.831 24.4243 28.4443 24.4306C29.3516 24.441 30.2568 24.439 31.1641 24.4285C31.7564 24.4222 32.0945 24.0679 32.0966 23.4704C32.1008 22.4432 32.0966 21.4181 32.0966 20.3909C32.0966 20.2965 32.0966 20.2001 32.0966 20.0533C32.3108 20.0533 32.5083 20.0533 32.7036 20.0533C33.1047 20.0533 33.5059 20.0596 33.907 20.0492C34.1066 20.045 34.178 20.1058 34.1759 20.3175C34.1696 22.7786 34.1717 25.2419 34.1717 27.7051C34.1717 27.8351 34.1759 27.9671 34.1675 28.0971C34.1423 28.5353 33.9049 28.7617 33.4639 28.7638C32.7141 28.768 31.9643 28.7638 31.2145 28.7638C29.549 28.7638 27.8835 28.7638 26.218 28.7638C25.6509 28.7638 25.4388 28.5604 25.4388 27.9986C25.4388 25.5102 25.4388 23.0218 25.4388 20.5355C25.4388 20.0492 25.4367 20.0513 25.9387 20.0513C26.4427 20.0513 26.9468 20.0513 27.4908 20.0513L27.495 20.0471Z" fill="#1568A8"/>
<path d="M27.3668 29.8204H29.3999C29.4062 29.9021 29.4167 29.986 29.4167 30.0698C29.4104 32.4534 29.4041 34.8391 29.3957 37.2227C29.3957 37.4491 29.4104 37.6755 29.3915 37.8998C29.3621 38.2478 29.1752 38.4302 28.8244 38.4658C28.6774 38.4805 28.5283 38.4784 28.3792 38.4784C26.0857 38.4784 23.7922 38.4784 21.4987 38.4784C21.4294 38.4784 21.3601 38.4784 21.2887 38.4742C20.9548 38.4532 20.7762 38.3023 20.7279 37.9669C20.6985 37.7614 20.6985 37.5497 20.6964 37.3421C20.6943 34.8789 20.6943 32.4178 20.6943 29.9545C20.6943 29.921 20.7006 29.8854 20.7048 29.8267H22.7673C22.7673 29.9294 22.7673 30.03 22.7673 30.1306C22.7673 31.1306 22.7631 32.1327 22.7673 33.1326C22.7694 33.8601 23.0739 34.1682 23.7985 34.1745C24.6533 34.1808 25.5081 34.1787 26.3629 34.1745C27.0791 34.1703 27.3584 33.8768 27.3521 33.1683C27.3437 32.0803 27.3416 30.9922 27.3395 29.9063C27.3395 29.8833 27.3521 29.8581 27.3626 29.8204H27.3668Z" fill="#1568A8"/>
<path d="M39.6344 29.8183H41.7263C41.7263 29.9231 41.7263 30.0174 41.7263 30.1097C41.7263 31.1704 41.7263 32.2312 41.7263 33.2941C41.7263 33.8202 42.0245 34.1641 42.5475 34.1745C43.5241 34.1934 44.5007 34.1955 45.4752 34.1766C46.0234 34.1661 46.3237 33.8286 46.3279 33.2605C46.3342 32.2165 46.33 31.1725 46.33 30.1285C46.33 30.0342 46.33 29.9378 46.33 29.8225H48.3799C48.3799 29.9545 48.3799 30.0908 48.3799 30.225C48.3799 32.7134 48.3757 35.1997 48.3757 37.6881C48.3757 38.296 48.214 38.4742 47.6112 38.4742C45.2148 38.4763 42.8163 38.4763 40.4199 38.4742C39.8487 38.4742 39.6764 38.3044 39.6386 37.7342C39.6323 37.6482 39.6323 37.5602 39.6323 37.4742C39.6323 35.0215 39.6323 32.5687 39.6323 30.116C39.6323 30.0216 39.6323 29.9273 39.6323 29.8141L39.6344 29.8183Z" fill="#1568A8"/>
<path d="M34.934 24.2063C34.934 22.9191 34.9382 21.6319 34.9298 20.3447C34.9298 20.1288 34.9718 20.0366 35.2197 20.0471C35.7237 20.068 36.2299 20.0596 36.7361 20.0471C36.9293 20.0429 36.9986 20.1037 36.9965 20.2986C36.986 21.2462 36.9818 22.1958 36.9797 23.1434C36.9797 23.3593 36.9713 23.5794 37.007 23.7912C37.0721 24.1622 37.3514 24.4222 37.7295 24.4285C38.7754 24.4431 39.8213 24.4432 40.8673 24.4243C41.2663 24.418 41.5645 24.0868 41.575 23.6591C41.5939 22.9296 41.5834 22.1979 41.5834 21.4663C41.5834 21.0743 41.5834 20.6823 41.5687 20.2923C41.5624 20.1079 41.6338 20.0471 41.8124 20.0492C42.3437 20.0554 42.8751 20.0575 43.4086 20.0492C43.585 20.045 43.6375 20.11 43.6354 20.2756C43.627 20.72 43.6291 21.1623 43.6291 21.6068C43.6291 23.6947 43.6291 25.7827 43.6291 27.8707C43.6291 28.5541 43.4254 28.7617 42.747 28.7638C40.401 28.7638 38.0571 28.7638 35.7111 28.7638C35.1483 28.7638 34.9361 28.5541 34.9361 27.9944C34.9361 26.7324 34.9361 25.4725 34.9361 24.2105L34.934 24.2063Z" fill="#1568A8"/>
<path d="M30.1938 29.8057C30.8491 29.8057 31.4749 29.8057 32.1008 29.8057C32.2877 29.8057 32.252 29.9356 32.252 30.0426C32.2499 30.9901 32.2436 31.9398 32.2415 32.8873C32.2415 33.0529 32.2415 33.2186 32.2541 33.3821C32.2898 33.7846 32.5545 34.0865 32.9556 34.1431C33.2034 34.1787 33.4597 34.1745 33.7117 34.1766C34.4006 34.1808 35.0895 34.1829 35.7784 34.1766C36.5533 34.1703 36.8474 33.8642 36.8432 33.0886C36.8369 32.0614 36.8348 31.0362 36.8327 30.009C36.8327 29.9503 36.8411 29.8916 36.8474 29.8203H38.8867C38.8909 29.9126 38.8993 29.9964 38.8993 30.0803C38.8993 32.6127 38.8993 35.143 38.9014 37.6754C38.9014 38.2939 38.7292 38.4783 38.118 38.4804C35.791 38.4804 33.4618 38.4804 31.1347 38.4762C30.3366 38.4762 30.198 38.3295 30.1959 37.5224C30.1938 35.1137 30.1959 32.7028 30.1959 30.2941C30.1959 30.139 30.1959 29.9839 30.1959 29.8078L30.1938 29.8057Z" fill="#1568A8"/>
<path d="M37.1078 42.5474C39.1661 42.5474 40.8379 44.2623 40.8316 46.3628C40.8274 48.3103 39.0548 50.0042 37.0259 50C35.0139 49.9958 33.3106 48.2516 33.3652 46.1574C33.4177 44.2015 35.0244 42.5831 37.1057 42.5474H37.1078ZM37.1036 44.9918C36.358 44.9918 35.8099 45.5348 35.812 46.2727C35.812 46.9917 36.3664 47.541 37.091 47.5431C37.7778 47.5431 38.3722 46.9582 38.3659 46.2853C38.3596 45.5515 37.8114 44.9918 37.1036 44.9939V44.9918Z" fill="#AD172A"/>
<path d="M13.9105 46.2538C13.9168 48.3103 12.2639 49.9685 10.1994 49.979C8.16843 49.9895 6.47143 48.2977 6.46933 46.2622C6.46933 44.2329 8.16423 42.5516 10.2099 42.5495C12.2534 42.5495 13.9021 44.1993 13.9105 46.2559V46.2538ZM10.2288 44.9939C9.47269 44.9939 8.90982 45.5452 8.90982 46.281C8.90982 46.9603 9.49369 47.5472 10.1721 47.5535C10.9072 47.5598 11.4784 47.0043 11.4805 46.2831C11.4826 45.5557 10.9366 44.9918 10.2288 44.9939Z" fill="#AD172A"/>
<path d="M44.6393 32.5079H43.4149V29.8267H44.6393V32.5079Z" fill="#AD172A"/>
<path d="M39.9012 21.3804C39.9012 21.7703 39.897 22.1623 39.9012 22.5522C39.9012 22.7053 39.8486 22.7723 39.6869 22.7661C39.3992 22.7556 39.1136 22.7598 38.8258 22.764C38.6935 22.764 38.6452 22.7116 38.6452 22.5753C38.6494 21.8017 38.6494 21.0282 38.6452 20.2567C38.6452 20.0953 38.7082 20.0408 38.8615 20.0429C39.1409 20.0492 39.4181 20.0513 39.6974 20.0429C39.8612 20.0366 39.9075 20.1058 39.9054 20.2588C39.8991 20.632 39.9033 21.0051 39.9033 21.3783L39.9012 21.3804Z" fill="#AD172A"/>
<path d="M33.949 29.8203H35.1735C35.1735 29.9273 35.1735 30.0195 35.1735 30.1117C35.1735 30.7889 35.1735 31.466 35.1735 32.1431C35.1735 32.3947 35.0433 32.5205 34.7828 32.5205C34.5308 32.5205 34.2788 32.5205 34.0267 32.5163C34.0099 32.5163 33.9931 32.5079 33.9511 32.4953V29.8182L33.949 29.8203Z" fill="#AD172A"/>
<path d="M30.4038 22.7325H29.1857V20.0764H30.4038V22.7325Z" fill="#AD172A"/>
<path d="M24.4433 32.5205V29.8078C24.815 29.8078 25.1868 29.8036 25.5585 29.8141C25.6005 29.8141 25.6761 29.9147 25.6761 29.9671C25.6866 30.7574 25.6887 31.5478 25.6782 32.3381C25.6782 32.3989 25.5606 32.5079 25.4955 32.5121C25.1574 32.531 24.8192 32.5205 24.4433 32.5205Z" fill="#AD172A"/>
</svg>
