<svg width="28" height="28" viewBox="0 0 28 28" fill="none" xmlns="http://www.w3.org/2000/svg">
<path d="M14.2145 27.4664C10.6523 27.4664 7.08909 27.4664 3.52693 27.4664C2.08398 27.4664 0.915614 26.5738 0.567797 25.1945C0.507494 24.9543 0.471959 24.7002 0.471959 24.4526C0.467651 17.3008 0.467651 10.148 0.467651 2.99622C0.467651 1.49416 1.57894 0.228978 3.06389 0.0340864C3.23619 0.0114747 3.41171 0.000707266 3.58508 0.000707266C10.6706 -0.000369481 17.7551 -0.000369481 24.8407 0.00178401C25.6343 0.00178401 26.3612 0.212827 26.9545 0.769505C27.6114 1.38648 27.9333 2.15743 27.9333 3.05436C27.9366 8.87849 27.9344 14.7037 27.9344 20.5278C27.9344 21.8242 27.9366 23.1206 27.9344 24.417C27.9333 24.9953 27.7966 25.5433 27.4972 26.0408C27.0331 26.8106 26.3353 27.2467 25.4631 27.4104C25.2369 27.4524 25.0011 27.4653 24.7696 27.4653C21.2516 27.4685 17.7336 27.4675 14.2156 27.4675L14.2145 27.4664ZM22.9411 4.17203C22.8636 4.16664 22.8119 4.16018 22.7613 4.15911C22.4081 4.15695 22.0538 4.17526 21.7028 4.14942C21.412 4.12788 21.229 4.22587 21.0405 4.45306C20.2146 5.44582 19.3639 6.41812 18.5218 7.39689C17.5925 8.47794 16.6632 9.559 15.7328 10.639C15.5788 10.8166 15.4205 10.99 15.2526 11.1784C15.1912 11.0869 15.1395 11.0094 15.0878 10.9329C13.563 8.72344 12.0382 6.51395 10.5166 4.30231C10.4413 4.19249 10.3605 4.15372 10.2313 4.15372C8.47928 4.15695 6.72728 4.1548 4.97419 4.1548C4.93758 4.1548 4.90097 4.16234 4.83421 4.1688C7.27861 7.7253 9.70579 11.2581 12.1437 14.806C9.71872 17.6249 7.29692 20.4417 4.87405 23.2595C4.88912 23.2692 4.89559 23.2778 4.90205 23.2778C5.4157 23.2789 5.93042 23.2811 6.44407 23.2778C6.48499 23.2778 6.5356 23.2445 6.56467 23.2111C7.12247 22.565 7.67597 21.9158 8.23269 21.2686C9.04247 20.3265 9.85332 19.3854 10.6653 18.4454C11.3803 17.6163 12.0974 16.7894 12.8146 15.9624C12.834 15.9398 12.8598 15.9237 12.8889 15.9C12.9148 15.9355 12.9363 15.9624 12.9557 15.9904C14.6011 18.3829 16.2465 20.7755 17.8886 23.1691C17.9457 23.252 18.0017 23.2843 18.104 23.2843C19.87 23.2811 21.6349 23.2821 23.4009 23.2821C23.4462 23.2821 23.4914 23.2821 23.5603 23.2821C23.5226 23.2186 23.5032 23.1842 23.4817 23.1519C23.247 22.8095 23.0122 22.466 22.7775 22.1236C21.3022 19.9776 19.8269 17.8316 18.3517 15.6857C17.5904 14.5777 16.829 13.4697 16.0634 12.3639C16.0074 12.2832 16.0203 12.2358 16.0785 12.169C16.338 11.8675 16.5889 11.5596 16.8484 11.257C17.6399 10.3343 18.4346 9.41471 19.2271 8.49302C20.2587 7.29352 21.2893 6.09402 22.3209 4.89345C22.5212 4.66087 22.7215 4.42829 22.9422 4.17203H22.9411Z" fill="black"/>
<path d="M21.2774 22.0945C21.2182 22.0977 21.1805 22.1009 21.1417 22.1009C20.3998 22.1009 19.6578 22.0998 18.9159 22.1031C18.8157 22.1031 18.7533 22.0718 18.6951 21.9889C17.1348 19.7504 15.5713 17.5118 14.0077 15.2754C12.5798 13.2328 11.1487 11.1902 9.72082 9.14764C8.90889 7.98691 8.09911 6.8251 7.28826 5.66436C7.23226 5.58468 7.17196 5.50823 7.10089 5.4124C7.15581 5.40487 7.18811 5.39625 7.22042 5.39625C7.8999 5.39625 8.57938 5.40164 9.25886 5.3941C9.49684 5.39194 9.65729 5.45224 9.80697 5.66867C11.7367 8.45099 13.6803 11.2247 15.6208 13.9995C17.4202 16.574 19.2206 19.1474 21.02 21.7208C21.1029 21.8403 21.1859 21.9588 21.2795 22.0934L21.2774 22.0945Z" fill="black"/>
</svg>
