<svg width="24" height="24" viewBox="0 0 24 24" fill="none" xmlns="http://www.w3.org/2000/svg">
<path d="M10.8839 20.9603C9.85459 20.919 8.68425 20.8832 7.51578 20.8221C6.6547 20.777 5.79457 20.7112 4.93631 20.6323C4.12506 20.5571 3.3138 20.4687 2.50725 20.3568C1.45065 20.2102 0.503088 19.2673 0.365842 18.2079C0.258678 17.3816 0.194755 16.5487 0.129892 15.7177C0.0772501 15.0456 0.0405886 14.3716 0.0180277 13.6976C-0.000773083 13.1091 -0.00829339 12.5197 0.0123875 11.9313C0.0509291 10.8286 0.101691 9.72686 0.170314 8.62608C0.209796 7.99625 0.277478 7.36737 0.362082 6.74224C0.515308 5.61889 1.55217 4.66476 2.68586 4.55853C3.43507 4.48803 4.1824 4.39214 4.93067 4.316C5.36497 4.27182 5.80115 4.23986 6.23732 4.21354C7.22249 4.15431 8.20765 4.08193 9.19375 4.05091C10.3838 4.01331 11.5739 4.00297 12.764 4.00015C13.5095 3.99827 14.2549 4.01425 14.9994 4.05091C16.0946 4.10449 17.1888 4.17124 18.282 4.2549C19.1835 4.32446 20.0832 4.42317 20.9837 4.51717C21.324 4.55289 21.6718 4.57169 21.9886 4.71458C22.954 5.14982 23.5425 5.87083 23.6675 6.94247C23.8396 8.42303 23.943 9.90829 23.9834 11.3973C24.0172 12.657 24.0031 13.9166 23.9063 15.1734C23.833 16.1257 23.7493 17.077 23.6647 18.0274C23.5566 19.2401 22.5348 20.2609 21.3259 20.3822C20.5654 20.4583 19.8068 20.5552 19.0463 20.6285C18.4249 20.6877 17.8017 20.7263 17.1794 20.7733C15.5127 20.8983 13.8432 20.9359 12.1737 20.9584C11.7911 20.9631 11.4085 20.9584 10.8849 20.9584L10.8839 20.9603ZM10.0097 8.48131V16.4698C12.0233 15.1302 14.0105 13.8085 16.0184 12.4727C14.002 11.1332 12.012 9.81147 10.0097 8.48131Z" fill="black"/>
</svg>
